<svg xmlns="http://www.w3.org/2000/svg" xmlns:xlink="http://www.w3.org/1999/xlink" width="820" height="180.24" viewBox="0 0 820 180.24">
  <defs>
    <clipPath id="clip-path">
      <path id="Rect치ngulo_401268" data-name="Rect치ngulo 401268" d="M30,0H820a0,0,0,0,1,0,0V150.24a30,30,0,0,1-30,30H0a0,0,0,0,1,0,0V30A30,30,0,0,1,30,0Z" transform="translate(-6229 -12260)" fill="#567d56" stroke="#707070" stroke-width="1"/>
    </clipPath>
    <linearGradient id="linear-gradient" x1="0.787" y1="0.406" x2="0.352" y2="0.464" gradientUnits="objectBoundingBox">
      <stop offset="0" stop-color="#ded6fd"/>
      <stop offset="1" stop-color="#ac9afc"/>
    </linearGradient>
    <clipPath id="clip-path-2">
      <rect id="Rect치ngulo_402113" data-name="Rect치ngulo 402113" width="458.93" height="528.097" fill="#ac9afc"/>
    </clipPath>
  </defs>
  <g id="fnd-1" transform="translate(257.818 -5059.79)">
    <g id="Grupo_1101236" data-name="Grupo 1101236" transform="translate(-601.518 3494.218)">
      <g id="Grupo_1101151" data-name="Grupo 1101151" transform="translate(-46.301 -61.746)">
        <g id="Enmascarar_grupo_1098728" data-name="Enmascarar grupo 1098728" transform="translate(6619 13887.319)" clip-path="url(#clip-path)">
          <path id="Recurso_1" data-name="Recurso 1" d="M0,0H832.833V249.389H0Z" transform="translate(-5396.167 -12067.29) rotate(180)" fill="url(#linear-gradient)"/>
          <g id="Grupo_1101017" data-name="Grupo 1101017" transform="translate(-6184.478 -12458.301)" opacity="0.08" style="mix-blend-mode: multiply;isolation: isolate">
            <g id="Grupo_1101016" data-name="Grupo 1101016" transform="translate(0 0)" clip-path="url(#clip-path-2)">
              <path id="Trazado_876378" data-name="Trazado 876378" d="M403.717,68.464a38.6,38.6,0,0,1,3.828,1.778A41.285,41.285,0,0,1,417.9,78.325,78.3,78.3,0,0,1,429.927,95.8c.972,1.845,1.944,3.771,2.886,5.8.477,1.061.954,2.142,1.449,3.244q.635,1.561,1.288,3.177c1.711,4.353,3.685,8.773,5.473,13.808,7.494,20.276,13.844,45.715,16.593,75.906a289.247,289.247,0,0,1,.549,48.148,293.8,293.8,0,0,1-7.959,52.6,310.909,310.909,0,0,1-18.65,53.967q-3.211,6.58-6.475,13.274-3.613,6.377-7.292,12.855a293.927,293.927,0,0,1-16.813,25.2c-12.139,16.254-26.376,31.1-41.818,45.066-15.418,14-32.583,26.751-51.584,36.429a172.861,172.861,0,0,1-61.261,17.937,216.1,216.1,0,0,1-32.529.547c-5.282-.581-10.279-.622-15.841-1.642-5.432-.973-11.1-1.4-16.348-2.893-42.731-9.59-83.774-33.32-114.849-68.823a264.136,264.136,0,0,1-39.016-59.773c-5.038-11.023-9.635-22.182-13.582-33.7a273.751,273.751,0,0,1-9.963-35.354c-4.925-24.135-5.271-49.189-2.242-73.209,3.035-23.946,8.973-47.52,19.264-68.451,10.064-20.925,25.011-39.132,43.84-49.635,18.59-9.949,37.877-12.841,53.188-21.682,15.508-8.908,27.986-23.98,42.534-35.685,14.548-12,29.572-21.749,45.014-28.785C236.587,10.117,267.166,4.278,294.1,4.163c27.074.155,50.8,6.941,68.177,17.478,17.606,10.266,28.261,23.8,34.521,33.1a88.991,88.991,0,0,1,6.481,11.314c1.341,2.636,2.039,3.994,2.039,3.994a3.981,3.981,0,0,1-1.192,5.055,3.031,3.031,0,0,1-4.293-1.048l-.2-.311s-.751-1.2-2.206-3.528a85.509,85.509,0,0,0-6.791-9.861A96.256,96.256,0,0,0,357.493,32.7c-16.1-8.759-38.08-13.537-63.223-12.706-25.244.757-53.659,7.279-82.415,20.911q-10.794,5-21.66,11.213a220.859,220.859,0,0,0-21.613,13.578c-7.327,5.15-14.16,10.672-21.565,16.741-7.339,5.968-15.12,12.22-23.849,17.106-17.719,10.131-37.007,12.6-53.212,22.229C54.091,131.1,41.118,147.533,32.5,166.8c-8.854,19.248-13.856,41.126-15.967,63.639s-1.389,45.431,1.169,68.384a243.533,243.533,0,0,0,6.046,34.266,178.822,178.822,0,0,0,12.2,32.5,206.71,206.71,0,0,0,38.915,55.191c30.884,31.691,69.185,54.19,109.405,62.382,40.763,8.908,80.62-.716,117.1-15.268a231.046,231.046,0,0,0,51.59-28.69c15.824-11.861,29.417-26.507,41.169-42.025A240,240,0,0,0,410.2,373.169q3.47-6.407,6.892-12.713,3.014-6.5,5.974-12.882a291.887,291.887,0,0,0,16.783-52.19,329.137,329.137,0,0,0,6.916-96.5,315.71,315.71,0,0,0-14.327-72.912c-1.556-4.886-3.458-9.536-5.02-13.9q-.6-1.632-1.192-3.224c-.393-.96-.781-1.9-1.169-2.832q-1.261-2.869-2.433-5.542a71.159,71.159,0,0,0-9.885-16.167,35.224,35.224,0,0,0-8.126-7.157,34.594,34.594,0,0,0-3.369-1.811,3.9,3.9,0,0,1-1.795-4.839,3.153,3.153,0,0,1,4.269-2.034" transform="translate(-0.003 23.975)" fill="#ac9afc"/>
              <path id="Trazado_876379" data-name="Trazado 876379" d="M359.588,65.5a34.125,34.125,0,0,1,3.375,1.561,36.382,36.382,0,0,1,9.176,7.124,69.211,69.211,0,0,1,10.636,15.383q1.288,2.433,2.546,5.1c.423.939.847,1.892,1.282,2.866.376.912.751,1.838,1.133,2.785,1.508,3.812,3.243,7.678,4.823,12.1,6.618,17.829,12.21,40.16,14.643,66.7a252.3,252.3,0,0,1,.495,42.316,257.211,257.211,0,0,1-7.017,46.229,272.3,272.3,0,0,1-16.438,47.4q-2.817,5.779-5.694,11.659-3.184,5.6-6.415,11.28a259.938,259.938,0,0,1-14.774,22.148c-10.666,14.288-23.181,27.311-36.7,39.653-13.51,12.368-28.553,23.682-45.253,32.266a151.865,151.865,0,0,1-53.9,15.795,191.489,191.489,0,0,1-28.648.406,200.82,200.82,0,0,1-28.308-4.021A190.42,190.42,0,0,1,63.592,383.631a234.614,234.614,0,0,1-34.223-52.616c-4.424-9.7-8.46-19.5-11.972-29.6a241.994,241.994,0,0,1-8.9-31.056c-4.412-21.215-4.7-43.282-2.009-64.409,2.7-21.06,7.948-41.809,17.034-60.233,8.884-18.424,22.072-34.462,38.712-43.721,16.4-8.746,33.316-11.294,46.648-19,13.522-7.759,24.427-21.026,37.186-31.373,12.783-10.611,25.965-19.228,39.559-25.412a190.586,190.586,0,0,1,77.7-17.464c23.831.169,44.7,6.2,60,15.518a93.216,93.216,0,0,1,30.335,29.258,78.24,78.24,0,0,1,5.676,9.982c1.175,2.325,1.777,3.521,1.777,3.521a3.814,3.814,0,0,1-1.157,4.839,2.9,2.9,0,0,1-4.09-.994l-.191-.3-1.944-3.075a76.069,76.069,0,0,0-5.968-8.59,84.117,84.117,0,0,0-29.024-24.04c-14.065-7.61-33.275-11.719-55.251-10.949-22.078.689-46.91,6.434-72.046,18.377a260.606,260.606,0,0,0-37.883,21.58c-6.439,4.494-12.413,9.286-18.942,14.6-6.451,5.218-13.307,10.719-21,15.018C97.982,102.426,81.061,104.568,66.943,113c-13.79,8.131-25.095,22.479-32.6,39.308C26.645,169.12,22.3,188.24,20.48,207.928s-1.169,39.7.984,59.787a211.35,211.35,0,0,0,5.145,30.015,152.777,152.777,0,0,0,10.636,28.454,179.354,179.354,0,0,0,34.133,48.229c27.08,27.636,60.563,47.324,95.734,54.447,4.388,1.19,8.669,1.372,12.986,2.129,4.2.737,9.092.527,13.588.831a150.782,150.782,0,0,0,25.989-2.061,231.013,231.013,0,0,0,49.79-14.342,202.524,202.524,0,0,0,45.253-24.851c13.892-10.314,25.792-23.155,36.083-36.74a207.755,207.755,0,0,0,14.059-21.006q3.041-5.616,6.028-11.145,2.638-5.687,5.223-11.287a255.51,255.51,0,0,0,14.649-45.7,289.912,289.912,0,0,0,6.046-84.462A278.062,278.062,0,0,0,384.331,116.4c-1.359-4.278-3.023-8.367-4.382-12.2-.358-.96-.7-1.9-1.043-2.825-.346-.838-.686-1.663-1.014-2.474q-1.1-2.514-2.123-4.853A62.5,62.5,0,0,0,367.19,79.92c-5.622-6.522-9.867-7.563-9.975-7.833l-1.52-3.765a2.805,2.805,0,0,1,1.151-3.508,2.159,2.159,0,0,1,2.743.689" transform="translate(23.64 50.361)" fill="#ac9afc"/>
              <path id="Trazado_876380" data-name="Trazado 876380" d="M165.658,286.323a21.822,21.822,0,0,0,5.831,2.812,20.156,20.156,0,0,0,7.345.919,20.7,20.7,0,0,0,4.317-.743l2.886-1.007c.71-.385,1.437-.77,2.188-1.176,6.427-3.852,12.532-12.686,16.05-24.905a101.758,101.758,0,0,0,3.649-20.2c.423-3.913.763-7.813.888-11.591.286-3.825.274-7.86.31-12a210.356,210.356,0,0,0-6.785-52.96c-2.54-9.131-5.306-18.519-9.522-27.453-4.162-8.948-9.212-17.586-14.166-26.386-4.853-8.861-9.569-17.951-14.106-27.46-4.49-9.313-9.492-18.532-15.651-26.487a91.272,91.272,0,0,0-20.707-20.553,62.655,62.655,0,0,0-6.01-3.589l-1.538-.825-1.491-.635L115.7,30.6a61.626,61.626,0,0,0-13.027-3.291,51.27,51.27,0,0,0-27.438,3.812c-8.83,3.609-16.205,10.935-21.017,19.35a58.374,58.374,0,0,0-6.195,11.99,23.2,23.2,0,0,0-1.043,11.381c1.234,8.2,6.749,17.329,12.073,25.095,11.131,15.944,25.393,29.217,37.436,43.809,12.121,14.605,24,28.548,31.385,44.3,7.518,15.565,12.276,31.015,15.9,44.309,3.619,13.267,6.743,24.419,10.07,33.178a99.409,99.409,0,0,0,9.295,19.174c1.264,2.088,2.355,3.575,3.094,4.589s1.109,1.548,1.109,1.548l.167.23a3.893,3.893,0,0,1-.459,5,2.859,2.859,0,0,1-4-.041s-.5-.487-1.479-1.419a50.171,50.171,0,0,1-4.2-4.332,98.246,98.246,0,0,1-12.86-19.431c-4.609-9.009-8.955-20.533-13.391-33.408-4.412-12.848-9.45-26.757-16.658-40.977-7.2-14.065-14.136-30.61-25.518-44.614-11.31-14.166-26.031-26.325-39.29-42.931a128.836,128.836,0,0,1-9.3-13.49,60.817,60.817,0,0,1-7.077-17.079,36.521,36.521,0,0,1,1.151-21.067,43.757,43.757,0,0,1,9.969-15.754A66.619,66.619,0,0,1,57.666,29.861,107.5,107.5,0,0,1,71.951,21.8a75.092,75.092,0,0,1,31.361-7.238c22.99-.108,42.188,15.328,55.967,32.772,6.874,8.867,13.081,17.944,18.906,27.17a166.723,166.723,0,0,1,14.5,28.751c3.828,10.043,6.737,20.343,9.45,30.373C205,143.581,208,153.2,210.422,162.769c4.895,19.093,8.347,37.74,8.967,55.36.191,4.393.31,8.7.083,13.024q-.107,3.214-.215,6.353-.3,2.97-.572,5.866a96.216,96.216,0,0,1-4.561,22.81c-4.358,13.923-12.425,25.466-22.06,30.1l-3.744,1.561c-1.008.27-1.991.527-2.939.784a22.234,22.234,0,0,1-6.582.561,27.323,27.323,0,0,1-9.641-2.379,25.522,25.522,0,0,1-5.414-3.251c-1.163-.912-1.514-1.3-1.562-1.311a3.844,3.844,0,0,1-.28-4.954,2.9,2.9,0,0,1,2.844-1.142Z" transform="translate(160.018 83.881)" fill="#ac9afc"/>
              <path id="Trazado_876381" data-name="Trazado 876381" d="M250.172,218.265s.2.743.6,2.19c.191.737.459,1.582.721,2.717q.286,1.9.662,4.366a56.021,56.021,0,0,1-3.917,27.1,63.529,63.529,0,0,1-25.446,30.718c-1.693.906-3.255,1.953-5.139,2.758a54.094,54.094,0,0,1-5.163,2.2,64.461,64.461,0,0,1-11.561,3.116,79.824,79.824,0,0,1-24.94.169c-17.177-2.413-34.527-9.1-52.252-17.566-8.89-4.2-17.69-9.293-26.83-14.342-9.146-5.028-18.524-10.476-27.378-17.3-2.212-1.71-4.346-3.555-6.469-5.447-1.1-.973-2.039-1.818-3.226-2.974l-2.951-2.926a141.349,141.349,0,0,1-11.447-13.558,253.4,253.4,0,0,1-19.472-31.11c-11.435-22.06-19.037-48.689-15.9-75.372A128.221,128.221,0,0,1,20.219,75.442a142.3,142.3,0,0,1,8.937-16.91A82.064,82.064,0,0,1,40.877,43.021,51.419,51.419,0,0,1,56.117,32.626a54.4,54.4,0,0,1,17.326-4.393,61.923,61.923,0,0,1,33.942,6.1,59.231,59.231,0,0,1,14.422,10.32A64.532,64.532,0,0,1,132.432,59.1c5.658,10.989,8.556,21.986,10.917,32.563A187.014,187.014,0,0,0,151.9,120.6a142.109,142.109,0,0,0,11.871,23.209,77.661,77.661,0,0,0,6.946,9.266l.924,1.034c-.167-.142.6.581.847.825l2.212,2.136a46.688,46.688,0,0,0,4.084,3.508,128.655,128.655,0,0,0,17.35,11.375c11.751,6.509,22.751,12.132,31.254,18.336a70.271,70.271,0,0,1,17.761,17.836,44.472,44.472,0,0,1,3.494,5.961c.733,1.379,1.109,2.1,1.109,2.1a3.806,3.806,0,0,1-1.067,4.853,2.867,2.867,0,0,1-3.965-.7l-.274-.365s-.423-.554-1.246-1.622a41.68,41.68,0,0,0-3.732-4.542c-3.315-3.9-8.967-8.725-17.237-13.22-8.216-4.663-18.96-8.9-31.671-14.781-12.383-5.941-28.243-14.585-39.159-31.732-5.5-8.279-9.182-18.14-11.847-28.332-2.7-10.314-4-20.911-6.272-31.144-2.307-10.111-5.008-20.519-9.843-28.724a48.445,48.445,0,0,0-8.991-11.219A46.694,46.694,0,0,0,102.657,47.2a48.629,48.629,0,0,0-27.6-3.143c-4.722.662-9.217,2.44-13.707,4.082a78.951,78.951,0,0,0-13.009,7.184A59.291,59.291,0,0,0,36.752,65.493a55.925,55.925,0,0,0-8.6,14.382,75.961,75.961,0,0,0-5.02,16.64A94.44,94.44,0,0,0,21.3,114a115.994,115.994,0,0,0,.763,17.4c.2,1.379.352,2.751.495,4.15l.763,4.582c.435,2.629,1.151,5.616,1.824,8.367a138.376,138.376,0,0,0,12.664,31.772,131.91,131.91,0,0,0,19.425,26.811c3.625,4.123,7.31,7.779,11,11.672q5.607,5.8,11.119,11.517a259.3,259.3,0,0,0,22.686,21.567c7.965,6.36,16.557,11.145,25.023,15.4,17.046,8.185,34.288,13.335,49.969,14.774a87.829,87.829,0,0,0,22.257-.716,66.53,66.53,0,0,0,9.79-2.555,45.319,45.319,0,0,0,4.74-1.832c1.377-.514,2.778-1.4,4.144-2.055A56.8,56.8,0,0,0,240.2,250.206a50.131,50.131,0,0,0,4.829-21.938c-.066-1.25-.119-2.359-.173-3.312-.113-1.041-.3-2.007-.411-2.737-.238-1.487-.364-2.251-.364-2.251a3.566,3.566,0,0,1,2.528-4.15,3.141,3.141,0,0,1,3.565,2.447" transform="translate(46.438 160.726)" fill="#ac9afc"/>
              <path id="Trazado_876382" data-name="Trazado 876382" d="M42.491,73.566a158.725,158.725,0,0,1,10.487-43.9c1.246-3.136,2.76-6.427,5.467-7.975,3.911-2.237,9.039.365,11.1,4.745s1.5,9.861-.364,14.349S64.271,48.972,61.284,52.6Q55.64,59.454,50,66.3c-2.2,2.676-5.306,4.6-7.506,7.265" transform="translate(210.846 120.178)" fill="#ac9afc"/>
              <path id="Trazado_876383" data-name="Trazado 876383" d="M47.191,59.867A79.74,79.74,0,0,1,65.876,32.109c2.236-2.129,4.7-4.15,7.56-4.819a6.879,6.879,0,0,1,7.709,3.2,10.692,10.692,0,0,1,.668,6.583A25.011,25.011,0,0,1,70.479,53.7c-5.551,3.569-16.318,5.637-22.662,6.4" transform="translate(234.168 156.025)" fill="#ac9afc"/>
              <path id="Trazado_876384" data-name="Trazado 876384" d="M50.69,45.782c7.023-4.109,14.178-8.266,21.953-9.888s16.4-.372,22.441,5.4a8.529,8.529,0,0,1,2.689,4.265,10.7,10.7,0,0,1-.286,4.508c-.865,3.886-2.236,7.9-5.074,10.287-3.339,2.8-7.87,2.73-12.008,2.257A97.914,97.914,0,0,1,60.9,58.346c-4.871-1.6-10.416-4.576-11.137-10.273" transform="translate(246.916 202.937)" fill="#ac9afc"/>
              <path id="Trazado_876385" data-name="Trazado 876385" d="M52.037,45.557c6.427-.493,12.878-.669,19.317-.541,5.622.115,11.3.473,16.688,2.311C93.48,49.193,99.2,53.9,98.9,60.332a11.1,11.1,0,0,1-8.77,9.942c-4.388.906-8.884-.629-12.962-2.67-8.741-4.373-19.18-13.571-25.13-22.047" transform="translate(258.215 259.001)" fill="#ac9afc"/>
              <path id="Trazado_876386" data-name="Trazado 876386" d="M69.1,41.886a112.106,112.106,0,0,0-40.113-1.054c-3,.466-6.219,1.19-8.293,3.69-3,3.616-2.254,9.922.87,13.4s7.912,4.434,12.234,3.67,8.323-3.008,12.24-5.224q7.4-4.2,14.786-8.381c2.886-1.636,5.39-4.467,8.275-6.1" transform="translate(93.262 227.528)" fill="#ac9afc"/>
              <path id="Trazado_876387" data-name="Trazado 876387" d="M59.005,45.3A65.792,65.792,0,0,0,30.226,57.734a19.153,19.153,0,0,0-6.219,6.853c-1.377,2.92-1.455,6.86.531,9.293a7.923,7.923,0,0,0,5.372,2.589c6.344.757,12.687-2.582,17.278-7.6s9.39-16.14,11.835-22.824" transform="translate(114.159 260.855)" fill="#ac9afc"/>
              <path id="Trazado_876388" data-name="Trazado 876388" d="M48.031,49.592c-5.467,6.475-11.012,13.071-14.589,21.06s-4.955,17.714-1.789,25.926a8.386,8.386,0,0,0,2.844,4.129,7.531,7.531,0,0,0,3.893.966c3.536.162,7.316-.189,10.142-2.6,3.321-2.832,4.537-7.779,5.318-12.409a140.882,140.882,0,0,0,1.92-22.412c.03-5.752-.924-12.625-5.539-15.018" transform="translate(148.29 283.521)" fill="#ac9afc"/>
              <path id="Trazado_876389" data-name="Trazado 876389" d="M47.5,53.663q-3.354,10.27-5.932,20.844c-1.5,6.144-2.8,12.422-2.772,18.789.036,6.448,2.391,14,7.924,15.491,4.34,1.176,8.884-2.2,10.893-6.711s1.985-9.834,1.419-14.842C57.8,76.487,52.974,62.537,47.5,53.663" transform="translate(192.481 309.026)" fill="#ac9afc"/>
              <path id="Trazado_876390" data-name="Trazado 876390" d="M95.688,88.431c1.175-3.46,2.337-6.833,3.327-10.151.966-3.413,1.985-6.792,2.838-10.233s1.532-6.914,2.289-10.368q1.028-5.211,1.789-10.476c.495-3.508.793-7.042,1.192-10.564q.5-5.292.739-10.611a208.558,208.558,0,0,0-.173-21.323l7.244.4-4.048,18.6c-1.353,6.191-2.749,12.375-3.995,18.606-1.222,6.238-1.932,12.666-2.987,19.019a118.257,118.257,0,0,1-4.37,18.64l-.048.155c-1.24,3.873-5.02,5.866-8.436,4.461a6.971,6.971,0,0,1-3.691-3.812C84.384,73.69,81.993,66.344,78.9,59.45A201.758,201.758,0,0,0,68.584,39.7q-2.835-4.694-5.95-9.09c-2.134-2.872-4.227-5.758-6.487-8.482C53.84,19.466,51.521,16.817,49,14.39A62.714,62.714,0,0,0,40.89,8.017l4.99-4.643c.8,3.366,1.663,6.711,2.731,9.982A97.321,97.321,0,0,0,52.5,22.879,149.661,149.661,0,0,1,60.1,41.85,384.829,384.829,0,0,0,74.719,80.03l.119.277a5.185,5.185,0,0,1-1.9,6.542,3.839,3.839,0,0,1-3.226.3,112.77,112.77,0,0,0-26.347-6.258,113.6,113.6,0,0,0-13.48-.142c-4.484.182-8.931.433-13.379.426l5.843-7.685a26.511,26.511,0,0,0,.62,3.129,14.987,14.987,0,0,0,1.145,3.008,20.843,20.843,0,0,0,3.917,5.495,36.385,36.385,0,0,0,12.1,8c1.145.5,2.313.919,3.5,1.311,1.234.365,2.284.7,3.679,1.007,2.558.608,5.324,1.162,8.114,1.94a37.134,37.134,0,0,1,8.4,3.562A19.665,19.665,0,0,1,70.916,108a3.023,3.023,0,0,1-.692,3.866,2.238,2.238,0,0,1-3.029-.27l-.1-.108c-3.369-3.514-7.977-4.812-13.1-5.285l-8-.8c-1.288-.108-2.91-.351-4.334-.588-1.467-.277-2.927-.595-4.382-1.007a40.911,40.911,0,0,1-16.557-8.969,32.371,32.371,0,0,1-10.279-19.58c-.465-3.677,1.789-7.083,5.032-7.617.215-.034.429-.054.638-.068H16.3c9.51-.372,18.93,1.845,28.159,3.785,4.627.946,9.265,1.75,13.868,2.8,4.591,1.108,9.2,2.156,13.761,3.487l-5.008,7.11Q57.5,66.33,49.583,46.777c-1.318-3.258-2.4-6.623-3.416-10.009A96.62,96.62,0,0,1,43.9,26.306c-.65-3.521-1.192-7.069-2.039-10.5C41.045,12.376,40.085,8.99,39.143,5.6A4.055,4.055,0,0,1,41.4.657a3.139,3.139,0,0,1,2.737.3c1.6,1,3.226,1.946,4.865,2.886l4.71,3.224a82.719,82.719,0,0,1,8.836,7.441,88.2,88.2,0,0,1,7.763,8.766q3.559,4.684,6.761,9.645c4.263,6.6,7.983,13.537,11.549,20.485,3.607,6.921,7.441,13.679,10.619,20.729l-12.181.811a176.224,176.224,0,0,1,6.314-17.4c2.319-5.738,4.811-11.463,6.594-17.43a292.531,292.531,0,0,0,7.781-36.692A3.728,3.728,0,0,1,111.977.062,3.965,3.965,0,0,1,114.97,3.61l.018.21a152.233,152.233,0,0,1,1.169,22.547q-.179,5.657-.644,11.294c-.334,3.751-.942,7.468-1.544,11.172A147.448,147.448,0,0,1,108.6,70.554c-1.192,3.508-2.4,7-3.834,10.388-1.491,3.44-2.981,6.745-4.639,9.868l-.03.061a2.311,2.311,0,0,1-3.381.953,2.99,2.99,0,0,1-1.025-3.393" transform="translate(51.541 0.001)" fill="#ac9afc"/>
            </g>
          </g>
        </g>
      </g>
    </g>
  </g>
</svg>
