<svg xmlns="http://www.w3.org/2000/svg" xmlns:xlink="http://www.w3.org/1999/xlink" width="820" height="179.486" viewBox="0 0 820 179.486">
  <defs>
    <linearGradient id="linear-gradient" x1="-0.006" y1="0.956" x2="0.978" y2="0.092" gradientUnits="objectBoundingBox">
      <stop offset="0" stop-color="#f6f4fe"/>
      <stop offset="0.516" stop-color="#e4defb"/>
      <stop offset="1" stop-color="#f6f4fe"/>
    </linearGradient>
    <clipPath id="clip-path">
      <rect id="Rectángulo_402134" data-name="Rectángulo 402134" width="780" height="179.486" rx="20" transform="translate(0)" opacity="0.38" fill="url(#linear-gradient)"/>
    </clipPath>
    <clipPath id="clip-path-2">
      <path id="Trazado_878018" data-name="Trazado 878018" d="M0,0,623.708,46.478,668.3,696.3,44.587,649.822Z" fill="#ac9afc"/>
    </clipPath>
    <clipPath id="clip-path-3">
      <path id="Trazado_878018-2" data-name="Trazado 878018" d="M0,0,650.412,1.837,652.4,621.8,1.985,619.962Z" fill="#ac9afc"/>
    </clipPath>
    <linearGradient id="linear-gradient-2" x1="0.757" y1="0.582" x2="0.018" y2="1.051" gradientUnits="objectBoundingBox">
      <stop offset="0" stop-color="#ac9afc"/>
      <stop offset="1" stop-color="#ded6fd"/>
    </linearGradient>
    <linearGradient id="linear-gradient-3" y1="0.436" x2="1.139" y2="0.428" gradientUnits="objectBoundingBox">
      <stop offset="0" stop-color="#87de87"/>
      <stop offset="1" stop-color="#567d56"/>
    </linearGradient>
  </defs>
  <g id="Grupo_1101884" data-name="Grupo 1101884" transform="translate(-6736.453 10610.841)">
    <g id="Enmascarar_grupo_1098810" data-name="Enmascarar grupo 1098810" transform="translate(6756.453 -10610.841)" opacity="0.17" clip-path="url(#clip-path)">
      <g id="Rectángulo_402182" data-name="Rectángulo 402182" transform="translate(-30.666 -194.924)" fill="#e8e8e8" stroke="#707070" stroke-width="1">
        <rect width="1076.434" height="531.41" stroke="none"/>
        <rect x="0.5" y="0.5" width="1075.434" height="530.41" fill="none"/>
      </g>
      <rect id="Rectángulo_402133" data-name="Rectángulo 402133" width="557.643" height="482.117" transform="translate(0 -168)" fill="#e6f8e6" opacity="0.38"/>
      <g id="Grupo_1101058" data-name="Grupo 1101058" transform="translate(309.626 596.749) rotate(-150)" opacity="0.25" style="isolation: isolate">
        <g id="Grupo_1101057" data-name="Grupo 1101057" clip-path="url(#clip-path-2)">
          <path id="Trazado_878017" data-name="Trazado 878017" d="M577.69,134.465c-5.074-29.815-9.177-60.317-28.979-85.046-8.072,31.741-24.069,58.917-40.444,86.1A1229.2,1229.2,0,0,1,436.951,241.6C386.864,308.279,328.561,364,268.268,419.413c-10.515,9.634-29.522-11.388-19.593-22.012,54.284-58.365,101.676-125.435,147.43-192.108,23.058-33.59,45.247-68,66.194-103.336,16.276-27.446,31.02-55.9,51.876-78.9-17.274-7.235-35.916-8.648-54.5-9.29Q427,12.724,394.337,12.086a659.288,659.288,0,0,0-156.079-7.16c-8.842.65-15.076,4.125-19.294,9.124-32.287,17.731-20.847,80.012,26.254,89.374q29.607,5.835,59.215,11.721c-85.226,38.717-163.495,90.976-233.647,155.9-31.778,29.432,8.282,84.542,45.532,79.69a758.249,758.249,0,0,0,79.286-14.68A2552.22,2552.22,0,0,0,15.634,547.083c-28.9,37.825,14.2,99.927,57.226,77.979,101.924-52.085,192.7-121.494,273.166-203.043-11.5,42.331-21.668,85.24-30.029,128.834-6.1,31.489,25.211,70.847,56,61.666,73.6-22.06,91.412-137.312,102.333-214.628a384.007,384.007,0,0,0,14.613,64.921c11.833,36.773,50.835,48.4,74.084,27.035,85.152-78.362,33.761-243.6,14.665-355.382M238.046,246.505a265.091,265.091,0,0,0-47,25.456c-13.63,9.442-29.528-13.676-17.3-24.615a184.128,184.128,0,0,1,50.408-32.59,165.326,165.326,0,0,1,26.739-9.188c10.073-2.427,21.213-5.628,31.914-5.277,4.529.17,10.278,2.275,13.031,7.1,2.307,4.056,3.416,7.092,3.281,11.445a12.3,12.3,0,0,1-8.08,11.113c-8.784,3.1-18.415,4.359-27.348,7.282-8.65,2.808-17.3,5.72-25.649,9.277M422.671,407.254c.083,3.671.121,7.281.111,10.889-.046,14.17-.71,28.163-1.942,42.077-.523,5.829-5.744,10.293-11.483,8.648a13.824,13.824,0,0,1-9.7-13.839q1.362-20.4.974-41.135l-.176-7.493c0-.1-.064-.767-.077-1.227s-.089-1.839-.093-1.995c-.016-.764-.035-1.527-.1-2.3-.16-2.714-.554-5.558,0-8.079.167-.993.52-2.017.686-3.014,0-.048.032-.6.026-.96.006-1.676.154-3.385.256-5.05.141-4.045.247-7.589,1.767-11.2a6.844,6.844,0,0,1,12.332-.51,29.759,29.759,0,0,1,3.015,6.124c.564,1.9.846,3.919,1.221,5.847s.7,3.852,1.032,5.773c.106.575.214,1.2.323,1.82.051.159.353.96.455,1.379,1.522,4.616,1.263,9.562,1.371,14.248M547.413,270.789a11.843,11.843,0,0,1-.3,1.283c-.09.293-.128.645-.215.938l-.045.148a10.34,10.34,0,0,1-5.17,6.656,10.685,10.685,0,0,1-8.419.55,4.308,4.308,0,0,1-.759-.248c-.522-.219-1-.33-1.523-.549a16.534,16.534,0,0,1-5.973-3.606c-.721-.7-1.352-1.446-2.17-2.11a30.365,30.365,0,0,1-3.91-4c-.532-.626-1.067-1.3-1.6-1.931a26.106,26.106,0,0,1-2.435-3.411c-2.259-3.9-5.092-8.27-6.79-12.349-2.794-6.71-5.787-13.8-6.94-20.854-.942-6.065,1.705-11.676,6.359-14.179,4.609-2.463,10.8-1.622,15.374,2.519,5.39,4.856,9.732,11.251,13.924,17.275,2.487,3.57,4.477,8.141,6.547,12.015a35.808,35.808,0,0,1,3.669,11.9,21.8,21.8,0,0,0,.59,2.97,16.436,16.436,0,0,1-.215,6.985" transform="translate(34.956 23.421)" fill="#ac9afc"/>
        </g>
      </g>
      <g id="Grupo_1101141" data-name="Grupo 1101141" transform="matrix(-0.454, 0.891, -0.891, -0.454, 1363.655, -333.331)" opacity="0.25" style="isolation: isolate">
        <g id="Grupo_1101057-2" data-name="Grupo 1101057" transform="translate(0 0)" clip-path="url(#clip-path-3)">
          <path id="Trazado_878017-2" data-name="Trazado 878017" d="M623.47,103.761c-3.265-28.238-5.464-57.2-24.512-79.553-10.645,30.985-29.28,58.135-48.311,85.315-25.731,36.757-52.933,72.364-82.039,106.6-57.079,67.358-122.013,124.772-189.013,182.031-11.683,9.957-30.153-8.9-19.016-19.762C321.483,318.712,375.765,251.163,428.3,184.106c26.476-33.784,52.1-68.3,76.482-103.608,18.946-27.429,36.356-55.719,59.8-79.2-17.6-5.753-37.043-5.831-56.471-5.174q-34.17,1.235-68.357,2.861A749.718,749.718,0,0,0,276.683,2.816C267.372,4.045,260.6,7.8,255.836,12.885,220.781,32.1,228.481,91.025,277.2,96.774q30.625,3.566,61.247,7.181A1115.543,1115.543,0,0,0,82.86,269.432c-35.328,30.395,2.858,80.487,42.228,73.284q42.677-7.837,84.1-19.505Q102.613,425.583,6.058,537.859c-32.887,38.244,8,94.832,54.6,70.842,110.4-56.918,210.307-129.682,300.243-213.379-14.968,41.372-28.575,83.208-40.339,125.577C312,551.507,342.1,587.1,375,576.186c78.652-26.192,105.249-137.91,122.017-212.784a313.694,313.694,0,0,0,10.844,61.242c9.868,34.446,49.939,42.926,75.775,20.845,94.63-80.962,52.152-235.866,39.836-341.727M259.828,234.446a338.574,338.574,0,0,0-51,27.625c-14.934,9.986-30-11.089-16.432-22.415a234.328,234.328,0,0,1,55.068-34.7,208.775,208.775,0,0,1,28.654-10.64c10.723-3.016,22.618-6.849,33.807-7.246,4.734-.147,10.614,1.477,13.167,5.913,2.138,3.73,3.091,6.565,2.65,10.748-.577,5.055-4.523,9.449-9.233,11.208-9.419,3.571-19.6,5.441-29.16,8.855-9.258,3.285-18.523,6.669-27.517,10.651m182.41,141.471c-.166,3.513-.375,6.973-.633,10.432-1.024,13.589-2.683,27.05-4.932,40.474-.949,5.624-6.728,10.262-12.629,9.078a11.321,11.321,0,0,1-9.209-12.6q2.832-19.656,3.853-39.505l.331-7.172c0-.1-.014-.731,0-1.171s.033-1.757.04-1.906c.036-.731.069-1.462.055-2.2.019-2.591-.2-5.29.553-7.746.243-.964.683-1.969.927-2.937,0-.046.075-.582.093-.922.122-1.607.394-3.256.616-4.859.427-3.888.782-7.293,2.623-10.863,2.324-4.475,9.906-6.628,12.958-1.334a23.335,23.335,0,0,1,2.738,5.665,51.209,51.209,0,0,1,.877,5.522c.26,1.823.47,3.645.684,5.464.071.544.142,1.133.214,1.723.043.149.3.9.382,1.291,1.277,4.321.665,9.081.456,13.566M582.356,236.536a11.757,11.757,0,0,1-.4,1.251c-.115.287-.179.627-.29.914l-.058.145a12.21,12.21,0,0,1-5.876,6.735,12.554,12.554,0,0,1-8.86,1.1,4.339,4.339,0,0,1-.779-.186c-.532-.174-1.022-.248-1.558-.422a14.939,14.939,0,0,1-6.012-3.048,26.028,26.028,0,0,0-2.128-1.874,24.818,24.818,0,0,1-3.821-3.57c-.514-.564-1.029-1.178-1.542-1.742a20.619,20.619,0,0,1-2.317-3.1c-2.1-3.581-4.767-7.581-6.266-11.374-2.466-6.242-5.115-12.833-5.837-19.518a14.614,14.614,0,0,1,23.578-12.668c5.315,4.287,9.424,10.12,13.4,15.609,2.36,3.252,4.13,7.5,6.033,11.071a28.733,28.733,0,0,1,3.025,11.158,17.871,17.871,0,0,0,.413,2.807,14.837,14.837,0,0,1-.707,6.712" transform="translate(7.678 5.646)" fill="#ac9afc"/>
        </g>
      </g>
      <path id="Trazado_878245" data-name="Trazado 878245" d="M1150.826,1107.219c11.275,9.967,23.229,19.489,37.758,22.27,10.35,1.981,19,2.246,29.328-.349,4.626-1.162,9.229-3.581,13.428-5.907a48.145,48.145,0,0,0,8.126-6.244c9.661-8.426,17.565-31.216,32.58-20.9,6.922,4.755,12.5,12.068,19.38,17.064a105.835,105.835,0,0,0,27.516,14.329,48.38,48.38,0,0,0,7.3,1.88c5.1.919,10.925,2.106,16.246,1.7,10.195-.775,20.855-3.276,29.441-9.934a69.9,69.9,0,0,0,19.635-22.885c2.8-5.183,3.713-13.36,8.875-16.293,7.546-4.287,11.687,4.967,15.374,10.4a72.474,72.474,0,0,0,18.946,19.435c9.179,6.228,18.554,8.206,29.016,9.381a70.477,70.477,0,0,0,13.582.325c9.637-.8,17.564-2.518,26.134-7.623a41.05,41.05,0,0,0,10.038-8.532c5.773-6.772,7.8-12.007,10.74-20.615a32.338,32.338,0,0,0,.587-15.187,30.885,30.885,0,0,0-4.029-14.155c-4.114-7.895-12.167-15.418-20.232-17.476a34.3,34.3,0,0,0-20.422.763c-4.261,1.55-8.765,5.438-13.122,2.489-6.034-4.082-6.628-17.31-9.665-23.644a98.131,98.131,0,0,0-13.583-20.824,61.494,61.494,0,0,0-18.051-14.914c-9.495-4.882-19.536-8.586-30.189-7.62-9.861.894-19.977,3.368-28.152,10.067-7.884,6.461-14.236,13.336-19.2,22.968A107.6,107.6,0,0,0,1340,1029.5c-1.451,5.645-.987,14.821-7.112,16.892-10.777,3.643-17.922-18.949-23.172-25.945-2.873-3.829-6.727-6.771-10.272-9.686a28.141,28.141,0,0,0-4.88-3.238c-5.605-2.928-11.189-5.7-17.3-6.728-6.36-1.073-12.471-2.205-18.851-1.346-4.392.592-8.948,1.021-13.246,2.347a73.622,73.622,0,0,0-12.418,5.6,28.151,28.151,0,0,0-4.208,2.719c-3.489,2.737-7.259,5.682-10.164,9.275-4.11,5.12-7.1,11.143-11.113,16.3-2.885,3.7-6.385,10.2-10.046,12.643-3.6,2.408-6.245-1.712-9.508-2.9a23.147,23.147,0,0,0-13.035-3.263c-8.3.011-18.2,4.172-23.9,11.186-5.909,7.266-10.291,16.8-9.876,26.943.384,9.388,3.053,20.833,9.936,26.917" transform="translate(-687.971 -861.259)" fill="url(#linear-gradient-2)"/>
    </g>
    <path id="Trazado_878222" data-name="Trazado 878222" d="M1782.687,514.763a14.124,14.124,0,0,0-3.673-3.593c-3.881-2.626-8.937-3.1-12.311.606-1.371,1.506-2.408,3.293-3.8,4.781a11.891,11.891,0,0,0-3.439,5.925,9.623,9.623,0,0,0,1.464,6.859c3.355,5,10.977,5.461,16.11,3.317a13.694,13.694,0,0,0,2.107-1.1,12.094,12.094,0,0,0,5.6-8.095,11.766,11.766,0,0,0-2.059-8.705m-6.085,8.183a3.68,3.68,0,0,1-.7,1.642,5.608,5.608,0,0,1-3.041,1.937,4.423,4.423,0,0,1-4.109-.681,3.525,3.525,0,0,1-1.092-2.539c-.039-2.291,2.046-5.137,4.4-5.441a3.545,3.545,0,0,1,2.016.4,4.634,4.634,0,0,1,2.529,4.682" transform="translate(4981.25 -11022.396)" fill="#ac9afc"/>
    <path id="Trazado_878246" data-name="Trazado 878246" d="M23.347,5.665a14.124,14.124,0,0,0-3.673-3.593c-3.881-2.626-8.937-3.1-12.311.606C5.992,4.185,4.955,5.972,3.565,7.46A11.891,11.891,0,0,0,.126,13.385a9.623,9.623,0,0,0,1.464,6.859c3.355,5,10.977,5.461,16.11,3.317a13.694,13.694,0,0,0,2.107-1.1,12.094,12.094,0,0,0,5.6-8.095,11.766,11.766,0,0,0-2.059-8.705m-6.085,8.183a3.68,3.68,0,0,1-.7,1.642,5.608,5.608,0,0,1-3.041,1.937,4.423,4.423,0,0,1-4.109-.681,3.525,3.525,0,0,1-1.092-2.539c-.039-2.291,2.046-5.137,4.4-5.441a3.545,3.545,0,0,1,2.016.4,4.634,4.634,0,0,1,2.529,4.682" transform="matrix(-0.899, 0.438, -0.438, -0.899, 6770.285, -10465.375)" fill="#ac9afc"/>
    <g id="Grupo_1101140" data-name="Grupo 1101140" transform="translate(7518.281 -10590.138)">
      <ellipse id="Elipse_11585" data-name="Elipse 11585" cx="16.032" cy="16.38" rx="16.032" ry="16.38" transform="translate(0.067 0.725)" fill="#fff"/>
      <ellipse id="Elipse_11586" data-name="Elipse 11586" cx="5.228" cy="5.228" rx="5.228" ry="5.228" transform="translate(7.038 11.181)" fill="#d8f263"/>
      <g id="Grupo_1101139" data-name="Grupo 1101139" transform="matrix(-0.966, 0.259, -0.259, -0.966, 38.172, 21.741)">
        <path id="Trazado_878224" data-name="Trazado 878224" d="M27.814,10.26c-4.251-1.556-8.78-4.218-13.4-2.6a16.541,16.541,0,0,0-7.3,5.585c-.979,1.209-1.909,2.46-2.887,3.678a3.312,3.312,0,0,1-1.938,1.4c-2.426.167-2.521-4.5-2.11-6.108A13.178,13.178,0,0,1,1.661,8.382C6.46-.015,17.03-2.33,25.244,2.469a18.291,18.291,0,0,1,4.931,4.224c.094,1.466-.225,4.38-2.361,3.567m.039-.108c2.132.769,2.169-2.267,2.16-3.394A19.2,19.2,0,0,0,18,.286,16.788,16.788,0,0,0,2.118,7.971C.551,10.557-.392,13.876.7,16.8c.245.666.786,1.364,1.56,1.253A3.151,3.151,0,0,0,4,16.742C6.848,13.13,9.836,9.075,14.361,7.5c4.663-1.692,9.226,1.05,13.492,2.653" transform="translate(0 0)" fill="#567d56"/>
        <path id="Trazado_878225" data-name="Trazado 878225" d="M23.08.882C20.125.2,17.035-.36,14.253,1.21a12.178,12.178,0,0,0-1.877,1.262,38.8,38.8,0,0,0-5,4.613,35.926,35.926,0,0,0-3.436,4.521A2.954,2.954,0,0,1,2.2,13.114,1.843,1.843,0,0,1,.315,11.9C-.6,9.37.584,6.285,2.482,4.515a.057.057,0,0,1,.08.082A8.26,8.26,0,0,0,.283,10.743c-.01,1.042.693,2.345,1.882,2.17.737-.141,1.179-.846,1.568-1.44A40.8,40.8,0,0,1,7.222,6.951a24.849,24.849,0,0,1,6.956-5.884A9.584,9.584,0,0,1,20.88.26c.75.139,1.49.32,2.226.511a.057.057,0,0,1-.026.112" transform="translate(4.343 9.375)" fill="#567d56"/>
        <path id="Trazado_878226" data-name="Trazado 878226" d="M.691,9.593C.625,10.72-.078,11.766.283,12.878a1.17,1.17,0,0,0,1.6.879A4.051,4.051,0,0,0,3.321,12.12c.611-.955,1.228-1.9,1.87-2.84C7.574,5.916,9.647,4.794,13.656,4.1a23.743,23.743,0,0,1,3.4-.3,7.055,7.055,0,0,1,2.2.62,7.787,7.787,0,0,0,1,.493c1.195.428,1.859-1.028,1.335-1.973a4.777,4.777,0,0,0-1.48-1.6A8.2,8.2,0,0,0,18.254.112C18.183.088,18.231-.024,18.3,0a7.641,7.641,0,0,1,1.953,1.167c.892.634,1.972,1.586,1.789,2.835a1.4,1.4,0,0,1-1.245,1.2A3.623,3.623,0,0,1,19.176,4.6a5.429,5.429,0,0,0-2.683-.552l-.562.051a19.377,19.377,0,0,0-5.505,1.035A9.731,9.731,0,0,0,8.466,6.19,15.24,15.24,0,0,0,5.417,9.448a42.367,42.367,0,0,0-2.583,3.71C1.52,14.967-.3,13.77.042,11.775c.126-.761.454-1.452.535-2.192a.057.057,0,0,1,.114.01" transform="translate(11.43 6.321)" fill="#567d56"/>
        <path id="Trazado_878227" data-name="Trazado 878227" d="M.013,14.531A12.674,12.674,0,0,1,2.25,7.1,15.916,15.916,0,0,1,15.643,0a17.887,17.887,0,0,1,7.649,1.7.065.065,0,0,1-.053.119,20.16,20.16,0,0,0-7.6-1.513A16.568,16.568,0,0,0,8.138,2.057c-4.56,2.32-8.2,7.207-8,12.464a.065.065,0,1,1-.13.009" transform="translate(1.514 3.371)" fill="#567d56"/>
        <path id="Trazado_878228" data-name="Trazado 878228" d="M.006,12.739A13.159,13.159,0,0,1,5.155,1.852,11.226,11.226,0,0,1,8.877,0a.065.065,0,0,1,.041.123A15.3,15.3,0,0,0,5.337,2.1a12.69,12.69,0,0,0-5.2,10.639.065.065,0,1,1-.13,0" transform="translate(5.973 9.326)" fill="#567d56"/>
        <path id="Trazado_878229" data-name="Trazado 878229" d="M0,10.755A15.244,15.244,0,0,1,6.815,1.408,11.745,11.745,0,0,1,10.5,0a.065.065,0,0,1,.031.126A15.1,15.1,0,0,0,1.56,7.157a14.967,14.967,0,0,0-1.432,3.63A.065.065,0,1,1,0,10.755" transform="translate(12.471 9.405)" fill="#567d56"/>
        <path id="Trazado_878230" data-name="Trazado 878230" d="M.445.921A.461.461,0,0,0,.445,0a.461.461,0,0,0,0,.921" transform="translate(26.051 8.328)" fill="#567d56"/>
        <path id="Trazado_878231" data-name="Trazado 878231" d="M.445.921A.461.461,0,0,0,.445,0a.461.461,0,0,0,0,.921" transform="translate(24.773 7.414)" fill="#567d56"/>
        <path id="Trazado_878232" data-name="Trazado 878232" d="M.445.921A.461.461,0,0,0,.445,0a.461.461,0,0,0,0,.921" transform="translate(25.606 7.115)" fill="#567d56"/>
        <path id="Trazado_878233" data-name="Trazado 878233" d="M.445.921A.461.461,0,0,0,.445,0a.461.461,0,0,0,0,.921" transform="translate(2.332 15.667)" fill="#567d56"/>
        <path id="Trazado_878234" data-name="Trazado 878234" d="M.445.921A.461.461,0,0,0,.445,0a.461.461,0,0,0,0,.921" transform="translate(2.214 14.132)" fill="#567d56"/>
        <path id="Trazado_878235" data-name="Trazado 878235" d="M.445.921A.461.461,0,0,0,.445,0a.461.461,0,0,0,0,.921" transform="translate(3.368 14.161)" fill="#567d56"/>
        <path id="Trazado_878236" data-name="Trazado 878236" d="M.445.921A.461.461,0,0,0,.445,0a.461.461,0,0,0,0,.921" transform="translate(10.382 15.256)" fill="#567d56"/>
        <path id="Trazado_878237" data-name="Trazado 878237" d="M.445.921A.461.461,0,0,0,.445,0a.461.461,0,0,0,0,.921" transform="translate(10.781 13.49)" fill="#567d56"/>
        <path id="Trazado_878238" data-name="Trazado 878238" d="M.445.921A.461.461,0,0,0,.445,0a.461.461,0,0,0,0,.921" transform="translate(12.08 13.18)" fill="#567d56"/>
        <path id="Trazado_878239" data-name="Trazado 878239" d="M.445.921A.461.461,0,0,0,.445,0a.461.461,0,0,0,0,.921" transform="translate(13.843 17.499)" fill="#567d56"/>
        <path id="Trazado_878240" data-name="Trazado 878240" d="M.445.921A.461.461,0,0,0,.445,0a.461.461,0,0,0,0,.921" transform="translate(14.203 16.42)" fill="#567d56"/>
        <path id="Trazado_878241" data-name="Trazado 878241" d="M.755,1.367A.929.929,0,0,0,.316.38,2.166,2.166,0,0,1,.02.126a.072.072,0,0,1,0-.1c.33-.114.643.211.762.49a1.655,1.655,0,0,1,.1.88.065.065,0,1,1-.127-.027" transform="translate(31.74 8.706)" fill="#567d56"/>
        <path id="Trazado_878242" data-name="Trazado 878242" d="M.432.743C.48.535.288.393.134.3A.358.358,0,0,1,.006.138C-.043-.037.24-.023.314.057a.922.922,0,0,1,.249.7A.066.066,0,1,1,.432.743" transform="translate(31.62 9.114)" fill="#567d56"/>
        <path id="Trazado_878243" data-name="Trazado 878243" d="M.014,4.352A12.562,12.562,0,0,1,4.834,0,.066.066,0,0,1,4.9.119,22.937,22.937,0,0,0,1.127,3.156,11.834,11.834,0,0,0,.12,4.427c-.046.071-.159,0-.106-.075" transform="translate(3.512 3.113)" fill="#567d56"/>
        <path id="Trazado_878244" data-name="Trazado 878244" d="M.018,2.135C.783,1.35,1.434.172,2.619,0a.067.067,0,0,1,.073.061.068.068,0,0,1-.029.061c-.234.162-.464.3-.693.441A7.228,7.228,0,0,0,.116,2.22c-.053.068-.158-.021-.1-.085" transform="translate(5.095 4.482)" fill="#567d56"/>
      </g>
    </g>
    <path id="Trazado_878023" data-name="Trazado 878023" d="M8.713,6.518a4.749,4.749,0,0,0-1.255-5.49A4.461,4.461,0,0,0,4.735,0a5.034,5.034,0,0,0-2.849.77A3.847,3.847,0,0,0,.5,5.9a3.362,3.362,0,0,0,2.68,1.559A3.419,3.419,0,0,0,5.959,6.276a2.427,2.427,0,0,0,.073-3.025,2.336,2.336,0,0,0-1.522-.9,1.752,1.752,0,0,0-1.629.689,1.623,1.623,0,0,0-.306.854.906.906,0,0,0,.78.924.785.785,0,0,0,.895-.7.3.3,0,0,1,0-.058c0-.006,0-.013,0-.019l-.029.131c-.011-.031.031-.1.041-.126,0-.006.017-.05.023-.052.024-.005-.114.17-.054.108.011-.012.063-.11.079-.106s-.173.153-.07.073l.044-.037c.03-.024.064-.043.094-.066.063-.051-.1.072-.1.057a.2.2,0,0,1,.053-.024.508.508,0,0,0,.054-.021c.118-.054-.145.019-.073.016a.624.624,0,0,0,.116-.015c.085-.022-.134.013-.116,0a.2.2,0,0,1,.059.005c.027,0,.055.01.082.013.082.01-.107-.021-.1-.029s.132.045.144.049c.04.016.078.035.116.053.1.044-.175-.113-.092-.049.016.012.035.022.052.034.034.024.065.05.1.075.1.076-.149-.163-.034-.032.031.036.063.071.092.108.012.016.023.035.036.049.063.068-.08-.116-.063-.1.062.05.094.184.126.253.057.123-.046-.182-.015-.051.009.039.02.078.028.117s.015.093.022.139c.026.165,0-.15,0-.03-.005.087-.016.173-.022.259s.02-.106.023-.108-.013.05-.016.058c-.013.045-.028.09-.045.133s-.092.189-.019.052,0,0-.021.03a2.173,2.173,0,0,1-.165.233q-.038.047-.079.092a.265.265,0,0,0-.041.045c0,.009.141-.137.079-.083s-.139.126-.215.183c-.041.031-.207.105-.218.147,0,0,.164-.089.095-.054l-.054.029c-.042.022-.085.042-.128.061a2.628,2.628,0,0,1-.247.1l-.117.036c-.123.037.081-.024.085-.022s-.068.015-.08.017q-.12.024-.243.037c-.048.005-.1.009-.143.011l-.062,0c-.112.007.076,0,.091,0a1.653,1.653,0,0,1-.534-.064c-.13-.025.2.063.032.007-.04-.013-.08-.026-.119-.04-.093-.034-.18-.077-.271-.118s.115.069.107.061a.357.357,0,0,0-.056-.033q-.065-.039-.127-.082c-.079-.055-.15-.116-.225-.176s.1.092.085.082a.515.515,0,0,1-.064-.064q-.048-.05-.093-.1a2.89,2.89,0,0,1-.189-.252s.1.164.061.093c-.01-.019-.022-.038-.032-.057q-.031-.057-.059-.115t-.052-.117c-.011-.026-.02-.053-.031-.079-.045-.111.034.076.026.084s-.107-.535-.1-.532.008.183.007.106c0-.021,0-.042,0-.062,0-.049,0-.1,0-.146,0-.1.011-.195.024-.291.006-.041.012-.083.019-.124a.463.463,0,0,0,.011-.062s-.04.178-.021.1c.024-.094.047-.189.077-.281a4.378,4.378,0,0,1,.2-.5c.037-.081-.06.116-.054.1a.534.534,0,0,1,.039-.07q.03-.052.062-.1.074-.119.159-.231.073-.1.152-.186c.024-.027.145-.154.034-.041s.012-.01.039-.036a3.565,3.565,0,0,1,.409-.329c.072-.05.148-.1.222-.143s-.1.054-.094.053a.224.224,0,0,0,.054-.029c.048-.026.1-.051.146-.075a4.025,4.025,0,0,1,.5-.2c.073-.024.368-.095.1-.034.088-.019.175-.04.265-.056a4.084,4.084,0,0,1,.561-.061c.019,0,.116.009.126,0s-.188,0-.109,0l.063,0q.147.005.294.021c.091.01.182.023.272.04l.125.025.062.014c.114.025-.077-.014-.09-.024a1.108,1.108,0,0,0,.265.083c.095.033.188.071.28.112l.118.055c.034.017.175.093.035.015s.016.01.052.032.09.056.133.086q.122.083.237.176c.035.028.069.057.1.087L6.6,2.4c.08.071-.144-.143-.071-.065a4.554,4.554,0,0,1,.385.453c.025.036.05.072.075.108.082.121-.1-.164-.025-.038.051.088.1.177.145.268s.08.171.115.258c.016.04.032.081.047.122l.022.061c.038.106-.017-.062-.026-.08a2.135,2.135,0,0,1,.133.568q.02.128.032.257c0,.021,0,.043.006.064.012.134,0-.081,0-.082.016.013,0,.128,0,.15a4.021,4.021,0,0,1-.033.553c-.007.049-.014.1-.022.146,0,.021-.008.041-.011.062-.012.077.019-.1.022-.1a2.543,2.543,0,0,1-.073.284,3.543,3.543,0,0,1-.195.5.816.816,0,0,0,.037.62.932.932,0,0,0,.487.455.818.818,0,0,0,1.066-.444" transform="matrix(0.809, 0.588, -0.588, 0.809, 7525.202, -10565.533)" fill="#ac9afc"/>
    <g id="Grupo_1101242" data-name="Grupo 1101242" transform="translate(6781.453 -10555.055)">
      <rect id="Rectángulo_402181" data-name="Rectángulo 402181" width="133.883" height="52.667" rx="20" transform="translate(0 4)" fill="url(#linear-gradient-3)"/>
      <rect id="Rectángulo_402180" data-name="Rectángulo 402180" width="122.883" height="40.667" rx="14" transform="translate(6 10)" fill="#fff"/>
      <path id="Trazado_880112" data-name="Trazado 880112" d="M19.157,12.35a8.8,8.8,0,0,1-.7,3.647,5.326,5.326,0,0,1-1.992,2.378,5.481,5.481,0,0,1-3.008.82,5.3,5.3,0,0,1-5-3.179,8.439,8.439,0,0,1-.737-3.54V11.451a8.691,8.691,0,0,1,.713-3.623,5.272,5.272,0,0,1,5-3.242,5.512,5.512,0,0,1,3.013.825A5.316,5.316,0,0,1,18.454,7.8a8.838,8.838,0,0,1,.7,3.647Zm-1.865-.918A6.375,6.375,0,0,0,16.276,7.55,3.35,3.35,0,0,0,13.435,6.2a3.314,3.314,0,0,0-2.8,1.353A6.245,6.245,0,0,0,9.587,11.3V12.35a6.384,6.384,0,0,0,1.03,3.853,3.328,3.328,0,0,0,2.837,1.4,3.314,3.314,0,0,0,2.813-1.323,6.348,6.348,0,0,0,1.025-3.794Zm7.939.859,2.344-3.857h2.109l-3.457,5.225L29.792,19H27.7l-2.441-3.955L22.819,19h-2.1l3.564-5.342L20.827,8.434h2.09ZM33.562,19H31.745V8.434h1.816Zm.02-14.99h2.188L33.151,6.881l-1.455,0Zm2.529,9.619A6.21,6.21,0,0,1,37.253,9.7,3.939,3.939,0,0,1,43.3,9.605l.088-1.172h1.65V18.746a4.3,4.3,0,0,1-1.216,3.232,4.487,4.487,0,0,1-3.267,1.182,5.435,5.435,0,0,1-2.236-.488,3.85,3.85,0,0,1-1.67-1.338l.938-1.084a3.533,3.533,0,0,0,2.842,1.436,2.768,2.768,0,0,0,2.056-.742,2.837,2.837,0,0,0,.737-2.09v-.908a3.713,3.713,0,0,1-2.959,1.25,3.609,3.609,0,0,1-3-1.494A6.529,6.529,0,0,1,36.11,13.629Zm1.816.205a4.738,4.738,0,0,0,.732,2.808,2.38,2.38,0,0,0,2.051,1.021,2.646,2.646,0,0,0,2.51-1.553V11.285a2.677,2.677,0,0,0-2.49-1.514A2.4,2.4,0,0,0,38.669,10.8,5.16,5.16,0,0,0,37.927,13.834ZM52.146,19.2a4.617,4.617,0,0,1-3.5-1.411A5.237,5.237,0,0,1,47.3,14.01v-.332a6.341,6.341,0,0,1,.6-2.808,4.685,4.685,0,0,1,1.68-1.934,4.223,4.223,0,0,1,2.339-.7,3.957,3.957,0,0,1,3.2,1.357,5.877,5.877,0,0,1,1.143,3.887v.752H49.108a3.756,3.756,0,0,0,.913,2.524,2.87,2.87,0,0,0,2.222.962,3.147,3.147,0,0,0,1.621-.391,4.073,4.073,0,0,0,1.162-1.035l1.1.859A4.437,4.437,0,0,1,52.146,19.2Zm-.225-9.473a2.41,2.41,0,0,0-1.836.8,3.868,3.868,0,0,0-.918,2.231H54.46v-.137a3.441,3.441,0,0,0-.742-2.134A2.269,2.269,0,0,0,51.921,9.723Zm8.145-1.289.059,1.328a3.851,3.851,0,0,1,3.164-1.523q3.35,0,3.379,3.779V19H64.86V12.008a2.432,2.432,0,0,0-.522-1.689,2.094,2.094,0,0,0-1.6-.547,2.607,2.607,0,0,0-1.543.469,3.183,3.183,0,0,0-1.035,1.23V19H58.356V8.434Zm8.848,5.186a6.241,6.241,0,0,1,.61-2.793,4.553,4.553,0,0,1,1.7-1.914,4.626,4.626,0,0,1,2.485-.674A4.456,4.456,0,0,1,77.2,9.732a5.748,5.748,0,0,1,1.333,3.975v.127a6.3,6.3,0,0,1-.591,2.769,4.486,4.486,0,0,1-1.689,1.909,4.679,4.679,0,0,1-2.524.684A4.445,4.445,0,0,1,70.246,17.7a5.719,5.719,0,0,1-1.333-3.955Zm1.816.215a4.52,4.52,0,0,0,.815,2.822,2.763,2.763,0,0,0,4.37-.015,4.943,4.943,0,0,0,.811-3.022A4.513,4.513,0,0,0,75.9,10.8a2.623,2.623,0,0,0-2.192-1.079,2.594,2.594,0,0,0-2.158,1.064A4.906,4.906,0,0,0,70.729,13.834Z" transform="translate(16.5 18.622)" fill="#12263f"/>
      <circle id="Elipse_11599" data-name="Elipse 11599" cx="31.5" cy="31.5" r="31.5" transform="translate(102.216)" fill="#87de87"/>
      <path id="Trazado_880113" data-name="Trazado 880113" d="M10.348,5.762V8.551H10.02a5.754,5.754,0,0,0-3.7,1.2,4.857,4.857,0,0,0-1.682,3.223,4.613,4.613,0,0,1,3.434-1.383,4.346,4.346,0,0,1,3.539,1.594,6.389,6.389,0,0,1,1.313,4.2,6.284,6.284,0,0,1-.721,3.012,5.169,5.169,0,0,1-2.039,2.1,5.924,5.924,0,0,1-2.982.75A5.533,5.533,0,0,1,2.83,21.359a7.278,7.278,0,0,1-1.658-5V15.137a10.953,10.953,0,0,1,1.049-4.9A7.691,7.691,0,0,1,5.232,6.939,8.825,8.825,0,0,1,9.785,5.762Zm-3.3,8.555a2.706,2.706,0,0,0-1.488.427,2.572,2.572,0,0,0-.984,1.129V16.9a4.56,4.56,0,0,0,.668,2.649,2.159,2.159,0,0,0,1.875.953,2.135,2.135,0,0,0,1.764-.86,3.506,3.506,0,0,0,.674-2.228,3.5,3.5,0,0,0-.68-2.246A2.215,2.215,0,0,0,7.043,14.316Zm8.391.293.984-8.672H25.98V8.762H19.2l-.422,3.668a5.369,5.369,0,0,1,2.566-.645A4.918,4.918,0,0,1,25.16,13.3a6.038,6.038,0,0,1,1.383,4.23,6.186,6.186,0,0,1-.7,2.959,4.921,4.921,0,0,1-2,2.027,6.237,6.237,0,0,1-3.07.721,6.624,6.624,0,0,1-2.871-.627,5.093,5.093,0,0,1-2.092-1.764A4.807,4.807,0,0,1,15,18.254h3.352a2.5,2.5,0,0,0,.744,1.658,2.359,2.359,0,0,0,1.67.592,2.082,2.082,0,0,0,1.77-.826,3.827,3.827,0,0,0,.621-2.338,3.165,3.165,0,0,0-.715-2.227,2.623,2.623,0,0,0-2.027-.773,2.932,2.932,0,0,0-1.957.633l-.328.3ZM28.652,9.219a3.373,3.373,0,0,1,1.02-2.549,3.7,3.7,0,0,1,2.672-.979,3.756,3.756,0,0,1,2.7.967,3.438,3.438,0,0,1,1.02,2.619v.844a3.331,3.331,0,0,1-1.02,2.543,3.737,3.737,0,0,1-2.672.961,3.76,3.76,0,0,1-2.689-.967,3.413,3.413,0,0,1-1.025-2.607Zm2.25.9a1.579,1.579,0,0,0,.4,1.131,1.392,1.392,0,0,0,1.061.428,1.328,1.328,0,0,0,1.043-.434,1.679,1.679,0,0,0,.387-1.16V9.219a1.644,1.644,0,0,0-.387-1.137A1.507,1.507,0,0,0,31.3,8.076a1.678,1.678,0,0,0-.4,1.189Zm5.906,8.7a3.33,3.33,0,0,1,1.031-2.549,3.749,3.749,0,0,1,2.672-.967,3.788,3.788,0,0,1,2.689.955,3.419,3.419,0,0,1,1.025,2.631v.844a3.355,3.355,0,0,1-1.008,2.537,3.714,3.714,0,0,1-2.684.967,3.759,3.759,0,0,1-2.707-.973,3.4,3.4,0,0,1-1.02-2.578Zm2.25.914a1.567,1.567,0,0,0,.422,1.1,1.376,1.376,0,0,0,1.055.457q1.43,0,1.43-1.582v-.891a1.593,1.593,0,0,0-.4-1.131,1.514,1.514,0,0,0-2.109,0,1.643,1.643,0,0,0-.4,1.166Zm-6.023,1.992-1.652-.891L39.715,7.5l1.652.891Z" transform="translate(112.397 16.833)" fill="#12263f"/>
    </g>
    <g id="Grupo_1101241" data-name="Grupo 1101241" transform="translate(6957.924 -10554.136)">
      <rect id="Rectángulo_402248" data-name="Rectángulo 402248" width="133.883" height="52.667" rx="20" transform="translate(0 4)" fill="url(#linear-gradient-3)"/>
      <rect id="Rectángulo_402249" data-name="Rectángulo 402249" width="122.883" height="40.667" rx="14" transform="translate(6 10)" fill="#fff"/>
      <path id="Trazado_880111" data-name="Trazado 880111" d="M17.243,14.488a5.231,5.231,0,0,1-1.665,3.481A5.457,5.457,0,0,1,11.853,19.2a5.01,5.01,0,0,1-4.038-1.807A7.268,7.268,0,0,1,6.3,12.555V11.188A8.1,8.1,0,0,1,7,7.7a5.288,5.288,0,0,1,2.007-2.31,5.588,5.588,0,0,1,3.008-.806,5.138,5.138,0,0,1,3.633,1.265,5.294,5.294,0,0,1,1.592,3.5H15.358A4.085,4.085,0,0,0,14.3,6.883a3.206,3.206,0,0,0-2.28-.764A3.355,3.355,0,0,0,9.2,7.448a6.1,6.1,0,0,0-1.021,3.782v1.378a6.273,6.273,0,0,0,.967,3.685,3.124,3.124,0,0,0,2.705,1.368,3.608,3.608,0,0,0,2.4-.708,3.929,3.929,0,0,0,1.108-2.466ZM26.042,19a3.8,3.8,0,0,1-.254-1.113A4.031,4.031,0,0,1,22.78,19.2a3.73,3.73,0,0,1-2.563-.884,2.859,2.859,0,0,1-1-2.241,2.987,2.987,0,0,1,1.255-2.563A5.916,5.916,0,0,1,24,12.594h1.758v-.83a2.029,2.029,0,0,0-.566-1.509,2.276,2.276,0,0,0-1.67-.562,2.634,2.634,0,0,0-1.621.488,1.439,1.439,0,0,0-.654,1.182H19.431a2.493,2.493,0,0,1,.562-1.528,3.832,3.832,0,0,1,1.523-1.167,5.125,5.125,0,0,1,2.114-.43,4.177,4.177,0,0,1,2.861.913,3.294,3.294,0,0,1,1.074,2.515v4.863a5.946,5.946,0,0,0,.371,2.314V19Zm-3-1.377a3.175,3.175,0,0,0,1.611-.439,2.658,2.658,0,0,0,1.1-1.143V13.873H24.343q-3.32,0-3.32,1.943a1.645,1.645,0,0,0,.566,1.328A2.177,2.177,0,0,0,23.044,17.623ZM35.5,10.055a5.414,5.414,0,0,0-.889-.068A2.381,2.381,0,0,0,32.2,11.5V19H30.4V8.434h1.758l.029,1.221A2.813,2.813,0,0,1,34.7,8.238a1.846,1.846,0,0,1,.8.137ZM46.11,13.834A6.283,6.283,0,0,1,45,17.726a3.557,3.557,0,0,1-2.988,1.47,3.683,3.683,0,0,1-3.1-1.416L38.825,19h-1.66V4h1.807V9.6a3.663,3.663,0,0,1,3.018-1.357,3.579,3.579,0,0,1,3.022,1.455,6.471,6.471,0,0,1,1.1,3.984ZM44.3,13.629a4.882,4.882,0,0,0-.713-2.852A2.36,2.36,0,0,0,41.54,9.771a2.652,2.652,0,0,0-2.568,1.66V16a2.727,2.727,0,0,0,2.588,1.66,2.347,2.347,0,0,0,2.021-1.006A5.192,5.192,0,0,0,44.3,13.629Zm3.6-.01a6.241,6.241,0,0,1,.61-2.793,4.553,4.553,0,0,1,1.7-1.914A4.626,4.626,0,0,1,52.7,8.238a4.456,4.456,0,0,1,3.491,1.494,5.748,5.748,0,0,1,1.333,3.975v.127a6.3,6.3,0,0,1-.591,2.769,4.486,4.486,0,0,1-1.689,1.909,4.679,4.679,0,0,1-2.524.684A4.445,4.445,0,0,1,49.24,17.7a5.719,5.719,0,0,1-1.333-3.955Zm1.816.215a4.52,4.52,0,0,0,.815,2.822,2.763,2.763,0,0,0,4.37-.015,4.943,4.943,0,0,0,.811-3.022,4.513,4.513,0,0,0-.825-2.817A2.623,2.623,0,0,0,52.7,9.723a2.594,2.594,0,0,0-2.158,1.064A4.906,4.906,0,0,0,49.724,13.834ZM61.5,8.434l.059,1.328a3.851,3.851,0,0,1,3.164-1.523q3.35,0,3.379,3.779V19H66.3V12.008a2.432,2.432,0,0,0-.522-1.689,2.094,2.094,0,0,0-1.6-.547,2.607,2.607,0,0,0-1.543.469,3.183,3.183,0,0,0-1.035,1.23V19H59.792V8.434Zm8.848,5.186a6.241,6.241,0,0,1,.61-2.793,4.553,4.553,0,0,1,1.7-1.914,4.626,4.626,0,0,1,2.485-.674,4.456,4.456,0,0,1,3.491,1.494,5.748,5.748,0,0,1,1.333,3.975v.127a6.3,6.3,0,0,1-.591,2.769,4.486,4.486,0,0,1-1.689,1.909,4.679,4.679,0,0,1-2.524.684A4.445,4.445,0,0,1,71.682,17.7a5.719,5.719,0,0,1-1.333-3.955Zm1.816.215a4.52,4.52,0,0,0,.815,2.822,2.763,2.763,0,0,0,4.37-.015,4.943,4.943,0,0,0,.811-3.022,4.513,4.513,0,0,0-.825-2.817,2.623,2.623,0,0,0-2.192-1.079,2.594,2.594,0,0,0-2.158,1.064A4.906,4.906,0,0,0,72.165,13.834Z" transform="translate(16.5 18.622)" fill="#12263f"/>
      <circle id="Elipse_11600" data-name="Elipse 11600" cx="31.5" cy="31.5" r="31.5" transform="translate(102.216)" fill="#87de87"/>
      <path id="Trazado_880114" data-name="Trazado 880114" d="M9.387,23H6V9.945L1.957,11.2V8.445L9.023,5.914h.363ZM26.051,10.473a3.969,3.969,0,0,1-.621,2.2,4.47,4.47,0,0,1-1.711,1.535,4.948,4.948,0,0,1,1.969,1.646,4.224,4.224,0,0,1,.727,2.467,4.472,4.472,0,0,1-1.547,3.592,6.275,6.275,0,0,1-4.207,1.318,6.3,6.3,0,0,1-4.219-1.324,4.461,4.461,0,0,1-1.559-3.586,4.251,4.251,0,0,1,.727-2.473,4.859,4.859,0,0,1,1.957-1.641,4.425,4.425,0,0,1-1.705-1.535,4,4,0,0,1-.615-2.2A4.422,4.422,0,0,1,16.7,7,5.721,5.721,0,0,1,20.648,5.7a5.759,5.759,0,0,1,3.943,1.283A4.406,4.406,0,0,1,26.051,10.473Zm-3.035,7.605a2.457,2.457,0,0,0-.645-1.781,2.3,2.3,0,0,0-1.734-.668,2.294,2.294,0,0,0-1.723.662,2.452,2.452,0,0,0-.645,1.787,2.451,2.451,0,0,0,.633,1.758,2.3,2.3,0,0,0,1.758.668,2.3,2.3,0,0,0,1.729-.645A2.446,2.446,0,0,0,23.016,18.078Zm-.352-7.441a2.344,2.344,0,0,0-.527-1.6,1.871,1.871,0,0,0-1.488-.6,1.884,1.884,0,0,0-1.477.586,2.33,2.33,0,0,0-.527,1.617,2.449,2.449,0,0,0,.527,1.641,1.845,1.845,0,0,0,1.488.621,1.828,1.828,0,0,0,1.482-.621A2.467,2.467,0,0,0,22.664,10.637Zm5.988-1.418a3.373,3.373,0,0,1,1.02-2.549,3.7,3.7,0,0,1,2.672-.979,3.756,3.756,0,0,1,2.7.967,3.438,3.438,0,0,1,1.02,2.619v.844a3.331,3.331,0,0,1-1.02,2.543,3.737,3.737,0,0,1-2.672.961,3.76,3.76,0,0,1-2.689-.967,3.413,3.413,0,0,1-1.025-2.607Zm2.25.9a1.579,1.579,0,0,0,.4,1.131,1.392,1.392,0,0,0,1.061.428,1.328,1.328,0,0,0,1.043-.434,1.679,1.679,0,0,0,.387-1.16V9.219a1.644,1.644,0,0,0-.387-1.137A1.507,1.507,0,0,0,31.3,8.076a1.678,1.678,0,0,0-.4,1.189Zm5.906,8.7a3.33,3.33,0,0,1,1.031-2.549,3.749,3.749,0,0,1,2.672-.967,3.788,3.788,0,0,1,2.689.955,3.419,3.419,0,0,1,1.025,2.631v.844a3.355,3.355,0,0,1-1.008,2.537,3.714,3.714,0,0,1-2.684.967,3.759,3.759,0,0,1-2.707-.973,3.4,3.4,0,0,1-1.02-2.578Zm2.25.914a1.567,1.567,0,0,0,.422,1.1,1.376,1.376,0,0,0,1.055.457q1.43,0,1.43-1.582v-.891a1.593,1.593,0,0,0-.4-1.131,1.514,1.514,0,0,0-2.109,0,1.643,1.643,0,0,0-.4,1.166Zm-6.023,1.992-1.652-.891L39.715,7.5l1.652.891Z" transform="translate(112.397 16.833)" fill="#12263f"/>
    </g>
    <g id="Grupo_1101240" data-name="Grupo 1101240" transform="translate(7140.075 -10550.136)">
      <rect id="Rectángulo_402250" data-name="Rectángulo 402250" width="133.883" height="52.667" rx="20" transform="translate(0 3.082)" fill="url(#linear-gradient-3)"/>
      <rect id="Rectángulo_402251" data-name="Rectángulo 402251" width="122.883" height="40.667" rx="14" transform="translate(6 9.082)" fill="#fff"/>
      <path id="Trazado_880110" data-name="Trazado 880110" d="M16.638,19H14.753L7.595,8.043V19H5.71V4.781H7.595l7.178,11.006V4.781h1.865Zm5.01,0H19.841V8.434h1.807ZM19.694,5.631a1.078,1.078,0,0,1,.269-.742,1.008,1.008,0,0,1,.8-.3,1.024,1.024,0,0,1,.8.3,1.067,1.067,0,0,1,.273.742,1.032,1.032,0,0,1-.273.732,1.043,1.043,0,0,1-.8.293,1.026,1.026,0,0,1-.8-.293A1.043,1.043,0,0,1,19.694,5.631Zm7.295.244V8.434h1.973v1.4H26.989v6.561a1.467,1.467,0,0,0,.264.953,1.11,1.11,0,0,0,.9.318,4.374,4.374,0,0,0,.859-.117V19a5.268,5.268,0,0,1-1.387.194,2.25,2.25,0,0,1-1.826-.732,3.147,3.147,0,0,1-.615-2.08V9.83H23.259v-1.4h1.924V5.875Zm9.189,4.18a5.414,5.414,0,0,0-.889-.068A2.381,2.381,0,0,0,32.878,11.5V19H31.071V8.434h1.758l.029,1.221a2.813,2.813,0,0,1,2.52-1.416,1.846,1.846,0,0,1,.8.137Zm.986,3.564a6.241,6.241,0,0,1,.61-2.793,4.553,4.553,0,0,1,1.7-1.914,4.626,4.626,0,0,1,2.485-.674,4.456,4.456,0,0,1,3.491,1.494,5.748,5.748,0,0,1,1.333,3.975v.127a6.3,6.3,0,0,1-.591,2.769A4.486,4.486,0,0,1,44.5,18.512a4.679,4.679,0,0,1-2.524.684A4.445,4.445,0,0,1,38.5,17.7a5.719,5.719,0,0,1-1.333-3.955Zm1.816.215a4.52,4.52,0,0,0,.815,2.822,2.763,2.763,0,0,0,4.37-.015,4.943,4.943,0,0,0,.811-3.022,4.513,4.513,0,0,0-.825-2.817A2.623,2.623,0,0,0,41.96,9.723,2.594,2.594,0,0,0,39.8,10.787,4.906,4.906,0,0,0,38.981,13.834ZM42.78,4h2.188L42.351,6.871l-1.455,0Zm5.84,9.629A6.21,6.21,0,0,1,49.763,9.7a3.939,3.939,0,0,1,6.045-.093L55.9,8.434h1.65V18.746a4.3,4.3,0,0,1-1.216,3.232,4.487,4.487,0,0,1-3.267,1.182,5.435,5.435,0,0,1-2.236-.488,3.85,3.85,0,0,1-1.67-1.338l.938-1.084a3.533,3.533,0,0,0,2.842,1.436,2.768,2.768,0,0,0,2.056-.742,2.837,2.837,0,0,0,.737-2.09v-.908a3.713,3.713,0,0,1-2.959,1.25,3.609,3.609,0,0,1-3-1.494A6.529,6.529,0,0,1,48.62,13.629Zm1.816.205a4.738,4.738,0,0,0,.732,2.808,2.38,2.38,0,0,0,2.051,1.021,2.646,2.646,0,0,0,2.51-1.553V11.285a2.677,2.677,0,0,0-2.49-1.514A2.4,2.4,0,0,0,51.179,10.8,5.16,5.16,0,0,0,50.437,13.834ZM64.655,19.2a4.617,4.617,0,0,1-3.5-1.411,5.237,5.237,0,0,1-1.348-3.774v-.332a6.341,6.341,0,0,1,.6-2.808,4.685,4.685,0,0,1,1.68-1.934,4.223,4.223,0,0,1,2.339-.7,3.957,3.957,0,0,1,3.2,1.357,5.877,5.877,0,0,1,1.143,3.887v.752H61.618a3.756,3.756,0,0,0,.913,2.524,2.87,2.87,0,0,0,2.222.962,3.147,3.147,0,0,0,1.621-.391,4.073,4.073,0,0,0,1.162-1.035l1.1.859A4.437,4.437,0,0,1,64.655,19.2Zm-.225-9.473a2.41,2.41,0,0,0-1.836.8,3.868,3.868,0,0,0-.918,2.231H66.97v-.137a3.441,3.441,0,0,0-.742-2.134A2.269,2.269,0,0,0,64.431,9.723Zm8.145-1.289.059,1.328A3.85,3.85,0,0,1,75.8,8.238q3.35,0,3.379,3.779V19H77.37V12.008a2.432,2.432,0,0,0-.522-1.689,2.094,2.094,0,0,0-1.6-.547,2.607,2.607,0,0,0-1.543.469,3.183,3.183,0,0,0-1.035,1.23V19H70.866V8.434Zm8.848,5.186a6.241,6.241,0,0,1,.61-2.793,4.553,4.553,0,0,1,1.7-1.914,4.626,4.626,0,0,1,2.485-.674,4.456,4.456,0,0,1,3.491,1.494,5.748,5.748,0,0,1,1.333,3.975v.127a6.3,6.3,0,0,1-.591,2.769,4.486,4.486,0,0,1-1.689,1.909,4.679,4.679,0,0,1-2.524.684A4.445,4.445,0,0,1,82.756,17.7a5.719,5.719,0,0,1-1.333-3.955Zm1.816.215a4.52,4.52,0,0,0,.815,2.822,2.763,2.763,0,0,0,4.37-.015,4.943,4.943,0,0,0,.811-3.022A4.513,4.513,0,0,0,88.41,10.8a2.623,2.623,0,0,0-2.192-1.079,2.594,2.594,0,0,0-2.158,1.064A4.906,4.906,0,0,0,83.239,13.834Z" transform="translate(16.5 17.704)" fill="#12263f"/>
      <circle id="Elipse_11601" data-name="Elipse 11601" cx="31.5" cy="31.5" r="31.5" transform="translate(112.5)" fill="#87de87"/>
      <path id="Trazado_880115" data-name="Trazado 880115" d="M4.605,12.969h1.8a2.543,2.543,0,0,0,1.91-.645,2.362,2.362,0,0,0,.621-1.711,2.088,2.088,0,0,0-.615-1.605,2.384,2.384,0,0,0-1.693-.574A2.5,2.5,0,0,0,5,8.967a1.7,1.7,0,0,0-.656,1.389H.961a4.165,4.165,0,0,1,.721-2.4A4.8,4.8,0,0,1,3.7,6.3a6.727,6.727,0,0,1,2.854-.6A6.38,6.38,0,0,1,10.793,7a4.418,4.418,0,0,1,1.535,3.568,3.59,3.59,0,0,1-.715,2.156,4.644,4.644,0,0,1-1.875,1.512,4.24,4.24,0,0,1,2.15,1.547,4.2,4.2,0,0,1,.709,2.438,4.491,4.491,0,0,1-1.658,3.645,6.667,6.667,0,0,1-4.389,1.371,6.322,6.322,0,0,1-4.178-1.348A4.4,4.4,0,0,1,.75,18.324H4.137a1.962,1.962,0,0,0,.721,1.57,2.656,2.656,0,0,0,1.775.609,2.668,2.668,0,0,0,1.893-.639,2.2,2.2,0,0,0,.686-1.693q0-2.555-2.812-2.555H4.605Zm10.277-3.75A3.373,3.373,0,0,1,15.9,6.67a3.7,3.7,0,0,1,2.672-.979,3.756,3.756,0,0,1,2.7.967,3.438,3.438,0,0,1,1.02,2.619v.844a3.331,3.331,0,0,1-1.02,2.543,3.737,3.737,0,0,1-2.672.961,3.76,3.76,0,0,1-2.689-.967,3.413,3.413,0,0,1-1.025-2.607Zm2.25.9a1.579,1.579,0,0,0,.4,1.131,1.392,1.392,0,0,0,1.061.428,1.328,1.328,0,0,0,1.043-.434,1.679,1.679,0,0,0,.387-1.16V9.219a1.644,1.644,0,0,0-.387-1.137,1.507,1.507,0,0,0-2.109-.006,1.678,1.678,0,0,0-.4,1.189Zm5.906,8.7a3.33,3.33,0,0,1,1.031-2.549,3.749,3.749,0,0,1,2.672-.967,3.788,3.788,0,0,1,2.689.955,3.419,3.419,0,0,1,1.025,2.631v.844a3.355,3.355,0,0,1-1.008,2.537,3.714,3.714,0,0,1-2.684.967,3.759,3.759,0,0,1-2.707-.973,3.4,3.4,0,0,1-1.02-2.578Zm2.25.914a1.567,1.567,0,0,0,.422,1.1,1.376,1.376,0,0,0,1.055.457q1.43,0,1.43-1.582v-.891a1.593,1.593,0,0,0-.4-1.131,1.514,1.514,0,0,0-2.109,0,1.643,1.643,0,0,0-.4,1.166Zm-6.023,1.992-1.652-.891L25.945,7.5l1.652.891Z" transform="translate(131 19.252)" fill="#12263f"/>
    </g>
    <g id="Grupo_1101239" data-name="Grupo 1101239" transform="translate(7319.453 -10549.852)">
      <rect id="Rectángulo_402252" data-name="Rectángulo 402252" width="133.883" height="52.667" rx="20" transform="translate(0 4.878)" fill="url(#linear-gradient-3)"/>
      <rect id="Rectángulo_402253" data-name="Rectángulo 402253" width="122.883" height="40.667" rx="14" transform="translate(6 10.878)" fill="#fff"/>
      <path id="Trazado_880109" data-name="Trazado 880109" d="M8.591,4.781l4.648,11.6,4.648-11.6h2.432V19H18.444V13.463l.176-5.977L13.952,19H12.517L7.858,7.516l.186,5.947V19H6.169V4.781ZM25.31,19H23.5V8.434H25.31ZM23.356,5.631a1.078,1.078,0,0,1,.269-.742,1.008,1.008,0,0,1,.8-.3,1.024,1.024,0,0,1,.8.3,1.067,1.067,0,0,1,.273.742,1.032,1.032,0,0,1-.273.732,1.043,1.043,0,0,1-.8.293,1.026,1.026,0,0,1-.8-.293A1.043,1.043,0,0,1,23.356,5.631Zm6.553,2.8.059,1.328a3.85,3.85,0,0,1,3.164-1.523q3.35,0,3.379,3.779V19H34.7V12.008a2.432,2.432,0,0,0-.522-1.689,2.094,2.094,0,0,0-1.6-.547,2.607,2.607,0,0,0-1.543.469,3.183,3.183,0,0,0-1.035,1.23V19H28.2V8.434ZM43.62,19.2a4.617,4.617,0,0,1-3.5-1.411,5.237,5.237,0,0,1-1.348-3.774v-.332a6.341,6.341,0,0,1,.6-2.808,4.685,4.685,0,0,1,1.68-1.934,4.223,4.223,0,0,1,2.339-.7A3.957,3.957,0,0,1,46.6,9.6a5.877,5.877,0,0,1,1.143,3.887v.752H40.583a3.756,3.756,0,0,0,.913,2.524,2.87,2.87,0,0,0,2.222.962,3.147,3.147,0,0,0,1.621-.391A4.073,4.073,0,0,0,46.5,16.295l1.1.859A4.437,4.437,0,0,1,43.62,19.2ZM43.4,9.723a2.41,2.41,0,0,0-1.836.8,3.868,3.868,0,0,0-.918,2.231h5.293v-.137a3.441,3.441,0,0,0-.742-2.134A2.269,2.269,0,0,0,43.4,9.723Zm11.543.332a5.414,5.414,0,0,0-.889-.068A2.381,2.381,0,0,0,51.638,11.5V19H49.831V8.434h1.758l.029,1.221a2.813,2.813,0,0,1,2.52-1.416,1.846,1.846,0,0,1,.8.137ZM62.731,19a3.8,3.8,0,0,1-.254-1.113A4.031,4.031,0,0,1,59.47,19.2a3.73,3.73,0,0,1-2.563-.884,2.859,2.859,0,0,1-1-2.241,2.987,2.987,0,0,1,1.255-2.563,5.916,5.916,0,0,1,3.53-.913h1.758v-.83a2.029,2.029,0,0,0-.566-1.509,2.276,2.276,0,0,0-1.67-.562,2.634,2.634,0,0,0-1.621.488,1.439,1.439,0,0,0-.654,1.182H56.12a2.493,2.493,0,0,1,.562-1.528,3.832,3.832,0,0,1,1.523-1.167,5.125,5.125,0,0,1,2.114-.43,4.177,4.177,0,0,1,2.861.913,3.294,3.294,0,0,1,1.074,2.515v4.863a5.946,5.946,0,0,0,.371,2.314V19Zm-3-1.377a3.175,3.175,0,0,0,1.611-.439,2.658,2.658,0,0,0,1.1-1.143V13.873H61.032q-3.32,0-3.32,1.943a1.645,1.645,0,0,0,.566,1.328A2.177,2.177,0,0,0,59.733,17.623ZM69.05,19H67.243V4H69.05Zm7.275.2a4.617,4.617,0,0,1-3.5-1.411,5.237,5.237,0,0,1-1.348-3.774v-.332a6.341,6.341,0,0,1,.6-2.808,4.685,4.685,0,0,1,1.68-1.934,4.223,4.223,0,0,1,2.339-.7A3.957,3.957,0,0,1,79.3,9.6a5.877,5.877,0,0,1,1.143,3.887v.752H73.288a3.756,3.756,0,0,0,.913,2.524,2.87,2.87,0,0,0,2.222.962,3.147,3.147,0,0,0,1.621-.391,4.073,4.073,0,0,0,1.162-1.035l1.1.859A4.437,4.437,0,0,1,76.325,19.2ZM76.1,9.723a2.41,2.41,0,0,0-1.836.8,3.869,3.869,0,0,0-.918,2.231H78.64v-.137a3.441,3.441,0,0,0-.742-2.134A2.269,2.269,0,0,0,76.1,9.723ZM88.688,16.2a1.33,1.33,0,0,0-.552-1.138,5.311,5.311,0,0,0-1.924-.7,9.1,9.1,0,0,1-2.178-.7,3.1,3.1,0,0,1-1.191-.977,2.336,2.336,0,0,1-.386-1.348,2.741,2.741,0,0,1,1.1-2.2,4.291,4.291,0,0,1,2.808-.9,4.415,4.415,0,0,1,2.915.928A2.947,2.947,0,0,1,90.4,11.539H88.581a1.631,1.631,0,0,0-.63-1.279,2.36,2.36,0,0,0-1.587-.537,2.47,2.47,0,0,0-1.543.43,1.353,1.353,0,0,0-.557,1.123,1.1,1.1,0,0,0,.518.986,6.368,6.368,0,0,0,1.87.635,9.744,9.744,0,0,1,2.192.723A3.2,3.2,0,0,1,90.09,14.63a2.485,2.485,0,0,1,.405,1.44,2.7,2.7,0,0,1-1.133,2.271,4.752,4.752,0,0,1-2.939.854,5.321,5.321,0,0,1-2.246-.449,3.653,3.653,0,0,1-1.528-1.255,3.025,3.025,0,0,1-.552-1.743H83.9a1.87,1.87,0,0,0,.728,1.44,2.822,2.822,0,0,0,1.792.532,2.913,2.913,0,0,0,1.646-.415A1.275,1.275,0,0,0,88.688,16.2Z" transform="translate(16.5 19.5)" fill="#12263f"/>
      <circle id="Elipse_11602" data-name="Elipse 11602" cx="31.5" cy="31.5" r="31.5" transform="translate(115.24)" fill="#87de87"/>
      <path id="Trazado_880116" data-name="Trazado 880116" d="M11.18,16.578h1.934v2.73H11.18V23H7.793V19.309H.8L.645,17.176,7.758,5.938H11.18Zm-7.16,0H7.793V10.555l-.223.387ZM14.883,9.219A3.373,3.373,0,0,1,15.9,6.67a3.7,3.7,0,0,1,2.672-.979,3.756,3.756,0,0,1,2.7.967,3.438,3.438,0,0,1,1.02,2.619v.844a3.331,3.331,0,0,1-1.02,2.543,3.737,3.737,0,0,1-2.672.961,3.76,3.76,0,0,1-2.689-.967,3.413,3.413,0,0,1-1.025-2.607Zm2.25.9a1.579,1.579,0,0,0,.4,1.131,1.392,1.392,0,0,0,1.061.428,1.328,1.328,0,0,0,1.043-.434,1.679,1.679,0,0,0,.387-1.16V9.219a1.644,1.644,0,0,0-.387-1.137,1.507,1.507,0,0,0-2.109-.006,1.678,1.678,0,0,0-.4,1.189Zm5.906,8.7a3.33,3.33,0,0,1,1.031-2.549,3.749,3.749,0,0,1,2.672-.967,3.788,3.788,0,0,1,2.689.955,3.419,3.419,0,0,1,1.025,2.631v.844a3.355,3.355,0,0,1-1.008,2.537,3.714,3.714,0,0,1-2.684.967,3.759,3.759,0,0,1-2.707-.973,3.4,3.4,0,0,1-1.02-2.578Zm2.25.914a1.567,1.567,0,0,0,.422,1.1,1.376,1.376,0,0,0,1.055.457q1.43,0,1.43-1.582v-.891a1.593,1.593,0,0,0-.4-1.131,1.514,1.514,0,0,0-2.109,0,1.643,1.643,0,0,0-.4,1.166Zm-6.023,1.992-1.652-.891L25.945,7.5l1.652.891Z" transform="translate(134 17.711)" fill="#12263f"/>
    </g>
  </g>
</svg>
