<svg xmlns="http://www.w3.org/2000/svg" xmlns:xlink="http://www.w3.org/1999/xlink" width="1240" height="604.627" viewBox="0 0 1240 604.627">
  <defs>
    <clipPath id="clip-path">
      <path id="Trazado_878278" data-name="Trazado 878278" d="M17.848,0h1204.3C1232.009,0,1240,10.145,1240,22.659v559.31c0,12.514-7.991,22.659-17.849,22.659H17.848C7.991,604.627,0,594.483,0,581.969V22.659C0,10.145,7.991,0,17.848,0Z" transform="translate(0 0)" fill="#ac9afc"/>
    </clipPath>
    <linearGradient id="linear-gradient" x1="0.165" y1="0.202" x2="0.98" y2="0.647" gradientUnits="objectBoundingBox">
      <stop offset="0" stop-color="#d8f263"/>
      <stop offset="1" stop-color="#e4f3a0"/>
    </linearGradient>
    <clipPath id="clip-path-2">
      <rect id="Rectángulo_402190" data-name="Rectángulo 402190" width="756.597" height="921.427" fill="#567d56"/>
    </clipPath>
    <clipPath id="clip-path-3">
      <path id="Trazado_878253" data-name="Trazado 878253" d="M0,0,915.829,10.167l9.754,692.979L9.753,692.979Z" fill="#d8f263"/>
    </clipPath>
    <clipPath id="clip-path-4">
      <rect id="Rectángulo_402191" data-name="Rectángulo 402191" width="813.798" height="807.305" fill="#d8f263"/>
    </clipPath>
  </defs>
  <g id="fnd-1" transform="translate(3320.5 14683.961)">
    <g id="Enmascarar_grupo_1098828" data-name="Enmascarar grupo 1098828" transform="translate(-3320.5 -14683.961)" clip-path="url(#clip-path)">
      <path id="Trazado_878250" data-name="Trazado 878250" d="M17.848,0h1204.3C1232.009,0,1240,10.145,1240,22.659v559.31c0,12.514-7.991,22.659-17.849,22.659H17.848C7.991,604.627,0,594.483,0,581.969V22.659C0,10.145,7.991,0,17.848,0Z" transform="translate(0 0)" fill="url(#linear-gradient)"/>
      <line id="Línea_2117" data-name="Línea 2117" y1="5.918" transform="translate(291.845 -76.582)" fill="none" stroke="#fff" stroke-miterlimit="10" stroke-width="1"/>
      <line id="Línea_2118" data-name="Línea 2118" x2="4.661" transform="translate(278.263 -61.423)" fill="none" stroke="#fff" stroke-miterlimit="10" stroke-width="1"/>
      <g id="Grupo_1101156" data-name="Grupo 1101156" transform="translate(661.266 -205.139)" opacity="0.36" style="mix-blend-mode: color-dodge;isolation: isolate">
        <g id="Grupo_1101155" data-name="Grupo 1101155" transform="translate(0 0)" opacity="0.54" clip-path="url(#clip-path-2)">
          <path id="Trazado_878251" data-name="Trazado 878251" d="M733.787,159.962c-3.692-41.955-6.144-84.992-28.218-118.135-12.5,46.1-34.277,86.528-56.517,127-30.069,54.738-61.845,107.776-95.83,158.776C486.573,427.959,410.822,513.566,332.67,598.95c-13.627,14.848-35.043-13.1-22.047-29.292C381.695,480.707,445.09,380.082,506.456,280.2c30.925-50.324,60.859-101.728,89.355-154.311,22.142-40.846,42.5-82.967,69.853-117.959C645.207-.549,622.595-.583,599.992.475q-39.753,1.98-79.528,4.54C457.691-1.818,394.5.549,330.757,11.386a37.058,37.058,0,0,0-24.288,15.053C265.618,55.139,274.357,142.691,331,151.031c23.741,3.447,47.478,6.969,71.22,10.416C295.069,225.68,195.263,308.476,104.295,408.464c-41.209,45.323,3.025,119.614,48.85,108.743a893.259,893.259,0,0,0,97.9-29.343q-124.353,152.6-237.091,319.88c-38.4,56.98,8.958,140.913,63.252,105.062,128.633-85.06,245.126-193.627,350.058-318.4-17.566,61.554-33.551,123.79-47.393,186.811-10.069,45.528,24.812,98.3,63.118,81.943C534.58,823.9,565.935,657.745,585.719,546.39c1.909,30.5,5.655,60.826,12.386,90.977,11.351,51.154,57.933,63.59,88.069,30.663C796.555,547.3,747.719,317.248,733.787,159.962m-423.5,195.76a380.3,380.3,0,0,0-59.434,41.273c-17.409,14.9-34.859-16.356-19.032-33.246,19.65-21.009,40.765-38.366,64.189-51.8a213.963,213.963,0,0,1,33.372-15.935c12.485-4.528,26.336-10.274,39.354-10.911,5.507-.239,12.341,2.15,15.294,8.732,2.474,5.535,3.572,9.745,3.043,15.963-.69,7.515-5.3,14.063-10.782,16.7-10.97,5.348-22.818,8.169-33.954,13.284-10.782,4.921-21.572,9.99-32.05,15.946m211.665,209.5c-.206,5.222-.462,10.365-.775,15.508-1.241,20.2-3.222,40.215-5.888,60.177-1.125,8.363-7.865,15.28-14.725,13.545-6.856-1.809-11.7-9.671-10.665-18.694q3.368-29.226,4.629-58.732l.412-10.661c0-.142-.013-1.086.009-1.741s.045-2.611.054-2.833c.045-1.087.085-2.173.072-3.265.031-3.851-.211-7.862.672-11.514.287-1.434.8-2.93,1.089-4.369,0-.068.09-.865.112-1.371.148-2.389.471-4.841.735-7.225.511-5.78.937-10.843,3.092-16.156,2.72-6.662,11.548-9.893,15.079-2.037a39.233,39.233,0,0,1,3.164,8.408c.529,2.651.7,5.5,1,8.2s.533,5.416.775,8.118c.081.808.161,1.684.242,2.56.049.222.349,1.331.439,1.917,1.47,6.417.739,13.494.479,20.161M685.466,357.474c-.081.648-.332,1.217-.47,1.86-.134.427-.211.933-.341,1.36l-.067.216c-1.246,4.136-3.33,7.64-6.861,10.035a11.847,11.847,0,0,1-10.311,1.678,4.143,4.143,0,0,1-.905-.273c-.619-.256-1.188-.364-1.81-.62a16.23,16.23,0,0,1-6.982-4.506,33.894,33.894,0,0,0-2.469-2.776,32.962,32.962,0,0,1-4.432-5.291c-.6-.836-1.192-1.746-1.788-2.583a31.039,31.039,0,0,1-2.684-4.6c-2.429-5.313-5.516-11.247-7.246-16.879-2.846-9.267-5.9-19.052-6.717-28.985-.641-8.545,3.056-16.822,8.94-20.884a14.049,14.049,0,0,1,18.534,1.957c6.166,6.349,10.925,15,15.532,23.142,2.734,4.824,4.777,11.127,6.977,16.429a52,52,0,0,1,3.477,16.572,33.484,33.484,0,0,0,.471,4.17,27.9,27.9,0,0,1-.847,9.978" transform="translate(0 -0.002)" fill="#567d56"/>
        </g>
      </g>
      <g id="Grupo_1101158" data-name="Grupo 1101158" transform="translate(533.462 -178.243) rotate(87)" opacity="0.17" style="mix-blend-mode: multiply;isolation: isolate">
        <g id="Grupo_1101157" data-name="Grupo 1101157" transform="translate(0 0)" clip-path="url(#clip-path-3)">
          <path id="Trazado_878252" data-name="Trazado 878252" d="M883.151,125.081c-4.914-31.6-8.336-64-35.407-89.225-14.64,34.5-40.575,64.614-67.067,94.757-35.818,40.763-73.72,80.224-114.318,118.124-79.614,74.576-170.4,137.94-264.1,201.105-16.338,10.984-42.557-10.32-27-22.326,85.088-65.943,160.761-140.768,233.984-215.064,36.9-37.432,72.591-75.689,106.527-114.852,26.369-30.422,50.566-61.826,83.305-87.775-24.852-6.65-52.223-6.979-79.572-6.487q-48.1.955-96.217,2.346A1326.84,1326.84,0,0,0,393.727,7.925c-13.1,1.258-22.589,5.374-29.24,10.994-49.144,21.036-37.64,87,31.017,94.032q43.162,4.368,86.319,8.791C352.8,168.61,232.862,229.537,123.807,303.513c-49.4,33.533,4.928,90,60.281,82.439q60-8.227,118.194-20.753-148.909,113.1-283.6,237.386c-45.878,42.337,12.335,106.1,77.676,79.864,154.8-62.243,294.666-142.327,420.36-234.756-20.612,46.057-39.3,92.648-55.39,139.858-11.707,34.1,31.075,74.261,77.269,62.475,110.452-28.295,146.647-152.834,169.416-236.314A289.679,289.679,0,0,0,723.967,482.3c14.281,38.624,70.8,48.6,106.928,24.244,132.334-89.314,70.784-262.986,52.255-381.463M372.593,266.615a515.657,515.657,0,0,0-71.506,30.241c-20.916,10.976-42.369-12.769-23.389-25.259a357.071,357.071,0,0,1,117.376-49.632c15.064-3.238,31.77-7.373,47.521-7.677,6.664-.106,14.961,1.783,18.605,6.773,3.053,4.2,4.426,7.377,3.852,12.046-.756,5.643-6.263,10.505-12.874,12.412-13.222,3.874-27.534,5.837-40.959,9.534-13,3.556-26.007,7.223-38.626,11.562m258.429,160.4c-.194,3.925-.449,7.789-.774,11.653a399.821,399.821,0,0,1-6.49,45.178c-1.273,6.274-9.358,11.386-17.681,9.989-8.318-1.453-14.271-7.431-13.108-14.2a379.58,379.58,0,0,0,4.982-44.108l.386-8.012c0-.107-.028-.817-.007-1.309s.027-1.963.035-2.13c.043-.817.08-1.633.052-2.455,0-2.9-.338-5.916.692-8.651.332-1.074.94-2.193,1.272-3.271,0-.051.1-.649.121-1.03.154-1.795.518-3.635.813-5.424.557-4.34,1.019-8.142,3.572-12.109,3.222-4.974,13.874-7.285,18.231-1.329a24.883,24.883,0,0,1,3.919,6.366,46.963,46.963,0,0,1,1.3,6.183c.387,2.04.7,4.08,1.024,6.116.106.609.213,1.269.32,1.929.062.168.437,1.006.552,1.448,1.847,4.846,1.038,10.158.794,15.169M826.751,272.975a11.073,11.073,0,0,1-.55,1.393c-.158.319-.245.7-.4,1.018l-.079.162a14.744,14.744,0,0,1-8.2,7.455,21.713,21.713,0,0,1-12.464,1.124,7.551,7.551,0,0,1-1.1-.217c-.751-.2-1.442-.29-2.2-.491a23.93,23.93,0,0,1-8.5-3.482,36.447,36.447,0,0,0-3.018-2.121,34.05,34.05,0,0,1-5.42-4.038c-.73-.637-1.462-1.33-2.192-1.966a25.036,25.036,0,0,1-3.3-3.5c-3-4.029-6.8-8.533-8.95-12.792-3.542-7.008-7.346-14.408-8.438-21.889-.866-6.435,3.521-12.61,10.6-15.586,7.009-2.929,16.068-2.423,22.456,1.721,7.531,4.858,13.383,11.429,19.046,17.613,3.36,3.665,5.9,8.433,8.619,12.45a27.649,27.649,0,0,1,4.385,12.51,16.353,16.353,0,0,0,.613,3.143,13.3,13.3,0,0,1-.919,7.493" transform="translate(6.762 5.081)" fill="#d8f263"/>
        </g>
      </g>
      <g id="Grupo_1101160" data-name="Grupo 1101160" transform="translate(524.839 -258.607)" opacity="0.24" style="mix-blend-mode: multiply;isolation: isolate">
        <g id="Grupo_1101159" data-name="Grupo 1101159" transform="translate(0 0)" clip-path="url(#clip-path-4)">
          <path id="Trazado_878254" data-name="Trazado 878254" d="M64.255,249.527c11.488,2.888,22.845,5.645,34.281,8,11.437,2.2,22.851,4.236,34.287,5.354,5.718.634,11.442.836,17.155,1.127,5.752.282,11.352.185,17.178.132a327.125,327.125,0,0,0,34.367-2.668c11.482-1.62,23-3.461,34.48-6.067,5.747-1.18,11.476-2.695,17.223-4.042q8.612-2.087,17.155-4.922c11.369-3.963,22.669-8.7,34.072-12.346,5.713-1.708,11.437-3.293,17.195-4.509,5.747-1.3,11.544-2.069,17.325-3.029l.7-.114c2.973-.5,5.718,1.858,7.114,5.636,3.784,10.276,7.885,20.5,12.038,30.556l13.014,29.685c8.725,19.743,17.932,38.9,26.975,58.242,9.122,19.206,18.063,38.772,28.552,56.076,2.615,4.315,5.27,8.577,8.1,12.5a98.5,98.5,0,0,0,8.9,10.84,84.729,84.729,0,0,0,9.366,8.8,41.575,41.575,0,0,0,8.884,5.794l-8.878,14.679-3.063-13.781c-.522-2.29-.936-4.641-1.413-6.957a69.539,69.539,0,0,1-1.628-9.731,31.062,31.062,0,0,1,.471-7.775,26.568,26.568,0,0,1,2.218-6.675,70.818,70.818,0,0,1,3.744-6.349l6.53-10.5,6.524-10.505c2-3.32,4.839-7.591,5.684-9.431a4.408,4.408,0,0,0,.522-1.832,23.052,23.052,0,0,0-.409-4.509l-2.422-13.922-2.5-14.442c-.879-5.31-1.293-12.6.352-19.206,3.341-12.68,9.372-18.677,13.155-25.123,4-6.287,7.256-13.984,10.461-22.252.794-2.122,1.611-4.218,1.951-5.556a6.1,6.1,0,0,0,.221-2.906c-.187-2.017-1.5-7.415-2.451-11.906-2.042-9.4-4.05-18.07-5.962-28.108a62.9,62.9,0,0,1-.964-9.924,39.9,39.9,0,0,1,1.662-12.029c2.258-7.177,4.89-10.849,6.66-14.23a236.486,236.486,0,0,0,10.637-21.971,20.523,20.523,0,0,0,1.135-3.337c.057-.229.062-.238.091-.159-.057-.634.062.238.017-.185-.045-1.242-2.15-4.5-4.64-10.717l-.6-1.664-.8-2.7c-.494-1.823-.766-3.285-1.061-4.958a63.562,63.562,0,0,1-.777-9.7,76.95,76.95,0,0,1,2.212-17.691c2.57-11.016,7.324-19.664,11.692-26.9L517.409,81.1c1.015-1.7,2.025-3.4,2.95-5.134l1.361-2.6c.187-.335.17-.37.057.229a7.174,7.174,0,0,0-.079,1.488c-.017-.493.028.528.062.6a4.8,4.8,0,0,0,.119.555c.17.572.233.511.114.238l-.664-1.523c-.55-1.312-1-2.483-1.407-3.619-.828-2.307-1.56-4.588-2.258-6.9a123,123,0,0,1-3.54-14.662c-.454-2.6.539-5.275,2.212-5.979,1.52-.643,3.086.572,3.7,2.747l.1.379c1.038,3.681,2.734,7.943,4.283,11.826.8,1.964,1.628,3.9,2.473,5.706.431.925.862,1.761,1.225,2.422l.766,1.365A14.011,14.011,0,0,1,530.2,71.6c.1.44.2.907.272,1.427.074.379.136,1.7.125,1.506a14.891,14.891,0,0,1-.255,3.285,19,19,0,0,1-1.044,3.443l-1.35,3.346c-.913,2.21-1.878,4.288-2.842,6.349-1.929,4.095-3.954,7.881-5.8,11.633-3.7,7.5-6.813,14.565-8.18,22.164-1.424,7.652-1.18,14.917.987,19.646.7,2.14,3.614,5.372,6.008,13.209a34.436,34.436,0,0,1,1.129,6.869,35.55,35.55,0,0,1-.323,7.071,46.9,46.9,0,0,1-2.706,9.907,267.225,267.225,0,0,1-11.386,25.264c-2.139,4.156-4.045,7.467-4.476,9.149a8.622,8.622,0,0,0-.352,2.1,27.1,27.1,0,0,0,.295,4.5c1.242,8.779,2.575,18.845,3.772,28.24.5,4.94,1.5,8.762,1.691,16.485a34.5,34.5,0,0,1-1.844,11.166c-1.049,3.012-2.025,4.931-2.9,6.921-3.551,8.066-7.233,16.722-11.97,24.445-4.731,7.476-9.519,13.42-10.58,19.417a23.734,23.734,0,0,0,.278,9.493c.743,4.016,1.844,9.061,2.774,13.561l2.927,14.045a51.091,51.091,0,0,1,1.072,9.836,32.014,32.014,0,0,1-2.258,11.888c-2.723,6.173-4.544,8.533-6.649,12.54l-6.183,10.99L464.253,422.5c-.993,1.8-2.235,3.963-2.445,4.614-.119.255-.131.678.079-.229.023.088.1-.766.108-.555-.017.141.4,1.779.97,4.253.5,2.307,1.067,4.57,1.526,6.895l2.814,13.931.25,1.25c1.163,5.724-.891,11.826-4.578,13.623a4.668,4.668,0,0,1-4.55-.194A41.963,41.963,0,0,1,446.6,455.7a144.459,144.459,0,0,1-9.173-12.953L420.918,416.1c-10.8-17.708-21.614-35.3-31.627-53.954-10.081-18.563-19.282-38.138-28.512-57.634l-13.564-29.579L333.43,245.45l7.812,5.521c-5.718,1.611-11.42,3.425-17.178,4.694-5.741,1.365-11.516,2.351-17.308,3.214-11.6,1.506-23.3,1.911-34.934,3.091-11.618,1.321-23.106,3.989-34.627,6.464-11.533,2.448-23.043,5.468-34.679,7.617a247.46,247.46,0,0,1-35.166,4.773,171.6,171.6,0,0,1-17.682.018c-5.9-.291-11.788-.942-17.648-1.788a229.749,229.749,0,0,1-34.911-7.608,285.348,285.348,0,0,1-34.179-12.372c-1.679-.713-2.672-3.4-2.212-6.006.425-2.422,1.974-3.919,3.54-3.54" transform="translate(283.194 340.521)" fill="#d8f263"/>
          <path id="Trazado_878255" data-name="Trazado 878255" d="M800.782,330.1c-3.336.96-6.768,1.735-10.03,2.853-3.262,1.2-6.484,2.1-9.752,3.522-6.53,2.536-12.991,5.565-19.458,8.577-6.456,3.047-12.872,6.384-19.254,9.845s-12.713,7.212-19.055,10.9q-18.984,11.188-37.577,24c-12.356,8.612-24.689,17.321-36.732,26.752l-.04.026c-2.377,1.858-5.219.7-6.722-2.554L614.6,354.634q-13.845-29.575-28.285-58.4c-9.621-19.214-19.85-37.654-30.276-55.75-10.45-18.061-21.444-35.382-33.4-50.942-6-7.723-11.873-15.657-18.182-22.71-6.178-7.309-12.361-14.53-18.749-21.257l-9.389-10.488-9.65-9.819c-3.239-3.205-6.314-6.825-9.6-9.907L447.251,106a278.527,278.527,0,0,0-40.907-32.978,284.637,284.637,0,0,0-44.05-22.658,357.418,357.418,0,0,0-45.412-15.56c-7.63-2.307-15.351-3.566-23.021-5.477a94.1,94.1,0,0,0-11.573-2.087l-11.6-1.823c-15.487-1.964-31.082-2.871-46.62-1.435-15.527,1.206-31.048,4.183-46.081,10.409-7.619,2.281-14.9,6.763-22.363,9.775-7.488,2.95-14.716,7.194-22.085,10.7-7.409,3.346-14.568,7.784-21.8,11.976-3.591,2.166-7.273,4.033-10.807,6.437L90.407,80.754l-10.535,7.52L69.7,96.9c-6.756,5.847-13.672,11.307-20.048,18.167-6.422,6.728-13.2,12.672-19.345,20.033L11.724,156.916l.5-12.055c9.343,16.132,18.942,31.886,28.4,47.842l.023.044a11.441,11.441,0,0,1-.306,11.4,5.661,5.661,0,0,1-1.651,1.585c-10.342,6.191-20.6,12.707-30.821,19.408l2.558-13.5,10.381,19.584,10.83,18.941C35.385,256.3,39.2,262.3,42.868,268.5c3.852,5.953,7.675,11.923,11.425,18.017,3.937,5.8,7.795,11.738,11.652,17.665l12,17.136,12.4,16.493L103.1,353.639l13.1,15.181,13.354,14.688,13.615,14.16,13.9,13.535q14.092,13.064,28.478,25.493l14.545,11.985,14.716,11.58.074.053c1.549,1.224,2.167,4.165,1.384,6.569-.743,2.263-2.479,3.241-3.971,2.325l-15.493-9.6L181.52,449.192l-15.113-11.087-14.835-12.011-14.613-12.68-14.381-13.367q-7.088-6.961-14.075-14.186L94.781,370.82l-13.4-15.754L68.328,338.6,55.638,321.41q-6.169-8.9-12.208-18.034c-3.926-6.243-7.749-12.645-11.567-19.038-3.687-6.587-7.216-13.394-10.818-20.069L10.81,243.5,1.166,222.088l-.159-.352c-1.764-3.927-1.152-9.334,1.379-12.082A5.319,5.319,0,0,1,3.73,208.58c10.455-5.741,20.865-11.659,31.2-17.911L32.991,203.7c-9.553-15.824-18.959-31.851-28.631-47.517l-.023-.035A11.566,11.566,0,0,1,4.5,144.623l.363-.493,18.732-23.124c6.183-7.864,13.031-14.327,19.526-21.557,6.45-7.371,13.473-13.359,20.349-19.725,3.46-3.126,6.881-6.375,10.376-9.4L84.6,62l10.762-8.366c3.614-2.7,7.38-4.87,11.068-7.326,7.432-4.72,14.784-9.819,22.544-13.13,15.209-8.11,31.1-12.777,46.966-15.842,15.913-2.835,31.712-5.565,47.6-7.344l11.93-.907a84.7,84.7,0,0,1,11.93-.722l11.953-.123a88.858,88.858,0,0,1,11.959.238,256.444,256.444,0,0,1,47.636,6.71,360.568,360.568,0,0,1,46.921,15A303.223,303.223,0,0,1,411.6,52.655c7.443,4.72,15.079,8.832,22.266,14.468,7.29,5.3,14.716,10.312,21.625,16.758l10.54,9.22c3.46,3.214,6.751,6.816,10.081,10.329l9.916,10.7,9.394,11.729c3.063,4.042,6.269,7.793,9.2,12.055l8.719,12.857c5.906,8.383,11.329,17.5,16.866,26.4,10.954,17.955,21.659,36.1,32.313,54.288,5.338,9.088,10.347,18.607,15.532,27.888l15.141,28.346c9.984,19.021,19.725,38.323,29.363,57.731l14.3,29.262,13.967,29.605-6.762-2.518c12.276-9.766,24.723-18.827,37.4-27.043q18.984-12.443,38.36-23.327a415.157,415.157,0,0,1,39.4-19.029,203.751,203.751,0,0,1,20.173-7.186c3.353-1.145,6.881-1.84,10.3-2.774,3.438-.845,6.79-1.3,10.189-1.973,1.725-.343,3.3,1.55,3.517,4.227.21,2.58-.913,4.94-2.536,5.416Z" transform="translate(0.002 63.602)" fill="#d8f263"/>
          <path id="Trazado_878256" data-name="Trazado 878256" d="M64.2,38.992c5.611,17.779.874,39.239-10.574,47.948S28.338,88.3,22.728,70.526s-.874-39.248,10.58-47.948S58.586,21.222,64.2,38.992Z" transform="translate(95.19 147.65)" fill="#d8f263" stroke="#40433e" stroke-linecap="round" stroke-linejoin="round" stroke-width="1.482"/>
          <path id="Trazado_878257" data-name="Trazado 878257" d="M43.969,72.51c67.474-52.6,143.882-77.254,219.27-70.746,9.321.8,20.916,5.046,22.748,19.25a37.3,37.3,0,0,1-1.759,15.463c-6.3,20.394-20.825,30.574-32.7,43.695s-22.5,36.729-16.049,57.009" transform="translate(205.464 5.785)" fill="#d8f263" stroke="#40433e" stroke-linecap="round" stroke-linejoin="round" stroke-width="1.482"/>
          <path id="Trazado_878258" data-name="Trazado 878258" d="M85.437,60.545a116.87,116.87,0,0,1,14.778,8.568,166.511,166.511,0,0,1,14.194,10.893A155.677,155.677,0,0,1,127.882,92.95c4.311,4.755,8.441,9.863,12.554,14.979l12.078,15.824a148.33,148.33,0,0,0,12.446,15.313l6.456,7.485c2.037,2.695,4,5.521,5.843,8.524,3.665,6.032,6.5,13.156,9.525,19.945l.374.845c1.515,3.408,1.055,8.031-.976,10.611-3.909,4.94-8.277,8.832-12.878,11.131a32.032,32.032,0,0,1-13.865,3.381,35.062,35.062,0,0,1-13.422-2.281c-4.4-1.6-8.447-4.165-11.936-4.834-3.7-.616-5.985.793-8.515,6.155a34.865,34.865,0,0,1-5.259,8.1,13.294,13.294,0,0,1-3.943,2.95,11.219,11.219,0,0,1-4.153,1.259c-5.65.749-10.432-2.518-14.636-5.689A66.211,66.211,0,0,1,86.345,194.64c-3.16-4.015-6.632-8.911-9.644-13.579-3.08-4.729-6.155-9.466-9-14.521-5.73-9.942-12.605-18.994-16.945-30.917A237.01,237.01,0,0,1,40.326,98.331c-1.259-6.49-2.235-13.086-3.012-19.716-.607-6.693-1.169-13.35-1.265-20.069-.028-2.034,1.015-3.725,2.332-3.769,1.055-.035,1.968,1,2.3,2.483l.028.132c.686,3.073,1.316,6.129,1.889,9.193l2.082,9.026q2.136,8.956,4.584,17.6c1.713,5.724,3.387,11.439,5.333,16.942,1.878,5.548,3.909,10.954,6.047,16.256,2.184,5.231,3.965,10.884,6.013,16.361a103.062,103.062,0,0,0,6.881,15.7,126.548,126.548,0,0,0,8.64,13.429,120.22,120.22,0,0,0,9.65,11.6,49.151,49.151,0,0,0,10.03,8.9,17.709,17.709,0,0,0,9.706,2.924,15.426,15.426,0,0,0,2.059-.291c.868-.308.749.115,1.917-.564,1.526-.5,2.922-1.673,4.8-3.584,1.832-1.682,3.937-4.289,6.518-5.75a12.585,12.585,0,0,1,7.67-1.788c4.918.3,8.935,1.92,12.861,2.2a53.913,53.913,0,0,0,11.7.361c7.59-.7,14.931-4.165,19.583-11.906l-.6,11.448c-3.375-5.926-7.154-11.245-10.325-17.356-3.336-5.891-6.093-12.636-9.088-19.206-1.52-3.232-3.086-6.437-4.822-9.378-1.77-2.88-3.67-5.556-5.537-8.286-1.917-2.642-3.92-5.134-5.877-7.7l-6.183-7.106c-4.17-4.623-8.487-8.9-12.792-13.182l-13-12.619c-4.368-4.13-8.855-7.916-13.286-11.941L83.559,67.263c-1.152-.969-1.577-3.2-.953-4.984.545-1.567,1.719-2.272,2.774-1.761Z" transform="translate(168.449 427.576)" fill="#d8f263"/>
          <path id="Trazado_878259" data-name="Trazado 878259" d="M246.1,59.6c.028.044-.539-.423-1.288-.837a11.563,11.563,0,0,0-3.653-1.33c-3.347-.775-8.248.343-14.392,2.193-3.063.854-6.257,2.122-9.7,3.3-3.432,1.3-7.04,2.747-10.739,4.482C198.9,70.67,191.042,74.6,183.123,78.49c-7.948,3.725-15.975,7.4-23.719,9.8a76.358,76.358,0,0,1-21.517,3.91,51.063,51.063,0,0,1-8.719-.59c-2.587-.564-4.833-.8-6.654-1.576a54.228,54.228,0,0,1-5.684-2.254c-.953-.476-1.481-2.052-1.174-3.522a2.255,2.255,0,0,1,1.5-1.937l.13-.026a49.058,49.058,0,0,1,5.627-.608c1.764-.044,3.926-.467,6.365-.7,2.439-.053,5.2-.793,8.186-1.048,2.99-.6,6.24-.933,9.661-1.744,3.438-.572,7.051-1.479,10.807-2.413,7.494-1.981,15.549-4.192,23.611-6.851,8.078-2.492,16.156-5.345,23.758-7.916,7.59-2.457,14.738-4.975,20.888-6.464,6.008-1.788,11.431-2.924,15.317-2.334a13.518,13.518,0,0,1,4.521,1.435,8.424,8.424,0,0,1,1.43.863l.238.159a3.6,3.6,0,0,1,.794,3.7c-.442,1.365-1.509,1.92-2.383,1.233Z" transform="translate(540.039 406.346)" fill="#d8f263"/>
          <path id="Trazado_878260" data-name="Trazado 878260" d="M234.1,100.093a51.331,51.331,0,0,0-14.591-4.377,95.675,95.675,0,0,0-14.988-.845c-5.032-.035-10.081.44-15.175.528-5.111.062-10.211.15-15.351-.194a108.7,108.7,0,0,1-30.566-6.1,56.807,56.807,0,0,1-14.988-7.573A43.072,43.072,0,0,1,115.43,66.463l-.46-.881a5.187,5.187,0,0,1,.357-5.187,1.762,1.762,0,0,1,2.956-.035c.97,1.171,1.917,2.4,2.853,3.672a3.982,3.982,0,0,1,.17,3.98,1.455,1.455,0,0,1-1.917.837c-1.18-.581-2.349-1.2-3.5-1.867l2.854-6.1c7.953,7.969,17.013,11.87,26.629,15.639a209.635,209.635,0,0,0,29.182,9.167c9.837,2.413,19.872,2.871,30.015,3.443,5.077.229,10.166.766,15.266,1.488A73.168,73.168,0,0,1,235,94.748l.062.026c.947.387,1.52,1.9,1.271,3.373s-1.225,2.36-2.178,1.972l-.062-.026" transform="translate(534.789 465.044)" fill="#d8f263"/>
          <path id="Trazado_878261" data-name="Trazado 878261" d="M221.885,170.413s-1.946-.757-5.344-2.087c-3.358-1.391-8.362-3.329-14.092-6.3-2.91-1.312-6.013-3-9.281-4.843-3.279-1.788-6.66-4-10.223-6.076a255.865,255.865,0,0,1-21.6-15.789c-3.54-3.126-7.114-6.208-10.478-9.634-3.46-3.214-6.632-6.895-9.746-10.391-3.007-3.681-5.934-7.238-8.549-10.893-2.587-3.707-5.055-7.168-7.091-10.761a133.161,133.161,0,0,1-9.253-17.99c-1.969-4.658-2.939-7.476-2.939-7.476a3.73,3.73,0,0,1,.743-3.813,1.316,1.316,0,0,1,1.94.22l.062.079s1.645,1.893,4.255,5.477c2.587,3.549,6.286,8.63,10.722,14.723,2.2,3.047,4.555,6.367,7.12,9.757,2.456,3.575,5.281,6.939,8.061,10.682,2.893,3.513,5.815,7.309,8.918,10.9,3.035,3.751,6.325,7.089,9.531,10.682,3.313,3.311,6.581,6.789,9.967,9.783,3.347,3.117,6.791,5.741,10.081,8.427a116.772,116.772,0,0,0,9.786,6.8c3.165,1.972,6.172,3.8,9,5.239a97.254,97.254,0,0,0,13.831,6.076c3.426,1.162,5.389,1.823,5.389,1.823.959.326,1.566,1.8,1.356,3.293s-1.157,2.43-2.116,2.1l-.057-.018" transform="translate(528.416 499.83)" fill="#d8f263"/>
          <path id="Trazado_878262" data-name="Trazado 878262" d="M46.81,13.86s1.248,2.334,3.432,6.411c2.218,4.068,5.384,9.88,9.19,16.863,3.92,6.816,8.192,15.155,13.014,23.82,4.76,8.788,9.831,18.167,14.9,27.536,4.975,9.528,9.814,19.267,13.916,28.857a274.41,274.41,0,0,1,10.223,27.113,160.717,160.717,0,0,1,6.62,29.218c.25,2.378-.794,4.623-2.332,5.011a2.239,2.239,0,0,1-2.354-1.1l-.045-.07a70.4,70.4,0,0,1-3.727-6.3c-2.252-4.095-5.236-10.1-8.453-17.585-3.262-7.45-6.694-16.449-10.353-26.145-3.614-9.757-7.471-20.165-11.334-30.574-3.9-10.409-7.925-20.747-12.055-30.054-4.1-9.352-8.288-17.665-11.868-24.806C48.28,28.029,42.8,19.338,42.8,19.338a5.9,5.9,0,0,1,.04-5.874c1.055-1.6,2.751-1.576,3.784.062.045.079.1.159.142.247Z" transform="translate(196.433 95.854)" fill="#d8f263"/>
          <path id="Trazado_878263" data-name="Trazado 878263" d="M178.546,43.788s-2.144,2.439-5.894,6.71c-3.767,4.165-9.122,10.514-15.68,17.6-3.222,3.7-6.773,7.564-10.546,11.624s-7.761,8.322-11.885,12.742c-8.322,8.683-17.274,17.806-26.339,26.752-9.179,8.639-18.448,17.136-27.491,24.066-4.527,3.434-8.935,6.648-13.167,9.537-4.272,2.721-8.277,5.424-12.123,7.353-15.209,8.48-26.181,10.083-26.181,10.083-1.515.22-2.853-1.506-3-3.857a5.4,5.4,0,0,1,1.186-3.927l.04-.044s2.264-2.386,6.354-5.856c4.079-3.531,9.962-8.242,17.093-13.447,3.557-2.668,7.477-5.275,11.567-8.225,4.13-2.827,8.481-5.8,12.985-8.876,4.5-3.117,9.156-6.331,13.882-9.6,4.76-3.188,9.474-6.816,14.279-10.2,4.743-3.575,9.525-7.062,14.137-10.787,4.618-3.7,9.06-7.644,13.394-11.368,8.64-7.547,16.366-15.472,22.953-22.314,6.53-7.036,11.834-12.98,15.464-17.532,3.648-4.473,5.735-7.036,5.735-7.036,1.157-1.418,2.836-1.118,3.75.678a5.833,5.833,0,0,1-.437,5.829l-.079.088" transform="translate(122.584 283.343)" fill="#d8f263"/>
          <path id="Trazado_878264" data-name="Trazado 878264" d="M124.312,22.706l2.178-.564c.908,0,1.849,0,2.774.079a13.337,13.337,0,0,1,5.038,1.92,25.257,25.257,0,0,1,8.305,9.193,50.2,50.2,0,0,1,5.134,13.684,61.154,61.154,0,0,1,1.044,7.943,54.617,54.617,0,0,1-.238,8.462l-.511,3.373c-.278,1.347-.539,2.747-.857,4.015a61.838,61.838,0,0,1-2.264,6.965,55.566,55.566,0,0,1-14.086,20.271,110.037,110.037,0,0,1-8.7,7.309l2.6-11.95a58.515,58.515,0,0,1,4.629,6.314,52.3,52.3,0,0,1,3.721,7.6c2.133,5.495,3.285,11.809,4.38,17.973a139.3,139.3,0,0,1,2.468,18.924,90.6,90.6,0,0,1-.817,19.487c-.357,2.113-.59,2.976-.891,4.526-.357,1.567-.851,3.258-1.31,4.834-.987,2.968-2.059,5.724-3.234,8.392-1.225,2.607-2.473,5.125-3.773,7.6-1.367,2.386-2.678,4.808-4.011,7.388a50.045,50.045,0,0,1-4.482,7.388,18.971,18.971,0,0,1-5.894,4.922,17.986,17.986,0,0,1-6.745,1.726,21.827,21.827,0,0,1-6.819-.757l3.988-13.068c3.262,4.967,5.038,11.545,5.542,17.85a63.935,63.935,0,0,1-1.259,18.4,59.684,59.684,0,0,1-2.519,8.189c-1.084,2.8-2.1,5.143-3.285,7.6-2.32,4.8-5.077,9.246-8.305,12.346a25.962,25.962,0,0,1-5.049,3.831,39.565,39.565,0,0,1-5.316,2.624,27.406,27.406,0,0,1-11.187,2.017,22.686,22.686,0,0,1-11.153-3.39,27.708,27.708,0,0,1-9.247-10.144,5.219,5.219,0,0,1,.318-5.231,1.744,1.744,0,0,1,2.661-.405l.074.062c5.344,4.482,11.17,5.143,16.905,3.945a29.571,29.571,0,0,0,8.436-3.223,34.558,34.558,0,0,0,4.079-2.589l3.914-2.941a43.246,43.246,0,0,0,7.545-6.3,18.7,18.7,0,0,0,2.876-4.553,28.409,28.409,0,0,0,1.821-5.724c1.8-8,0-17.295-3.4-21.178-2.088-2.386-2.536-6.957-1-10.2.97-2.043,2.5-3.073,4.016-2.959l.976.088a13.351,13.351,0,0,0,4.379-.343,31.9,31.9,0,0,0,4.215-1.973c2.695-1.7,5.832-2.721,8.952-5.019,3.024-2.457,5.128-6.957,6.564-11.633a55.061,55.061,0,0,0,1.634-7.291c.131-1.189.272-2.237.454-3.443.119-1.286.346-3.241.369-3.971.1-2.554.278-5.055.255-7.608-.04-2.545-.1-5.081-.312-7.626a83.348,83.348,0,0,0-2.61-14.961c-1.413-4.782-3.512-9-5.185-13.517-.834-2.281-1.656-4.579-2.394-7.018-.806-2.36-1.424-5-2.246-7.467L116.427,99.8c-.993-2.968-.244-6.622,1.668-8.163a2.809,2.809,0,0,1,1.98-.678,13.319,13.319,0,0,0,3.9-.264,12.951,12.951,0,0,0,3.773-1.779,26.881,26.881,0,0,0,6.49-6.86,40.256,40.256,0,0,0,4.5-9.642,48.512,48.512,0,0,0,1.322-5.407l.369-2.5.3-3.285c.057-1.294.057-3.4-.051-5.081a45.686,45.686,0,0,0-.7-5.336A37.428,37.428,0,0,0,136.8,40.81a26.1,26.1,0,0,0-5.287-7.547,19.673,19.673,0,0,0-3.256-2.281l-1.571-.652-2.19-.308c-1.31-.185-2.275-1.973-2.161-4.007.1-1.708.936-3.038,1.98-3.311" transform="translate(250.566 172.839)" fill="#d8f263"/>
          <path id="Trazado_878265" data-name="Trazado 878265" d="M126.895,29.924l2.315-.335,2.865.379a16.531,16.531,0,0,1,5.145,2.518,28.385,28.385,0,0,1,8.362,10.294A47.914,47.914,0,0,1,150.3,57.653a56.958,56.958,0,0,1,.584,8.374,63.683,63.683,0,0,1-.72,8.639l-.686,3.461c-.346,1.356-.686,2.747-1.066,4.033a74.291,74.291,0,0,1-2.587,7.027c-1.906,4.526-4.306,8.278-6.615,12.513-2.349,4.165-5.168,8.322-8.663,10.5a13.753,13.753,0,0,1-5.452,2.078,17.313,17.313,0,0,1-5.667-.379l5.055-13.385c1.985,7.4,4.691,14.565,5.945,23.459a51.455,51.455,0,0,1,.125,14.248,35.158,35.158,0,0,1-1.849,6.965,29.638,29.638,0,0,1-1.31,2.994,25.736,25.736,0,0,1-1.583,2.756c-2.133,3.258-4.34,5.662-6.246,8.137-2.025,2.571-3.563,6.1-5.559,8.938a20.8,20.8,0,0,1-6.864,6.041c-2.513,1.312-5,2.624-7.528,3.69l2.785-10.364a129.923,129.923,0,0,1,4.669,26.506,75.139,75.139,0,0,1-.068,7.652c-.147,1.286-.2,2.615-.38,3.927l-.516,3.725c-1.14,5.8-2.922,10.558-5.645,14.142a22.273,22.273,0,0,1-9.031,6.86,16.616,16.616,0,0,1-4.839,1.259,19.659,19.659,0,0,1-4.663.07c-6.132-.634-11.561-3.443-16.61-6.913-1.22-.837-1.776-3.056-1.231-4.949.386-1.356,1.231-2.184,2.122-2.237,5.531-.317,10.8.035,15.481-1a24.354,24.354,0,0,0,3.392-.977,18.813,18.813,0,0,0,3.046-1.523,23.712,23.712,0,0,0,5.264-4.623,28.991,28.991,0,0,0,4.391-5.248l.545-1.356c.062.062.2-.572.3-.828a12.233,12.233,0,0,0,.516-2.2,26.029,26.029,0,0,0,.187-4.878c-.363-6.9-2.978-13.781-5.576-20.843-1.237-3.373-.482-7.67,1.69-9.59L95.9,164l.635-.423a43.378,43.378,0,0,0,6.127-4.711,27.264,27.264,0,0,1,6.149-4.517c2.212-1.039,4.771-1.7,6.683-3.654a20.962,20.962,0,0,0,4.7-6.983,14.292,14.292,0,0,0,.584-1.849,16.817,16.817,0,0,0,.414-2.034,31.011,31.011,0,0,0,.306-3.892,43.626,43.626,0,0,0-.743-8.366,63.416,63.416,0,0,0-6.064-17.973c-1.793-3.381-1.481-8.374.692-11.166a4.641,4.641,0,0,1,2.354-1.691l2.008-.537c1.2-.326,2.354-.845,3.5-1.25a24.671,24.671,0,0,1,3.489-1.171,27.413,27.413,0,0,1,3.727-.925,18.607,18.607,0,0,0,3.937-1.453c2.644-1.338,4.635-4.421,6.189-7.758a34.568,34.568,0,0,0,1.838-5.451l.516-2.659.437-3.461a49.48,49.48,0,0,0-.034-5.557c-.17-1.937-.471-3.822-.8-5.706a51.438,51.438,0,0,0-3.3-10.611,32.863,32.863,0,0,0-5.338-8.418,23.151,23.151,0,0,0-3.358-2.836l-1.645-.986-2.269-.731c-1.293-.414-2.122-2.369-1.855-4.377.216-1.629,1.1-2.783,2.116-2.932" transform="translate(298.456 230.97)" fill="#d8f263"/>
          <path id="Trazado_878266" data-name="Trazado 878266" d="M156.474,34.7l2.02.951,2.326,1.779a24.007,24.007,0,0,1,3.869,4.614,39.754,39.754,0,0,1,5.281,12.566,57.268,57.268,0,0,1,1.271,22.261,54.787,54.787,0,0,1-1.645,7.441l-.981,2.888-1.327,3.346a54.032,54.032,0,0,1-2.927,5.706,64.167,64.167,0,0,1-6.932,9.422c-5,5.539-10.387,9.713-16.6,14.283l-.062.044,4.47-15.287a83.326,83.326,0,0,1,3.67,13.808q.6,3.566.919,7.168c.159,2.413.369,4.79.414,7.2.159,9.546-1.015,19.417-4.414,27.589l-1.242,2.747L143,166.15c-1.061,1.708-2.133,3.346-3.251,4.87-2.275,3.029-4.646,5.618-6.995,8.427-2.315,2.809-4.629,6.508-7.613,8.225A13.489,13.489,0,0,1,115.8,189.4l5.145-9.466a93.754,93.754,0,0,1-.108,14.891,97.758,97.758,0,0,1-2.456,14.072,98.559,98.559,0,0,1-4.141,12.892c-1.645,4.059-3.2,8.357-5.219,12.363l-1.458,2.73c-.63.925-1.237,1.929-1.923,2.792a24.357,24.357,0,0,1-4.1,4.139,28.543,28.543,0,0,1-9.167,4.746A21.761,21.761,0,0,1,73.717,245.7l-1-.669a4,4,0,0,1-1.43-3.073c-.165-2.853-.357-5.689-.4-8.595-.034-2.078,1.027-3.8,2.366-3.857.942-.035,1.77.775,2.19,1.973.891,2.545,1.634,5.16,2.411,7.758L75.425,235.5a26.435,26.435,0,0,0,7.38-.4,26.944,26.944,0,0,0,6.978-2.536,29.372,29.372,0,0,0,6.359-4.517c1-.9,1.969-1.823,3-2.642a12.27,12.27,0,0,1,1.4-1.11,16.644,16.644,0,0,1,1.7-1.515,29.376,29.376,0,0,0,2.99-3.223,25.8,25.8,0,0,0,2.428-4.262,49.324,49.324,0,0,0,3.018-10.417,68.324,68.324,0,0,0,.045-22.129c-.664-3.989.879-8.057,3.449-9.088a4.178,4.178,0,0,1,.624-.185l1.072-.194c2.15-.387,4.181-1.242,6.348-1.629,2.122-.528,4.709-.123,6.938-1.541a13.074,13.074,0,0,0,3-2.88,22.452,22.452,0,0,0,2.428-3.963,38.917,38.917,0,0,0,1.866-4.553l1.39-4.782a77.927,77.927,0,0,0,1.781-9.863,57.03,57.03,0,0,0,.261-10.232,44.4,44.4,0,0,0-1.656-9.783,32.386,32.386,0,0,0-3.37-8.216,11.087,11.087,0,0,1,.193-11.043,6.589,6.589,0,0,1,.828-.986l3.455-3.249.045.009c4.828,2.571,10.194.74,14.438-3.285a25.939,25.939,0,0,0,5.531-7.661,48.354,48.354,0,0,0,1.963-4.746l.7-2.316.732-3c.221-1.286.5-3.32.675-4.966.153-1.77.193-3.54.233-5.328a58.736,58.736,0,0,0-.936-10.673,47.882,47.882,0,0,0-3.024-9.7,45.4,45.4,0,0,0-2.286-4.077l-1.2-1.673-1.747-1.814a5.1,5.1,0,0,1-.664-5.134c.6-1.391,1.7-1.946,2.678-1.488" transform="translate(331.244 269.672)" fill="#d8f263"/>
          <path id="Trazado_878267" data-name="Trazado 878267" d="M132.647,43.5a30.7,30.7,0,0,1,7.1,5.891,32.7,32.7,0,0,1,3.285,4.368c.488.793,1.044,1.814,1.441,2.571a28.581,28.581,0,0,1,1.35,3.073,35.218,35.218,0,0,1,2.218,14.424,33.939,33.939,0,0,1-.408,3.866c-.153,1.048-.216,1.092-.329,1.691l-.471,1.955a42.258,42.258,0,0,1-2.354,6.3c-.879,1.9-1.815,3.646-2.774,5.3a49.924,49.924,0,0,0-2.507,5.539,49.327,49.327,0,0,1-2.439,5.565,14.532,14.532,0,0,1-3.188,4.059c-2.417,2.069-5.276,2.774-7.687,4.623a80.924,80.924,0,0,1-7.551,4.579l-1.515-14.706a9.656,9.656,0,0,1,6.586,4.553,27.317,27.317,0,0,1,3.336,7.952c.72,2.774,1.344,5.231,1.849,8.225.448,1.805,1.611,5.284,2.161,8.022a23.863,23.863,0,0,1-.13,8.753,68.088,68.088,0,0,1-2.269,7.872,43.52,43.52,0,0,1-6.893,12.76,56.322,56.322,0,0,1-4.294,4.887l-2.417,2.272c-.7.643-1.118,1.286-2.076,2.149a16.808,16.808,0,0,1-5.236,3.681,9.609,9.609,0,0,1-5.542.255c-7.267-1.25-14.143-7.423-17.535-16.925-.658-1.84-.227-4.165.959-5.187a1.7,1.7,0,0,1,2.144-.176l.2.132c5.247,3.487,10.121,5.037,14.84,4.764a19.891,19.891,0,0,1,3.443-.264l3.506.467c.488.22,1.413-.22,2.1-.449a5.062,5.062,0,0,0,1.554-1.03,13.463,13.463,0,0,0,2.808-3.654,34.15,34.15,0,0,0,3.421-9.933c.794-3.6.323-7.133,1.475-10.461.607-1.92,1.4-3.1,1.186-5.838a11.382,11.382,0,0,0-1.413-4.738,6.468,6.468,0,0,0-2.507-2.554,2.638,2.638,0,0,0-1.708-.335c-2.61.431-4.941-2.5-5.219-6.552-.216-3.2.925-6.138,2.7-7.432l1-.722a59.705,59.705,0,0,0,6.4-4.887c2.144-1.638,3.716-4.79,5.628-6.86a10.325,10.325,0,0,1,3.183-2.413c1.055-.467,2.587-1,3.727-1.374,2.564-.7,4.323-3.117,5.542-5.68a15.336,15.336,0,0,0,1.259-4.06l.1-.872a9.781,9.781,0,0,0,.079-1.189,16.968,16.968,0,0,0-.062-2.008,34.331,34.331,0,0,0-1.929-8.04l-.715-1.9c-.357-.819-.59-1.347-.942-2.034-.624-1.338-1.356-2.615-2.122-3.945-1.56-2.6-3.313-5.328-5.06-8.339a5.321,5.321,0,0,1,.182-5.3,1.812,1.812,0,0,1,2.524-.7" transform="translate(392.762 337.501)" fill="#d8f263"/>
          <path id="Trazado_878268" data-name="Trazado 878268" d="M113.711,48.2a20.255,20.255,0,0,1,6.694,4.4,31.4,31.4,0,0,1,5.662,7.009c1.645,2.862,2.944,5.768,4.5,9.229a40.366,40.366,0,0,1,2.2,5.926l1.883,6.921a26.467,26.467,0,0,1,.9,8,16.193,16.193,0,0,1-1.991,6.939,51.865,51.865,0,0,1-3.54,4.922c-.6.828-1.123,1.488-1.838,2.316l-1.7,1.832c-2.394,2.36-4.884,4.051-7.454,4.491-1.282.229-2.541.282-3.716.608a5.607,5.607,0,0,0-3.268,1.99l1.2-10.136a13.575,13.575,0,0,1,3.478,1.937,10.478,10.478,0,0,1,2.405,4.007,49.215,49.215,0,0,1,1.6,20.394c-.221,1.664-.448,3.3-.715,4.949l-1.027,5.266c-.142.643-.159,1.391-.244,2.078l-.7,2.959a16.674,16.674,0,0,1-1.94,4.685,16.07,16.07,0,0,1-6.081,5.169,10.224,10.224,0,0,1-12.809-2.88,5.5,5.5,0,0,1-.414-5.495,2.727,2.727,0,0,1,1.367-1.374l.391-.15a18.56,18.56,0,0,0,7.278-5.151l1.344-1.655c.426-.572.749-1.259,1.186-1.735a4.963,4.963,0,0,1,1.549-1.154l.766-.308a13.025,13.025,0,0,0,1.021-1.391c.312-.079.7-1.365.834-2.157a13.371,13.371,0,0,0,.238-2.88,21.7,21.7,0,0,0-.97-5.636,20.041,20.041,0,0,0-.874-2.457c-.323-.775-.811-1.365-1.152-2.017a5.888,5.888,0,0,1-.681-2.351,26.776,26.776,0,0,0-.306-3.443l-1.259-5.592c-.4-1.8.21-3.769,1.367-4.394a1.5,1.5,0,0,1,1.089-.15c1.242.308,2.28-.361,3.285-1.039a16.81,16.81,0,0,0,2.751-2.818c1.679-2.078,3.336-3.425,4.7-5.072.233-.317.562-.669,1.021-1.383.153-.317.482-.81.664-1.286a11.526,11.526,0,0,0,.641-3.434A5.243,5.243,0,0,1,123.871,84c.494-.713,1.356-1.391,2.008-2.413a5.176,5.176,0,0,0,.7-1.664,2.818,2.818,0,0,0,.017-1.814,9.156,9.156,0,0,0-1.146-3.267,54.154,54.154,0,0,0-4.85-6.208c-1.679-2.069-3.217-4.359-4.771-6.692-1.577-2.342-3.052-4.711-4.6-7.511a5.421,5.421,0,0,1,.272-5.424,1.91,1.91,0,0,1,2.2-.81" transform="translate(449.752 375.445)" fill="#d8f263"/>
          <path id="Trazado_878269" data-name="Trazado 878269" d="M41.667,57.1s2.961,8.612,8.078,20.808A446.878,446.878,0,0,0,70.23,120.766c8.033,14.882,16.616,28.91,22.936,39.635,3.171,5.336,5.786,9.854,7.6,13.042s2.808,5.107,2.808,5.107a1.967,1.967,0,0,1-.113,1.964.677.677,0,0,1-1.1.053s-1.288-1.435-3.443-4.121-5.174-6.657-8.549-11.809c-3.432-5.081-7.21-11.351-11.074-18.316-3.914-6.886-7.761-14.679-11.573-22.473-7.551-15.7-14.4-32.115-19.458-44.478C43.3,66.892,40.129,58.491,40.129,58.491l-.017-.044a1.84,1.84,0,0,1,.318-1.884c.425-.387.97-.167,1.22.493l.017.044" transform="translate(186.867 440.029)" fill="#d8f263"/>
          <path id="Trazado_878270" data-name="Trazado 878270" d="M44.987,58.06s3.772,7.89,10.058,18.8a349.161,349.161,0,0,0,24.7,37.548c9.531,12.733,19.566,24.4,27.014,33.321,3.721,4.491,6.825,8.234,9,10.858,2.167,2.651,3.364,4.28,3.364,4.28a1.969,1.969,0,0,1,.108,1.964.718.718,0,0,1-1.078.361s-1.435-1.074-3.875-3.153a115.019,115.019,0,0,1-9.8-9.4A194.322,194.322,0,0,1,91.482,137.41c-4.629-5.821-9.281-12.557-13.887-19.329-9.15-13.684-17.62-28.337-23.866-39.424C47.551,67.421,43.6,59.8,43.6,59.8l-.017-.044a1.946,1.946,0,0,1,.13-1.946c.386-.475.947-.379,1.254.211l.023.044" transform="translate(202.715 448.86)" fill="#d8f263"/>
          <path id="Trazado_878271" data-name="Trazado 878271" d="M55.239,82.875s2.178-1.964,5.985-5.416c3.869-3.346,9.338-8.339,16.043-13.843,6.626-5.759,14.591-11.773,23.106-18.307,8.566-6.375,17.819-12.848,27.213-18.88,9.434-5.865,18.982-11.439,28.166-15.463,9.162-4.2,17.739-7.749,25.5-9.387,7.732-1.752,14.438-1.462,19-.229A27.187,27.187,0,0,1,207.313,4l.085.053c.925.564,1.378,2.193,1.015,3.619-.289,1.127-1,1.805-1.742,1.77a54.664,54.664,0,0,0-6.694.194,86.209,86.209,0,0,0-17.348,4.042c-7.114,2.527-15.652,5.7-24.694,9.369-9,3.91-18.664,7.846-28.183,12.654a253.854,253.854,0,0,0-27.639,15.622A269.7,269.7,0,0,0,78.821,68.178c-6.666,5.46-12.117,10.215-15.856,13.79-3.75,3.593-5.894,5.645-5.894,5.645-.84.8-1.934.4-2.451-.9a3.754,3.754,0,0,1,.579-3.8l.04-.035" transform="translate(253.998 2.694)" fill="#d8f263"/>
          <path id="Trazado_878272" data-name="Trazado 878272" d="M62.071,87.951s7.84-7.432,19.923-18.043c5.962-5.486,13.161-11.192,20.78-17.612,7.7-6.173,16-12.54,24.4-18.686,8.464-5.856,16.99-11.633,25.239-15.974C160.633,13.2,168.376,9.3,175.2,7.025a84.623,84.623,0,0,1,16.6-4.482,64.183,64.183,0,0,1,6.393-.845c.993-.062,1.838,1.145,1.878,2.695a3.153,3.153,0,0,1-1.084,2.677l-.045.035s-2.139,1.435-5.934,3.522c-3.772,2.21-9.2,5-15.714,8.242-6.53,3.117-14.148,6.763-22.306,10.664-4.062,2.069-8.26,4.2-12.52,6.367-4.289,2.1-8.56,4.57-12.895,6.851A285.138,285.138,0,0,0,104.63,58.24c-7.846,5.4-14.971,11.122-21.024,16.176-6.025,5.151-10.937,9.59-14.33,12.989l-5.338,5.257c-.834.819-1.934.431-2.462-.854a3.762,3.762,0,0,1,.556-3.813l.04-.044" transform="translate(285.991 13.231)" fill="#d8f263"/>
          <path id="Trazado_878273" data-name="Trazado 878273" d="M67.739,76.486S74.1,70.859,83.646,62.414C93.182,53.9,106.1,43.121,119.221,32.686c6.62-5,13.286-9.933,19.719-13.86a128.538,128.538,0,0,1,17.887-9.413c10.676-4.6,18.227-4.975,18.227-4.975,1.01-.053,1.855,1.18,1.889,2.747A3.452,3.452,0,0,1,176,9.764a57.038,57.038,0,0,1-4.555,3.5c-2.91,2.1-7.1,4.852-12.18,7.837-10.143,6.023-23.894,12.848-37.521,20.641-6.824,3.857-13.564,8.084-19.781,12.425C95.723,58.416,90.079,63,85.251,66.923c-4.794,4.077-8.719,7.52-11.42,10.2-2.717,2.615-4.266,4.112-4.266,4.112-.834.81-1.934.414-2.456-.881a3.747,3.747,0,0,1,.567-3.8l.062-.062" transform="translate(312.33 34.619)" fill="#d8f263"/>
          <path id="Trazado_878274" data-name="Trazado 878274" d="M192.79,69.428s-7.318,2.739-18.562,5.979c-5.576,1.849-12.168,3.144-19.226,4.826-7.074,1.4-14.659,2.589-22.295,3.452a133.448,133.448,0,0,1-22.487.141c-7.171-.8-13.859-1.92-19.475-3.9a62.3,62.3,0,0,1-18.284-9.061,3.709,3.709,0,0,1-.8-3.822c.318-.977.947-1.541,1.6-1.559H73.3a42.83,42.83,0,0,1,5.219.352c3.29.352,7.942,1.021,13.479,1.964,11.068,1.911,25.749,4.94,40.664,6.014a131.873,131.873,0,0,0,21.937-.15,123.991,123.991,0,0,0,19.061-3.329,109.351,109.351,0,0,0,13.28-4.271c3.2-1.277,5.021-2.008,5.021-2.008.953-.388,1.923.5,2.173,1.981s-.329,2.985-1.282,3.364l-.017.009Z" transform="translate(333.935 499.31)" fill="#d8f263"/>
          <path id="Trazado_878275" data-name="Trazado 878275" d="M115.045,71.555a38.786,38.786,0,0,0-5.293.062,61.662,61.662,0,0,0-11.692,2.272c-4.283,1.048-8.617,1.567-11.771.22A11.346,11.346,0,0,1,81.184,70a5.068,5.068,0,0,1-.011-5.037,3.829,3.829,0,0,1,.369-.467,9.886,9.886,0,0,1,5.372-2.642c3.137-.555,7.2.74,11.335,2.166a33.506,33.506,0,0,0,11.442,2.439,25.174,25.174,0,0,0,5.219-.431c.981-.22,1.889.837,2.025,2.351s-.539,2.932-1.515,3.144a1.089,1.089,0,0,1-.335.026Z" transform="translate(376.207 481.843)" fill="#d8f263"/>
          <path id="Trazado_878276" data-name="Trazado 878276" d="M75.269,18.74s5.656,3.751,14.143,9.854c8.5,5.935,19.583,14.653,30.526,24.137A192.56,192.56,0,0,1,135.4,68.238,139.984,139.984,0,0,1,147.644,84.37a98.343,98.343,0,0,1,9.831,19.082,3.789,3.789,0,0,1-.737,3.9,1.281,1.281,0,0,1-1.753.018l-.04-.035a44.087,44.087,0,0,1-3.636-3.558c-2.246-2.36-5.344-5.856-8.923-10.232-7.165-8.718-16.259-21.09-25.965-32.591A201.687,201.687,0,0,0,101.687,45.07,158.86,158.86,0,0,0,87.976,33.252,118.635,118.635,0,0,0,77.85,26.243c-2.513-1.523-3.948-2.4-3.948-2.4a3.414,3.414,0,0,1-1.01-3.584c.357-1.418,1.39-2.122,2.309-1.567l.068.044" transform="translate(340.046 144.461)" fill="#d8f263"/>
          <path id="Trazado_878277" data-name="Trazado 878277" d="M77.552,22.643s2.5,2.422,6.41,5.75c3.931,3.241,9.207,7.45,14.738,11.227,5.423,4.007,10.682,8.621,13.927,13.526a33.062,33.062,0,0,1,4.623,9.66c.425,1.629-.085,3.5-1.135,4.156a1.426,1.426,0,0,1-1.049.2,16.967,16.967,0,0,1-7.131-4.13c-3.863-3.258-8.26-9.167-12.707-15.146A102.245,102.245,0,0,0,82.311,32.867,65.193,65.193,0,0,0,75.844,27.5a3.528,3.528,0,0,1-.9-3.663c.4-1.4,1.458-2.025,2.36-1.4a2.343,2.343,0,0,1,.2.176Z" transform="translate(349.495 173.21)" fill="#d8f263"/>
        </g>
      </g>
    </g>
  </g>
</svg>
