<svg xmlns="http://www.w3.org/2000/svg" width="85" height="85" viewBox="0 0 85 85">
  <g id="img-1" transform="translate(3320.5 18627)">
    <circle id="Elipse_11589" data-name="Elipse 11589" cx="42.5" cy="42.5" r="42.5" transform="translate(-3320.5 -18627)" fill="#ac9afc"/>
    <g id="vitamina-a" transform="translate(-3307.498 -18634)">
      <g id="Grupo_1101282" data-name="Grupo 1101282" transform="translate(0.998 20)">
        <path id="Trazado_878813" data-name="Trazado 878813" d="M52.969,33.475a7.039,7.039,0,0,0-6.289,3.888l-8.252-2.516a15.906,15.906,0,0,0,.123-6.363l5.972-1.571a4.1,4.1,0,1,0-.6-2.266l-5.971,1.571a15.875,15.875,0,0,0-4.692-6.877l2.857-3.9a8.226,8.226,0,1,0-1.889-1.388l-2.857,3.9a15.807,15.807,0,0,0-17.33.368,15.924,15.924,0,0,0-1.971,1.6L7.734,16A4.1,4.1,0,1,0,6.1,17.675l4.4,3.98a15.81,15.81,0,0,0-2.267,4.017,1.172,1.172,0,0,0,2.187.844,13.477,13.477,0,1,1,0,9.7,1.172,1.172,0,0,0-2.187.844,15.749,15.749,0,0,0,5.3,6.984l-3.168,4.974a5.687,5.687,0,1,0,1.975,1.262L15.506,45.3a15.823,15.823,0,0,0,22.237-8.215L46,39.6a7.031,7.031,0,1,0,6.974-6.13ZM48.025,23.022a1.758,1.758,0,1,1-1.758,1.758A1.76,1.76,0,0,1,48.025,23.022ZM34.115,8.2a5.859,5.859,0,1,1,5.859,5.859A5.866,5.866,0,0,1,34.115,8.2ZM2.344,14.093A1.758,1.758,0,1,1,4.1,15.85,1.76,1.76,0,0,1,2.344,14.093ZM8.369,57.656A3.328,3.328,0,1,1,11.7,54.328,3.332,3.332,0,0,1,8.369,57.656Zm44.6-12.462a4.687,4.687,0,1,1,4.687-4.687A4.693,4.693,0,0,1,52.969,45.194Z" transform="translate(0 0)" fill="#554c7d"/>
        <path id="Trazado_878814" data-name="Trazado 878814" d="M63.211,259.655a1.172,1.172,0,0,0,0-1.657h0a1.172,1.172,0,1,0,0,1.658Z" transform="translate(-54.038 -227.46)" fill="#554c7d"/>
      </g>
    </g>
  </g>
</svg>
