<svg xmlns="http://www.w3.org/2000/svg" xmlns:xlink="http://www.w3.org/1999/xlink" width="1240" height="460.061" viewBox="0 0 1240 460.061">
  <defs>
    <clipPath id="clip-path">
      <path id="Trazado_878062" data-name="Trazado 878062" d="M17.848,0h1204.3C1232.009,0,1240,7.719,1240,17.241V442.82c0,9.522-7.991,17.241-17.849,17.241H17.848C7.991,460.061,0,452.342,0,442.82V17.241C0,7.719,7.991,0,17.848,0Z" transform="translate(0 0)" fill="#ac9afc"/>
    </clipPath>
    <linearGradient id="linear-gradient" x1="0.165" y1="0.202" x2="0.98" y2="0.647" gradientUnits="objectBoundingBox">
      <stop offset="0" stop-color="#fcc59a"/>
      <stop offset="1" stop-color="#fde7d6"/>
    </linearGradient>
    <clipPath id="clip-path-2">
      <rect id="Rectángulo_402150" data-name="Rectángulo 402150" width="756.597" height="701.113" fill="#fcc59a"/>
    </clipPath>
    <clipPath id="clip-path-3">
      <path id="Trazado_878037" data-name="Trazado 878037" d="M1,1.047,698.325-.237l-1.232,692.4L-.234,693.45Z" fill="#fcc59a"/>
    </clipPath>
    <clipPath id="clip-path-4">
      <rect id="Rectángulo_402151" data-name="Rectángulo 402151" width="813.798" height="614.278" fill="#fcc59a"/>
    </clipPath>
  </defs>
  <g id="Enmascarar_grupo_1098816" data-name="Enmascarar grupo 1098816" clip-path="url(#clip-path)">
    <path id="Trazado_878034" data-name="Trazado 878034" d="M17.848,0h1204.3C1232.009,0,1240,7.719,1240,17.241V442.82c0,9.522-7.991,17.241-17.849,17.241H17.848C7.991,460.061,0,452.342,0,442.82V17.241C0,7.719,7.991,0,17.848,0Z" transform="translate(0 0)" fill="url(#linear-gradient)"/>
    <line id="Línea_2077" data-name="Línea 2077" y1="4.503" transform="translate(291.845 -58.271)" fill="none" stroke="#fff" stroke-miterlimit="10" stroke-width="1"/>
    <line id="Línea_2078" data-name="Línea 2078" x2="4.661" transform="translate(278.263 -46.737)" fill="none" stroke="#fff" stroke-miterlimit="10" stroke-width="1"/>
    <g id="Grupo_1101077" data-name="Grupo 1101077" transform="translate(661.266 -156.09)" opacity="0.36" style="mix-blend-mode: color-dodge;isolation: isolate">
      <g id="Grupo_1101076" data-name="Grupo 1101076" transform="translate(0)" opacity="0.54" clip-path="url(#clip-path-2)">
        <path id="Trazado_878035" data-name="Trazado 878035" d="M733.787,121.715c-3.692-31.924-6.144-64.67-28.218-89.889-12.5,35.075-34.277,65.839-56.517,96.637-30.069,41.65-61.845,82.007-95.83,120.813-66.649,76.358-142.4,141.5-220.551,206.464-13.627,11.3-35.043-9.965-22.047-22.288C381.695,365.769,445.09,289.2,506.456,213.2c30.925-38.291,60.859-77.405,89.355-117.415,22.142-31.08,42.5-63.129,69.853-89.755C645.207-.418,622.595-.444,599.992.361q-39.753,1.506-79.528,3.454C457.691-1.383,394.5.417,330.757,8.664c-10.836,1.42-18.727,5.692-24.288,11.454-40.851,21.838-32.112,88.456,24.535,94.8q35.612,3.935,71.22,7.926A1312.983,1312.983,0,0,0,104.295,310.8c-41.209,34.486,3.025,91.014,48.85,82.742q49.674-9,97.9-22.327Q126.692,487.329,13.954,614.611c-38.4,43.356,8.958,107.221,63.252,79.942,128.633-64.722,245.126-147.33,350.058-242.271-17.566,46.836-33.551,94.192-47.393,142.145-10.069,34.642,24.812,74.795,63.118,62.35,91.591-29.872,122.946-156.3,142.731-241.029a344.776,344.776,0,0,0,12.386,69.224c11.351,38.923,57.933,48.386,88.069,23.332,110.381-91.863,61.545-266.91,47.613-386.588m-423.5,148.954a400.548,400.548,0,0,0-59.434,31.4c-17.409,11.341-34.859-12.445-19.032-25.3A276.024,276.024,0,0,1,296.01,237.36a248.74,248.74,0,0,1,33.372-12.125c12.485-3.446,26.336-7.818,39.354-8.3,5.507-.182,12.341,1.636,15.294,6.644,2.474,4.212,3.572,7.415,3.043,12.146-.69,5.718-5.3,10.7-10.782,12.7-10.97,4.069-22.818,6.216-33.954,10.107-10.782,3.744-21.572,7.6-32.05,12.133M521.952,430.076c-.206,3.974-.462,7.887-.775,11.8-1.241,15.371-3.222,30.6-5.888,45.789-1.125,6.363-7.865,11.627-14.725,10.307-6.856-1.376-11.7-7.359-10.665-14.224q3.368-22.238,4.629-44.689l.412-8.112c0-.108-.013-.827.009-1.325s.045-1.987.054-2.156c.045-.827.085-1.654.072-2.485.031-2.931-.211-5.982.672-8.761.287-1.091.8-2.229,1.089-3.324,0-.052.09-.658.112-1.043.148-1.818.471-3.684.735-5.5.511-4.4.937-8.25,3.092-12.293,2.72-5.069,11.548-7.528,15.079-1.55a25.891,25.891,0,0,1,3.164,6.4,56.245,56.245,0,0,1,1,6.242c.3,2.06.533,4.121.775,6.177.081.615.161,1.281.242,1.948.049.169.349,1.013.439,1.459,1.47,4.883.739,10.268.479,15.341M685.466,272a13.085,13.085,0,0,1-.47,1.415c-.134.325-.211.71-.341,1.035l-.067.164a14.051,14.051,0,0,1-6.861,7.636,15.009,15.009,0,0,1-10.311,1.277,5.155,5.155,0,0,1-.905-.208c-.619-.195-1.188-.277-1.81-.472a17.443,17.443,0,0,1-6.982-3.428,29.794,29.794,0,0,0-2.469-2.112,28.318,28.318,0,0,1-4.432-4.026c-.6-.636-1.192-1.329-1.788-1.965a23.178,23.178,0,0,1-2.684-3.5c-2.429-4.043-5.516-8.558-7.246-12.843-2.846-7.051-5.9-14.5-6.717-22.054a16.436,16.436,0,0,1,8.94-15.891,17.379,17.379,0,0,1,18.534,1.489c6.166,4.831,10.925,11.415,15.532,17.609,2.734,3.671,4.777,8.467,6.977,12.5a31.648,31.648,0,0,1,3.477,12.609,19.667,19.667,0,0,0,.471,3.173,16.374,16.374,0,0,1-.847,7.592" transform="translate(0 -0.002)" fill="#fcc59a"/>
      </g>
    </g>
    <g id="Grupo_1101079" data-name="Grupo 1101079" transform="translate(534.455 -136.676) rotate(87)" opacity="0.17" style="mix-blend-mode: multiply;isolation: isolate">
      <g id="Grupo_1101078" data-name="Grupo 1101078" transform="translate(0 0)" clip-path="url(#clip-path-3)">
        <path id="Trazado_878036" data-name="Trazado 878036" d="M677.015,119.813c-3.347-31.521-5.549-63.856-25.85-88.724-11.581,34.661-31.707,65.079-52.259,95.533C571.119,167.8,541.762,207.714,510.37,246.1c-61.562,75.522-131.493,139.979-203.637,204.274-12.58,11.181-32.28-9.781-20.281-21.974,65.623-66.963,124.187-142.685,180.879-217.847C495.9,172.68,523.559,134,549.893,94.44c20.462-30.731,39.281-62.417,64.538-88.758C595.589-.653,574.748-.64,553.914.193q-36.641,1.555-73.3,3.546C422.764-1.288,364.522.6,305.756,8.849,295.767,10.27,288.486,14.5,283.35,20.2,245.662,41.838,253.6,107.614,305.8,113.785q32.815,3.825,65.627,7.706C272.577,169.941,180.479,232.327,96.5,307.617c-38.041,34.128,2.628,89.879,44.877,81.632q45.8-8.972,90.271-22.216Q116.836,481.915,12.706,607.807c-35.467,42.882,8.068,105.874,58.157,78.841,118.67-64.136,226.182-145.916,323.061-239.855-16.272,46.284-31.088,93.078-43.93,140.459-9.341,34.229,22.737,73.824,58.064,61.468,84.469-29.656,113.589-154.566,131.973-238.276a361.9,361.9,0,0,0,11.294,68.343c10.393,38.42,53.31,47.686,81.129,22.892,101.9-90.909,57.193-263.7,44.562-381.867M286.429,267.634A363.106,363.106,0,0,0,231.6,298.75c-16.066,11.23-32.107-12.231-17.5-24.95a253.337,253.337,0,0,1,59.23-39.036,220.35,220.35,0,0,1,30.779-12.031c11.513-3.424,24.287-7.765,36.286-8.266,5.076-.189,11.372,1.595,14.084,6.536,2.272,4.155,3.279,7.317,2.783,11.99a16.025,16.025,0,0,1-9.959,12.565c-10.118,4.037-21.042,6.177-31.312,10.039-9.944,3.716-19.9,7.543-29.56,12.037M481.233,424.7c-.2,3.925-.439,7.79-.735,11.655-1.171,15.182-3.023,30.225-5.507,45.23-1.048,6.286-7.269,11.5-13.59,10.2a12.45,12.45,0,0,1-9.8-14.029q3.143-21.968,4.345-44.142l.394-8.012c0-.107-.011-.816.011-1.308s.045-1.962.053-2.129c.043-.817.081-1.633.07-2.454.034-2.894-.184-5.908.635-8.654.266-1.078.743-2.2,1.01-3.285,0-.051.084-.65.105-1.03.139-1.8.44-3.639.687-5.43.479-4.344.878-8.15,2.871-12.146,2.516-5.011,10.657-7.454,13.9-1.556a26.25,26.25,0,0,1,2.9,6.313,59.165,59.165,0,0,1,.91,6.163c.269,2.034.484,4.069.7,6.1.073.607.146,1.265.22,1.923.045.167.32,1,.4,1.44,1.346,4.82.663,10.139.415,15.149M632.215,268.314a13.63,13.63,0,0,1-.436,1.4c-.125.321-.2.7-.316,1.022l-.062.163a13.675,13.675,0,0,1-6.337,7.553,13.026,13.026,0,0,1-9.506,1.279,4.47,4.47,0,0,1-.834-.2c-.57-.191-1.094-.272-1.668-.463a15.6,15.6,0,0,1-6.429-3.374,27.932,27.932,0,0,0-2.272-2.082,26.682,26.682,0,0,1-4.078-3.968c-.548-.627-1.1-1.31-1.645-1.938a22.661,22.661,0,0,1-2.468-3.454c-2.232-3.989-5.069-8.442-6.656-12.671-2.61-6.959-5.414-14.307-6.152-21.769a16.556,16.556,0,0,1,8.268-15.708,15.127,15.127,0,0,1,17.08,1.439c5.675,4.76,10.049,11.254,14.284,17.364,2.513,3.62,4.388,8.354,6.409,12.334a32.9,32.9,0,0,1,3.183,12.447,20.673,20.673,0,0,0,.428,3.133,17.272,17.272,0,0,1-.794,7.5" transform="translate(0.074 0.19)" fill="#fcc59a"/>
      </g>
    </g>
    <g id="Grupo_1101081" data-name="Grupo 1101081" transform="translate(524.839 -196.773)" opacity="0.24" style="mix-blend-mode: multiply;isolation: isolate">
      <g id="Grupo_1101080" data-name="Grupo 1101080" transform="translate(0 0)" clip-path="url(#clip-path-4)">
        <path id="Trazado_878038" data-name="Trazado 878038" d="M64.255,200.3c11.488,2.2,22.845,4.295,34.281,6.091,11.437,1.675,22.851,3.223,34.287,4.074,5.718.482,11.442.636,17.155.858,5.752.214,11.352.141,17.178.1,11.357-.268,22.9-.831,34.367-2.03,11.482-1.233,23-2.633,34.48-4.617,5.747-.9,11.476-2.05,17.223-3.076q8.612-1.588,17.155-3.746c11.369-3.015,22.669-6.62,34.072-9.394,5.713-1.3,11.437-2.506,17.195-3.431,5.747-.992,11.544-1.575,17.325-2.3l.7-.087a7.054,7.054,0,0,1,7.114,4.288c3.784,7.819,7.885,15.6,12.038,23.25l13.014,22.587c8.725,15.022,17.932,29.6,26.975,44.316,9.122,14.614,18.063,29.5,28.552,42.668,2.615,3.283,5.27,6.526,8.1,9.515a83.868,83.868,0,0,0,8.9,8.248,80.1,80.1,0,0,0,9.366,6.694,44.714,44.714,0,0,0,8.884,4.409l-8.878,11.169-3.063-10.486c-.522-1.742-.936-3.531-1.413-5.293a41.564,41.564,0,0,1-1.628-7.4,18.106,18.106,0,0,1,.471-5.916,17.183,17.183,0,0,1,2.218-5.079,53.191,53.191,0,0,1,3.744-4.831l6.53-7.987,6.524-7.994c2-2.526,4.839-5.776,5.684-7.176a2.768,2.768,0,0,0,.522-1.394,13.472,13.472,0,0,0-.409-3.431l-2.422-10.593-2.5-10.989a28.88,28.88,0,0,1,.352-14.614c3.341-9.649,9.372-14.212,13.155-19.116,4-4.784,7.256-10.64,10.461-16.932a43.979,43.979,0,0,0,1.951-4.228,3.583,3.583,0,0,0,.221-2.211c-.187-1.534-1.5-5.642-2.451-9.059-2.042-7.149-4.05-13.749-5.962-21.388a36.848,36.848,0,0,1-.964-7.551,23.666,23.666,0,0,1,1.662-9.153c2.258-5.461,4.89-8.255,6.66-10.828a166.276,166.276,0,0,0,10.637-16.717,13.2,13.2,0,0,0,1.135-2.539c.057-.174.062-.181.091-.121-.057-.482.062.181.017-.141-.045-.945-2.15-3.424-4.64-8.154l-.6-1.266-.8-2.057a31.943,31.943,0,0,1-1.061-3.772,37.094,37.094,0,0,1-.777-7.384,45.421,45.421,0,0,1,2.212-13.461c2.57-8.382,7.324-14.962,11.692-20.47l6.422-8.007c1.015-1.293,2.025-2.586,2.95-3.906l1.361-1.977c.187-.255.17-.281.057.174a4.179,4.179,0,0,0-.079,1.132c-.017-.375.028.4.062.456a2.92,2.92,0,0,0,.119.422c.17.436.233.389.114.181l-.664-1.159c-.55-1-1-1.89-1.407-2.754-.828-1.756-1.56-3.491-2.258-5.246a75.6,75.6,0,0,1-3.54-11.156,3.824,3.824,0,0,1,2.212-4.55,3.031,3.031,0,0,1,3.7,2.091l.1.288a83.865,83.865,0,0,0,4.283,9c.8,1.494,1.628,2.968,2.473,4.342.431.7.862,1.34,1.225,1.843l.766,1.039a9.377,9.377,0,0,1,1.31,2.56A9.876,9.876,0,0,1,530.468,66a10.852,10.852,0,0,1,.125,1.146,8.7,8.7,0,0,1-.255,2.5,12.087,12.087,0,0,1-1.044,2.62l-1.35,2.546c-.913,1.682-1.878,3.263-2.842,4.831-1.929,3.116-3.954,6-5.8,8.851-3.7,5.709-6.813,11.082-8.18,16.865-1.424,5.823-1.18,11.35.987,14.949.7,1.628,3.614,4.087,6.008,10.051a19.743,19.743,0,0,1,.806,10.607,29.345,29.345,0,0,1-2.706,7.538,184.139,184.139,0,0,1-11.386,19.223c-2.139,3.163-4.045,5.682-4.476,6.962a5.161,5.161,0,0,0-.352,1.595,15.776,15.776,0,0,0,.295,3.424c1.242,6.68,2.575,14.339,3.772,21.488.5,3.759,1.5,6.667,1.691,12.543a20.667,20.667,0,0,1-1.844,8.5,54.107,54.107,0,0,1-2.9,5.266c-3.551,6.138-7.233,12.724-11.97,18.6-4.731,5.689-9.519,10.211-10.58,14.774a13.85,13.85,0,0,0,.278,7.223c.743,3.055,1.844,6.895,2.774,10.319l2.927,10.687a30.031,30.031,0,0,1,1.072,7.484,19.375,19.375,0,0,1-2.258,9.046c-2.723,4.7-4.544,6.493-6.649,9.541l-6.183,8.362-6.172,8.375a40.472,40.472,0,0,0-2.445,3.511c-.119.194-.131.516.079-.174.023.067.1-.583.108-.422-.017.107.4,1.353.97,3.236.5,1.755,1.067,3.477,1.526,5.246l2.814,10.6.25.951c1.163,4.355-.891,9-4.578,10.366a5.964,5.964,0,0,1-4.55-.147,40.615,40.615,0,0,1-11.822-7.906,115.891,115.891,0,0,1-9.173-9.856L420.918,327.04c-10.8-13.474-21.614-26.862-31.627-41.053-10.081-14.124-19.282-29.019-28.512-43.854l-13.564-22.507L333.43,197.193l7.812,4.2c-5.718,1.226-11.42,2.606-17.178,3.571-5.741,1.039-11.516,1.789-17.308,2.446-11.6,1.146-23.3,1.454-34.934,2.352-11.618,1.005-23.106,3.035-34.627,4.918-11.533,1.863-23.043,4.161-34.679,5.8a321.338,321.338,0,0,1-35.166,3.632c-5.8.268-11.817.208-17.682.013-5.9-.221-11.788-.717-17.648-1.36a293.158,293.158,0,0,1-34.911-5.789,347.794,347.794,0,0,1-34.179-9.414,3.837,3.837,0,0,1-2.212-4.57,3.2,3.2,0,0,1,3.54-2.694" transform="translate(283.194 248.672)" fill="#fcc59a"/>
        <path id="Trazado_878039" data-name="Trazado 878039" d="M800.782,253.122c-3.336.73-6.768,1.32-10.03,2.171-3.262.911-6.484,1.6-9.752,2.68-6.53,1.93-12.991,4.235-19.458,6.526-6.456,2.318-12.872,4.858-19.254,7.491s-12.713,5.488-19.055,8.3q-18.984,8.513-37.577,18.259c-12.356,6.553-24.689,13.18-36.732,20.356l-.04.02a4.849,4.849,0,0,1-6.722-1.943L614.6,271.789q-13.845-22.5-28.285-44.437c-9.621-14.62-19.85-28.651-30.276-42.42a366.3,366.3,0,0,0-33.4-38.762c-6-5.876-11.873-11.913-18.182-17.28-6.178-5.561-12.361-11.056-18.749-16.175l-9.389-7.98-9.65-7.471c-3.239-2.439-6.314-5.193-9.6-7.538L447.251,82.6a278.844,278.844,0,0,0-40.907-25.093,325.577,325.577,0,0,0-44.05-17.24,438.744,438.744,0,0,0-45.412-11.84c-7.63-1.756-15.351-2.714-23.021-4.168-3.841-.764-7.7-1.2-11.573-1.588l-11.6-1.387a280.7,280.7,0,0,0-46.62-1.092c-15.527.918-31.048,3.183-46.081,7.92-7.619,1.735-14.9,5.146-22.363,7.437-7.488,2.245-14.716,5.474-22.085,8.141-7.409,2.546-14.568,5.923-21.8,9.113-3.591,1.648-7.273,3.069-10.807,4.9L90.407,63.394,79.872,69.116,69.7,75.676c-6.756,4.449-13.672,8.6-20.048,13.823-6.422,5.119-13.2,9.642-19.345,15.243l-18.579,16.6.5-9.173c9.343,12.275,18.942,24.262,28.4,36.4l.023.034a6.95,6.95,0,0,1-.306,8.677,5.311,5.311,0,0,1-1.651,1.206c-10.342,4.71-20.6,9.669-30.821,14.768l2.558-10.272,10.381,14.9L31.636,192.3c3.75,4.663,7.568,9.233,11.232,13.95,3.852,4.529,7.675,9.072,11.425,13.709,3.937,4.416,7.795,8.932,11.652,13.441l12,13.039,12.4,12.55L103.1,271.032l13.1,11.551,13.354,11.176,13.615,10.774,13.9,10.3q14.092,9.94,28.478,19.4l14.545,9.119,14.716,8.811.074.04a4.069,4.069,0,0,1,1.384,5,2.972,2.972,0,0,1-3.971,1.769l-15.493-7.3-15.283-7.927L166.407,335.3l-14.835-9.139-14.613-9.649-14.381-10.171q-7.088-5.3-14.075-10.794L94.781,284.1l-13.4-11.987-13.053-12.53-12.69-13.079q-6.169-6.774-12.208-13.722c-3.926-4.751-7.749-9.622-11.567-14.486-3.687-5.012-7.216-10.191-10.818-15.27L10.81,187.224,1.166,170.935l-.159-.268a7.4,7.4,0,0,1,1.379-9.193,5.343,5.343,0,0,1,1.344-.817c10.455-4.369,20.865-8.871,31.2-13.629l-1.934,9.917C23.438,144.9,14.033,132.709,4.36,120.789l-.023-.027a7.021,7.021,0,0,1,.159-8.771l.363-.375,18.732-17.6c6.183-5.983,13.031-10.9,19.526-16.4,6.45-5.608,13.473-10.164,20.349-15.009,3.46-2.379,6.881-4.851,10.376-7.156L84.6,49.122l10.762-6.365c3.614-2.057,7.38-3.705,11.068-5.575,7.432-3.591,14.784-7.471,22.544-9.99,15.209-6.171,31.1-9.722,46.966-12.054,15.913-2.158,31.712-4.235,47.6-5.588l11.93-.69A111,111,0,0,1,247.4,8.31l11.953-.094a116.7,116.7,0,0,1,11.959.181A332.6,332.6,0,0,1,318.946,13.5a446.224,446.224,0,0,1,46.921,11.411,350.443,350.443,0,0,1,45.729,17.1c7.443,3.591,15.079,6.72,22.266,11.009,7.29,4.034,14.716,7.846,21.625,12.751l10.54,7.015c3.46,2.446,6.751,5.186,10.081,7.86l9.916,8.141,9.394,8.925c3.063,3.075,6.269,5.93,9.2,9.173l8.719,9.783c5.906,6.379,11.329,13.314,16.866,20.088,10.954,13.662,21.659,27.465,32.313,41.308,5.338,6.915,10.347,14.158,15.532,21.22l15.141,21.569c9.984,14.473,19.725,29.16,29.363,43.928l14.3,22.265,13.967,22.527-6.762-1.916c12.276-7.431,24.723-14.325,37.4-20.577q18.984-9.468,38.36-17.749c12.963-5.394,26.09-10.258,39.4-14.48,6.643-2.144,13.394-3.893,20.173-5.467,3.353-.871,6.881-1.4,10.3-2.111,3.438-.643,6.79-.992,10.189-1.5,1.725-.261,3.3,1.179,3.517,3.216a3.692,3.692,0,0,1-2.536,4.121Z" transform="translate(0.002 46.447)" fill="#fcc59a"/>
        <path id="Trazado_878040" data-name="Trazado 878040" d="M64.2,34.192c5.611,13.528.874,29.857-10.574,36.484s-25.284,1.032-30.895-12.49S21.854,28.322,33.308,21.7,58.586,20.67,64.2,34.192Z" transform="translate(95.19 107.824)" fill="#fcc59a" stroke="#40433e" stroke-linecap="round" stroke-linejoin="round" stroke-width="1.482"/>
        <path id="Trazado_878041" data-name="Trazado 878041" d="M43.969,55.35C111.443,15.329,187.851-3.432,263.239,1.519c9.321.61,20.916,3.839,22.748,14.647.675,3.973-.278,8.107-1.759,11.766-6.3,15.518-20.825,23.264-32.7,33.247s-22.5,27.947-16.049,43.378" transform="translate(205.464 4.224)" fill="#fcc59a" stroke="#40433e" stroke-linecap="round" stroke-linejoin="round" stroke-width="1.482"/>
        <path id="Trazado_878042" data-name="Trazado 878042" d="M85.437,59.165a129.828,129.828,0,0,1,14.778,6.52c4.862,2.439,9.536,5.354,14.194,8.288a145.828,145.828,0,0,1,13.473,9.85c4.311,3.618,8.441,7.5,12.554,11.4l12.078,12.041a125.74,125.74,0,0,0,12.446,11.652l6.456,5.7a84.644,84.644,0,0,1,5.843,6.486c3.665,4.59,6.5,10.01,9.525,15.176l.374.643a6.8,6.8,0,0,1-.976,8.074,38.807,38.807,0,0,1-12.878,8.469,40.433,40.433,0,0,1-13.865,2.573,45.089,45.089,0,0,1-13.422-1.735c-4.4-1.219-8.447-3.169-11.936-3.679-3.7-.469-5.985.6-8.515,4.684a27.024,27.024,0,0,1-5.259,6.164,13.621,13.621,0,0,1-3.943,2.245,13.924,13.924,0,0,1-4.153.958c-5.65.57-10.432-1.916-14.636-4.328A59.4,59.4,0,0,1,86.345,161.2c-3.16-3.055-6.632-6.781-9.644-10.332-3.08-3.6-6.155-7.2-9-11.049-5.73-7.565-12.605-14.453-16.945-23.525A148.373,148.373,0,0,1,40.326,87.917c-1.259-4.938-2.235-9.957-3.012-15-.607-5.092-1.169-10.158-1.265-15.27a2.646,2.646,0,0,1,2.332-2.868,2.433,2.433,0,0,1,2.3,1.89l.028.1c.686,2.338,1.316,4.663,1.889,7l2.082,6.868q2.136,6.814,4.584,13.394c1.713,4.355,3.387,8.7,5.333,12.892,1.878,4.221,3.909,8.335,6.047,12.369,2.184,3.98,3.965,8.282,6.013,12.449a70.524,70.524,0,0,0,6.881,11.947,97.9,97.9,0,0,0,8.64,10.218,102.867,102.867,0,0,0,9.65,8.824,47.522,47.522,0,0,0,10.03,6.774,21.947,21.947,0,0,0,9.706,2.225,20.017,20.017,0,0,0,2.059-.221c.868-.234.749.087,1.917-.429a13.431,13.431,0,0,0,4.8-2.727c1.832-1.28,3.937-3.263,6.518-4.375a15.866,15.866,0,0,1,7.67-1.36c4.918.228,8.935,1.461,12.861,1.675a70.726,70.726,0,0,0,11.7.275c7.59-.529,14.931-3.169,19.583-9.059l-.6,8.71c-3.375-4.509-7.154-8.556-10.325-13.206-3.336-4.483-6.093-9.615-9.088-14.614a81.819,81.819,0,0,0-4.822-7.136c-1.77-2.191-3.67-4.228-5.537-6.305-1.917-2.01-3.92-3.906-5.877-5.856l-6.183-5.407c-4.17-3.518-8.487-6.774-12.792-10.03l-13-9.6c-4.368-3.143-8.855-6.024-13.286-9.086l-13.609-8.69a3.069,3.069,0,0,1-.953-3.792,2.226,2.226,0,0,1,2.774-1.34Z" transform="translate(168.449 312.245)" fill="#fcc59a"/>
        <path id="Trazado_878043" data-name="Trazado 878043" d="M246.1,57.8c.028.034-.539-.322-1.288-.637a14,14,0,0,0-3.653-1.012c-3.347-.59-8.248.261-14.392,1.668-3.063.65-6.257,1.615-9.7,2.513-3.432.992-7.04,2.091-10.739,3.41-7.431,2.479-15.289,5.468-23.208,8.429A229.712,229.712,0,0,1,159.4,79.627,98.187,98.187,0,0,1,137.887,82.6a66.858,66.858,0,0,1-8.719-.449,51.529,51.529,0,0,1-6.654-1.2c-3.659-.958-5.684-1.715-5.684-1.715a2.228,2.228,0,0,1-1.174-2.68,1.908,1.908,0,0,1,1.5-1.474l.13-.02s2.088-.3,5.627-.462c1.764-.034,3.926-.355,6.365-.536,2.439-.04,5.2-.6,8.186-.8,2.99-.456,6.24-.71,9.661-1.327,3.438-.436,7.051-1.126,10.807-1.836,7.494-1.508,15.549-3.189,23.611-5.213,8.078-1.9,16.156-4.067,23.758-6.024,7.59-1.869,14.738-3.786,20.888-4.918,6.008-1.36,11.431-2.225,15.317-1.776a16.654,16.654,0,0,1,4.521,1.092,9.144,9.144,0,0,1,1.43.657l.238.121a2.292,2.292,0,0,1,.794,2.814,1.657,1.657,0,0,1-2.383.938Z" transform="translate(540.039 296.741)" fill="#fcc59a"/>
        <path id="Trazado_878044" data-name="Trazado 878044" d="M234.1,90.405a63.852,63.852,0,0,0-14.591-3.33,125.406,125.406,0,0,0-14.988-.643c-5.032-.027-10.081.335-15.175.4-5.111.047-10.211.114-15.351-.147a139.132,139.132,0,0,1-30.566-4.643,65.209,65.209,0,0,1-14.988-5.762A37.506,37.506,0,0,1,115.43,64.816l-.46-.67a3.165,3.165,0,0,1,.357-3.947,2.094,2.094,0,0,1,2.956-.027c.97.891,1.917,1.829,2.853,2.794a2.422,2.422,0,0,1,.17,3.029,1.646,1.646,0,0,1-1.917.637c-1.18-.442-2.349-.911-3.5-1.421l2.854-4.643c7.953,6.064,17.013,9.032,26.629,11.9a259.906,259.906,0,0,0,29.182,6.975c9.837,1.836,19.872,2.184,30.015,2.62,5.077.174,10.166.583,15.266,1.132A91.9,91.9,0,0,1,235,86.338l.062.02a2.166,2.166,0,0,1,1.271,2.566,1.777,1.777,0,0,1-2.178,1.5l-.062-.02" transform="translate(534.789 339.607)" fill="#fcc59a"/>
        <path id="Trazado_878045" data-name="Trazado 878045" d="M221.885,144.978s-1.946-.576-5.344-1.588c-3.358-1.059-8.362-2.533-14.092-4.791-2.91-1-6.013-2.285-9.281-3.685-3.279-1.36-6.66-3.042-10.223-4.623-7.006-3.464-14.364-7.545-21.6-12.014-3.54-2.379-7.114-4.724-10.478-7.33-3.46-2.446-6.632-5.246-9.746-7.906-3.007-2.8-5.934-5.508-8.549-8.288-2.587-2.821-5.055-5.454-7.091-8.188a95.166,95.166,0,0,1-9.253-13.689c-1.969-3.545-2.939-5.689-2.939-5.689a2.358,2.358,0,0,1,.743-2.9,1.6,1.6,0,0,1,1.94.168l.062.06s1.645,1.441,4.255,4.168c2.587,2.7,6.286,6.566,10.722,11.2,2.2,2.318,4.555,4.844,7.12,7.424,2.456,2.72,5.281,5.28,8.061,8.128,2.893,2.673,5.815,5.561,8.918,8.3,3.035,2.854,6.325,5.394,9.531,8.128,3.313,2.519,6.581,5.166,9.967,7.444,3.347,2.372,6.791,4.369,10.081,6.412,3.358,1.869,6.592,3.766,9.786,5.173,3.165,1.5,6.172,2.888,9,3.987a115.118,115.118,0,0,0,13.831,4.623c3.426.884,5.389,1.387,5.389,1.387a2.131,2.131,0,0,1,1.356,2.506,1.8,1.8,0,0,1-2.116,1.6l-.057-.013" transform="translate(528.416 365.01)" fill="#fcc59a"/>
        <path id="Trazado_878046" data-name="Trazado 878046" d="M46.81,13.482s1.248,1.776,3.432,4.878c2.218,3.1,5.384,7.518,9.19,12.831,3.92,5.186,8.192,11.531,13.014,18.125,4.76,6.687,9.831,13.823,14.9,20.952,4.975,7.25,9.814,14.66,13.916,21.957a180.882,180.882,0,0,1,10.223,20.63,97.607,97.607,0,0,1,6.62,22.232,3.3,3.3,0,0,1-2.332,3.813,2.545,2.545,0,0,1-2.354-.838l-.045-.054a53.186,53.186,0,0,1-3.727-4.791,146.152,146.152,0,0,1-8.453-13.381c-3.262-5.669-6.694-12.516-10.353-19.893C87.23,92.52,83.372,84.6,79.509,76.68c-3.9-7.92-7.925-15.786-12.055-22.868-4.1-7.116-8.288-13.441-11.868-18.875C48.28,24.263,42.8,17.65,42.8,17.65a3.581,3.581,0,0,1,.04-4.469,2.4,2.4,0,0,1,3.784.047c.045.06.1.121.142.188Z" transform="translate(196.433 69.999)" fill="#fcc59a"/>
        <path id="Trazado_878047" data-name="Trazado 878047" d="M178.546,42s-2.144,1.856-5.894,5.106c-3.767,3.169-9.122,8-15.68,13.394-3.222,2.814-6.773,5.756-10.546,8.845l-11.885,9.7c-8.322,6.607-17.274,13.548-26.339,20.356-9.179,6.573-18.448,13.039-27.491,18.312-4.527,2.613-8.935,5.059-13.167,7.257-4.272,2.07-8.277,4.127-12.123,5.595-15.209,6.452-26.181,7.672-26.181,7.672a2.919,2.919,0,0,1-3-2.935,3.5,3.5,0,0,1,1.186-2.988l.04-.033s2.264-1.816,6.354-4.456c4.079-2.687,9.962-6.272,17.093-10.232,3.557-2.03,7.477-4.014,11.567-6.258,4.13-2.151,8.481-4.416,12.985-6.754,4.5-2.372,9.156-4.818,13.882-7.3,4.76-2.426,9.474-5.186,14.279-7.759,4.743-2.72,9.525-5.374,14.137-8.208,4.618-2.814,9.06-5.816,13.394-8.65,8.64-5.742,16.366-11.773,22.953-16.979,6.53-5.354,11.834-9.876,15.464-13.34,3.648-3.4,5.735-5.354,5.735-5.354a2.4,2.4,0,0,1,3.75.516,3.562,3.562,0,0,1-.437,4.436l-.079.067" transform="translate(122.584 206.916)" fill="#fcc59a"/>
        <path id="Trazado_878048" data-name="Trazado 878048" d="M124.312,22.571l2.178-.429c.908,0,1.849,0,2.774.06a16.091,16.091,0,0,1,5.038,1.461,22.389,22.389,0,0,1,8.305,7,33.167,33.167,0,0,1,5.134,10.412,36.092,36.092,0,0,1,1.044,6.044,31.682,31.682,0,0,1-.238,6.439l-.511,2.566c-.278,1.025-.539,2.091-.857,3.055a39.62,39.62,0,0,1-2.264,5.3,38.228,38.228,0,0,1-6.325,8.771,46.067,46.067,0,0,1-7.761,6.653c-2.78,1.863-5.571,3.866-8.7,5.561l2.6-9.092a47.6,47.6,0,0,1,4.629,4.8,36.919,36.919,0,0,1,3.721,5.782c2.133,4.181,3.285,8.985,4.38,13.675a82.2,82.2,0,0,1,2.468,14.4,52.667,52.667,0,0,1-.817,14.828c-.357,1.608-.59,2.265-.891,3.444-.357,1.193-.851,2.479-1.31,3.679a63.313,63.313,0,0,1-3.234,6.385c-1.225,1.983-2.473,3.9-3.773,5.782-1.367,1.816-2.678,3.658-4.011,5.622a37.9,37.9,0,0,1-4.482,5.622,18.741,18.741,0,0,1-5.894,3.746,22.646,22.646,0,0,1-6.745,1.313,28.393,28.393,0,0,1-6.819-.576l3.988-9.943a24.968,24.968,0,0,1,5.542,13.582,37.347,37.347,0,0,1-1.259,14,37.907,37.907,0,0,1-2.519,6.231c-1.084,2.131-2.1,3.913-3.285,5.782a34.379,34.379,0,0,1-8.305,9.394,26.555,26.555,0,0,1-5.049,2.915,45.685,45.685,0,0,1-5.316,2,35.153,35.153,0,0,1-11.187,1.534,28.073,28.073,0,0,1-11.153-2.58,24.643,24.643,0,0,1-9.247-7.719,3.182,3.182,0,0,1,.318-3.98,2.093,2.093,0,0,1,2.661-.308l.074.047c5.344,3.411,11.17,3.913,16.905,3a35.712,35.712,0,0,0,8.436-2.452,37.424,37.424,0,0,0,4.079-1.97l3.914-2.238A42.75,42.75,0,0,0,98.1,187.38a14.375,14.375,0,0,0,2.876-3.464,18.142,18.142,0,0,0,1.821-4.355c1.8-6.091,0-13.16-3.4-16.114a6.234,6.234,0,0,1-1-7.759,4.463,4.463,0,0,1,4.016-2.251l.976.067a17.43,17.43,0,0,0,4.379-.261,37.247,37.247,0,0,0,4.215-1.5c2.695-1.293,5.832-2.07,8.952-3.819,3.024-1.869,5.128-5.293,6.564-8.851a33.578,33.578,0,0,0,1.634-5.548c.131-.9.272-1.7.454-2.62.119-.978.346-2.466.369-3.022.1-1.943.278-3.846.255-5.789-.04-1.936-.1-3.866-.312-5.8a49.888,49.888,0,0,0-2.61-11.384c-1.413-3.638-3.512-6.848-5.185-10.285-.834-1.735-1.656-3.484-2.394-5.34-.806-1.8-1.424-3.806-2.246-5.682l-1.044-2.365a5.041,5.041,0,0,1,1.668-6.211,3.411,3.411,0,0,1,1.98-.516,17.415,17.415,0,0,0,3.9-.2,15.078,15.078,0,0,0,3.773-1.353,24.254,24.254,0,0,0,6.49-5.22,28.059,28.059,0,0,0,4.5-7.337,29.846,29.846,0,0,0,1.322-4.114l.369-1.9.3-2.5a30.95,30.95,0,0,0-.051-3.866,26.953,26.953,0,0,0-.7-4.06,23.958,23.958,0,0,0-3.188-7.6,20.9,20.9,0,0,0-5.287-5.742,20.665,20.665,0,0,0-3.256-1.735l-1.571-.5-2.19-.235a2.72,2.72,0,0,1-2.161-3.049,2.669,2.669,0,0,1,1.98-2.519" transform="translate(250.566 126.219)" fill="#fcc59a"/>
        <path id="Trazado_878049" data-name="Trazado 878049" d="M126.895,29.844l2.315-.255,2.865.288a19.093,19.093,0,0,1,5.145,1.916,24.118,24.118,0,0,1,8.362,7.833A30.677,30.677,0,0,1,150.3,50.943a33.184,33.184,0,0,1,.584,6.372,37.175,37.175,0,0,1-.72,6.573l-.686,2.633c-.346,1.032-.686,2.09-1.066,3.069a48.752,48.752,0,0,1-2.587,5.347c-1.906,3.444-4.306,6.3-6.615,9.521-2.349,3.169-5.168,6.332-8.663,7.987a16.585,16.585,0,0,1-5.452,1.581,22.625,22.625,0,0,1-5.667-.288l5.055-10.185c1.985,5.628,4.691,11.082,5.945,17.85a29.9,29.9,0,0,1,.125,10.841,21.873,21.873,0,0,1-1.849,5.3,20.275,20.275,0,0,1-1.31,2.278,19.131,19.131,0,0,1-1.583,2.1c-2.133,2.479-4.34,4.308-6.246,6.191-2.025,1.956-3.563,4.643-5.559,6.8a20.164,20.164,0,0,1-6.864,4.6c-2.513,1-5,2-7.528,2.807l2.785-7.886c2.082,6.024,4.124,12.63,4.669,20.168a43.527,43.527,0,0,1-.068,5.823c-.147.978-.2,1.99-.38,2.988l-.516,2.834A22.878,22.878,0,0,1,100.453,177a22.764,22.764,0,0,1-9.031,5.22,20.928,20.928,0,0,1-4.839.958,25.794,25.794,0,0,1-4.663.054,42.881,42.881,0,0,1-16.61-5.26,3.073,3.073,0,0,1-1.231-3.766,2.46,2.46,0,0,1,2.122-1.7c5.531-.241,10.8.027,15.481-.757a30.458,30.458,0,0,0,3.392-.744,21.649,21.649,0,0,0,3.046-1.159,22.979,22.979,0,0,0,5.264-3.518,24.853,24.853,0,0,0,4.391-3.993l.545-1.032c.062.047.2-.436.3-.63A7.5,7.5,0,0,0,99.137,159a15.119,15.119,0,0,0,.187-3.712c-.363-5.253-2.978-10.486-5.576-15.86a5.9,5.9,0,0,1,1.69-7.3l.46-.268.635-.322a44.162,44.162,0,0,0,6.127-3.585,28.182,28.182,0,0,1,6.149-3.437c2.212-.791,4.771-1.293,6.683-2.781a16.489,16.489,0,0,0,4.7-5.313,9.1,9.1,0,0,0,.584-1.407,10.163,10.163,0,0,0,.414-1.548,18.088,18.088,0,0,0,.306-2.962,25.51,25.51,0,0,0-.743-6.365,40.973,40.973,0,0,0-6.064-13.675,6.82,6.82,0,0,1,.692-8.5,4.829,4.829,0,0,1,2.354-1.286l2.008-.409c1.2-.248,2.354-.643,3.5-.951a30.355,30.355,0,0,1,3.489-.891,34.693,34.693,0,0,1,3.727-.7,22.609,22.609,0,0,0,3.937-1.106c2.644-1.018,4.635-3.364,6.189-5.9a22.305,22.305,0,0,0,1.838-4.148l.516-2.024.437-2.633a28.664,28.664,0,0,0-.034-4.228,39.766,39.766,0,0,0-.8-4.342,32.742,32.742,0,0,0-3.3-8.074,25.332,25.332,0,0,0-5.338-6.406,22.786,22.786,0,0,0-3.358-2.158l-1.645-.75-2.269-.556a2.84,2.84,0,0,1-1.855-3.33,2.572,2.572,0,0,1,2.116-2.231" transform="translate(298.456 168.67)" fill="#fcc59a"/>
        <path id="Trazado_878050" data-name="Trazado 878050" d="M156.474,34.667l2.02.724,2.326,1.353a20.623,20.623,0,0,1,3.869,3.511,26.992,26.992,0,0,1,5.281,9.561,34.524,34.524,0,0,1,1.821,11.2,34.164,34.164,0,0,1-.55,5.736,33.362,33.362,0,0,1-1.645,5.662l-.981,2.2-1.327,2.546a38.673,38.673,0,0,1-2.927,4.342,52.29,52.29,0,0,1-6.932,7.169c-5,4.215-10.387,7.391-16.6,10.868l-.062.033,4.47-11.632a51.812,51.812,0,0,1,3.67,10.506q.6,2.714.919,5.454c.159,1.836.369,3.645.414,5.481.159,7.263-1.015,14.774-4.414,20.992l-1.242,2.09L143,134.683c-1.061,1.3-2.133,2.546-3.251,3.705-2.275,2.3-4.646,4.275-6.995,6.412-2.315,2.137-4.629,4.952-7.613,6.258a17.139,17.139,0,0,1-9.338,1.313l5.145-7.2a54.346,54.346,0,0,1-.108,11.33,58.491,58.491,0,0,1-2.456,10.707,63.028,63.028,0,0,1-4.141,9.809c-1.645,3.089-3.2,6.359-5.219,9.407l-1.458,2.077c-.63.7-1.237,1.467-1.923,2.124a22.367,22.367,0,0,1-4.1,3.149,32.558,32.558,0,0,1-9.167,3.611,27.62,27.62,0,0,1-18.658-2.171l-1-.509a2.84,2.84,0,0,1-1.43-2.338c-.165-2.171-.357-4.328-.4-6.54a2.7,2.7,0,0,1,2.366-2.935,2.4,2.4,0,0,1,2.19,1.5c.891,1.936,1.634,3.926,2.411,5.9l-2.428-2.848a34.606,34.606,0,0,0,7.38-.3,32.777,32.777,0,0,0,6.978-1.93,30.7,30.7,0,0,0,6.359-3.437c1-.683,1.969-1.387,3-2.01a12.36,12.36,0,0,1,1.4-.844,16.069,16.069,0,0,1,1.7-1.152,26.282,26.282,0,0,0,2.99-2.452,19.12,19.12,0,0,0,2.428-3.243,31.062,31.062,0,0,0,3.018-7.927,39.748,39.748,0,0,0,.045-16.838c-.664-3.035.879-6.131,3.449-6.915a5.214,5.214,0,0,1,.624-.141l1.072-.147c2.15-.295,4.181-.945,6.348-1.24,2.122-.4,4.709-.094,6.938-1.173a12.256,12.256,0,0,0,3-2.191,17.071,17.071,0,0,0,2.428-3.015,26.172,26.172,0,0,0,1.866-3.464l1.39-3.638a46.714,46.714,0,0,0,1.781-7.5,33.09,33.09,0,0,0,.261-7.786,26.553,26.553,0,0,0-1.656-7.444,21.836,21.836,0,0,0-3.37-6.251,6.731,6.731,0,0,1,.193-8.4,5.664,5.664,0,0,1,.828-.75l3.455-2.472.045.007c4.828,1.957,10.194.563,14.438-2.5a21.01,21.01,0,0,0,5.531-5.829,32.582,32.582,0,0,0,1.963-3.611l.7-1.762.732-2.285c.221-.978.5-2.526.675-3.779.153-1.347.193-2.694.233-4.054a34.341,34.341,0,0,0-.936-8.121,30.5,30.5,0,0,0-3.024-7.384,33.439,33.439,0,0,0-2.286-3.1l-1.2-1.273-1.747-1.38A3.152,3.152,0,0,1,153.8,35.8a2.216,2.216,0,0,1,2.678-1.132" transform="translate(331.244 196.933)" fill="#fcc59a"/>
        <path id="Trazado_878051" data-name="Trazado 878051" d="M132.647,43.441a30.434,30.434,0,0,1,7.1,4.483,26.882,26.882,0,0,1,3.285,3.323c.488.6,1.044,1.38,1.441,1.957a19.553,19.553,0,0,1,1.35,2.338,21.074,21.074,0,0,1,2.218,10.975,19.9,19.9,0,0,1-.408,2.941,12.266,12.266,0,0,1-.329,1.286l-.471,1.488a27.838,27.838,0,0,1-2.354,4.8,46.525,46.525,0,0,1-2.774,4.034,34.451,34.451,0,0,0-2.507,4.215,33.744,33.744,0,0,1-2.439,4.235,12.174,12.174,0,0,1-3.188,3.089c-2.417,1.575-5.276,2.111-7.687,3.518-2.513,1.206-4.969,2.533-7.551,3.484l-1.515-11.19a10.1,10.1,0,0,1,6.586,3.464,18.5,18.5,0,0,1,3.336,6.05,55.881,55.881,0,0,1,1.849,6.258c.448,1.374,1.611,4.02,2.161,6.1a13.9,13.9,0,0,1-.13,6.66,42.794,42.794,0,0,1-2.269,5.99,31.758,31.758,0,0,1-6.893,9.709,49.283,49.283,0,0,1-4.294,3.719l-2.417,1.729c-.7.489-1.118.978-2.076,1.635a17.641,17.641,0,0,1-5.236,2.8,12.5,12.5,0,0,1-5.542.194,22.826,22.826,0,0,1-17.535-12.878,3.2,3.2,0,0,1,.959-3.946,2.115,2.115,0,0,1,2.144-.134l.2.1a29.711,29.711,0,0,0,14.84,3.625,26.026,26.026,0,0,1,3.443-.2l3.506.355a4.955,4.955,0,0,0,2.1-.342,5.425,5.425,0,0,0,1.554-.784,11.178,11.178,0,0,0,2.808-2.781,22.175,22.175,0,0,0,3.421-7.558c.794-2.74.323-5.427,1.475-7.96.607-1.461,1.4-2.359,1.186-4.442a7.233,7.233,0,0,0-1.413-3.6,5.964,5.964,0,0,0-2.507-1.943,3.363,3.363,0,0,0-1.708-.255c-2.61.328-4.941-1.9-5.219-4.985a5.849,5.849,0,0,1,2.7-5.655l1-.549a60.951,60.951,0,0,0,6.4-3.719c2.144-1.246,3.716-3.645,5.628-5.22a10.551,10.551,0,0,1,3.183-1.836c1.055-.355,2.587-.757,3.727-1.045a8.841,8.841,0,0,0,5.542-4.322,9.765,9.765,0,0,0,1.259-3.089l.1-.663a5.69,5.69,0,0,0,.079-.9,9.84,9.84,0,0,0-.062-1.528,21.107,21.107,0,0,0-1.929-6.117l-.715-1.447c-.357-.623-.59-1.025-.942-1.548-.624-1.018-1.356-1.99-2.122-3-1.56-1.977-3.313-4.054-5.06-6.345a3.234,3.234,0,0,1,.182-4.034,2.148,2.148,0,0,1,2.524-.529" transform="translate(392.762 246.466)" fill="#fcc59a"/>
        <path id="Trazado_878052" data-name="Trazado 878052" d="M113.711,48.175a21.676,21.676,0,0,1,6.694,3.35,26.576,26.576,0,0,1,5.662,5.334,73.021,73.021,0,0,1,4.5,7.022,26.56,26.56,0,0,1,2.2,4.509l1.883,5.267a15.594,15.594,0,0,1,.9,6.091,10.25,10.25,0,0,1-1.991,5.28,41.878,41.878,0,0,1-3.54,3.746c-.6.63-1.123,1.132-1.838,1.762l-1.7,1.394a16.234,16.234,0,0,1-7.454,3.417c-1.282.174-2.541.214-3.716.462a6.114,6.114,0,0,0-3.268,1.514l1.2-7.712a15.229,15.229,0,0,1,3.478,1.474,7.936,7.936,0,0,1,2.405,3.049A31.812,31.812,0,0,1,121,101.892a31.042,31.042,0,0,1-.278,7.759c-.221,1.266-.448,2.513-.715,3.766l-1.027,4.007a13.952,13.952,0,0,0-.244,1.581l-.7,2.251a11.274,11.274,0,0,1-1.94,3.565,15.783,15.783,0,0,1-6.081,3.933A12.437,12.437,0,0,1,97.2,126.562a3.357,3.357,0,0,1-.414-4.181,2.519,2.519,0,0,1,1.367-1.045l.391-.114a19.323,19.323,0,0,0,7.278-3.92l1.344-1.26c.426-.436.749-.958,1.186-1.32a5.092,5.092,0,0,1,1.549-.878l.766-.234a10.6,10.6,0,0,0,1.021-1.059c.312-.06.7-1.039.834-1.642a7.815,7.815,0,0,0,.238-2.191,15.085,15.085,0,0,0-1.844-6.158,17.546,17.546,0,0,0-1.152-1.534,3.733,3.733,0,0,1-.681-1.789,15.645,15.645,0,0,0-.306-2.62l-1.259-4.255a2.771,2.771,0,0,1,1.367-3.343,1.924,1.924,0,0,1,1.089-.114,4.991,4.991,0,0,0,3.285-.791,15.352,15.352,0,0,0,2.751-2.144c1.679-1.581,3.336-2.606,4.7-3.859a14.639,14.639,0,0,0,1.021-1.052,10.478,10.478,0,0,0,.664-.978,6.947,6.947,0,0,0,.641-2.613,3.368,3.368,0,0,1,.828-2.05c.494-.543,1.356-1.059,2.008-1.836a3.515,3.515,0,0,0,.7-1.266,1.666,1.666,0,0,0,.017-1.38,5.958,5.958,0,0,0-1.146-2.486,45.158,45.158,0,0,0-4.85-4.724c-1.679-1.575-3.217-3.317-4.771-5.092a73.237,73.237,0,0,1-4.6-5.715,3.3,3.3,0,0,1,.272-4.127,2.246,2.246,0,0,1,2.2-.616" transform="translate(449.752 274.175)" fill="#fcc59a"/>
        <path id="Trazado_878053" data-name="Trazado 878053" d="M41.667,56.925s2.961,6.553,8.078,15.833A312.778,312.778,0,0,0,70.23,105.369c8.033,11.324,16.616,22,22.936,30.158,3.171,4.06,5.786,7.5,7.6,9.923s2.808,3.886,2.808,3.886a1.2,1.2,0,0,1-.113,1.494.81.81,0,0,1-1.1.04s-1.288-1.092-3.443-3.136-5.174-5.066-8.549-8.985c-3.432-3.866-7.21-8.637-11.074-13.937-3.914-5.24-7.761-11.17-11.573-17.1-7.551-11.947-14.4-24.436-19.458-33.844-4.964-9.494-8.135-15.887-8.135-15.887l-.017-.033a1.153,1.153,0,0,1,.318-1.434.819.819,0,0,1,1.22.375l.017.033" transform="translate(186.867 321.339)" fill="#fcc59a"/>
        <path id="Trazado_878054" data-name="Trazado 878054" d="M44.987,57.927s3.772,6,10.058,14.305a272.057,272.057,0,0,0,24.7,28.57c9.531,9.689,19.566,18.567,27.014,25.354,3.721,3.417,6.825,6.265,9,8.262,2.167,2.017,3.364,3.256,3.364,3.256a1.2,1.2,0,0,1,.108,1.494.825.825,0,0,1-1.078.275s-1.435-.817-3.875-2.4a108.055,108.055,0,0,1-9.8-7.149A168.1,168.1,0,0,1,91.482,118.3C86.853,113.875,82.2,108.749,77.6,103.6c-9.15-10.412-17.62-21.562-23.866-30C47.551,65.049,43.6,59.247,43.6,59.247l-.017-.034a1.187,1.187,0,0,1,.13-1.481.807.807,0,0,1,1.254.161l.023.034" transform="translate(202.715 327.789)" fill="#fcc59a"/>
        <path id="Trazado_878055" data-name="Trazado 878055" d="M55.239,63.142s2.178-1.494,5.985-4.121c3.869-2.546,9.338-6.345,16.043-10.533,6.626-4.382,14.591-8.958,23.106-13.93,8.566-4.851,17.819-9.776,27.213-14.366A259.833,259.833,0,0,1,155.752,8.426c9.162-3.2,17.739-5.9,25.5-7.143a53.278,53.278,0,0,1,19-.174,32.6,32.6,0,0,1,7.057,2.017l.085.04a2.267,2.267,0,0,1,1.015,2.754,1.831,1.831,0,0,1-1.742,1.347s-2.473-.107-6.694.147A109.662,109.662,0,0,0,182.63,10.49c-7.114,1.923-15.652,4.335-24.694,7.129-9,2.975-18.664,5.97-28.183,9.628a283.821,283.821,0,0,0-27.639,11.886c-8.708,4.194-16.593,8.777-23.293,12.825C72.155,56.113,66.7,59.731,62.965,62.452s-5.894,4.295-5.894,4.295a1.633,1.633,0,0,1-2.451-.683,2.337,2.337,0,0,1,.579-2.895l.04-.027" transform="translate(253.998 1.967)" fill="#fcc59a"/>
        <path id="Trazado_878056" data-name="Trazado 878056" d="M62.071,67.327s7.84-5.655,19.923-13.729c5.962-4.174,13.161-8.516,20.78-13.4,7.7-4.7,16-9.541,24.4-14.218a276.935,276.935,0,0,1,25.239-12.154A179,179,0,0,1,175.2,5.75a106.526,106.526,0,0,1,16.6-3.41c4.056-.536,6.393-.643,6.393-.643a1.964,1.964,0,0,1,1.878,2.05,2.179,2.179,0,0,1-1.084,2.037l-.045.027S196.8,6.9,193.008,8.491c-3.772,1.682-9.2,3.806-15.714,6.272-6.53,2.372-14.148,5.146-22.306,8.114-4.062,1.575-8.26,3.2-12.52,4.844-4.289,1.595-8.56,3.477-12.895,5.213-8.611,3.618-17.11,7.632-24.944,11.786-7.846,4.107-14.971,8.463-21.024,12.309-6.025,3.92-10.937,7.3-14.33,9.883l-5.338,4a1.633,1.633,0,0,1-2.462-.65,2.338,2.338,0,0,1,.556-2.9l.04-.034" transform="translate(285.991 9.662)" fill="#fcc59a"/>
        <path id="Trazado_878057" data-name="Trazado 878057" d="M67.739,59.259S74.1,54.977,83.646,48.551c9.536-6.479,22.453-14.681,35.575-22.62,6.62-3.806,13.286-7.558,19.719-10.546a146.393,146.393,0,0,1,17.887-7.163,73.873,73.873,0,0,1,18.227-3.786,1.992,1.992,0,0,1,1.889,2.091A2.316,2.316,0,0,1,176,8.49s-1.634,1.1-4.555,2.66c-2.91,1.595-7.1,3.692-12.18,5.963-10.143,4.583-23.894,9.776-37.521,15.706-6.824,2.935-13.564,6.151-19.781,9.454-6.24,3.236-11.885,6.72-16.712,9.709-4.794,3.1-8.719,5.722-11.42,7.759-2.717,1.99-4.266,3.129-4.266,3.129a1.632,1.632,0,0,1-2.456-.67,2.331,2.331,0,0,1,.567-2.895l.062-.047" transform="translate(312.33 25.281)" fill="#fcc59a"/>
        <path id="Trazado_878058" data-name="Trazado 878058" d="M192.79,68.122s-7.318,2.084-18.562,4.55c-5.576,1.407-12.168,2.392-19.226,3.672-7.074,1.065-14.659,1.97-22.295,2.627a175.248,175.248,0,0,1-22.487.107,115.2,115.2,0,0,1-19.475-2.968,70.784,70.784,0,0,1-18.284-6.895,2.359,2.359,0,0,1-.8-2.908,1.824,1.824,0,0,1,1.6-1.186H73.3s1.934-.027,5.219.268c3.29.268,7.942.777,13.479,1.494,11.068,1.454,25.749,3.759,40.664,4.576a173.178,173.178,0,0,0,21.937-.114,159.771,159.771,0,0,0,19.061-2.533,135.1,135.1,0,0,0,13.28-3.25c3.2-.972,5.021-1.528,5.021-1.528a1.776,1.776,0,0,1,2.173,1.508,2.157,2.157,0,0,1-1.282,2.56l-.017.007Z" transform="translate(333.935 364.63)" fill="#fcc59a"/>
        <path id="Trazado_878059" data-name="Trazado 878059" d="M115.045,69.205a50.947,50.947,0,0,0-5.293.047,79.158,79.158,0,0,0-11.692,1.729c-4.283.8-8.617,1.193-11.771.167a11.032,11.032,0,0,1-5.106-3.122,3.075,3.075,0,0,1-.011-3.833,3.21,3.21,0,0,1,.369-.355,11.1,11.1,0,0,1,5.372-2.01c3.137-.422,7.2.563,11.335,1.648a42.751,42.751,0,0,0,11.442,1.856A32.846,32.846,0,0,0,114.909,65a1.857,1.857,0,0,1,2.025,1.789,2.079,2.079,0,0,1-1.515,2.392,1.423,1.423,0,0,1-.335.02Z" transform="translate(376.207 351.875)" fill="#fcc59a"/>
        <path id="Trazado_878060" data-name="Trazado 878060" d="M75.269,18.684s5.656,2.854,14.143,7.5c8.5,4.516,19.583,11.149,30.526,18.366a177.269,177.269,0,0,1,15.459,11.8,115.345,115.345,0,0,1,12.248,12.275,69.677,69.677,0,0,1,9.831,14.52,2.392,2.392,0,0,1-.737,2.968,1.588,1.588,0,0,1-1.753.013l-.04-.027a41.3,41.3,0,0,1-3.636-2.707c-2.246-1.8-5.344-4.456-8.923-7.786-7.165-6.633-16.259-16.047-25.965-24.8a180.427,180.427,0,0,0-14.733-12.087,155.3,155.3,0,0,0-13.711-8.992c-4.147-2.365-7.585-4.2-10.126-5.334L73.9,22.57a2.246,2.246,0,0,1-1.01-2.727A1.71,1.71,0,0,1,75.2,18.651l.068.034" transform="translate(340.046 105.495)" fill="#fcc59a"/>
        <path id="Trazado_878061" data-name="Trazado 878061" d="M77.552,22.535s2.5,1.843,6.41,4.375c3.931,2.466,9.207,5.669,14.738,8.543,5.423,3.049,10.682,6.56,13.927,10.292a22.848,22.848,0,0,1,4.623,7.35,2.6,2.6,0,0,1-1.135,3.163,1.807,1.807,0,0,1-1.049.154,19.169,19.169,0,0,1-7.131-3.143c-3.863-2.479-8.26-6.975-12.707-11.525A88.867,88.867,0,0,0,82.311,30.314a65.026,65.026,0,0,0-6.467-4.087,2.279,2.279,0,0,1-.9-2.787,1.688,1.688,0,0,1,2.36-1.065,2.288,2.288,0,0,1,.2.134Z" transform="translate(349.495 126.49)" fill="#fcc59a"/>
      </g>
    </g>
  </g>
</svg>
