<svg xmlns="http://www.w3.org/2000/svg" xmlns:xlink="http://www.w3.org/1999/xlink" width="1030" height="434.486" viewBox="0 0 1030 434.486">
  <defs>
    <linearGradient id="linear-gradient" x1="-0.006" y1="0.956" x2="0.978" y2="0.092" gradientUnits="objectBoundingBox">
      <stop offset="0" stop-color="#f6f4fe"/>
      <stop offset="0.516" stop-color="#e4defb"/>
      <stop offset="1" stop-color="#f6f4fe"/>
    </linearGradient>
    <clipPath id="clip-path">
      <rect id="Rectángulo_402134" data-name="Rectángulo 402134" width="965" height="434.486" rx="20" transform="translate(0)" opacity="0.38" fill="url(#linear-gradient)"/>
    </clipPath>
    <clipPath id="clip-path-2">
      <path id="Trazado_878018" data-name="Trazado 878018" d="M0,0,655.226,28.281l27.131,659.9L27.131,659.9Z" fill="#ac9afc"/>
    </clipPath>
    <clipPath id="clip-path-3">
      <path id="Trazado_878018-2" data-name="Trazado 878018" d="M0,0,659.9,20.464l19.67,654.671L19.67,654.671Z" fill="#ac9afc"/>
    </clipPath>
    <linearGradient id="linear-gradient-2" x1="0.757" y1="0.582" x2="0.018" y2="1.051" gradientUnits="objectBoundingBox">
      <stop offset="0" stop-color="#ac9afc"/>
      <stop offset="1" stop-color="#ded6fd"/>
    </linearGradient>
  </defs>
  <g id="fnd-2" transform="translate(278.819 -5437.153)">
    <g id="Enmascarar_grupo_1098810" data-name="Enmascarar grupo 1098810" transform="translate(-258.819 5437.153)" opacity="0.17" clip-path="url(#clip-path)">
      <g id="Rectángulo_402182" data-name="Rectángulo 402182" transform="translate(-13.392 -26.924)" fill="#e8e8e8" stroke="#707070" stroke-width="1">
        <rect width="1152.222" height="531.41" stroke="none"/>
        <rect x="0.5" y="0.5" width="1151.222" height="530.41" fill="none"/>
      </g>
      <rect id="Rectángulo_402133" data-name="Rectángulo 402133" width="596.905" height="482.117" transform="translate(19.433)" fill="#e6f8e6" opacity="0.38"/>
      <g id="Grupo_1101058" data-name="Grupo 1101058" transform="translate(350.858 764.749) rotate(-150)" opacity="0.25" style="isolation: isolate">
        <g id="Grupo_1101057" data-name="Grupo 1101057" clip-path="url(#clip-path-2)">
          <path id="Trazado_878017" data-name="Trazado 878017" d="M609.711,122.085c-4.433-30.185-7.823-61.1-27.916-85.66-9.466,32.546-27.137,60.688-45.2,88.844-24.428,38.078-50.386,74.874-78.316,110.129C403.51,304.776,340.43,363.253,275.263,421.482c-11.364,10.124-30.733-10.689-19.956-21.8,58.93-61.048,110.869-130.743,161.072-199.984,25.3-34.884,49.71-70.58,72.839-107.173,17.972-28.425,34.363-57.83,57.021-81.868-17.965-6.835-37.549-7.7-57.092-7.792q-34.369-.068-68.739.279A713.734,713.734,0,0,0,256.306.613c-9.329.931-16,4.658-20.591,9.872-34.532,19.027-24.387,82.056,24.916,90.146q30.993,5.035,61.984,10.122c-90.906,42-174.9,97.562-250.738,165.77-34.353,30.919,6.142,85.777,45.506,79.7a850.32,850.32,0,0,0,83.92-17.355A2861.835,2861.835,0,0,0,5.4,559.1C-26.18,598.472,17.3,660.354,63.268,636.707,172.162,580.6,269.85,507.2,357.049,421.763c-13.4,43.426-25.411,87.4-35.543,132.017-7.38,32.229,24.382,71.326,57.074,61.044C456.744,590.132,479.005,472.308,492.86,393.3a365.814,365.814,0,0,0,13.405,65.618c11.336,37.06,52.043,47.707,77.172,25.252,92.037-82.337,42.97-248.92,26.274-362.084M248.717,246.452a303.593,303.593,0,0,0-50.256,27.337c-14.638,10.024-30.67-13.017-17.461-24.521a210.689,210.689,0,0,1,54.063-34.7A188.065,188.065,0,0,1,263.495,204.4c10.679-2.776,22.505-6.374,33.76-6.343,4.762.035,10.751,2,13.5,6.826,2.305,4.057,3.38,7.113,3.105,11.546a13.56,13.56,0,0,1-8.846,11.555c-9.343,3.42-19.52,5-29.014,8.244-9.192,3.121-18.388,6.348-27.286,10.222M438.191,404.4c-.025,3.732-.095,7.406-.215,11.077-.48,14.421-1.606,28.68-3.328,42.877-.728,5.947-6.361,10.649-12.353,9.15a13.13,13.13,0,0,1-9.787-13.786q2.056-20.806,2.28-41.889l.043-7.62c0-.1-.044-.779-.043-1.246s-.038-1.868-.037-2.027c.007-.776.01-1.553-.034-2.336-.086-2.757-.414-5.639.243-8.221.206-1.016.608-2.068.815-3.088,0-.049.052-.616.056-.978.058-1.706.265-3.45.424-5.147.272-4.12.492-7.73,2.2-11.455,2.16-4.669,9.71-6.653,13-.895a27.842,27.842,0,0,1,2.988,6.14,59.642,59.642,0,0,1,1.107,5.912c.336,1.95.621,3.9.91,5.843.094.582.189,1.212.285,1.842.049.161.342.966.437,1.389,1.462,4.651,1.038,9.692,1.009,14.457M573.68,261.731a12.179,12.179,0,0,1-.353,1.315c-.1.3-.155.66-.255.961l-.052.152a11.477,11.477,0,0,1-5.646,6.931,11.747,11.747,0,0,1-8.88.816,4.42,4.42,0,0,1-.792-.229c-.543-.206-1.039-.305-1.586-.512a16.262,16.262,0,0,1-6.179-3.488,30.026,30.026,0,0,0-2.22-2.081,28.76,28.76,0,0,1-3.994-3.955c-.541-.621-1.084-1.3-1.625-1.917a24.452,24.452,0,0,1-2.46-3.4c-2.26-3.9-5.108-8.261-6.772-12.359-2.737-6.743-5.672-13.865-6.671-21.009a13.924,13.924,0,0,1,23.236-12.528c5.527,4.777,9.9,11.152,14.132,17.155,2.509,3.557,4.465,8.148,6.526,12.027a33.852,33.852,0,0,1,3.5,12,20.8,20.8,0,0,0,.53,3,16.312,16.312,0,0,1-.44,7.114" transform="translate(30.471 19.903)" fill="#ac9afc"/>
        </g>
      </g>
      <g id="Grupo_1101141" data-name="Grupo 1101141" transform="matrix(-0.454, 0.891, -0.891, -0.454, 1479.097, -165.331)" opacity="0.25" style="isolation: isolate">
        <g id="Grupo_1101057-2" data-name="Grupo 1101057" transform="translate(0 0)" clip-path="url(#clip-path-3)">
          <path id="Trazado_878017-2" data-name="Trazado 878017" d="M630.234,123.926c-4.117-29.909-7.173-60.553-27.134-84.7-9.917,32.414-28.049,60.551-46.583,88.707-25.057,38.078-51.64,74.9-80.194,110.218-55.989,69.5-120.23,128.271-186.572,186.823-11.569,10.181-30.844-10.252-19.855-21.408,60.09-61.277,113.235-131.056,164.626-200.365,25.9-34.918,50.91-70.632,74.641-107.221,18.44-28.422,35.3-57.8,58.408-81.92-18.023-6.576-37.746-7.212-57.438-7.071q-34.63.331-69.267,1.074a729.51,729.51,0,0,0-165.326-.6C266.129,8.5,259.366,12.271,254.677,17.5c-35.017,19.287-25.527,81.728,24.059,89.186q31.171,4.637,62.34,9.327A1045.281,1045.281,0,0,0,86.5,283.46c-34.975,31.087,5.192,85.067,44.928,78.583q43.073-7.06,84.762-18.2A2955.454,2955.454,0,0,0,16.225,564.7c-32.276,39.445,10.821,100.361,57.411,76.357C184.014,584.1,283.3,510.119,372.159,424.306c-14.007,43.258-26.62,87.045-37.348,131.447-7.811,32.075,23.74,70.511,56.8,59.927,79.048-25.416,102.848-142.621,117.727-221.2a353.5,353.5,0,0,0,12.745,64.974c10.992,36.652,51.887,46.748,77.468,24.168,93.7-82.792,46.191-247.565,30.682-359.693m-365.2,127.633a316.432,316.432,0,0,0-50.957,27.717c-14.866,10.119-30.753-12.564-17.309-24.136a219.462,219.462,0,0,1,54.879-35.07,195.641,195.641,0,0,1,28.766-10.419c10.792-2.88,22.751-6.587,34.091-6.688,4.8-.021,10.81,1.862,13.526,6.618,2.276,4,3.323,7.02,2.995,11.424a13.907,13.907,0,0,1-9.047,11.572c-9.454,3.5-19.728,5.187-29.331,8.52-9.3,3.2-18.6,6.514-27.613,10.463M454.122,406.132c-.068,3.7-.181,7.352-.345,11-.651,14.319-1.952,28.485-3.851,42.6-.8,5.911-6.533,10.644-12.554,9.226a12.693,12.693,0,0,1-9.7-13.57q2.313-20.674,2.784-41.6l.132-7.563c0-.1-.035-.772-.029-1.237s-.017-1.854-.013-2.011c.016-.771.028-1.542-.007-2.318-.055-2.736-.352-5.592.34-8.163.22-1.011.637-2.06.857-3.075,0-.049.06-.612.068-.971.078-1.694.307-3.427.487-5.113.322-4.093.585-7.679,2.352-11.4,2.23-4.659,9.861-6.716,13.108-1.039a26.717,26.717,0,0,1,2.939,6.06,57.614,57.614,0,0,1,1.047,5.855c.316,1.932.581,3.862.849,5.789.088.576.177,1.2.266,1.825.048.159.333.955.424,1.374,1.419,4.6.933,9.607.849,14.338M592.3,262.951a12.148,12.148,0,0,1-.371,1.309c-.108.3-.164.657-.268.957l-.054.152a11.8,11.8,0,0,1-5.77,6.944,12.072,12.072,0,0,1-8.958.913,4.436,4.436,0,0,1-.8-.218c-.545-.2-1.044-.291-1.592-.49a15.982,15.982,0,0,1-6.186-3.39,29.094,29.094,0,0,0-2.213-2.039,27.8,27.8,0,0,1-3.979-3.879c-.538-.61-1.077-1.273-1.615-1.883a23.5,23.5,0,0,1-2.439-3.343c-2.232-3.841-5.052-8.14-6.68-12.188-2.68-6.661-5.554-13.7-6.478-20.775a14.249,14.249,0,0,1,23.559-12.7c5.514,4.678,9.849,10.954,14.041,16.863,2.487,3.5,4.4,8.035,6.436,11.862a32.617,32.617,0,0,1,3.387,11.868,20.1,20.1,0,0,0,.5,2.976,16.031,16.031,0,0,1-.526,7.067" transform="translate(13.189 9.571)" fill="#ac9afc"/>
        </g>
      </g>
      <path id="Trazado_878245" data-name="Trazado 878245" d="M1151.528,1107.219c12.069,9.967,24.864,19.489,40.417,22.27,11.079,1.981,20.333,2.246,31.393-.349,4.951-1.162,9.879-3.581,14.374-5.907a51.311,51.311,0,0,0,8.7-6.244c10.342-8.426,18.8-31.216,34.874-20.9,7.409,4.755,13.38,12.068,20.745,17.064a116.314,116.314,0,0,0,29.454,14.329,54.757,54.757,0,0,0,7.811,1.88c5.463.919,11.694,2.106,17.39,1.7,10.913-.775,22.323-3.276,31.514-9.934a71.477,71.477,0,0,0,21.018-22.885c3-5.183,3.974-13.36,9.5-16.293,8.077-4.287,12.51,4.967,16.457,10.4a75.054,75.054,0,0,0,20.28,19.435c9.825,6.228,19.86,8.206,31.059,9.381a80.716,80.716,0,0,0,14.538.325c10.316-.8,18.8-2.518,27.974-7.623a43.315,43.315,0,0,0,10.745-8.532c6.179-6.772,8.35-12.007,11.5-20.615a30.285,30.285,0,0,0,.629-15.187,29.384,29.384,0,0,0-4.313-14.155c-4.4-7.895-13.024-15.418-21.657-17.476a39.172,39.172,0,0,0-21.86.763c-4.56,1.55-9.382,5.438-14.046,2.489-6.459-4.082-7.094-17.31-10.346-23.644a97.743,97.743,0,0,0-14.54-20.824,65.063,65.063,0,0,0-19.322-14.914c-10.163-4.882-20.912-8.586-32.314-7.62-10.555.894-21.383,3.368-30.134,10.067-8.439,6.461-15.238,13.336-20.556,22.968a103.166,103.166,0,0,0-8.783,22.317c-1.553,5.645-1.057,14.821-7.613,16.892-11.536,3.643-19.184-18.949-24.8-25.945-3.075-3.829-7.2-6.771-11-9.686a30.369,30.369,0,0,0-5.224-3.238c-6-2.928-11.976-5.7-18.523-6.728-6.808-1.073-13.349-2.205-20.178-1.346-4.7.592-9.578,1.021-14.178,2.347a81.621,81.621,0,0,0-13.292,5.6,30.467,30.467,0,0,0-4.505,2.719c-3.734,2.737-7.77,5.682-10.88,9.275-4.4,5.12-7.6,11.143-11.9,16.3-3.088,3.7-6.834,10.2-10.753,12.643-3.856,2.408-6.685-1.712-10.177-2.9a26.158,26.158,0,0,0-13.952-3.263c-8.88.011-19.481,4.172-25.587,11.186-6.325,7.266-11.016,16.8-10.572,26.943.411,9.388,3.268,20.833,10.635,26.917" transform="translate(-636.652 -693.259)" fill="url(#linear-gradient-2)"/>
    </g>
    <path id="Trazado_878222" data-name="Trazado 878222" d="M1782.687,514.763a14.124,14.124,0,0,0-3.673-3.593c-3.881-2.626-8.937-3.1-12.311.606-1.371,1.506-2.408,3.293-3.8,4.781a11.891,11.891,0,0,0-3.439,5.925,9.623,9.623,0,0,0,1.464,6.859c3.355,5,10.977,5.461,16.11,3.317a13.694,13.694,0,0,0,2.107-1.1,12.094,12.094,0,0,0,5.6-8.095,11.766,11.766,0,0,0-2.059-8.705m-6.085,8.183a3.68,3.68,0,0,1-.7,1.642,5.608,5.608,0,0,1-3.041,1.937,4.423,4.423,0,0,1-4.109-.681,3.525,3.525,0,0,1-1.092-2.539c-.039-2.291,2.046-5.137,4.4-5.441a3.545,3.545,0,0,1,2.016.4,4.634,4.634,0,0,1,2.529,4.682" transform="translate(-2034.022 5024.963)" fill="#567d56"/>
    <path id="Trazado_878246" data-name="Trazado 878246" d="M23.347,5.665a14.124,14.124,0,0,0-3.673-3.593c-3.881-2.626-8.937-3.1-12.311.606C5.992,4.185,4.955,5.972,3.565,7.46A11.891,11.891,0,0,0,.126,13.385a9.623,9.623,0,0,0,1.464,6.859c3.355,5,10.977,5.461,16.11,3.317a13.694,13.694,0,0,0,2.107-1.1,12.094,12.094,0,0,0,5.6-8.095,11.766,11.766,0,0,0-2.059-8.705m-6.085,8.183a3.68,3.68,0,0,1-.7,1.642,5.608,5.608,0,0,1-3.041,1.937,4.423,4.423,0,0,1-4.109-.681,3.525,3.525,0,0,1-1.092-2.539c-.039-2.291,2.046-5.137,4.4-5.441a3.545,3.545,0,0,1,2.016.4,4.634,4.634,0,0,1,2.529,4.682" transform="matrix(-0.899, 0.438, -0.438, -0.899, -244.987, 5581.983)" fill="#fcc59a"/>
    <g id="Grupo_1101140" data-name="Grupo 1101140" transform="translate(677.494 5759.139)">
      <ellipse id="Elipse_11585" data-name="Elipse 11585" cx="30.947" cy="31.62" rx="30.947" ry="31.62" transform="translate(0.13 1.4)" fill="#fff"/>
      <ellipse id="Elipse_11586" data-name="Elipse 11586" cx="10.091" cy="10.091" rx="10.091" ry="10.091" transform="translate(13.585 21.583)" fill="#d8f263"/>
      <g id="Grupo_1101139" data-name="Grupo 1101139" transform="matrix(-0.966, 0.259, -0.259, -0.966, 73.687, 41.969)">
        <path id="Trazado_878224" data-name="Trazado 878224" d="M53.691,19.806c-8.205-3-16.949-8.143-25.861-5.011-5.719,1.94-10.349,6.141-14.084,10.781-1.89,2.334-3.685,4.748-5.572,7.1-.973,1.191-2.112,2.455-3.741,2.7C-.251,35.7-.434,26.7.36,23.587a25.438,25.438,0,0,1,2.847-7.407C12.469-.029,32.875-4.5,48.731,4.766a35.309,35.309,0,0,1,9.518,8.154c.181,2.83-.435,8.454-4.558,6.886m.076-.208c4.115,1.485,4.188-4.377,4.169-6.551A37.055,37.055,0,0,0,34.754.553,32.408,32.408,0,0,0,4.088,15.387c-3.023,4.992-4.845,11.4-2.731,17.052.473,1.286,1.518,2.633,3.011,2.418,1.42-.238,2.474-1.453,3.355-2.538,5.5-6.974,11.265-14.8,20-17.844,9-3.267,17.809,2.028,26.045,5.122" transform="translate(0)" fill="#567d56"/>
        <path id="Trazado_878225" data-name="Trazado 878225" d="M44.553,1.7c-5.7-1.321-11.669-2.4-17.04.633A23.507,23.507,0,0,0,23.89,4.772a74.9,74.9,0,0,0-9.657,8.906A69.351,69.351,0,0,0,7.6,22.405c-.824,1.216-1.779,2.629-3.355,2.909A3.557,3.557,0,0,1,.609,22.972c-1.767-4.885.518-10.839,4.181-14.256a.111.111,0,0,1,.155.159,15.944,15.944,0,0,0-4.4,11.864c-.019,2.011,1.338,4.527,3.632,4.188,1.422-.272,2.275-1.633,3.028-2.779a78.762,78.762,0,0,1,6.735-8.731c3.921-4.353,8.14-8.688,13.428-11.358A18.5,18.5,0,0,1,40.306.5c1.449.269,2.877.618,4.3.986a.111.111,0,0,1-.051.216" transform="translate(8.384 18.097)" fill="#567d56"/>
        <path id="Trazado_878226" data-name="Trazado 878226" d="M1.334,18.518c-.127,2.175-1.485,4.194-.789,6.341a2.258,2.258,0,0,0,3.088,1.7C4.92,25.926,5.662,24.579,6.41,23.4c1.18-1.843,2.371-3.675,3.61-5.482,4.6-6.494,8.6-8.66,16.341-9.994a45.833,45.833,0,0,1,6.563-.58,13.619,13.619,0,0,1,4.255,1.2,15.033,15.033,0,0,0,1.936.951c2.306.827,3.589-1.984,2.577-3.809a9.221,9.221,0,0,0-2.857-3.091,15.818,15.818,0,0,0-3.6-2.372c-.138-.045-.045-.262.081-.206a14.749,14.749,0,0,1,3.769,2.252c1.721,1.224,3.806,3.062,3.453,5.472a2.693,2.693,0,0,1-2.4,2.317c-1.161.043-2.159-.719-3.12-1.175A10.48,10.48,0,0,0,31.838,7.81l-1.085.1c-3.537.386-7.322.588-10.628,2a18.784,18.784,0,0,0-3.783,2.044c-2.384,1.655-4.1,4.036-5.886,6.289A81.785,81.785,0,0,0,5.47,25.4C2.933,28.893-.577,26.581.081,22.73c.243-1.469.877-2.8,1.033-4.231a.111.111,0,0,1,.221.019" transform="translate(22.065 12.203)" fill="#567d56"/>
        <path id="Trazado_878227" data-name="Trazado 878227" d="M.024,28.05a24.466,24.466,0,0,1,4.32-14.343A30.725,30.725,0,0,1,30.2,0,34.528,34.528,0,0,1,44.963,3.281a.126.126,0,0,1-.1.23A38.916,38.916,0,0,0,30.2.589a31.983,31.983,0,0,0-14.49,3.382C6.906,8.45-.124,17.883.275,28.032a.125.125,0,1,1-.25.018" transform="translate(2.922 6.506)" fill="#567d56"/>
        <path id="Trazado_878228" data-name="Trazado 878228" d="M.012,24.591A25.4,25.4,0,0,1,9.95,3.575,21.67,21.67,0,0,1,17.137,0a.126.126,0,0,1,.079.238,29.529,29.529,0,0,0-6.914,3.8A24.5,24.5,0,0,0,.263,24.583a.126.126,0,1,1-.251.009" transform="translate(11.53 18.003)" fill="#567d56"/>
        <path id="Trazado_878229" data-name="Trazado 878229" d="M0,20.761A29.426,29.426,0,0,1,13.155,2.717,22.673,22.673,0,0,1,20.276,0a.126.126,0,0,1,.061.243A29.141,29.141,0,0,0,3.012,13.816,28.892,28.892,0,0,0,.247,20.823.126.126,0,1,1,0,20.761" transform="translate(24.075 18.156)" fill="#567d56"/>
        <path id="Trazado_878230" data-name="Trazado 878230" d="M.859,1.778A.89.89,0,0,0,.859,0a.89.89,0,0,0,0,1.778" transform="translate(50.288 16.077)" fill="#567d56"/>
        <path id="Trazado_878231" data-name="Trazado 878231" d="M.859,1.778A.89.89,0,0,0,.859,0a.89.89,0,0,0,0,1.778" transform="translate(47.82 14.311)" fill="#567d56"/>
        <path id="Trazado_878232" data-name="Trazado 878232" d="M.859,1.778A.89.89,0,0,0,.859,0a.89.89,0,0,0,0,1.778" transform="translate(49.429 13.734)" fill="#567d56"/>
        <path id="Trazado_878233" data-name="Trazado 878233" d="M.859,1.778A.89.89,0,0,0,.859,0a.89.89,0,0,0,0,1.778" transform="translate(4.501 30.243)" fill="#567d56"/>
        <path id="Trazado_878234" data-name="Trazado 878234" d="M.859,1.778A.89.89,0,0,0,.859,0a.89.89,0,0,0,0,1.778" transform="translate(4.274 27.281)" fill="#567d56"/>
        <path id="Trazado_878235" data-name="Trazado 878235" d="M.859,1.778A.89.89,0,0,0,.859,0a.89.89,0,0,0,0,1.778" transform="translate(6.501 27.336)" fill="#567d56"/>
        <path id="Trazado_878236" data-name="Trazado 878236" d="M.859,1.778A.89.89,0,0,0,.859,0a.89.89,0,0,0,0,1.778" transform="translate(20.041 29.45)" fill="#567d56"/>
        <path id="Trazado_878237" data-name="Trazado 878237" d="M.859,1.778A.89.89,0,0,0,.859,0a.89.89,0,0,0,0,1.778" transform="translate(20.811 26.04)" fill="#567d56"/>
        <path id="Trazado_878238" data-name="Trazado 878238" d="M.859,1.778A.89.89,0,0,0,.859,0a.89.89,0,0,0,0,1.778" transform="translate(23.319 25.443)" fill="#567d56"/>
        <path id="Trazado_878239" data-name="Trazado 878239" d="M.859,1.778A.89.89,0,0,0,.859,0a.89.89,0,0,0,0,1.778" transform="translate(26.722 33.779)" fill="#567d56"/>
        <path id="Trazado_878240" data-name="Trazado 878240" d="M.859,1.778A.89.89,0,0,0,.859,0a.89.89,0,0,0,0,1.778" transform="translate(27.416 31.696)" fill="#567d56"/>
        <path id="Trazado_878241" data-name="Trazado 878241" d="M1.458,2.638A1.793,1.793,0,0,0,.609.734,4.18,4.18,0,0,1,.038.243a.14.14,0,0,1,.006-.2C.681-.175,1.285.454,1.516.991A3.2,3.2,0,0,1,1.7,2.69a.126.126,0,1,1-.246-.051" transform="translate(61.27 16.806)" fill="#567d56"/>
        <path id="Trazado_878242" data-name="Trazado 878242" d="M.835,1.435C.926,1.034.557.758.259.588A.691.691,0,0,1,.011.267C-.084-.072.464-.045.606.11a1.779,1.779,0,0,1,.48,1.347.127.127,0,1,1-.251-.022" transform="translate(61.037 17.594)" fill="#567d56"/>
        <path id="Trazado_878243" data-name="Trazado 878243" d="M.026,8.4C2.521,5.062,5.413,1.677,9.332.01a.127.127,0,0,1,.122.22C6.925,2.066,4.278,3.751,2.175,6.092A22.845,22.845,0,0,0,.232,8.545C.144,8.682-.075,8.536.026,8.4" transform="translate(6.779 6.009)" fill="#567d56"/>
        <path id="Trazado_878244" data-name="Trazado 878244" d="M.034,4.122C1.512,2.605,2.767.332,5.057,0A.13.13,0,0,1,5.2.119.132.132,0,0,1,5.14.237c-.452.312-.895.57-1.337.852a13.952,13.952,0,0,0-3.578,3.2c-.1.13-.306-.04-.19-.164" transform="translate(9.836 8.652)" fill="#567d56"/>
      </g>
    </g>
    <path id="Trazado_878023" data-name="Trazado 878023" d="M16.819,12.582A9.167,9.167,0,0,0,14.4,1.984,8.612,8.612,0,0,0,9.14,0,9.718,9.718,0,0,0,3.64,1.49C.563,3.432-1.22,7.942.973,11.4A6.49,6.49,0,0,0,6.146,14.4a6.6,6.6,0,0,0,5.356-2.29,4.685,4.685,0,0,0,.141-5.839A4.509,4.509,0,0,0,8.7,4.537,3.383,3.383,0,0,0,5.56,5.867a3.133,3.133,0,0,0-.592,1.649A1.749,1.749,0,0,0,6.475,9.3,1.516,1.516,0,0,0,8.2,7.939a.573.573,0,0,1,.008-.112c0-.012,0-.025,0-.037q-.028.126-.056.252c-.021-.06.06-.184.079-.243,0-.012.033-.1.045-.1.047-.01-.22.328-.1.209.022-.022.122-.212.153-.2S8,8,8.195,7.845c.029-.023.056-.048.084-.071.057-.046.124-.082.181-.128.121-.1-.2.14-.191.11a.394.394,0,0,1,.1-.046.98.98,0,0,0,.1-.041c.228-.105-.281.037-.142.032a1.205,1.205,0,0,0,.223-.029c.163-.043-.258.024-.224,0a.378.378,0,0,1,.114.01c.052.009.106.019.158.025.159.019-.207-.041-.2-.057s.255.086.278.1c.077.031.15.067.224.1.185.086-.338-.218-.178-.095.031.024.068.043.1.066.066.045.125.1.19.144.2.146-.287-.315-.066-.061.06.069.122.136.177.209.024.03.044.067.07.094.121.131-.154-.224-.121-.2.119.1.182.356.243.488.109.238-.089-.351-.029-.1.018.076.04.15.055.227s.029.179.043.268c.05.318.009-.29,0-.057-.011.168-.031.334-.042.5-.01.141.04-.205.044-.208-.012.006-.026.1-.03.112-.025.087-.054.173-.087.257-.024.059-.177.365-.036.1s-.005,0-.04.059a4.2,4.2,0,0,1-.318.45q-.074.091-.152.178a.512.512,0,0,0-.08.086c-.008.018.273-.265.153-.16-.138.12-.269.243-.415.353-.079.06-.4.2-.42.283,0,.007.316-.171.183-.1l-.1.055c-.081.042-.164.081-.247.119a5.074,5.074,0,0,1-.476.184c-.075.025-.15.046-.226.069-.237.071.157-.047.165-.042-.018-.011-.132.029-.154.033q-.232.046-.47.072c-.092.01-.184.017-.277.022l-.119,0c-.216.014.146.008.175,0a3.191,3.191,0,0,1-1.03-.124c-.251-.049.388.122.062.013-.077-.026-.154-.049-.23-.077-.179-.065-.348-.149-.523-.227-.154-.069.223.132.207.118a.689.689,0,0,0-.107-.063q-.126-.075-.245-.158c-.152-.105-.29-.225-.435-.34s.192.177.164.158a.993.993,0,0,1-.123-.124q-.093-.1-.18-.2A5.58,5.58,0,0,1,3.6,9.754c.009-.006.188.317.117.179C3.7,9.9,3.678,9.86,3.658,9.824Q3.6,9.714,3.544,9.6t-.1-.226c-.021-.05-.039-.1-.059-.152-.088-.214.066.146.051.162.006-.006-.206-1.032-.195-1.028s.015.352.013.205c0-.04,0-.08,0-.12,0-.094,0-.188,0-.281.006-.188.022-.376.046-.561.011-.08.023-.16.037-.239a.893.893,0,0,0,.022-.119s-.078.343-.041.2c.047-.182.091-.364.149-.543a8.451,8.451,0,0,1,.391-.959c.072-.157-.115.224-.1.192A1.03,1.03,0,0,1,3.828,6q.057-.1.12-.2.143-.23.307-.446.14-.185.294-.359c.046-.052.28-.3.066-.078s.024-.02.076-.069a6.881,6.881,0,0,1,.789-.636c.14-.1.285-.184.429-.276s-.2.1-.182.1a.432.432,0,0,0,.1-.057c.093-.05.187-.1.282-.144a7.771,7.771,0,0,1,.958-.388c.141-.047.71-.183.183-.066.17-.038.339-.078.511-.109a7.884,7.884,0,0,1,1.083-.118c.037,0,.223.017.243-.006,0,0-.364-.007-.21,0L9,3.15q.284.01.568.041c.175.019.351.045.525.076.08.015.161.031.241.048l.12.027c.22.048-.149-.028-.173-.047a2.139,2.139,0,0,0,.512.159c.183.064.363.136.54.216.077.034.152.07.227.107s.338.18.067.029.031.02.1.062c.087.053.173.109.258.166q.236.16.457.339c.067.055.134.111.2.168l.1.087c.155.136-.277-.277-.137-.126a8.791,8.791,0,0,1,.744.874c.049.069.1.139.144.209.158.233-.189-.317-.049-.074.1.171.194.341.281.517s.154.33.223.5c.031.078.061.156.09.235l.042.118c.074.205-.033-.119-.05-.154a4.121,4.121,0,0,1,.256,1.1q.039.247.062.5c0,.041.008.083.011.124.024.259-.008-.157-.009-.157.03.026.008.247.008.29A7.763,7.763,0,0,1,14.29,9.64c-.013.095-.026.189-.042.283-.007.04-.016.08-.021.12-.023.149.036-.2.042-.2a4.909,4.909,0,0,1-.141.549,6.839,6.839,0,0,1-.376.971,1.575,1.575,0,0,0,.071,1.2,1.8,1.8,0,0,0,.94.878,1.58,1.58,0,0,0,2.057-.856" transform="matrix(0.809, 0.588, -0.588, 0.809, 690.856, 5806.636)" fill="#ac9afc"/>
  </g>
</svg>
