<svg xmlns="http://www.w3.org/2000/svg" xmlns:xlink="http://www.w3.org/1999/xlink" width="820" height="159" viewBox="0 0 820 159">
  <defs>
    <clipPath id="clip-path">
      <path id="Rect치ngulo_401268" data-name="Rect치ngulo 401268" d="M30,0H820a0,0,0,0,1,0,0V129a30,30,0,0,1-30,30H0a0,0,0,0,1,0,0V30A30,30,0,0,1,30,0Z" transform="translate(-6229 -12260)" fill="#567d56" stroke="#707070" stroke-width="1"/>
    </clipPath>
    <linearGradient id="linear-gradient" x1="0.787" y1="0.406" x2="0.352" y2="0.464" gradientUnits="objectBoundingBox">
      <stop offset="0" stop-color="#d8f263"/>
      <stop offset="1" stop-color="#c2db52"/>
    </linearGradient>
    <clipPath id="clip-path-2">
      <rect id="Rect치ngulo_402113" data-name="Rect치ngulo 402113" width="458.93" height="465.864" fill="#d8f263"/>
    </clipPath>
  </defs>
  <g id="fnd-1" transform="translate(10142.667 -7254.55)">
    <g id="Grupo_1101164" data-name="Grupo 1101164" transform="translate(-10532.667 5627.231)">
      <g id="Enmascarar_grupo_1098728" data-name="Enmascarar grupo 1098728" transform="translate(6619 13887.319)" clip-path="url(#clip-path)">
        <path id="Recurso_1" data-name="Recurso 1" d="M0,0H832.833V220H0Z" transform="translate(-5396.167 -12090) rotate(180)" fill="url(#linear-gradient)"/>
        <g id="Grupo_1101017" data-name="Grupo 1101017" transform="translate(-6184.478 -12434.932)" opacity="0.21" style="mix-blend-mode: multiply;isolation: isolate">
          <g id="Grupo_1101016" data-name="Grupo 1101016" transform="translate(0 0)" clip-path="url(#clip-path-2)">
            <path id="Trazado_876378" data-name="Trazado 876378" d="M403.717,60.887a39.139,39.139,0,0,1,14.184,8.7A69.611,69.611,0,0,1,429.927,85c.972,1.628,1.944,3.327,2.886,5.116.477.936.954,1.89,1.449,2.862q.635,1.377,1.288,2.8c1.711,3.84,3.685,7.739,5.473,12.181a236.173,236.173,0,0,1,16.593,66.961,225.218,225.218,0,0,1,.549,42.474,230.932,230.932,0,0,1-7.959,46.4,253.147,253.147,0,0,1-18.65,47.608q-3.211,5.8-6.475,11.71-3.613,5.625-7.292,11.34a259.522,259.522,0,0,1-16.813,22.227c-12.139,14.339-26.376,27.432-41.818,39.756a240.771,240.771,0,0,1-51.584,32.136A190.5,190.5,0,0,1,246.311,444.4a244.867,244.867,0,0,1-32.529.483c-5.282-.513-10.279-.549-15.841-1.449-5.432-.859-11.1-1.234-16.348-2.552-42.731-8.46-83.774-29.393-114.849-60.712a232.463,232.463,0,0,1-39.016-52.729,303.687,303.687,0,0,1-13.582-29.727,219.825,219.825,0,0,1-9.963-31.188c-4.925-21.291-5.271-43.392-2.242-64.582,3.035-21.124,8.973-41.92,19.264-60.385C31.268,123.1,46.215,107.04,65.044,97.775,83.634,89,102.921,86.446,118.232,78.648c15.508-7.858,27.986-21.154,42.534-31.48A209.907,209.907,0,0,1,205.78,21.775,241.5,241.5,0,0,1,294.1,4.163c27.074.137,50.8,6.123,68.177,15.418a101,101,0,0,1,34.521,29.2,76.605,76.605,0,0,1,6.481,9.981c1.341,2.325,2.039,3.524,2.039,3.524a3.267,3.267,0,0,1-5.485,3.536l-.2-.274s-.751-1.061-2.206-3.112a75.808,75.808,0,0,0-6.791-8.7,94.132,94.132,0,0,0-33.149-24.4c-16.1-7.727-38.08-11.942-63.223-11.209-25.244.668-53.659,6.421-82.415,18.447q-10.794,4.409-21.66,9.891a227.153,227.153,0,0,0-21.613,11.978c-7.327,4.543-14.16,9.414-21.565,14.768-7.339,5.265-15.12,10.78-23.849,15.09-17.719,8.937-37.007,11.113-53.212,19.609-15.865,8.228-28.839,22.728-37.454,39.72-8.854,16.98-13.856,36.28-15.967,56.139s-1.389,40.078,1.169,60.325a192.032,192.032,0,0,0,6.046,30.228,146.639,146.639,0,0,0,12.2,28.672c9.885,18.375,23.479,34.7,38.915,48.687,30.884,27.956,69.185,47.8,109.405,55.031,40.763,7.858,80.62-.632,117.1-13.468a241.458,241.458,0,0,0,51.59-25.309c15.824-10.464,29.417-23.383,41.169-37.073A212.01,212.01,0,0,0,410.2,329.684q3.47-5.652,6.892-11.215,3.014-5.733,5.974-11.364a236.391,236.391,0,0,0,16.783-46.04,257.048,257.048,0,0,0,6.916-85.127,249.959,249.959,0,0,0-14.327-64.32c-1.556-4.311-3.458-8.413-5.02-12.264q-.6-1.44-1.192-2.844c-.393-.847-.781-1.675-1.169-2.5q-1.261-2.531-2.433-4.889a62.075,62.075,0,0,0-9.885-14.261,34.373,34.373,0,0,0-8.126-6.314,36.413,36.413,0,0,0-3.369-1.6,3.274,3.274,0,0,1,2.474-6.063" transform="translate(-0.003 20.659)" fill="#d8f263"/>
            <path id="Trazado_876379" data-name="Trazado 876379" d="M359.588,58.815c.06.072.96.25,3.375,1.377a36.275,36.275,0,0,1,9.176,6.284,61.585,61.585,0,0,1,10.636,13.57c.859,1.431,1.711,2.927,2.546,4.5.423.829.847,1.669,1.282,2.528.376.8.751,1.622,1.133,2.456,1.508,3.363,3.243,6.773,4.823,10.678a206.91,206.91,0,0,1,14.643,58.84,196.447,196.447,0,0,1,.495,37.329,202.187,202.187,0,0,1-7.017,40.781,221.771,221.771,0,0,1-16.438,41.818q-2.817,5.1-5.694,10.285-3.184,4.937-6.415,9.951a229.5,229.5,0,0,1-14.774,19.538c-10.666,12.6-23.181,24.093-36.7,34.98A211.368,211.368,0,0,1,275.4,382.189a167.351,167.351,0,0,1-53.9,13.934,216.988,216.988,0,0,1-28.648.358,226.1,226.1,0,0,1-28.308-3.547c-37.579-7.471-73.692-25.876-100.957-53.48a206.359,206.359,0,0,1-34.223-46.415A281.383,281.383,0,0,1,17.4,266.923a194.507,194.507,0,0,1-8.9-27.4c-4.412-18.715-4.7-38.182-2.009-56.819,2.7-18.578,7.948-36.882,17.034-53.135C32.41,113.321,45.6,99.173,62.239,91c16.4-7.715,33.316-9.963,46.648-16.76C122.408,67.4,133.313,55.7,146.072,46.569a182.121,182.121,0,0,1,39.559-22.418,212.229,212.229,0,0,1,77.7-15.406c23.831.149,44.7,5.473,60,13.689a88.8,88.8,0,0,1,30.335,25.81,67.278,67.278,0,0,1,5.676,8.806c1.175,2.051,1.777,3.106,1.777,3.106a3.128,3.128,0,0,1-5.247,3.392l-.191-.268-1.944-2.713a67.542,67.542,0,0,0-5.968-7.578,82.369,82.369,0,0,0-29.024-21.207c-14.065-6.713-33.275-10.338-55.251-9.659-22.078.608-46.91,5.676-72.046,16.211a271.654,271.654,0,0,0-37.883,19.037c-6.439,3.965-12.413,8.192-18.942,12.878-6.451,4.6-13.307,9.456-21,13.248-15.639,7.888-32.559,9.778-46.678,17.219-13.79,7.172-25.095,19.83-32.6,34.676-7.7,14.828-12.049,31.695-13.868,49.062s-1.169,35.022.984,52.741a166.54,166.54,0,0,0,5.145,26.478,125.24,125.24,0,0,0,10.636,25.1c8.645,16.086,20.6,30.341,34.133,42.546,27.08,24.379,60.563,41.747,95.734,48.031,4.388,1.049,8.669,1.21,12.986,1.878,4.2.65,9.092.465,13.588.733a170.5,170.5,0,0,0,25.989-1.818,255.063,255.063,0,0,0,49.79-12.652,211.986,211.986,0,0,0,45.253-21.923c13.892-9.1,25.792-20.426,36.083-32.41a183.53,183.53,0,0,0,14.059-18.53q3.041-4.955,6.028-9.832,2.638-5.017,5.223-9.957a206.883,206.883,0,0,0,14.649-40.316,226.41,226.41,0,0,0,6.046-74.509,220.111,220.111,0,0,0-12.473-56.306c-1.359-3.774-3.023-7.381-4.382-10.762-.358-.847-.7-1.675-1.043-2.492-.346-.739-.686-1.467-1.014-2.182q-1.1-2.218-2.123-4.281a54.466,54.466,0,0,0-8.579-12.461,27.722,27.722,0,0,0-9.975-6.91l-1.52-3.321a2.332,2.332,0,0,1,3.893-2.486" transform="translate(23.64 43.396)" fill="#d8f263"/>
            <path id="Trazado_876380" data-name="Trazado 876380" d="M165.658,254.3a23.037,23.037,0,0,0,5.831,2.48,22.68,22.68,0,0,0,7.345.811,23.229,23.229,0,0,0,4.317-.656l2.886-.888c.71-.34,1.437-.68,2.188-1.037,6.427-3.4,12.532-11.191,16.05-21.97a80.329,80.329,0,0,0,3.649-17.821c.423-3.452.763-6.892.888-10.225.286-3.375.274-6.934.31-10.583a164.986,164.986,0,0,0-6.785-46.719c-2.54-8.055-5.306-16.336-9.522-24.218-4.162-7.894-9.212-15.514-14.166-23.276-4.853-7.816-9.569-15.835-14.106-24.224-4.49-8.216-9.492-16.348-15.651-23.366a86.872,86.872,0,0,0-20.707-18.131,64.9,64.9,0,0,0-6.01-3.166l-1.538-.727-1.491-.56L115.7,28.709a68.418,68.418,0,0,0-13.027-2.9,57.525,57.525,0,0,0-27.438,3.363,43.043,43.043,0,0,0-21.017,17.07,49.572,49.572,0,0,0-6.195,10.577,18.2,18.2,0,0,0-1.043,10.04c1.234,7.238,6.749,15.287,12.073,22.137,11.131,14.065,25.393,25.774,37.436,38.647,12.121,12.884,24,25.184,31.385,39.076,7.518,13.731,12.276,27.36,15.9,39.088,3.619,11.7,6.743,21.541,10.07,29.268a83.924,83.924,0,0,0,9.295,16.915c1.264,1.842,2.355,3.154,3.094,4.048s1.109,1.365,1.109,1.365l.167.2a3.138,3.138,0,0,1-4.46,4.376s-.5-.429-1.479-1.252a47.455,47.455,0,0,1-4.2-3.822,86.839,86.839,0,0,1-12.86-17.141c-4.609-7.948-8.955-18.113-13.391-29.471-4.412-11.334-9.45-23.6-16.658-36.148-7.2-12.407-14.136-27-25.518-39.356-11.31-12.5-26.031-23.223-39.29-37.872a114.4,114.4,0,0,1-9.3-11.9,50.405,50.405,0,0,1-7.077-15.066,28.628,28.628,0,0,1,1.151-18.584,38.377,38.377,0,0,1,9.969-13.9,65.869,65.869,0,0,1,13.272-9.408,112.191,112.191,0,0,1,14.285-7.107,83.493,83.493,0,0,1,31.361-6.385c22.99-.1,42.188,13.522,55.967,28.91a304.822,304.822,0,0,1,18.906,23.968,141.2,141.2,0,0,1,14.5,25.363,257.045,257.045,0,0,1,9.45,26.794c2.862,8.776,5.861,17.26,8.287,25.7,4.895,16.843,8.347,33.293,8.967,48.836a105.633,105.633,0,0,1,.083,11.489q-.107,2.835-.215,5.6-.3,2.62-.572,5.175a76.192,76.192,0,0,1-4.561,20.122C209.766,248.813,201.7,259,192.065,263.08l-3.744,1.377c-1.008.238-1.991.465-2.939.692a25.119,25.119,0,0,1-6.582.495,30.306,30.306,0,0,1-9.641-2.1,26.357,26.357,0,0,1-5.414-2.868c-1.163-.8-1.514-1.145-1.562-1.157a3.1,3.1,0,0,1,2.564-5.378Z" transform="translate(160.018 72.28)" fill="#d8f263"/>
            <path id="Trazado_876381" data-name="Trazado 876381" d="M250.172,195.833s.2.656.6,1.932c.191.65.459,1.4.721,2.4q.286,1.672.662,3.852a44.1,44.1,0,0,1-3.917,23.9,58.169,58.169,0,0,1-25.446,27.1c-1.693.8-3.255,1.723-5.139,2.433-1.586.65-3.178,1.324-5.163,1.938a71.4,71.4,0,0,1-11.561,2.749,90.363,90.363,0,0,1-24.94.149c-17.177-2.128-34.527-8.031-52.252-15.5-8.89-3.7-17.69-8.2-26.83-12.652A214.665,214.665,0,0,1,69.531,218.87c-2.212-1.508-4.346-3.136-6.469-4.805-1.1-.859-2.039-1.6-3.226-2.623l-2.951-2.582A130.149,130.149,0,0,1,45.438,196.9a221.44,221.44,0,0,1-19.472-27.444C14.531,150,6.929,126.5,10.071,102.966A102.845,102.845,0,0,1,20.219,69.841a121.256,121.256,0,0,1,8.937-14.917A74.031,74.031,0,0,1,40.877,41.24a52.168,52.168,0,0,1,15.239-9.17A60.353,60.353,0,0,1,73.443,28.2a69.173,69.173,0,0,1,33.942,5.384,59.693,59.693,0,0,1,14.422,9.1,57.944,57.944,0,0,1,10.625,12.741c5.658,9.694,8.556,19.395,10.917,28.726a150.654,150.654,0,0,0,8.556,25.524,120.616,120.616,0,0,0,11.871,20.474,69.983,69.983,0,0,0,6.946,8.174l.924.912c-.167-.125.6.513.847.727l2.212,1.884a45.647,45.647,0,0,0,4.084,3.094,131.487,131.487,0,0,0,17.35,10.034c11.751,5.742,22.751,10.7,31.254,16.175a66.517,66.517,0,0,1,17.761,15.734,38.412,38.412,0,0,1,3.494,5.259c.733,1.216,1.109,1.848,1.109,1.848a3.124,3.124,0,0,1-5.032,3.661l-.274-.322s-.423-.489-1.246-1.431a38.133,38.133,0,0,0-3.732-4.007c-3.315-3.44-8.967-7.7-17.237-11.662-8.216-4.114-18.96-7.852-31.671-13.039C178.179,161.95,162.32,154.324,151.4,139.2c-5.5-7.3-9.182-16-11.847-24.993-2.7-9.1-4-18.447-6.272-27.474-2.307-8.919-5.008-18.1-9.843-25.339a44.2,44.2,0,0,0-8.991-9.9,47.958,47.958,0,0,0-11.793-6.57,54.64,54.64,0,0,0-27.6-2.772c-4.722.584-9.217,2.152-13.707,3.6a82.644,82.644,0,0,0-13.009,6.338,57.738,57.738,0,0,0-11.584,8.973,48.548,48.548,0,0,0-8.6,12.687,61.281,61.281,0,0,0-5.02,14.679A73.881,73.881,0,0,0,21.3,103.855a90.377,90.377,0,0,0,.763,15.347c.2,1.216.352,2.427.495,3.661l.763,4.042c.435,2.319,1.151,4.955,1.824,7.381a114.143,114.143,0,0,0,12.664,28.028,118.166,118.166,0,0,0,19.425,23.652c3.625,3.637,7.31,6.862,11,10.3q5.607,5.116,11.119,10.16a248.763,248.763,0,0,0,22.686,19.025,144.969,144.969,0,0,0,25.023,13.588c17.046,7.22,34.288,11.763,49.969,13.033a99.436,99.436,0,0,0,22.257-.632,73.794,73.794,0,0,0,9.79-2.254,49.177,49.177,0,0,0,4.74-1.616c1.377-.453,2.778-1.234,4.144-1.812A52.833,52.833,0,0,0,240.2,224.01c4.018-7.793,5.02-14.792,4.829-19.353-.066-1.1-.119-2.081-.173-2.921-.113-.918-.3-1.771-.411-2.415-.238-1.312-.364-1.985-.364-1.985a3.144,3.144,0,0,1,6.093-1.5" transform="translate(46.438 138.496)" fill="#d8f263"/>
            <path id="Trazado_876382" data-name="Trazado 876382" d="M42.491,67.356a126.542,126.542,0,0,1,10.487-38.73c1.246-2.766,2.76-5.67,5.467-7.035,3.911-1.973,9.039.322,11.1,4.185s1.5,8.7-.364,12.658-4.907,7.226-7.894,10.428Q55.64,54.907,50,60.947c-2.2,2.361-5.306,4.054-7.506,6.409" transform="translate(210.846 103.556)" fill="#d8f263"/>
            <path id="Trazado_876383" data-name="Trazado 876383" d="M47.191,56A70.585,70.585,0,0,1,65.876,31.518c2.236-1.878,4.7-3.661,7.56-4.251s6.213.322,7.709,2.826a8.415,8.415,0,0,1,.668,5.807c-1.157,6.272-5.783,11.519-11.334,14.661s-16.318,4.972-22.662,5.646" transform="translate(234.168 134.446)" fill="#d8f263"/>
            <path id="Trazado_876384" data-name="Trazado 876384" d="M50.69,44.54c7.023-3.625,14.178-7.292,21.953-8.723s16.4-.328,22.441,4.764a7.476,7.476,0,0,1,2.689,3.762,8.364,8.364,0,0,1-.286,3.977c-.865,3.428-2.236,6.97-5.074,9.074-3.339,2.474-7.87,2.409-12.008,1.991A109.256,109.256,0,0,1,60.9,55.623c-4.871-1.407-10.416-4.036-11.137-9.062" transform="translate(246.916 174.869)" fill="#d8f263"/>
            <path id="Trazado_876385" data-name="Trazado 876385" d="M52.037,45.489c6.427-.435,12.878-.59,19.317-.477,5.622.1,11.3.417,16.688,2.039C93.48,48.7,99.2,52.846,98.9,58.522c-.238,4.454-4.382,7.971-8.77,8.77s-8.884-.555-12.962-2.355a74.514,74.514,0,0,1-25.13-19.449" transform="translate(258.215 223.179)" fill="#d8f263"/>
            <path id="Trazado_876386" data-name="Trazado 876386" d="M69.1,41.606a126.826,126.826,0,0,0-40.113-.93c-3,.411-6.219,1.049-8.293,3.255-3,3.19-2.254,8.752.87,11.823S29.48,59.665,33.8,58.991s8.323-2.653,12.24-4.609q7.4-3.7,14.786-7.393c2.886-1.443,5.39-3.941,8.275-5.384" transform="translate(93.262 196.059)" fill="#d8f263"/>
            <path id="Trazado_876387" data-name="Trazado 876387" d="M59.005,45.3a70.55,70.55,0,0,0-28.779,10.97c-2.433,1.616-4.841,3.47-6.219,6.046s-1.455,6.052.531,8.2A8.377,8.377,0,0,0,29.91,72.8c6.344.668,12.687-2.278,17.278-6.707s9.39-14.238,11.835-20.134" transform="translate(114.159 224.777)" fill="#d8f263"/>
            <path id="Trazado_876388" data-name="Trazado 876388" d="M48.031,49.55c-5.467,5.712-11.012,11.531-14.589,18.578S28.487,83.755,31.653,91A7.462,7.462,0,0,0,34.5,94.642a8.342,8.342,0,0,0,3.893.853c3.536.143,7.316-.167,10.142-2.3,3.321-2.5,4.537-6.862,5.318-10.947a110.025,110.025,0,0,0,1.92-19.77c.03-5.074-.924-11.137-5.539-13.248" transform="translate(148.29 244.308)" fill="#d8f263"/>
            <path id="Trazado_876389" data-name="Trazado 876389" d="M47.5,53.663q-3.354,9.06-5.932,18.387c-1.5,5.42-2.8,10.958-2.772,16.575.036,5.688,2.391,12.348,7.924,13.665,4.34,1.037,8.884-1.938,10.893-5.92s1.985-8.675,1.419-13.093A74.584,74.584,0,0,0,47.5,53.663" transform="translate(192.481 266.285)" fill="#d8f263"/>
            <path id="Trazado_876390" data-name="Trazado 876390" d="M95.688,78.01c1.175-3.053,2.337-6.028,3.327-8.955.966-3.011,1.985-5.992,2.838-9.027s1.532-6.1,2.289-9.146q1.028-4.6,1.789-9.241c.495-3.094.793-6.213,1.192-9.319q.5-4.668.739-9.361a162.334,162.334,0,0,0-.173-18.811l7.244.352L110.886,20.91c-1.353,5.461-2.749,10.917-3.995,16.414-1.222,5.5-1.932,11.173-2.987,16.777a94.125,94.125,0,0,1-4.37,16.444l-.048.137a6.578,6.578,0,0,1-12.127.572c-2.975-6.248-5.366-12.729-8.454-18.811a171.65,171.65,0,0,0-10.32-17.421Q65.749,30.882,62.634,27c-2.134-2.534-4.227-5.08-6.487-7.482C53.84,17.172,51.521,14.835,49,12.694A62.255,62.255,0,0,0,40.89,7.072l4.99-4.1c.8,2.969,1.663,5.92,2.731,8.806a80.429,80.429,0,0,0,3.893,8.4,123.439,123.439,0,0,1,7.6,16.736A316.037,316.037,0,0,0,74.719,70.6l.119.244a4.3,4.3,0,0,1-5.127,6.034,125.479,125.479,0,0,0-26.347-5.521,128.739,128.739,0,0,0-13.48-.125c-4.484.161-8.931.382-13.379.376l5.843-6.779a20.97,20.97,0,0,0,.62,2.76,12.306,12.306,0,0,0,1.145,2.653,18.612,18.612,0,0,0,3.917,4.847,37.087,37.087,0,0,0,12.1,7.059c1.145.441,2.313.811,3.5,1.157,1.234.322,2.284.614,3.679.888,2.558.537,5.324,1.025,8.114,1.711a39.962,39.962,0,0,1,8.4,3.142,18.7,18.7,0,0,1,7.089,6.23,2.463,2.463,0,0,1-3.72,3.172l-.1-.1c-3.369-3.1-7.977-4.245-13.1-4.662l-8-.709c-1.288-.1-2.91-.31-4.334-.519-1.467-.244-2.927-.525-4.382-.888a42.864,42.864,0,0,1-16.557-7.912A27.7,27.7,0,0,1,10.448,66.389,5.941,5.941,0,0,1,15.48,59.67c.215-.03.429-.048.638-.06H16.3c9.51-.328,18.93,1.628,28.159,3.339,4.627.835,9.265,1.544,13.868,2.474,4.591.978,9.2,1.9,13.761,3.076l-5.008,6.272A372.8,372.8,0,0,1,49.583,41.265a93.755,93.755,0,0,1-3.416-8.83A76.657,76.657,0,0,1,43.9,23.206c-.65-3.106-1.192-6.236-2.039-9.259-.811-3.029-1.771-6.016-2.713-9.009A3.468,3.468,0,0,1,41.4.579a3.5,3.5,0,0,1,2.737.268c1.6.882,3.226,1.717,4.865,2.546l4.71,2.844A81.122,81.122,0,0,1,62.545,12.8a81.93,81.93,0,0,1,7.763,7.733q3.559,4.132,6.761,8.508A203.272,203.272,0,0,1,88.617,47.114c3.607,6.105,7.441,12.067,10.619,18.286l-12.181.715a144.032,144.032,0,0,1,6.314-15.353,162.932,162.932,0,0,0,6.594-15.376,231.909,231.909,0,0,0,7.781-32.368,3.656,3.656,0,0,1,7.226.167l.018.185a118.649,118.649,0,0,1,1.169,19.89q-.179,4.99-.644,9.963c-.334,3.309-.942,6.588-1.544,9.855A117.625,117.625,0,0,1,108.6,62.24c-1.192,3.094-2.4,6.177-3.834,9.164-1.491,3.035-2.981,5.95-4.639,8.7l-.03.054a2.461,2.461,0,0,1-4.406-2.152" transform="translate(51.541 0.001)" fill="#d8f263"/>
          </g>
        </g>
      </g>
    </g>
  </g>
</svg>
