<svg xmlns="http://www.w3.org/2000/svg" width="85" height="85" viewBox="0 0 85 85">
  <g id="img-5" transform="translate(3110.5 16876.793)">
    <g id="Grupo_1101985" data-name="Grupo 1101985" transform="translate(-3500.5 -18981.137)">
      <circle id="Elipse_11597" data-name="Elipse 11597" cx="42.5" cy="42.5" r="42.5" transform="translate(390 2104.344)" fill="#87de87"/>
      <g id="rodaja-de-naranja" transform="translate(400.248 2114.841)">
        <path id="Trazado_878815" data-name="Trazado 878815" d="M46.45,17.25,45.55,19A18.86,18.86,0,0,1,55.9,34.1l2-.2A20.89,20.89,0,0,0,46.45,17.25Z" fill="#567d56"/>
        <path id="Trazado_878816" data-name="Trazado 878816" d="M56,36h2v2H56Z" fill="#567d56"/>
        <path id="Trazado_878817" data-name="Trazado 878817" d="M38,11V3H36V8l-8.19.09A18,18,0,0,0,11.45,18.65l-3.37,8A.954.954,0,0,0,9,28h4.35a24.47,24.47,0,0,0-1.24,6H3a1,1,0,0,0-1,1v1A25,25,0,0,0,32,60.49,24.08,24.08,0,0,0,37,61a25.005,25.005,0,0,0,1-50Zm-2,5.86a5.85,5.85,0,0,1-1.12-.31L36,13.93ZM13.29,19.42A16,16,0,0,1,27.83,10.1l7.65-.1-2.77,6.56A16,16,0,0,1,18.17,25.9l-7.65.1ZM46,36a18.83,18.83,0,0,1-4.89,12.69L30,37.61A3.89,3.89,0,0,0,30.87,36ZM25.66,38.76l.34.11V55a18.83,18.83,0,0,1-11.69-4.84Zm2.34.11.34-.11L39.69,50.11A18.83,18.83,0,0,1,28,55Zm0-2.16a2,2,0,0,1-2.08,0,1.9,1.9,0,0,1-.68-.7H28.7a1.91,1.91,0,0,1-.7.7ZM23.13,36A3.89,3.89,0,0,0,24,37.61L12.89,48.69A18.83,18.83,0,0,1,8,36ZM10.74,52.26A22.85,22.85,0,0,1,4,36H6a21,21,0,1,0,42,0h2A23,23,0,0,1,10.74,52.26ZM37,59h-.18A25,25,0,0,0,52,36c0-.35,0-.69,0-1a1,1,0,0,0-1-1H14.11a22.58,22.58,0,0,1,1.38-6.07h2.7a18.12,18.12,0,0,0,15.87-9.49A7.79,7.79,0,0,0,37,19a8.57,8.57,0,0,0,5.25-1.93l.36-.28-1.22-1.58-.36.28a7.16,7.16,0,0,1-3,1.4V13a23.005,23.005,0,0,1-1,46Z" fill="#567d56"/>
      </g>
    </g>
  </g>
</svg>
