<svg xmlns="http://www.w3.org/2000/svg" xmlns:xlink="http://www.w3.org/1999/xlink" width="1030.506" height="600.568" viewBox="0 0 1030.506 600.568">
  <defs>
    <linearGradient id="linear-gradient" x1="-0.006" y1="0.956" x2="0.978" y2="0.092" gradientUnits="objectBoundingBox">
      <stop offset="0" stop-color="#f6f4fe"/>
      <stop offset="0.516" stop-color="#e4defb"/>
      <stop offset="1" stop-color="#f6f4fe"/>
    </linearGradient>
    <clipPath id="clip-path">
      <rect id="Rectángulo_402134" data-name="Rectángulo 402134" width="971.465" height="585.667" rx="20" transform="translate(0 -26.924)" opacity="0.38" fill="url(#linear-gradient)"/>
    </clipPath>
    <clipPath id="clip-path-2">
      <path id="Trazado_878018" data-name="Trazado 878018" d="M0,0,670.466,19.482l18.69,664.774L18.69,664.774Z" fill="#ac9afc"/>
    </clipPath>
    <clipPath id="clip-path-3">
      <path id="Trazado_878018-2" data-name="Trazado 878018" d="M0,0,664.492,29.47l28.222,671.455L28.222,671.455Z" fill="#ac9afc"/>
    </clipPath>
    <linearGradient id="linear-gradient-2" x1="0.757" y1="0.582" x2="0.018" y2="1.051" gradientUnits="objectBoundingBox">
      <stop offset="0" stop-color="#ac9afc"/>
      <stop offset="1" stop-color="#ded6fd"/>
    </linearGradient>
    <linearGradient id="linear-gradient-3" x1="0.5" x2="1.117" y2="0.794" gradientUnits="objectBoundingBox">
      <stop offset="0" stop-color="#ac9afc"/>
      <stop offset="0.324" stop-color="#aa98f9"/>
      <stop offset="1" stop-color="#7b6eb4"/>
    </linearGradient>
    <clipPath id="clip-path-4">
      <rect id="Rectángulo_401216" data-name="Rectángulo 401216" width="21.329" height="18.792" fill="none" stroke="#567d56" stroke-width="1"/>
    </clipPath>
    <linearGradient id="linear-gradient-8" y1="0.436" x2="1.139" y2="0.428" gradientUnits="objectBoundingBox">
      <stop offset="0" stop-color="#87de87"/>
      <stop offset="1" stop-color="#567d56"/>
    </linearGradient>
  </defs>
  <g id="img-19" transform="translate(9647.225 -6043.485)">
    <g id="Enmascarar_grupo_1098810" data-name="Enmascarar grupo 1098810" transform="translate(-9628.305 6085.311)" opacity="0.17" clip-path="url(#clip-path)">
      <g id="Rectángulo_402182" data-name="Rectángulo 402182" transform="translate(-33.869 -26.924)" fill="#e8e8e8" stroke="#707070" stroke-width="1">
        <rect width="1038" height="619" stroke="none"/>
        <rect x="0.5" y="0.5" width="1037" height="618" fill="none"/>
      </g>
      <rect id="Rectángulo_402133" data-name="Rectángulo 402133" width="615.89" height="482.117" transform="translate(0)" fill="#e6f8e6" opacity="0.38"/>
      <g id="Grupo_1101058" data-name="Grupo 1101058" transform="translate(341.966 764.749) rotate(-150)" opacity="0.25" style="isolation: isolate">
        <g id="Grupo_1101057" data-name="Grupo 1101057" clip-path="url(#clip-path-2)">
          <path id="Trazado_878017" data-name="Trazado 878017" d="M631.649,119.549c-4.123-30.364-7.168-61.476-27.4-85.957-10.14,32.935-28.62,61.544-47.507,90.173-25.536,38.717-52.619,76.164-81.7,112.084C418.014,306.533,352.623,366.344,285.1,425.933c-11.775,10.361-31.319-10.351-20.132-21.7,61.177-62.345,115.314-133.309,167.668-203.793,26.384-35.51,51.868-71.826,76.053-109.028,18.793-28.9,35.979-58.763,59.508-83.3C549.9,1.465,529.859.858,509.851,1.04q-35.187.4-70.383,1.227a741.628,741.628,0,0,0-167.982-.288c-9.564,1.067-16.443,4.915-21.218,10.235-35.618,19.654-26.1,83.045,24.269,90.52q31.663,4.648,63.323,9.349a1067.794,1067.794,0,0,0-259,170.541c-35.6,31.638,5.107,86.375,45.494,79.712q43.779-7.254,86.161-18.649A3019.282,3019.282,0,0,0,6.9,568.362c-32.872,40.12,10.8,101.894,58.183,77.427,112.264-58.055,213.294-133.382,303.749-220.7-14.318,43.956-27.22,88.446-38.209,133.557-8,32.588,23.982,71.557,57.595,60.744C468.587,593.424,493,474.357,508.276,394.529A358.023,358.023,0,0,0,521.1,460.484c11.1,37.2,52.628,47.37,78.665,24.39,95.367-84.259,47.424-251.491,31.887-365.325M260.331,249.877A323.153,323.153,0,0,0,208.5,278.123c-15.125,10.305-31.223-12.7-17.539-24.476a224.18,224.18,0,0,1,55.831-35.721A199.609,199.609,0,0,1,276.04,207.29c10.971-2.946,23.13-6.734,34.653-6.859,4.876-.031,10.98,1.869,13.73,6.694,2.3,4.057,3.363,7.123,3.02,11.6a14.2,14.2,0,0,1-9.216,11.769c-9.613,3.576-20.055,5.306-29.819,8.709-9.455,3.273-18.914,6.652-28.078,10.679m191.819,156.6c-.077,3.762-.2,7.466-.372,11.168-.69,14.542-2.04,28.93-4,43.264-.827,6-6.659,10.822-12.774,9.393a12.831,12.831,0,0,1-9.83-13.761q2.391-21,2.911-42.254l.149-7.681c0-.1-.034-.784-.027-1.256s-.013-1.883-.01-2.043c.018-.783.031-1.566,0-2.354-.05-2.778-.346-5.678.362-8.29.225-1.027.651-2.093.876-3.124,0-.049.062-.622.071-.986.083-1.72.319-3.481.5-5.194.335-4.157.61-7.8,2.412-11.577,2.275-4.736,10.033-6.84,13.321-1.081a27,27,0,0,1,2.974,6.148,58.359,58.359,0,0,1,1.052,5.944c.317,1.961.582,3.921.852,5.877.088.585.177,1.219.266,1.853.048.161.337.969.428,1.394,1.433,4.667.929,9.754.834,14.558M592.836,260.8a12.419,12.419,0,0,1-.379,1.33c-.11.3-.168.668-.274.972l-.055.154a12.053,12.053,0,0,1-5.876,7.063,12.287,12.287,0,0,1-9.1.945,4.5,4.5,0,0,1-.808-.22c-.553-.2-1.06-.293-1.617-.494a16.162,16.162,0,0,1-6.278-3.43,29.369,29.369,0,0,0-2.244-2.066,28.066,28.066,0,0,1-4.035-3.931c-.545-.619-1.092-1.291-1.637-1.909a23.735,23.735,0,0,1-2.472-3.39c-2.26-3.9-5.117-8.256-6.763-12.364-2.71-6.759-5.616-13.9-6.541-21.084a14.517,14.517,0,0,1,23.963-12.948c5.593,4.739,9.986,11.1,14.233,17.1,2.52,3.551,4.459,8.151,6.516,12.033a33,33,0,0,1,3.418,12.045,20.378,20.378,0,0,0,.5,3.021,16.286,16.286,0,0,1-.548,7.177" transform="translate(21.849 14.751)" fill="#ac9afc"/>
        </g>
      </g>
      <g id="Grupo_1101141" data-name="Grupo 1101141" transform="matrix(-0.454, 0.891, -0.891, -0.454, 1506.09, -165.331)" opacity="0.25" style="isolation: isolate">
        <g id="Grupo_1101057-2" data-name="Grupo 1101057" clip-path="url(#clip-path-3)">
          <path id="Trazado_878017-2" data-name="Trazado 878017" d="M627.5,129.934c-4.528-30.717-8-62.174-28.4-87.186-9.565,33.1-27.454,61.719-45.747,90.348-24.732,38.717-51.015,76.129-79.3,111.97C418.587,315.6,354.68,375.029,288.657,434.206,277.144,444.495,257.479,423.3,268.4,412c59.7-62.052,112.291-132.909,163.127-203.306,25.619-35.467,50.335-71.76,73.751-108.968,18.2-28.9,34.785-58.8,57.737-83.237C544.785,9.517,524.925,8.612,505.106,8.5q-34.853-.106-69.708.21A721.486,721.486,0,0,0,268.981,5.966c-9.459.938-16.218,4.722-20.87,10.023-35,19.323-24.642,83.464,25.364,91.747q31.435,5.155,62.869,10.365C244.2,160.735,159.081,217.182,82.249,286.5c-34.8,31.422,6.32,87.282,46.233,81.145a858.735,858.735,0,0,0,85.084-17.569A2899.653,2899.653,0,0,0,15.135,573.942c-31.98,40.026,12.183,103.034,58.77,79.024C184.273,595.992,283.26,521.415,371.6,434.578c-13.543,44.171-25.675,88.9-35.9,134.286-7.449,32.785,24.8,72.6,57.944,62.171,79.239-25.041,101.688-144.9,115.653-225.273a373.742,373.742,0,0,0,13.665,66.778c11.536,37.719,52.828,48.6,78.287,25.775,93.246-83.677,43.309-253.222,26.255-368.381M261.549,256.091a306.744,306.744,0,0,0-50.935,27.761c-14.834,10.183-31.117-13.276-17.733-24.968a212.968,212.968,0,0,1,54.788-35.249,189.916,189.916,0,0,1,28.821-10.312c10.826-2.814,22.815-6.461,34.229-6.418,4.83.04,10.9,2.048,13.7,6.959,2.342,4.13,3.435,7.24,3.161,11.751a13.752,13.752,0,0,1-8.958,11.747c-9.471,3.47-19.79,5.064-29.414,8.357-9.319,3.166-18.64,6.439-27.659,10.372M453.863,417c-.021,3.8-.088,7.535-.206,11.271-.471,14.673-1.6,29.179-3.328,43.622-.732,6.05-6.439,10.829-12.518,9.3a13.389,13.389,0,0,1-9.939-14.038q2.062-21.167,2.267-42.618l.036-7.753c0-.1-.045-.792-.046-1.268s-.041-1.9-.039-2.062c.006-.79.008-1.58-.037-2.377-.09-2.805-.426-5.737.238-8.365.208-1.033.615-2.1.823-3.141,0-.05.052-.627.056-.995.057-1.735.265-3.51.424-5.236.272-4.192.49-7.865,2.221-11.653,2.185-4.748,9.839-6.759,13.181-.9a28.437,28.437,0,0,1,3.036,6.25,60.864,60.864,0,0,1,1.129,6.017c.343,1.985.634,3.967.93,5.946.1.592.193,1.233.291,1.875.05.164.348.984.444,1.414,1.487,4.733,1.063,9.862,1.039,14.711M591.109,271.982a12.455,12.455,0,0,1-.356,1.337c-.1.306-.156.672-.257.977l-.052.155a11.634,11.634,0,0,1-5.718,7.046,11.87,11.87,0,0,1-9,.821,4.491,4.491,0,0,1-.8-.234c-.551-.211-1.054-.312-1.609-.522a16.518,16.518,0,0,1-6.27-3.555,30.627,30.627,0,0,0-2.253-2.119,29.3,29.3,0,0,1-4.055-4.028c-.549-.633-1.1-1.319-1.649-1.952a24.954,24.954,0,0,1-2.5-3.458c-2.3-3.967-5.189-8.411-6.881-12.582-2.783-6.864-5.767-14.113-6.787-21.383a14.1,14.1,0,0,1,23.55-12.722c5.61,4.867,10.055,11.357,14.35,17.469,2.549,3.622,4.536,8.295,6.631,12.244a34.588,34.588,0,0,1,3.562,12.211,21.234,21.234,0,0,0,.541,3.057,16.645,16.645,0,0,1-.438,7.238" transform="translate(21.86 15.212)" fill="#ac9afc"/>
        </g>
      </g>
      <path id="Trazado_878245" data-name="Trazado 878245" d="M1151.867,1107.219c12.453,9.967,25.655,19.489,41.7,22.27,11.432,1.981,20.979,2.246,32.391-.349,5.109-1.162,10.194-3.581,14.831-5.907a52.946,52.946,0,0,0,8.974-6.244c10.671-8.426,19.4-31.216,35.983-20.9,7.645,4.755,13.806,12.068,21.4,17.064a121.66,121.66,0,0,0,30.391,14.329,58.007,58.007,0,0,0,8.059,1.88c5.636.919,12.066,2.106,17.943,1.7,11.26-.775,23.033-3.276,32.517-9.934,9.01-6.326,15.946-13.274,21.687-22.885,3.1-5.183,4.1-13.36,9.8-16.293,8.334-4.287,12.908,4.967,16.98,10.4a76.447,76.447,0,0,0,20.925,19.435c10.138,6.228,20.492,8.206,32.047,9.381a85.919,85.919,0,0,0,15,.325c10.644-.8,19.4-2.518,28.864-7.623a44.49,44.49,0,0,0,11.087-8.532c6.376-6.772,8.616-12.007,11.862-20.615a29.385,29.385,0,0,0,.649-15.187,28.734,28.734,0,0,0-4.45-14.155c-4.544-7.895-13.438-15.418-22.346-17.476a41.648,41.648,0,0,0-22.556.763c-4.705,1.55-9.68,5.438-14.493,2.489-6.664-4.082-7.32-17.31-10.675-23.644a97.755,97.755,0,0,0-15-20.824,66.918,66.918,0,0,0-19.936-14.914c-10.487-4.882-21.577-8.586-33.342-7.62-10.891.894-22.063,3.368-31.093,10.067-8.707,6.461-15.723,13.336-21.21,22.968a101.326,101.326,0,0,0-9.062,22.317c-1.6,5.645-1.09,14.821-7.855,16.892-11.9,3.643-19.795-18.949-25.593-25.945-3.173-3.829-7.43-6.771-11.345-9.686a31.5,31.5,0,0,0-5.39-3.238c-6.191-2.928-12.357-5.7-19.112-6.728-7.025-1.073-13.774-2.205-20.82-1.346-4.85.592-9.882,1.021-14.629,2.347a85.7,85.7,0,0,0-13.715,5.6,31.641,31.641,0,0,0-4.648,2.719c-3.853,2.737-8.017,5.682-11.226,9.275-4.54,5.12-7.84,11.143-12.274,16.3-3.186,3.7-7.052,10.2-11.095,12.643-3.979,2.408-6.9-1.712-10.5-2.9a27.688,27.688,0,0,0-14.4-3.263c-9.162.011-20.1,4.172-26.4,11.186-6.526,7.266-11.366,16.8-10.908,26.943.424,9.388,3.372,20.833,10.974,26.917" transform="translate(-397.404 -607.259)" fill="url(#linear-gradient-2)"/>
    </g>
    <path id="Trazado_882838" data-name="Trazado 882838" d="M82,0A82,82,0,1,1,0,82,82,82,0,0,1,82,0Z" transform="translate(-9106.593 6443.314)" fill="url(#linear-gradient-3)"/>
    <path id="Trazado_882839" data-name="Trazado 882839" d="M82,0A82,82,0,1,1,0,82,82,82,0,0,1,82,0Z" transform="translate(-9375.812 6451.05)" fill="url(#linear-gradient-3)"/>
    <path id="Trazado_882840" data-name="Trazado 882840" d="M82,0A82,82,0,1,1,0,82,82,82,0,0,1,82,0Z" transform="translate(-8984.771 6271.314)" fill="url(#linear-gradient-3)"/>
    <path id="Trazado_882841" data-name="Trazado 882841" d="M82,0A82,82,0,1,1,0,82,82,82,0,0,1,82,0Z" transform="translate(-9270.662 6114.314)" fill="url(#linear-gradient-3)"/>
    <path id="Trazado_882842" data-name="Trazado 882842" d="M74.5,0A74.5,74.5,0,1,1,0,74.5,74.5,74.5,0,0,1,74.5,0Z" transform="translate(-9098.619 6451.314)" fill="#fff"/>
    <path id="Trazado_882843" data-name="Trazado 882843" d="M74.5,0A74.5,74.5,0,1,1,0,74.5,74.5,74.5,0,0,1,74.5,0Z" transform="translate(-9368.768 6459.05)" fill="#fff"/>
    <path id="Trazado_882844" data-name="Trazado 882844" d="M74.5,0A74.5,74.5,0,1,1,0,74.5,74.5,74.5,0,0,1,74.5,0Z" transform="translate(-8976.838 6279.314)" fill="#fff"/>
    <path id="Trazado_882845" data-name="Trazado 882845" d="M74.5,0A74.5,74.5,0,1,1,0,74.5,74.5,74.5,0,0,1,74.5,0Z" transform="translate(-9263.652 6122.314)" fill="#fff"/>
    <path id="Trazado_882846" data-name="Trazado 882846" d="M-30.691-4.828H-35v2.719h5.094V0h-7.836V-11.375h7.852v2.117H-35v2.4h4.313Zm4.2-3.625.086.992A2.867,2.867,0,0,1-24-8.609a2.412,2.412,0,0,1,1.973.789,3.757,3.757,0,0,1,.676,2.375V0h-2.641V-5.336a1.426,1.426,0,0,0-.258-.941,1.193,1.193,0,0,0-.937-.3,1.256,1.256,0,0,0-1.148.609V0h-2.633V-8.453ZM-15.8.156A4.345,4.345,0,0,1-18.949-1a4.006,4.006,0,0,1-1.2-3.02v-.219a5.191,5.191,0,0,1,.48-2.289,3.516,3.516,0,0,1,1.4-1.535,4.233,4.233,0,0,1,2.188-.543A3.659,3.659,0,0,1-13.27-7.5a4.344,4.344,0,0,1,1.031,3.082V-3.4h-5.234a1.9,1.9,0,0,0,.617,1.117,1.836,1.836,0,0,0,1.234.406,2.366,2.366,0,0,0,1.953-.875l1.2,1.422A3.363,3.363,0,0,1-13.859-.246,4.713,4.713,0,0,1-15.8.156Zm-.3-6.734q-1.156,0-1.375,1.531h2.656v-.2a1.3,1.3,0,0,0-.32-.98A1.275,1.275,0,0,0-16.1-6.578Zm10.031.508-.867-.062a1.558,1.558,0,0,0-1.594.781V0H-11.16V-8.453h2.469l.086,1.086A2.039,2.039,0,0,1-6.754-8.609a2.567,2.567,0,0,1,.734.094Zm.492,1.781a5.708,5.708,0,0,1,.422-2.266,3.4,3.4,0,0,1,1.211-1.52,3.192,3.192,0,0,1,1.836-.535,2.538,2.538,0,0,1,2.063.891l.094-.734H2.441V-.32a3.564,3.564,0,0,1-.52,1.941,3.334,3.334,0,0,1-1.5,1.266,5.528,5.528,0,0,1-2.281.441,4.769,4.769,0,0,1-1.8-.352A3.251,3.251,0,0,1-5,2.063l1.1-1.547a2.414,2.414,0,0,0,1.938.867,1.568,1.568,0,0,0,1.75-1.8V-.68A2.472,2.472,0,0,1-2.121.156a3.055,3.055,0,0,1-2.5-1.184A4.9,4.9,0,0,1-5.574-4.2Zm2.641.164A3.007,3.007,0,0,0-2.543-2.48a1.232,1.232,0,0,0,1.094.605,1.4,1.4,0,0,0,1.242-.57V-6a1.363,1.363,0,0,0-1.227-.578,1.241,1.241,0,0,0-1.1.629A3.429,3.429,0,0,0-2.934-4.125ZM8.027.156A4.345,4.345,0,0,1,4.879-1a4.006,4.006,0,0,1-1.2-3.02v-.219a5.191,5.191,0,0,1,.48-2.289,3.516,3.516,0,0,1,1.4-1.535,4.233,4.233,0,0,1,2.188-.543A3.659,3.659,0,0,1,10.559-7.5,4.344,4.344,0,0,1,11.59-4.422V-3.4H6.355a1.9,1.9,0,0,0,.617,1.117,1.836,1.836,0,0,0,1.234.406A2.366,2.366,0,0,0,10.16-2.75l1.2,1.422A3.363,3.363,0,0,1,9.969-.246,4.713,4.713,0,0,1,8.027.156Zm-.3-6.734q-1.156,0-1.375,1.531H9.012v-.2a1.3,1.3,0,0,0-.32-.98A1.275,1.275,0,0,0,7.73-6.578ZM7.7-12.008H10.48L8.309-9.555l-2.148,0Zm8.016,1.453v2.1h1.391v1.828H15.715v3.867a.987.987,0,0,0,.172.664.922.922,0,0,0,.68.188,3.862,3.862,0,0,0,.656-.047V-.07a4.859,4.859,0,0,1-1.484.227A2.758,2.758,0,0,1,13.73-.484a2.626,2.626,0,0,1-.648-1.945v-4.2H12V-8.453h1.078v-2.1ZM20.918,0H18.277V-8.453h2.641Zm-2.8-10.633a1.175,1.175,0,0,1,.406-.922,1.533,1.533,0,0,1,1.055-.359,1.533,1.533,0,0,1,1.055.359,1.175,1.175,0,0,1,.406.922,1.175,1.175,0,0,1-.406.922,1.533,1.533,0,0,1-1.055.359,1.533,1.533,0,0,1-1.055-.359A1.175,1.175,0,0,1,18.121-10.633Zm7.992,8.758a1.171,1.171,0,0,0,.859-.3,1.1,1.1,0,0,0,.3-.84h2.469a2.922,2.922,0,0,1-1,2.281,3.705,3.705,0,0,1-2.566.891A3.751,3.751,0,0,1,23.27-1a4.556,4.556,0,0,1-1.062-3.2v-.109a5.149,5.149,0,0,1,.473-2.262,3.441,3.441,0,0,1,1.363-1.508,4.065,4.065,0,0,1,2.109-.527A3.658,3.658,0,0,1,28.77-7.7a3.242,3.242,0,0,1,.969,2.477H27.27a1.445,1.445,0,0,0-.32-1.008,1.106,1.106,0,0,0-.859-.352q-1.023,0-1.2,1.3a9.206,9.206,0,0,0-.055,1.141,3.616,3.616,0,0,0,.3,1.766A1.055,1.055,0,0,0,26.113-1.875ZM35.613,0a2.973,2.973,0,0,1-.25-.758,2.448,2.448,0,0,1-2.031.914A3,3,0,0,1,31.3-.566a2.3,2.3,0,0,1-.836-1.816A2.364,2.364,0,0,1,31.48-4.461a5.174,5.174,0,0,1,2.953-.7h.813v-.448q0-1.17-1.008-1.17a.824.824,0,0,0-.937.926H30.668a2.36,2.36,0,0,1,1.043-1.99,4.383,4.383,0,0,1,2.66-.765,3.843,3.843,0,0,1,2.555.789,2.743,2.743,0,0,1,.961,2.164v3.742a3.832,3.832,0,0,0,.359,1.781V0ZM33.965-1.719a1.469,1.469,0,0,0,.816-.211,1.322,1.322,0,0,0,.465-.477V-3.758H34.48q-1.375,0-1.375,1.234a.754.754,0,0,0,.242.582A.876.876,0,0,0,33.965-1.719Z" transform="translate(-8903.18 6364.314)" fill="#12263f"/>
    <path id="Trazado_882847" data-name="Trazado 882847" d="M44.543,15V3.625h3.664a5.39,5.39,0,0,1,2.711.684A4.805,4.805,0,0,1,52.8,6.238a5.826,5.826,0,0,1,.684,2.793v.523a5.86,5.86,0,0,1-.66,2.8,4.826,4.826,0,0,1-1.859,1.938A5.271,5.271,0,0,1,48.285,15Zm2.742-9.258v7.148h.953a2.133,2.133,0,0,0,1.813-.84,4.116,4.116,0,0,0,.633-2.5V9.063a4.082,4.082,0,0,0-.633-2.484,2.17,2.17,0,0,0-1.844-.836Zm11.57,9.414A4.345,4.345,0,0,1,55.707,14a4.006,4.006,0,0,1-1.2-3.02v-.219a5.191,5.191,0,0,1,.48-2.289,3.516,3.516,0,0,1,1.4-1.535,4.233,4.233,0,0,1,2.188-.543A3.659,3.659,0,0,1,61.387,7.5a4.344,4.344,0,0,1,1.031,3.082V11.6H57.184a1.9,1.9,0,0,0,.617,1.117,1.836,1.836,0,0,0,1.234.406,2.366,2.366,0,0,0,1.953-.875l1.2,1.422A3.363,3.363,0,0,1,60.8,14.754,4.713,4.713,0,0,1,58.855,15.156Zm-.3-6.734q-1.156,0-1.375,1.531H59.84v-.2a1.3,1.3,0,0,0-.32-.98A1.275,1.275,0,0,0,58.559,8.422ZM64.059,15V8.375H62.832V6.547h1.227V5.875a2.921,2.921,0,0,1,.852-2.242,3.364,3.364,0,0,1,2.391-.8A5.235,5.235,0,0,1,68.535,3l.008,1.938a2.4,2.4,0,0,0-.648-.07q-1.2,0-1.2,1.031v.648h1.648V8.375H66.7V15Zm9.117.156A4.345,4.345,0,0,1,70.027,14a4.006,4.006,0,0,1-1.2-3.02v-.219a5.191,5.191,0,0,1,.48-2.289,3.516,3.516,0,0,1,1.4-1.535,4.233,4.233,0,0,1,2.188-.543A3.659,3.659,0,0,1,75.707,7.5a4.344,4.344,0,0,1,1.031,3.082V11.6H71.5a1.9,1.9,0,0,0,.617,1.117,1.836,1.836,0,0,0,1.234.406,2.366,2.366,0,0,0,1.953-.875l1.2,1.422a3.363,3.363,0,0,1-1.395,1.082A4.713,4.713,0,0,1,73.176,15.156Zm-.3-6.734q-1.156,0-1.375,1.531H74.16v-.2a1.3,1.3,0,0,0-.32-.98A1.275,1.275,0,0,0,72.879,8.422Zm7.336-1.875.086.992a2.867,2.867,0,0,1,2.414-1.148,2.412,2.412,0,0,1,1.973.789,3.757,3.757,0,0,1,.676,2.375V15H82.723V9.664a1.426,1.426,0,0,0-.258-.941,1.193,1.193,0,0,0-.937-.3,1.256,1.256,0,0,0-1.148.609V15H77.746V6.547Zm11.031,6.078a.608.608,0,0,0-.352-.539,5.348,5.348,0,0,0-1.336-.422,6.092,6.092,0,0,1-1.625-.574,2.722,2.722,0,0,1-.977-.863,2.061,2.061,0,0,1-.336-1.164,2.336,2.336,0,0,1,.961-1.918A3.958,3.958,0,0,1,90.1,6.391a4.386,4.386,0,0,1,2.688.758A2.37,2.37,0,0,1,93.8,9.141H91.16q0-1.016-1.07-1.016a1.061,1.061,0,0,0-.7.23.714.714,0,0,0-.281.574.655.655,0,0,0,.344.57,3.248,3.248,0,0,0,1.1.359,9.486,9.486,0,0,1,1.324.336,2.406,2.406,0,0,1,1.906,2.352,2.214,2.214,0,0,1-1.027,1.883,4.505,4.505,0,0,1-2.66.727,4.6,4.6,0,0,1-1.937-.391A3.24,3.24,0,0,1,86.832,13.7a2.406,2.406,0,0,1-.477-1.414h2.461a1.017,1.017,0,0,0,.391.855,1.607,1.607,0,0,0,.961.27,1.264,1.264,0,0,0,.809-.219A.7.7,0,0,0,91.246,12.625ZM97.793,15H95.152V6.547h2.641ZM95,4.367a1.175,1.175,0,0,1,.406-.922,1.727,1.727,0,0,1,2.109,0,1.175,1.175,0,0,1,.406.922,1.175,1.175,0,0,1-.406.922,1.727,1.727,0,0,1-2.109,0A1.175,1.175,0,0,1,95,4.367Zm7.789,7.5,1.336-5.32h2.773L104.137,15h-2.687L98.691,6.547h2.781ZM112.324,15a2.973,2.973,0,0,1-.25-.758,2.448,2.448,0,0,1-2.031.914,3,3,0,0,1-2.031-.723,2.3,2.3,0,0,1-.836-1.816,2.364,2.364,0,0,1,1.016-2.078,5.174,5.174,0,0,1,2.953-.7h.813V9.388q0-1.17-1.008-1.17a.824.824,0,0,0-.937.926h-2.633a2.36,2.36,0,0,1,1.043-1.99,4.383,4.383,0,0,1,2.66-.765,3.843,3.843,0,0,1,2.555.789,2.743,2.743,0,0,1,.961,2.164v3.742a3.832,3.832,0,0,0,.359,1.781V15Zm-1.648-1.719a1.469,1.469,0,0,0,.816-.211,1.322,1.322,0,0,0,.465-.477V11.242h-.766q-1.375,0-1.375,1.234a.754.754,0,0,0,.242.582A.876.876,0,0,0,110.676,13.281Zm9.8-.656a.608.608,0,0,0-.352-.539,5.348,5.348,0,0,0-1.336-.422,6.092,6.092,0,0,1-1.625-.574,2.722,2.722,0,0,1-.977-.863,2.061,2.061,0,0,1-.336-1.164,2.336,2.336,0,0,1,.961-1.918,3.958,3.958,0,0,1,2.516-.754,4.386,4.386,0,0,1,2.688.758,2.37,2.37,0,0,1,1.016,1.992h-2.641q0-1.016-1.07-1.016a1.061,1.061,0,0,0-.7.23.714.714,0,0,0-.281.574.655.655,0,0,0,.344.57,3.248,3.248,0,0,0,1.1.359,9.486,9.486,0,0,1,1.324.336,2.406,2.406,0,0,1,1.906,2.352,2.214,2.214,0,0,1-1.027,1.883,4.505,4.505,0,0,1-2.66.727,4.6,4.6,0,0,1-1.937-.391,3.24,3.24,0,0,1-1.328-1.062,2.406,2.406,0,0,1-.477-1.414h2.461a1.017,1.017,0,0,0,.391.855,1.607,1.607,0,0,0,.961.27,1.264,1.264,0,0,0,.809-.219A.7.7,0,0,0,120.48,12.625Zm5.406-.18a1.5,1.5,0,0,1,1.039.371,1.3,1.3,0,0,1,0,1.9,1.639,1.639,0,0,1-2.082,0,1.294,1.294,0,0,1,0-1.891A1.486,1.486,0,0,1,125.887,12.445Zm0-6.234a1.5,1.5,0,0,1,1.039.371,1.3,1.3,0,0,1,0,1.9,1.639,1.639,0,0,1-2.082,0,1.294,1.294,0,0,1,0-1.891A1.486,1.486,0,0,1,125.887,6.211ZM29.391,39H26.75V30.547h2.641Zm-2.8-10.633A1.175,1.175,0,0,1,27,27.445a1.727,1.727,0,0,1,2.109,0,1.249,1.249,0,0,1,0,1.844,1.727,1.727,0,0,1-2.109,0A1.175,1.175,0,0,1,26.594,28.367Zm6.836,2.18.086.992a2.867,2.867,0,0,1,2.414-1.148,2.412,2.412,0,0,1,1.973.789,3.757,3.757,0,0,1,.676,2.375V39H35.938V33.664a1.426,1.426,0,0,0-.258-.941,1.193,1.193,0,0,0-.937-.3,1.256,1.256,0,0,0-1.148.609V39H30.961V30.547Zm9.094,0,.086.992a2.906,2.906,0,0,1,2.414-1.148,2.14,2.14,0,0,1,2.164,1.273,2.813,2.813,0,0,1,2.484-1.273q2.57,0,2.641,3.109V39H49.672V33.664a1.611,1.611,0,0,0-.219-.945.931.931,0,0,0-.8-.3,1.247,1.247,0,0,0-1.164.7l.008.109V39H44.859V33.68a1.694,1.694,0,0,0-.211-.961.929.929,0,0,0-.8-.3,1.263,1.263,0,0,0-1.156.7V39H40.055V30.547Zm16.328,7.539a2.714,2.714,0,0,1-2.258,1.07,2.662,2.662,0,0,1-2.105-.809,3.4,3.4,0,0,1-.715-2.324V30.547h2.633v5.492a.946.946,0,0,0,1.055,1.086,1.376,1.376,0,0,0,1.289-.648v-5.93H61.4V39H58.93Zm6.406-7.539.086.992a2.867,2.867,0,0,1,2.414-1.148,2.412,2.412,0,0,1,1.973.789,3.757,3.757,0,0,1,.676,2.375V39H67.766V33.664a1.426,1.426,0,0,0-.258-.941,1.193,1.193,0,0,0-.937-.3,1.256,1.256,0,0,0-1.148.609V39H62.789V30.547ZM71.531,34.7a4.989,4.989,0,0,1,.492-2.254,3.52,3.52,0,0,1,1.414-1.52,4.259,4.259,0,0,1,2.164-.531,3.887,3.887,0,0,1,2.992,1.176,4.512,4.512,0,0,1,1.094,3.2v.094A4.378,4.378,0,0,1,78.59,38a3.9,3.9,0,0,1-2.973,1.16,3.942,3.942,0,0,1-2.9-1.082,4.232,4.232,0,0,1-1.18-2.934Zm2.633.164a3.145,3.145,0,0,0,.367,1.719,1.223,1.223,0,0,0,1.086.547q1.406,0,1.438-2.164V34.7q0-2.273-1.453-2.273-1.32,0-1.43,1.961Zm6.375-.148a5.708,5.708,0,0,1,.422-2.266,3.4,3.4,0,0,1,1.211-1.52,3.192,3.192,0,0,1,1.836-.535,2.538,2.538,0,0,1,2.063.891l.094-.734h2.391V38.68a3.564,3.564,0,0,1-.52,1.941,3.334,3.334,0,0,1-1.5,1.266,5.528,5.528,0,0,1-2.281.441,4.769,4.769,0,0,1-1.8-.352,3.251,3.251,0,0,1-1.332-.914l1.1-1.547a2.414,2.414,0,0,0,1.938.867,1.568,1.568,0,0,0,1.75-1.8V38.32a2.472,2.472,0,0,1-1.914.836,3.055,3.055,0,0,1-2.5-1.184,4.9,4.9,0,0,1-.953-3.168Zm2.641.164a3.007,3.007,0,0,0,.391,1.645,1.232,1.232,0,0,0,1.094.605,1.4,1.4,0,0,0,1.242-.57V33a1.363,1.363,0,0,0-1.227-.578,1.241,1.241,0,0,0-1.1.629A3.429,3.429,0,0,0,83.18,34.875ZM92.828,39H90.188V27h2.641Zm1.289-4.3a4.989,4.989,0,0,1,.492-2.254,3.52,3.52,0,0,1,1.414-1.52,4.259,4.259,0,0,1,2.164-.531,3.887,3.887,0,0,1,2.992,1.176,4.512,4.512,0,0,1,1.094,3.2v.094a4.378,4.378,0,0,1-1.1,3.137,3.9,3.9,0,0,1-2.973,1.16,3.942,3.942,0,0,1-2.9-1.082,4.232,4.232,0,0,1-1.18-2.934Zm2.633.164a3.145,3.145,0,0,0,.367,1.719,1.223,1.223,0,0,0,1.086.547q1.406,0,1.438-2.164V34.7q0-2.273-1.453-2.273-1.32,0-1.43,1.961Zm14.531-.016a5.152,5.152,0,0,1-.859,3.2A2.878,2.878,0,0,1,108,39.156a2.5,2.5,0,0,1-2.078-1.023l-.109.867h-2.359V27h2.633v4.227a2.41,2.41,0,0,1,1.9-.836,2.879,2.879,0,0,1,2.438,1.133,5.179,5.179,0,0,1,.859,3.188Zm-2.641-.168a3.437,3.437,0,0,0-.324-1.735,1.093,1.093,0,0,0-1-.519,1.261,1.261,0,0,0-1.234.679v3.354a1.268,1.268,0,0,0,1.25.671,1.118,1.118,0,0,0,1.18-.9A6.5,6.5,0,0,0,108.641,34.676ZM115.219,39h-2.641V30.547h2.641Zm-2.8-10.633a1.175,1.175,0,0,1,.406-.922,1.727,1.727,0,0,1,2.109,0,1.249,1.249,0,0,1,0,1.844,1.727,1.727,0,0,1-2.109,0A1.175,1.175,0,0,1,112.422,28.367Zm6.836,2.18.086.992a2.867,2.867,0,0,1,2.414-1.148,2.412,2.412,0,0,1,1.973.789,3.757,3.757,0,0,1,.676,2.375V39h-2.641V33.664a1.426,1.426,0,0,0-.258-.941,1.193,1.193,0,0,0-.937-.3,1.256,1.256,0,0,0-1.148.609V39h-2.633V30.547ZM130.625,39a2.973,2.973,0,0,1-.25-.758,2.448,2.448,0,0,1-2.031.914,3,3,0,0,1-2.031-.723,2.3,2.3,0,0,1-.836-1.816,2.364,2.364,0,0,1,1.016-2.078,5.174,5.174,0,0,1,2.953-.7h.813v-.448q0-1.17-1.008-1.17a.824.824,0,0,0-.937.926H125.68a2.36,2.36,0,0,1,1.043-1.99,4.383,4.383,0,0,1,2.66-.765,3.843,3.843,0,0,1,2.555.789,2.743,2.743,0,0,1,.961,2.164v3.742a3.832,3.832,0,0,0,.359,1.781V39Zm-1.648-1.719a1.469,1.469,0,0,0,.816-.211,1.322,1.322,0,0,0,.465-.477V35.242h-.766q-1.375,0-1.375,1.234a.754.754,0,0,0,.242.582A.876.876,0,0,0,128.977,37.281Zm9.8-.656a.608.608,0,0,0-.352-.539,5.347,5.347,0,0,0-1.336-.422,6.092,6.092,0,0,1-1.625-.574,2.722,2.722,0,0,1-.977-.863,2.061,2.061,0,0,1-.336-1.164,2.336,2.336,0,0,1,.961-1.918,3.958,3.958,0,0,1,2.516-.754,4.386,4.386,0,0,1,2.688.758,2.37,2.37,0,0,1,1.016,1.992H138.7q0-1.016-1.07-1.016a1.061,1.061,0,0,0-.7.23.714.714,0,0,0-.281.574.655.655,0,0,0,.344.57,3.248,3.248,0,0,0,1.1.359,9.485,9.485,0,0,1,1.324.336,2.406,2.406,0,0,1,1.906,2.352,2.214,2.214,0,0,1-1.027,1.883,4.505,4.505,0,0,1-2.66.727,4.6,4.6,0,0,1-1.937-.391,3.24,3.24,0,0,1-1.328-1.062,2.406,2.406,0,0,1-.477-1.414h2.461a1.017,1.017,0,0,0,.391.855,1.607,1.607,0,0,0,.961.27,1.264,1.264,0,0,0,.809-.219A.7.7,0,0,0,138.781,36.625Zm4.7,5.438-1.328-.625.266-.531a4.333,4.333,0,0,0,.57-1.937V37.016h2.109l-.008,1.7a4.238,4.238,0,0,1-.461,1.828A4.645,4.645,0,0,1,143.477,42.063ZM46.641,63V56.375H45.414V54.547h1.227v-.672a2.921,2.921,0,0,1,.852-2.242,3.364,3.364,0,0,1,2.391-.8A5.235,5.235,0,0,1,51.117,51l.008,1.938a2.4,2.4,0,0,0-.648-.07q-1.2,0-1.2,1.031v.648H50.93v1.828H49.281V63Zm9.977,0a2.973,2.973,0,0,1-.25-.758,2.448,2.448,0,0,1-2.031.914,3,3,0,0,1-2.031-.723,2.3,2.3,0,0,1-.836-1.816,2.364,2.364,0,0,1,1.016-2.078,5.174,5.174,0,0,1,2.953-.7h.813v-.448q0-1.17-1.008-1.17a.824.824,0,0,0-.937.926H51.672a2.36,2.36,0,0,1,1.043-1.99,4.383,4.383,0,0,1,2.66-.765,3.843,3.843,0,0,1,2.555.789,2.743,2.743,0,0,1,.961,2.164v3.742a3.832,3.832,0,0,0,.359,1.781V63Zm-1.648-1.719a1.469,1.469,0,0,0,.816-.211,1.322,1.322,0,0,0,.465-.477V59.242h-.766q-1.375,0-1.375,1.234a.754.754,0,0,0,.242.582A.876.876,0,0,0,54.969,61.281Zm8.953-.156a1.171,1.171,0,0,0,.859-.3,1.1,1.1,0,0,0,.3-.84h2.469a2.923,2.923,0,0,1-1,2.281,3.705,3.705,0,0,1-2.566.891A3.751,3.751,0,0,1,61.078,62a4.556,4.556,0,0,1-1.062-3.2v-.109a5.149,5.149,0,0,1,.473-2.262,3.441,3.441,0,0,1,1.363-1.508,4.065,4.065,0,0,1,2.109-.527,3.658,3.658,0,0,1,2.617.914,3.242,3.242,0,0,1,.969,2.477H65.078a1.445,1.445,0,0,0-.32-1.008,1.106,1.106,0,0,0-.859-.352q-1.023,0-1.2,1.3a9.206,9.206,0,0,0-.055,1.141,3.616,3.616,0,0,0,.3,1.766A1.055,1.055,0,0,0,63.922,61.125Zm7.8-8.68v2.1h1.391v1.828H71.727v3.867a.987.987,0,0,0,.172.664.922.922,0,0,0,.68.188,3.862,3.862,0,0,0,.656-.047V62.93a4.859,4.859,0,0,1-1.484.227,2.758,2.758,0,0,1-2.008-.641,2.626,2.626,0,0,1-.648-1.945v-4.2H68.016V54.547h1.078v-2.1Zm1.859,6.25a4.989,4.989,0,0,1,.492-2.254,3.52,3.52,0,0,1,1.414-1.52,4.259,4.259,0,0,1,2.164-.531,3.887,3.887,0,0,1,2.992,1.176,4.512,4.512,0,0,1,1.094,3.2v.094A4.378,4.378,0,0,1,80.645,62a3.9,3.9,0,0,1-2.973,1.16,3.942,3.942,0,0,1-2.9-1.082,4.232,4.232,0,0,1-1.18-2.934Zm2.633.164a3.145,3.145,0,0,0,.367,1.719,1.223,1.223,0,0,0,1.086.547q1.406,0,1.438-2.164V58.7q0-2.273-1.453-2.273-1.32,0-1.43,1.961Zm11.8-1.93-.867-.062a1.558,1.558,0,0,0-1.594.781V63H82.922V54.547h2.469l.086,1.086a2.039,2.039,0,0,1,1.852-1.242,2.567,2.567,0,0,1,.734.094Zm4.891,6.227A4.345,4.345,0,0,1,89.758,62a4.006,4.006,0,0,1-1.2-3.02v-.219a5.191,5.191,0,0,1,.48-2.289,3.516,3.516,0,0,1,1.4-1.535,4.233,4.233,0,0,1,2.188-.543A3.659,3.659,0,0,1,95.438,55.5a4.344,4.344,0,0,1,1.031,3.082V59.6H91.234a1.9,1.9,0,0,0,.617,1.117,1.836,1.836,0,0,0,1.234.406,2.366,2.366,0,0,0,1.953-.875l1.2,1.422a3.363,3.363,0,0,1-1.395,1.082A4.713,4.713,0,0,1,92.906,63.156Zm-.3-6.734q-1.156,0-1.375,1.531h2.656v-.2a1.3,1.3,0,0,0-.32-.98A1.275,1.275,0,0,0,92.609,56.422Zm9.344,4.2a.608.608,0,0,0-.352-.539,5.347,5.347,0,0,0-1.336-.422,6.092,6.092,0,0,1-1.625-.574,2.722,2.722,0,0,1-.977-.863,2.061,2.061,0,0,1-.336-1.164,2.336,2.336,0,0,1,.961-1.918,3.958,3.958,0,0,1,2.516-.754,4.386,4.386,0,0,1,2.688.758,2.37,2.37,0,0,1,1.016,1.992h-2.641q0-1.016-1.07-1.016a1.061,1.061,0,0,0-.7.23.714.714,0,0,0-.281.574.655.655,0,0,0,.344.57,3.248,3.248,0,0,0,1.1.359,9.486,9.486,0,0,1,1.324.336,2.406,2.406,0,0,1,1.906,2.352,2.214,2.214,0,0,1-1.027,1.883,4.505,4.505,0,0,1-2.66.727,4.6,4.6,0,0,1-1.937-.391A3.24,3.24,0,0,1,97.539,61.7a2.406,2.406,0,0,1-.477-1.414h2.461a1.017,1.017,0,0,0,.391.855,1.607,1.607,0,0,0,.961.27,1.264,1.264,0,0,0,.809-.219A.7.7,0,0,0,101.953,60.625Zm7.422-1.914a5.164,5.164,0,0,1,.867-3.164,2.854,2.854,0,0,1,2.422-1.156,2.428,2.428,0,0,1,1.906.891V51h2.641V63h-2.367l-.133-.906a2.493,2.493,0,0,1-2.062,1.063A2.849,2.849,0,0,1,110.258,62,5.327,5.327,0,0,1,109.375,58.711Zm2.633.164q0,2.25,1.313,2.25a1.3,1.3,0,0,0,1.25-.734V57.172a1.261,1.261,0,0,0-1.234-.75q-1.219,0-1.32,1.969ZM122.8,63.156A4.345,4.345,0,0,1,119.648,62a4.006,4.006,0,0,1-1.2-3.02v-.219a5.191,5.191,0,0,1,.48-2.289,3.516,3.516,0,0,1,1.4-1.535,4.233,4.233,0,0,1,2.188-.543,3.659,3.659,0,0,1,2.813,1.105,4.344,4.344,0,0,1,1.031,3.082V59.6h-5.234a1.9,1.9,0,0,0,.617,1.117,1.836,1.836,0,0,0,1.234.406,2.366,2.366,0,0,0,1.953-.875l1.2,1.422a3.363,3.363,0,0,1-1.395,1.082A4.713,4.713,0,0,1,122.8,63.156Zm-.3-6.734q-1.156,0-1.375,1.531h2.656v-.2a1.3,1.3,0,0,0-.32-.98A1.275,1.275,0,0,0,122.5,56.422Zm-78.418,28.7a1.171,1.171,0,0,0,.859-.3,1.1,1.1,0,0,0,.3-.84h2.469a2.922,2.922,0,0,1-1,2.281,3.705,3.705,0,0,1-2.566.891A3.751,3.751,0,0,1,41.238,86a4.556,4.556,0,0,1-1.062-3.2v-.109a5.149,5.149,0,0,1,.473-2.262,3.441,3.441,0,0,1,1.363-1.508,4.065,4.065,0,0,1,2.109-.527,3.658,3.658,0,0,1,2.617.914,3.242,3.242,0,0,1,.969,2.477H45.238a1.445,1.445,0,0,0-.32-1.008,1.106,1.106,0,0,0-.859-.352q-1.023,0-1.2,1.3a9.206,9.206,0,0,0-.055,1.141,3.616,3.616,0,0,0,.3,1.766A1.055,1.055,0,0,0,44.082,85.125Zm4.406-2.43a4.989,4.989,0,0,1,.492-2.254,3.52,3.52,0,0,1,1.414-1.52,4.259,4.259,0,0,1,2.164-.531,3.887,3.887,0,0,1,2.992,1.176,4.512,4.512,0,0,1,1.094,3.2v.094A4.378,4.378,0,0,1,55.547,86a3.9,3.9,0,0,1-2.973,1.16,3.942,3.942,0,0,1-2.9-1.082,4.232,4.232,0,0,1-1.18-2.934Zm2.633.164a3.145,3.145,0,0,0,.367,1.719,1.223,1.223,0,0,0,1.086.547q1.406,0,1.438-2.164V82.7q0-2.273-1.453-2.273-1.32,0-1.43,1.961ZM62.566,87a2.973,2.973,0,0,1-.25-.758,2.448,2.448,0,0,1-2.031.914,3,3,0,0,1-2.031-.723,2.3,2.3,0,0,1-.836-1.816,2.364,2.364,0,0,1,1.016-2.078,5.174,5.174,0,0,1,2.953-.7H62.2v-.448q0-1.17-1.008-1.17a.824.824,0,0,0-.937.926H57.621a2.36,2.36,0,0,1,1.043-1.99,4.383,4.383,0,0,1,2.66-.765,3.843,3.843,0,0,1,2.555.789,2.743,2.743,0,0,1,.961,2.164v3.742a3.832,3.832,0,0,0,.359,1.781V87Zm-1.648-1.719a1.469,1.469,0,0,0,.816-.211,1.322,1.322,0,0,0,.465-.477V83.242h-.766q-1.375,0-1.375,1.234a.754.754,0,0,0,.242.582A.876.876,0,0,0,60.918,85.281Zm5.07-2.57a5.708,5.708,0,0,1,.422-2.266,3.4,3.4,0,0,1,1.211-1.52,3.192,3.192,0,0,1,1.836-.535,2.538,2.538,0,0,1,2.063.891l.094-.734H74V86.68a3.564,3.564,0,0,1-.52,1.941,3.334,3.334,0,0,1-1.5,1.266,5.528,5.528,0,0,1-2.281.441,4.769,4.769,0,0,1-1.8-.352,3.251,3.251,0,0,1-1.332-.914l1.1-1.547a2.414,2.414,0,0,0,1.938.867,1.568,1.568,0,0,0,1.75-1.8V86.32a2.472,2.472,0,0,1-1.914.836,3.055,3.055,0,0,1-2.5-1.184,4.9,4.9,0,0,1-.953-3.168Zm2.641.164a3.007,3.007,0,0,0,.391,1.645,1.232,1.232,0,0,0,1.094.605,1.4,1.4,0,0,0,1.242-.57V81a1.363,1.363,0,0,0-1.227-.578,1.241,1.241,0,0,0-1.1.629A3.429,3.429,0,0,0,68.629,82.875Zm11.906,3.211a2.714,2.714,0,0,1-2.258,1.07,2.662,2.662,0,0,1-2.105-.809,3.4,3.4,0,0,1-.715-2.324V78.547H78.09v5.492a.946.946,0,0,0,1.055,1.086,1.376,1.376,0,0,0,1.289-.648v-5.93h2.648V87H80.613ZM87.3,87H84.66V75H87.3Zm6.383,0a2.973,2.973,0,0,1-.25-.758,2.448,2.448,0,0,1-2.031.914,3,3,0,0,1-2.031-.723,2.3,2.3,0,0,1-.836-1.816,2.364,2.364,0,0,1,1.016-2.078,5.174,5.174,0,0,1,2.953-.7h.813v-.448q0-1.17-1.008-1.17a.824.824,0,0,0-.937.926H88.738a2.36,2.36,0,0,1,1.043-1.99,4.383,4.383,0,0,1,2.66-.765A3.843,3.843,0,0,1,95,79.18a2.743,2.743,0,0,1,.961,2.164v3.742a3.832,3.832,0,0,0,.359,1.781V87Zm-1.648-1.719a1.469,1.469,0,0,0,.816-.211,1.322,1.322,0,0,0,.465-.477V83.242h-.766q-1.375,0-1.375,1.234a.754.754,0,0,0,.242.582A.876.876,0,0,0,92.035,85.281Zm8.953-.156a1.171,1.171,0,0,0,.859-.3,1.1,1.1,0,0,0,.3-.84h2.469a2.922,2.922,0,0,1-1,2.281,3.705,3.705,0,0,1-2.566.891A3.751,3.751,0,0,1,98.145,86a4.556,4.556,0,0,1-1.062-3.2v-.109a5.149,5.149,0,0,1,.473-2.262,3.441,3.441,0,0,1,1.363-1.508,4.065,4.065,0,0,1,2.109-.527,3.658,3.658,0,0,1,2.617.914,3.242,3.242,0,0,1,.969,2.477h-2.469a1.445,1.445,0,0,0-.32-1.008,1.106,1.106,0,0,0-.859-.352q-1.023,0-1.2,1.3a9.206,9.206,0,0,0-.055,1.141,3.616,3.616,0,0,0,.3,1.766A1.055,1.055,0,0,0,100.988,85.125ZM108.5,87h-2.641V78.547H108.5Zm-2.8-10.633a1.175,1.175,0,0,1,.406-.922,1.727,1.727,0,0,1,2.109,0,1.249,1.249,0,0,1,0,1.844,1.727,1.727,0,0,1-2.109,0A1.175,1.175,0,0,1,105.707,76.367Zm4.086,6.328a4.989,4.989,0,0,1,.492-2.254,3.52,3.52,0,0,1,1.414-1.52,4.259,4.259,0,0,1,2.164-.531,3.887,3.887,0,0,1,2.992,1.176,4.512,4.512,0,0,1,1.094,3.2v.094a4.378,4.378,0,0,1-1.1,3.137,3.9,3.9,0,0,1-2.973,1.16,3.942,3.942,0,0,1-2.9-1.082,4.232,4.232,0,0,1-1.18-2.934Zm2.633.164a3.145,3.145,0,0,0,.367,1.719,1.223,1.223,0,0,0,1.086.547q1.406,0,1.438-2.164V82.7q0-2.273-1.453-2.273-1.32,0-1.43,1.961Zm1.8-7.859H117l-2.172,2.453-2.148,0Zm7.3,3.547.086.992a2.867,2.867,0,0,1,2.414-1.148A2.412,2.412,0,0,1,126,79.18a3.757,3.757,0,0,1,.676,2.375V87h-2.641V81.664a1.426,1.426,0,0,0-.258-.941,1.193,1.193,0,0,0-.937-.3,1.256,1.256,0,0,0-1.148.609V87h-2.633V78.547Zm8.234,5.9a1.5,1.5,0,0,1,1.039.371,1.3,1.3,0,0,1,0,1.9,1.639,1.639,0,0,1-2.082,0,1.294,1.294,0,0,1,0-1.891A1.486,1.486,0,0,1,129.762,84.445Z" transform="translate(-9110.572 6477.314)" fill="#12263f"/>
    <path id="Trazado_882848" data-name="Trazado 882848" d="M13.1,11.148a4.154,4.154,0,0,1-.641,2.1,3.866,3.866,0,0,1-1.645,1.41,5.6,5.6,0,0,1-2.418.5A4.467,4.467,0,0,1,4.867,13.7,6.032,6.032,0,0,1,3.578,9.57V9.008A6.885,6.885,0,0,1,4.16,6.082,4.41,4.41,0,0,1,5.836,4.145a4.676,4.676,0,0,1,2.531-.684A4.9,4.9,0,0,1,11.7,4.551a4.306,4.306,0,0,1,1.43,3H10.391a2.037,2.037,0,0,0-.523-1.492,2.153,2.153,0,0,0-1.5-.453,1.638,1.638,0,0,0-1.5.766,4.921,4.921,0,0,0-.5,2.445v.8a5.445,5.445,0,0,0,.457,2.6,1.672,1.672,0,0,0,1.574.781,2.106,2.106,0,0,0,1.445-.445,1.89,1.89,0,0,0,.531-1.414Zm.844-.453a4.989,4.989,0,0,1,.492-2.254,3.52,3.52,0,0,1,1.414-1.52,4.259,4.259,0,0,1,2.164-.531,3.887,3.887,0,0,1,2.992,1.176,4.512,4.512,0,0,1,1.094,3.2v.094A4.378,4.378,0,0,1,21,14a3.9,3.9,0,0,1-2.973,1.16,3.942,3.942,0,0,1-2.9-1.082,4.232,4.232,0,0,1-1.18-2.934Zm2.633.164a3.145,3.145,0,0,0,.367,1.719,1.223,1.223,0,0,0,1.086.547q1.406,0,1.438-2.164V10.7q0-2.273-1.453-2.273-1.32,0-1.43,1.961Zm9.1-4.312.086.992A2.867,2.867,0,0,1,28.18,6.391a2.412,2.412,0,0,1,1.973.789,3.757,3.757,0,0,1,.676,2.375V15H28.188V9.664a1.426,1.426,0,0,0-.258-.941,1.193,1.193,0,0,0-.937-.3,1.256,1.256,0,0,0-1.148.609V15H23.211V6.547Zm9.672-2.1v2.1h1.391V8.375H35.352v3.867a.987.987,0,0,0,.172.664.922.922,0,0,0,.68.188,3.862,3.862,0,0,0,.656-.047V14.93a4.859,4.859,0,0,1-1.484.227,2.758,2.758,0,0,1-2.008-.641,2.626,2.626,0,0,1-.648-1.945v-4.2H31.641V6.547h1.078v-2.1ZM42.891,8.93l-.867-.062a1.558,1.558,0,0,0-1.594.781V15H37.8V6.547h2.469l.086,1.086A2.039,2.039,0,0,1,42.2,6.391a2.567,2.567,0,0,1,.734.094ZM48.367,15a2.973,2.973,0,0,1-.25-.758,2.448,2.448,0,0,1-2.031.914,3,3,0,0,1-2.031-.723,2.3,2.3,0,0,1-.836-1.816,2.364,2.364,0,0,1,1.016-2.078,5.174,5.174,0,0,1,2.953-.7H48V9.388q0-1.17-1.008-1.17a.824.824,0,0,0-.937.926H43.422a2.36,2.36,0,0,1,1.043-1.99,4.383,4.383,0,0,1,2.66-.765,3.843,3.843,0,0,1,2.555.789,2.743,2.743,0,0,1,.961,2.164v3.742A3.832,3.832,0,0,0,51,14.867V15Zm-1.648-1.719a1.469,1.469,0,0,0,.816-.211A1.322,1.322,0,0,0,48,12.594V11.242h-.766q-1.375,0-1.375,1.234a.754.754,0,0,0,.242.582A.876.876,0,0,0,46.719,13.281ZM47.375,3h2.781L47.984,5.453l-2.148,0Zm8.3,10.125a1.171,1.171,0,0,0,.859-.3,1.1,1.1,0,0,0,.3-.84H59.3a2.922,2.922,0,0,1-1,2.281,3.705,3.705,0,0,1-2.566.891A3.751,3.751,0,0,1,52.828,14a4.556,4.556,0,0,1-1.062-3.2v-.109a5.149,5.149,0,0,1,.473-2.262A3.441,3.441,0,0,1,53.6,6.918a4.065,4.065,0,0,1,2.109-.527,3.658,3.658,0,0,1,2.617.914A3.242,3.242,0,0,1,59.3,9.781H56.828a1.445,1.445,0,0,0-.32-1.008,1.106,1.106,0,0,0-.859-.352q-1.023,0-1.2,1.3a9.206,9.206,0,0,0-.055,1.141,3.616,3.616,0,0,0,.3,1.766A1.055,1.055,0,0,0,55.672,13.125Zm7.8-8.68v2.1h1.391V8.375H63.477v3.867a.987.987,0,0,0,.172.664.922.922,0,0,0,.68.188,3.862,3.862,0,0,0,.656-.047V14.93a4.859,4.859,0,0,1-1.484.227,2.758,2.758,0,0,1-2.008-.641,2.626,2.626,0,0,1-.648-1.945v-4.2H59.766V6.547h1.078v-2.1ZM68.68,15H66.039V6.547H68.68Zm-2.8-10.633a1.175,1.175,0,0,1,.406-.922,1.727,1.727,0,0,1,2.109,0,1.175,1.175,0,0,1,.406.922,1.175,1.175,0,0,1-.406.922,1.727,1.727,0,0,1-2.109,0A1.175,1.175,0,0,1,65.883,4.367ZM73.078,15H70.438V3h2.641Zm3.258-2.555a1.5,1.5,0,0,1,1.039.371,1.3,1.3,0,0,1,0,1.9,1.639,1.639,0,0,1-2.082,0,1.294,1.294,0,0,1,0-1.891A1.486,1.486,0,0,1,76.336,12.445Zm0-6.234a1.5,1.5,0,0,1,1.039.371,1.3,1.3,0,0,1,0,1.9,1.639,1.639,0,0,1-2.082,0,1.294,1.294,0,0,1,0-1.891A1.486,1.486,0,0,1,76.336,6.211ZM88.25,15a2.973,2.973,0,0,1-.25-.758,2.448,2.448,0,0,1-2.031.914,3,3,0,0,1-2.031-.723,2.3,2.3,0,0,1-.836-1.816,2.364,2.364,0,0,1,1.016-2.078,5.174,5.174,0,0,1,2.953-.7h.813V9.388q0-1.17-1.008-1.17a.824.824,0,0,0-.937.926H83.3a2.36,2.36,0,0,1,1.043-1.99,4.383,4.383,0,0,1,2.66-.765,3.843,3.843,0,0,1,2.555.789,2.743,2.743,0,0,1,.961,2.164v3.742a3.832,3.832,0,0,0,.359,1.781V15ZM86.6,13.281a1.469,1.469,0,0,0,.816-.211,1.322,1.322,0,0,0,.465-.477V11.242h-.766q-1.375,0-1.375,1.234a.754.754,0,0,0,.242.582A.876.876,0,0,0,86.6,13.281Zm8.953-.156a1.171,1.171,0,0,0,.859-.3,1.1,1.1,0,0,0,.3-.84H99.18a2.922,2.922,0,0,1-1,2.281,3.705,3.705,0,0,1-2.566.891A3.751,3.751,0,0,1,92.711,14a4.556,4.556,0,0,1-1.062-3.2v-.109a5.149,5.149,0,0,1,.473-2.262,3.441,3.441,0,0,1,1.363-1.508,4.065,4.065,0,0,1,2.109-.527,3.658,3.658,0,0,1,2.617.914,3.242,3.242,0,0,1,.969,2.477H96.711a1.445,1.445,0,0,0-.32-1.008,1.106,1.106,0,0,0-.859-.352q-1.023,0-1.2,1.3a9.206,9.206,0,0,0-.055,1.141,3.616,3.616,0,0,0,.3,1.766A1.055,1.055,0,0,0,95.555,13.125Zm7.8-8.68v2.1h1.391V8.375h-1.391v3.867a.987.987,0,0,0,.172.664.922.922,0,0,0,.68.188,3.862,3.862,0,0,0,.656-.047V14.93a4.859,4.859,0,0,1-1.484.227,2.758,2.758,0,0,1-2.008-.641,2.626,2.626,0,0,1-.648-1.945v-4.2H99.648V6.547h1.078v-2.1ZM108.563,15h-2.641V6.547h2.641Zm-2.8-10.633a1.175,1.175,0,0,1,.406-.922,1.727,1.727,0,0,1,2.109,0,1.175,1.175,0,0,1,.406.922,1.175,1.175,0,0,1-.406.922,1.727,1.727,0,0,1-2.109,0A1.175,1.175,0,0,1,105.766,4.367Zm6.836,2.18.086.992A2.867,2.867,0,0,1,115.1,6.391a2.412,2.412,0,0,1,1.973.789,3.757,3.757,0,0,1,.676,2.375V15h-2.641V9.664a1.426,1.426,0,0,0-.258-.941,1.193,1.193,0,0,0-.937-.3,1.256,1.256,0,0,0-1.148.609V15h-2.633V6.547ZM123.969,15a2.973,2.973,0,0,1-.25-.758,2.448,2.448,0,0,1-2.031.914,3,3,0,0,1-2.031-.723,2.3,2.3,0,0,1-.836-1.816,2.364,2.364,0,0,1,1.016-2.078,5.174,5.174,0,0,1,2.953-.7h.813V9.388q0-1.17-1.008-1.17a.824.824,0,0,0-.937.926h-2.633a2.36,2.36,0,0,1,1.043-1.99,4.383,4.383,0,0,1,2.66-.765,3.843,3.843,0,0,1,2.555.789,2.743,2.743,0,0,1,.961,2.164v3.742a3.832,3.832,0,0,0,.359,1.781V15Zm-1.648-1.719a1.469,1.469,0,0,0,.816-.211,1.322,1.322,0,0,0,.465-.477V11.242h-.766q-1.375,0-1.375,1.234a.754.754,0,0,0,.242.582A.876.876,0,0,0,122.32,13.281ZM34.344,35.313l1.406-4.766h2.82l-3.445,9.867-.148.359a2.617,2.617,0,0,1-2.594,1.641,4.126,4.126,0,0,1-1.086-.156V40.383h.344a1.8,1.8,0,0,0,.848-.16.973.973,0,0,0,.434-.575l.211-.563L30.2,30.547h2.813Zm11.383-4.766.086.992a2.906,2.906,0,0,1,2.414-1.148,2.14,2.14,0,0,1,2.164,1.273,2.813,2.813,0,0,1,2.484-1.273q2.57,0,2.641,3.109V39H52.875V33.664a1.611,1.611,0,0,0-.219-.945.931.931,0,0,0-.8-.3,1.247,1.247,0,0,0-1.164.7l.008.109V39H48.063V33.68a1.694,1.694,0,0,0-.211-.961.929.929,0,0,0-.8-.3,1.263,1.263,0,0,0-1.156.7V39H43.258V30.547ZM59.8,39H57.156V30.547H59.8ZM57,28.367a1.175,1.175,0,0,1,.406-.922,1.727,1.727,0,0,1,2.109,0,1.249,1.249,0,0,1,0,1.844,1.727,1.727,0,0,1-2.109,0A1.175,1.175,0,0,1,57,28.367ZM61.086,34.7a4.989,4.989,0,0,1,.492-2.254,3.52,3.52,0,0,1,1.414-1.52,4.259,4.259,0,0,1,2.164-.531,3.887,3.887,0,0,1,2.992,1.176,4.512,4.512,0,0,1,1.094,3.2v.094A4.378,4.378,0,0,1,68.145,38a3.9,3.9,0,0,1-2.973,1.16,3.942,3.942,0,0,1-2.9-1.082,4.232,4.232,0,0,1-1.18-2.934Zm2.633.164a3.145,3.145,0,0,0,.367,1.719,1.223,1.223,0,0,0,1.086.547q1.406,0,1.438-2.164V34.7q0-2.273-1.453-2.273-1.32,0-1.43,1.961Zm11.109,1.766a.608.608,0,0,0-.352-.539,5.347,5.347,0,0,0-1.336-.422,6.092,6.092,0,0,1-1.625-.574,2.722,2.722,0,0,1-.977-.863,2.061,2.061,0,0,1-.336-1.164,2.336,2.336,0,0,1,.961-1.918,3.958,3.958,0,0,1,2.516-.754,4.386,4.386,0,0,1,2.688.758,2.37,2.37,0,0,1,1.016,1.992H74.742q0-1.016-1.07-1.016a1.061,1.061,0,0,0-.7.23.714.714,0,0,0-.281.574.655.655,0,0,0,.344.57,3.248,3.248,0,0,0,1.1.359,9.486,9.486,0,0,1,1.324.336,2.406,2.406,0,0,1,1.906,2.352A2.214,2.214,0,0,1,76.34,38.43a4.505,4.505,0,0,1-2.66.727,4.6,4.6,0,0,1-1.937-.391A3.24,3.24,0,0,1,70.414,37.7a2.406,2.406,0,0,1-.477-1.414H72.4a1.017,1.017,0,0,0,.391.855,1.607,1.607,0,0,0,.961.27,1.264,1.264,0,0,0,.809-.219A.7.7,0,0,0,74.828,36.625ZM81.375,39H78.734V30.547h2.641Zm-2.8-10.633a1.175,1.175,0,0,1,.406-.922,1.727,1.727,0,0,1,2.109,0,1.249,1.249,0,0,1,0,1.844,1.727,1.727,0,0,1-2.109,0A1.175,1.175,0,0,1,78.578,28.367Zm6.836,2.18.086.992a2.867,2.867,0,0,1,2.414-1.148,2.412,2.412,0,0,1,1.973.789,3.757,3.757,0,0,1,.676,2.375V39H87.922V33.664a1.426,1.426,0,0,0-.258-.941,1.193,1.193,0,0,0-.937-.3,1.256,1.256,0,0,0-1.148.609V39H82.945V30.547ZM96.781,39a2.973,2.973,0,0,1-.25-.758,2.448,2.448,0,0,1-2.031.914,3,3,0,0,1-2.031-.723,2.3,2.3,0,0,1-.836-1.816,2.364,2.364,0,0,1,1.016-2.078,5.174,5.174,0,0,1,2.953-.7h.813v-.448q0-1.17-1.008-1.17a.824.824,0,0,0-.937.926H91.836a2.36,2.36,0,0,1,1.043-1.99,4.383,4.383,0,0,1,2.66-.765,3.843,3.843,0,0,1,2.555.789,2.743,2.743,0,0,1,.961,2.164v3.742a3.832,3.832,0,0,0,.359,1.781V39Zm-1.648-1.719a1.469,1.469,0,0,0,.816-.211,1.322,1.322,0,0,0,.465-.477V35.242h-.766q-1.375,0-1.375,1.234a.754.754,0,0,0,.242.582A.876.876,0,0,0,95.133,37.281Z" transform="translate(-9358.691 6518.05)" fill="#12263f"/>
    <path id="Trazado_882849" data-name="Trazado 882849" d="M30,5.742H26.59V15H23.848V5.742H20.5V3.625H30ZM35.645,8.93l-.867-.062a1.558,1.558,0,0,0-1.594.781V15H30.551V6.547H33.02l.086,1.086a2.039,2.039,0,0,1,1.852-1.242,2.567,2.567,0,0,1,.734.094ZM41.121,15a2.973,2.973,0,0,1-.25-.758,2.448,2.448,0,0,1-2.031.914,3,3,0,0,1-2.031-.723,2.3,2.3,0,0,1-.836-1.816,2.364,2.364,0,0,1,1.016-2.078,5.174,5.174,0,0,1,2.953-.7h.813V9.388q0-1.17-1.008-1.17a.824.824,0,0,0-.937.926H36.176a2.36,2.36,0,0,1,1.043-1.99,4.383,4.383,0,0,1,2.66-.765,3.843,3.843,0,0,1,2.555.789,2.743,2.743,0,0,1,.961,2.164v3.742a3.832,3.832,0,0,0,.359,1.781V15Zm-1.648-1.719a1.469,1.469,0,0,0,.816-.211,1.322,1.322,0,0,0,.465-.477V11.242h-.766q-1.375,0-1.375,1.234a.754.754,0,0,0,.242.582A.876.876,0,0,0,39.473,13.281Zm7.8-6.734.086.992A2.867,2.867,0,0,1,49.77,6.391a2.412,2.412,0,0,1,1.973.789,3.757,3.757,0,0,1,.676,2.375V15H49.777V9.664a1.426,1.426,0,0,0-.258-.941,1.193,1.193,0,0,0-.937-.3,1.256,1.256,0,0,0-1.148.609V15H44.8V6.547ZM58.3,12.625a.608.608,0,0,0-.352-.539,5.348,5.348,0,0,0-1.336-.422,6.092,6.092,0,0,1-1.625-.574,2.722,2.722,0,0,1-.977-.863,2.061,2.061,0,0,1-.336-1.164,2.336,2.336,0,0,1,.961-1.918,3.958,3.958,0,0,1,2.516-.754,4.386,4.386,0,0,1,2.688.758,2.37,2.37,0,0,1,1.016,1.992H58.215q0-1.016-1.07-1.016a1.061,1.061,0,0,0-.7.23.714.714,0,0,0-.281.574.655.655,0,0,0,.344.57,3.248,3.248,0,0,0,1.1.359,9.485,9.485,0,0,1,1.324.336,2.406,2.406,0,0,1,1.906,2.352,2.214,2.214,0,0,1-1.027,1.883,4.505,4.505,0,0,1-2.66.727,4.6,4.6,0,0,1-1.937-.391A3.24,3.24,0,0,1,53.887,13.7a2.406,2.406,0,0,1-.477-1.414h2.461a1.017,1.017,0,0,0,.391.855,1.607,1.607,0,0,0,.961.27,1.264,1.264,0,0,0,.809-.219A.7.7,0,0,0,58.3,12.625Zm11.617-1.789a5.1,5.1,0,0,1-.887,3.145,2.843,2.843,0,0,1-2.395,1.176,2.437,2.437,0,0,1-1.914-.852V18.25H62.09V6.547h2.461l.078.781a2.437,2.437,0,0,1,1.992-.937,2.866,2.866,0,0,1,2.43,1.152,5.16,5.16,0,0,1,.867,3.168Zm-2.633-.164q0-2.25-1.312-2.25a1.239,1.239,0,0,0-1.25.672v3.328a1.279,1.279,0,0,0,1.266.7q1.258,0,1.3-2.172Zm3.461.023a4.989,4.989,0,0,1,.492-2.254,3.52,3.52,0,0,1,1.414-1.52,4.259,4.259,0,0,1,2.164-.531,3.887,3.887,0,0,1,2.992,1.176,4.512,4.512,0,0,1,1.094,3.2v.094A4.378,4.378,0,0,1,77.8,14a3.9,3.9,0,0,1-2.973,1.16,3.942,3.942,0,0,1-2.9-1.082,4.232,4.232,0,0,1-1.18-2.934Zm2.633.164a3.145,3.145,0,0,0,.367,1.719,1.223,1.223,0,0,0,1.086.547q1.406,0,1.438-2.164V10.7q0-2.273-1.453-2.273-1.32,0-1.43,1.961Zm11.8-1.93-.867-.062a1.558,1.558,0,0,0-1.594.781V15H80.082V6.547h2.469l.086,1.086a2.039,2.039,0,0,1,1.852-1.242,2.567,2.567,0,0,1,.734.094Zm4.406-4.484v2.1h1.391V8.375H89.582v3.867a.987.987,0,0,0,.172.664.922.922,0,0,0,.68.188,3.862,3.862,0,0,0,.656-.047V14.93a4.859,4.859,0,0,1-1.484.227,2.758,2.758,0,0,1-2.008-.641,2.626,2.626,0,0,1-.648-1.945v-4.2H85.871V6.547h1.078v-2.1ZM96.1,15.156A4.345,4.345,0,0,1,92.949,14a4.006,4.006,0,0,1-1.2-3.02v-.219a5.191,5.191,0,0,1,.48-2.289,3.516,3.516,0,0,1,1.4-1.535,4.233,4.233,0,0,1,2.188-.543A3.659,3.659,0,0,1,98.629,7.5a4.344,4.344,0,0,1,1.031,3.082V11.6H94.426a1.9,1.9,0,0,0,.617,1.117,1.836,1.836,0,0,0,1.234.406,2.366,2.366,0,0,0,1.953-.875l1.2,1.422a3.363,3.363,0,0,1-1.395,1.082A4.713,4.713,0,0,1,96.1,15.156Zm-.3-6.734q-1.156,0-1.375,1.531h2.656v-.2a1.3,1.3,0,0,0-.32-.98A1.275,1.275,0,0,0,95.8,8.422Zm6.555,4.023a1.5,1.5,0,0,1,1.039.371,1.3,1.3,0,0,1,0,1.9,1.639,1.639,0,0,1-2.082,0,1.294,1.294,0,0,1,0-1.891A1.486,1.486,0,0,1,102.355,12.445Zm0-6.234a1.5,1.5,0,0,1,1.039.371,1.3,1.3,0,0,1,0,1.9,1.639,1.639,0,0,1-2.082,0,1.294,1.294,0,0,1,0-1.891A1.486,1.486,0,0,1,102.355,6.211ZM16.648,31.453A2.635,2.635,0,0,1,18.8,30.391a2.627,2.627,0,0,1,2.109.828,3.721,3.721,0,0,1,.727,2.445V39H19V33.727a1.488,1.488,0,0,0-.273-.988,1.175,1.175,0,0,0-.93-.316,1.266,1.266,0,0,0-1.148.516V39H14.016V27h2.633Zm10.547,7.7A4.345,4.345,0,0,1,24.047,38a4.006,4.006,0,0,1-1.2-3.02v-.219a5.191,5.191,0,0,1,.48-2.289,3.516,3.516,0,0,1,1.4-1.535,4.233,4.233,0,0,1,2.188-.543A3.659,3.659,0,0,1,29.727,31.5a4.344,4.344,0,0,1,1.031,3.082V35.6H25.523a1.9,1.9,0,0,0,.617,1.117,1.836,1.836,0,0,0,1.234.406,2.366,2.366,0,0,0,1.953-.875l1.2,1.422a3.363,3.363,0,0,1-1.395,1.082A4.713,4.713,0,0,1,27.2,39.156Zm-.3-6.734q-1.156,0-1.375,1.531H28.18v-.2a1.3,1.3,0,0,0-.32-.98A1.275,1.275,0,0,0,26.9,32.422ZM34.3,30.547l.086.992A2.906,2.906,0,0,1,36.8,30.391a2.14,2.14,0,0,1,2.164,1.273,2.813,2.813,0,0,1,2.484-1.273q2.57,0,2.641,3.109V39H41.453V33.664a1.611,1.611,0,0,0-.219-.945.931.931,0,0,0-.8-.3,1.247,1.247,0,0,0-1.164.7l.008.109V39H36.641V33.68a1.694,1.694,0,0,0-.211-.961.929.929,0,0,0-.8-.3,1.263,1.263,0,0,0-1.156.7V39H31.836V30.547ZM45.266,34.7a4.989,4.989,0,0,1,.492-2.254,3.52,3.52,0,0,1,1.414-1.52,4.259,4.259,0,0,1,2.164-.531,3.887,3.887,0,0,1,2.992,1.176,4.512,4.512,0,0,1,1.094,3.2v.094A4.378,4.378,0,0,1,52.324,38a3.9,3.9,0,0,1-2.973,1.16,3.942,3.942,0,0,1-2.9-1.082,4.232,4.232,0,0,1-1.18-2.934Zm2.633.164a3.145,3.145,0,0,0,.367,1.719,1.223,1.223,0,0,0,1.086.547q1.406,0,1.438-2.164V34.7q0-2.273-1.453-2.273-1.32,0-1.43,1.961Zm6.375-.148a5.708,5.708,0,0,1,.422-2.266,3.4,3.4,0,0,1,1.211-1.52,3.192,3.192,0,0,1,1.836-.535,2.538,2.538,0,0,1,2.063.891l.094-.734h2.391V38.68a3.564,3.564,0,0,1-.52,1.941,3.334,3.334,0,0,1-1.5,1.266,5.528,5.528,0,0,1-2.281.441,4.769,4.769,0,0,1-1.8-.352,3.251,3.251,0,0,1-1.332-.914l1.1-1.547a2.414,2.414,0,0,0,1.938.867,1.568,1.568,0,0,0,1.75-1.8V38.32a2.472,2.472,0,0,1-1.914.836,3.055,3.055,0,0,1-2.5-1.184,4.9,4.9,0,0,1-.953-3.168Zm2.641.164A3.007,3.007,0,0,0,57.3,36.52a1.232,1.232,0,0,0,1.094.605,1.4,1.4,0,0,0,1.242-.57V33a1.363,1.363,0,0,0-1.227-.578,1.241,1.241,0,0,0-1.1.629A3.429,3.429,0,0,0,56.914,34.875ZM66.563,39H63.922V27h2.641Zm1.289-4.3a4.989,4.989,0,0,1,.492-2.254,3.52,3.52,0,0,1,1.414-1.52,4.259,4.259,0,0,1,2.164-.531,3.887,3.887,0,0,1,2.992,1.176,4.512,4.512,0,0,1,1.094,3.2v.094A4.378,4.378,0,0,1,74.91,38a3.9,3.9,0,0,1-2.973,1.16,3.942,3.942,0,0,1-2.9-1.082,4.232,4.232,0,0,1-1.18-2.934Zm2.633.164a3.145,3.145,0,0,0,.367,1.719,1.223,1.223,0,0,0,1.086.547q1.406,0,1.438-2.164V34.7q0-2.273-1.453-2.273-1.32,0-1.43,1.961Zm14.531-.016a5.152,5.152,0,0,1-.859,3.2,2.878,2.878,0,0,1-2.422,1.117,2.5,2.5,0,0,1-2.078-1.023L79.547,39H77.188V27H79.82v4.227a2.41,2.41,0,0,1,1.9-.836,2.879,2.879,0,0,1,2.438,1.133,5.179,5.179,0,0,1,.859,3.188Zm-2.641-.168a3.437,3.437,0,0,0-.324-1.735,1.093,1.093,0,0,0-1-.519,1.261,1.261,0,0,0-1.234.679v3.354a1.268,1.268,0,0,0,1.25.671,1.118,1.118,0,0,0,1.18-.9A6.5,6.5,0,0,0,82.375,34.676ZM88.953,39H86.313V30.547h2.641Zm-2.8-10.633a1.175,1.175,0,0,1,.406-.922,1.727,1.727,0,0,1,2.109,0,1.249,1.249,0,0,1,0,1.844,1.727,1.727,0,0,1-2.109,0A1.175,1.175,0,0,1,86.156,28.367Zm6.836,2.18.086.992a2.867,2.867,0,0,1,2.414-1.148,2.412,2.412,0,0,1,1.973.789,3.757,3.757,0,0,1,.676,2.375V39H95.5V33.664a1.426,1.426,0,0,0-.258-.941,1.193,1.193,0,0,0-.937-.3,1.256,1.256,0,0,0-1.148.609V39H90.523V30.547ZM104.359,39a2.973,2.973,0,0,1-.25-.758,2.448,2.448,0,0,1-2.031.914,3,3,0,0,1-2.031-.723,2.3,2.3,0,0,1-.836-1.816,2.364,2.364,0,0,1,1.016-2.078,5.174,5.174,0,0,1,2.953-.7h.813v-.448q0-1.17-1.008-1.17a.824.824,0,0,0-.937.926H99.414a2.36,2.36,0,0,1,1.043-1.99,4.383,4.383,0,0,1,2.66-.765,3.843,3.843,0,0,1,2.555.789,2.743,2.743,0,0,1,.961,2.164v3.742a3.832,3.832,0,0,0,.359,1.781V39Zm-1.648-1.719a1.469,1.469,0,0,0,.816-.211,1.322,1.322,0,0,0,.465-.477V35.242h-.766q-1.375,0-1.375,1.234a.754.754,0,0,0,.242.582A.876.876,0,0,0,102.711,37.281Zm6.3,4.781-1.328-.625.266-.531a4.333,4.333,0,0,0,.57-1.937V37.016h2.109l-.008,1.7a4.238,4.238,0,0,1-.461,1.828A4.645,4.645,0,0,1,109.016,42.063ZM14.578,63a2.973,2.973,0,0,1-.25-.758,2.448,2.448,0,0,1-2.031.914,3,3,0,0,1-2.031-.723,2.3,2.3,0,0,1-.836-1.816,2.364,2.364,0,0,1,1.016-2.078,5.174,5.174,0,0,1,2.953-.7h.813v-.448q0-1.17-1.008-1.17a.824.824,0,0,0-.937.926H9.633a2.36,2.36,0,0,1,1.043-1.99,4.383,4.383,0,0,1,2.66-.765,3.843,3.843,0,0,1,2.555.789,2.743,2.743,0,0,1,.961,2.164v3.742a3.832,3.832,0,0,0,.359,1.781V63ZM12.93,61.281a1.469,1.469,0,0,0,.816-.211,1.322,1.322,0,0,0,.465-.477V59.242h-.766q-1.375,0-1.375,1.234a.754.754,0,0,0,.242.582A.876.876,0,0,0,12.93,61.281Zm13.227-2.445a5.1,5.1,0,0,1-.887,3.145,2.843,2.843,0,0,1-2.395,1.176,2.437,2.437,0,0,1-1.914-.852V66.25H18.328v-11.7h2.461l.078.781a2.437,2.437,0,0,1,1.992-.937,2.866,2.866,0,0,1,2.43,1.152,5.16,5.16,0,0,1,.867,3.168Zm-2.633-.164q0-2.25-1.312-2.25a1.239,1.239,0,0,0-1.25.672v3.328a1.279,1.279,0,0,0,1.266.7q1.258,0,1.3-2.172Zm3.461.023a4.989,4.989,0,0,1,.492-2.254,3.52,3.52,0,0,1,1.414-1.52,4.259,4.259,0,0,1,2.164-.531,3.887,3.887,0,0,1,2.992,1.176,4.512,4.512,0,0,1,1.094,3.2v.094A4.378,4.378,0,0,1,34.043,62a3.9,3.9,0,0,1-2.973,1.16,3.942,3.942,0,0,1-2.9-1.082,4.232,4.232,0,0,1-1.18-2.934Zm2.633.164a3.145,3.145,0,0,0,.367,1.719,1.223,1.223,0,0,0,1.086.547q1.406,0,1.438-2.164V58.7q0-2.273-1.453-2.273-1.32,0-1.43,1.961Zm14.531-.023a5.1,5.1,0,0,1-.887,3.145,2.843,2.843,0,0,1-2.395,1.176,2.437,2.437,0,0,1-1.914-.852V66.25H36.32v-11.7h2.461l.078.781a2.437,2.437,0,0,1,1.992-.937,2.866,2.866,0,0,1,2.43,1.152,5.16,5.16,0,0,1,.867,3.168Zm-2.633-.164q0-2.25-1.312-2.25a1.239,1.239,0,0,0-1.25.672v3.328a1.279,1.279,0,0,0,1.266.7q1.258,0,1.3-2.172Zm8.906-1.742-.867-.062a1.558,1.558,0,0,0-1.594.781V63H45.328V54.547H47.8l.086,1.086a2.039,2.039,0,0,1,1.852-1.242,2.567,2.567,0,0,1,.734.094Zm.336,1.766a4.989,4.989,0,0,1,.492-2.254,3.52,3.52,0,0,1,1.414-1.52,4.259,4.259,0,0,1,2.164-.531,3.887,3.887,0,0,1,2.992,1.176,4.512,4.512,0,0,1,1.094,3.2v.094A4.378,4.378,0,0,1,57.816,62a3.9,3.9,0,0,1-2.973,1.16,3.942,3.942,0,0,1-2.9-1.082,4.232,4.232,0,0,1-1.18-2.934Zm2.633.164a3.145,3.145,0,0,0,.367,1.719,1.223,1.223,0,0,0,1.086.547q1.406,0,1.438-2.164V58.7q0-2.273-1.453-2.273-1.32,0-1.43,1.961Zm9.75-6.414v2.1h1.391v1.828H63.141v3.867a.987.987,0,0,0,.172.664.922.922,0,0,0,.68.188,3.862,3.862,0,0,0,.656-.047V62.93a4.859,4.859,0,0,1-1.484.227,2.758,2.758,0,0,1-2.008-.641,2.626,2.626,0,0,1-.648-1.945v-4.2H59.43V54.547h1.078v-2.1Zm6.516,10.711A4.345,4.345,0,0,1,66.508,62a4.006,4.006,0,0,1-1.2-3.02v-.219a5.191,5.191,0,0,1,.48-2.289,3.516,3.516,0,0,1,1.4-1.535,4.233,4.233,0,0,1,2.188-.543A3.659,3.659,0,0,1,72.188,55.5a4.344,4.344,0,0,1,1.031,3.082V59.6H67.984a1.9,1.9,0,0,0,.617,1.117,1.836,1.836,0,0,0,1.234.406,2.366,2.366,0,0,0,1.953-.875l1.2,1.422A3.363,3.363,0,0,1,71.6,62.754,4.713,4.713,0,0,1,69.656,63.156Zm-.3-6.734q-1.156,0-1.375,1.531h2.656v-.2a1.3,1.3,0,0,0-.32-.98A1.275,1.275,0,0,0,69.359,56.422ZM77.055,63H74.414V54.547h2.641Zm-2.8-10.633a1.175,1.175,0,0,1,.406-.922,1.727,1.727,0,0,1,2.109,0,1.249,1.249,0,0,1,0,1.844,1.727,1.727,0,0,1-2.109,0A1.175,1.175,0,0,1,74.258,52.367Zm6.836,2.18.086.992a2.867,2.867,0,0,1,2.414-1.148,2.412,2.412,0,0,1,1.973.789,3.757,3.757,0,0,1,.676,2.375V63H83.6V57.664a1.426,1.426,0,0,0-.258-.941,1.193,1.193,0,0,0-.937-.3,1.256,1.256,0,0,0-1.148.609V63H78.625V54.547ZM92.461,63a2.973,2.973,0,0,1-.25-.758,2.448,2.448,0,0,1-2.031.914,3,3,0,0,1-2.031-.723,2.3,2.3,0,0,1-.836-1.816,2.364,2.364,0,0,1,1.016-2.078,5.174,5.174,0,0,1,2.953-.7h.813v-.448q0-1.17-1.008-1.17a.824.824,0,0,0-.937.926H87.516a2.36,2.36,0,0,1,1.043-1.99,4.383,4.383,0,0,1,2.66-.765,3.843,3.843,0,0,1,2.555.789,2.743,2.743,0,0,1,.961,2.164v3.742a3.832,3.832,0,0,0,.359,1.781V63Zm-1.648-1.719a1.469,1.469,0,0,0,.816-.211,1.322,1.322,0,0,0,.465-.477V59.242h-.766q-1.375,0-1.375,1.234a.754.754,0,0,0,.242.582A.876.876,0,0,0,90.813,61.281Zm9.8-.656a.608.608,0,0,0-.352-.539,5.347,5.347,0,0,0-1.336-.422A6.092,6.092,0,0,1,97.3,59.09a2.722,2.722,0,0,1-.977-.863,2.061,2.061,0,0,1-.336-1.164,2.336,2.336,0,0,1,.961-1.918,3.958,3.958,0,0,1,2.516-.754,4.386,4.386,0,0,1,2.688.758,2.37,2.37,0,0,1,1.016,1.992h-2.641q0-1.016-1.07-1.016a1.061,1.061,0,0,0-.7.23.714.714,0,0,0-.281.574.655.655,0,0,0,.344.57,3.248,3.248,0,0,0,1.1.359,9.486,9.486,0,0,1,1.324.336,2.406,2.406,0,0,1,1.906,2.352,2.214,2.214,0,0,1-1.027,1.883,4.505,4.505,0,0,1-2.66.727,4.6,4.6,0,0,1-1.937-.391A3.24,3.24,0,0,1,96.2,61.7a2.406,2.406,0,0,1-.477-1.414h2.461a1.017,1.017,0,0,0,.391.855,1.607,1.607,0,0,0,.961.27,1.264,1.264,0,0,0,.809-.219A.7.7,0,0,0,100.617,60.625Zm11.133-1.312,1.406-4.766h2.82l-3.445,9.867-.148.359a2.617,2.617,0,0,1-2.594,1.641,4.126,4.126,0,0,1-1.086-.156V64.383h.344a1.8,1.8,0,0,0,.848-.16.973.973,0,0,0,.434-.575l.211-.563L107.6,54.547h2.813ZM32.273,87a2.973,2.973,0,0,1-.25-.758,2.448,2.448,0,0,1-2.031.914,3,3,0,0,1-2.031-.723,2.3,2.3,0,0,1-.836-1.816,2.364,2.364,0,0,1,1.016-2.078,5.174,5.174,0,0,1,2.953-.7h.813v-.448q0-1.17-1.008-1.17a.824.824,0,0,0-.937.926H27.328a2.36,2.36,0,0,1,1.043-1.99,4.383,4.383,0,0,1,2.66-.765,3.843,3.843,0,0,1,2.555.789,2.743,2.743,0,0,1,.961,2.164v3.742a3.832,3.832,0,0,0,.359,1.781V87Zm-1.648-1.719a1.469,1.469,0,0,0,.816-.211,1.322,1.322,0,0,0,.465-.477V83.242h-.766q-1.375,0-1.375,1.234a.754.754,0,0,0,.242.582A.876.876,0,0,0,30.625,85.281ZM38.781,87H36.141V75h2.641Zm9.469-4.156a5.152,5.152,0,0,1-.859,3.2,2.878,2.878,0,0,1-2.422,1.117,2.5,2.5,0,0,1-2.078-1.023L42.781,87H40.422V75h2.633v4.227a2.41,2.41,0,0,1,1.9-.836,2.879,2.879,0,0,1,2.438,1.133,5.179,5.179,0,0,1,.859,3.188Zm-2.641-.168a3.437,3.437,0,0,0-.324-1.735,1.093,1.093,0,0,0-1-.519,1.261,1.261,0,0,0-1.234.679v3.354a1.268,1.268,0,0,0,1.25.671,1.118,1.118,0,0,0,1.18-.9A6.5,6.5,0,0,0,45.609,82.676Zm8.836,3.41a2.714,2.714,0,0,1-2.258,1.07,2.662,2.662,0,0,1-2.105-.809,3.4,3.4,0,0,1-.715-2.324V78.547H52v5.492a.946.946,0,0,0,1.055,1.086,1.376,1.376,0,0,0,1.289-.648v-5.93h2.648V87H54.523Zm6.477-7.539.086.992a2.906,2.906,0,0,1,2.414-1.148,2.14,2.14,0,0,1,2.164,1.273,2.813,2.813,0,0,1,2.484-1.273q2.57,0,2.641,3.109V87H68.07V81.664a1.611,1.611,0,0,0-.219-.945.931.931,0,0,0-.8-.3,1.247,1.247,0,0,0-1.164.7l.008.109V87H63.258V81.68a1.694,1.694,0,0,0-.211-.961.929.929,0,0,0-.8-.3,1.263,1.263,0,0,0-1.156.7V87H58.453V78.547ZM74.992,87H72.352V78.547h2.641ZM72.2,76.367a1.175,1.175,0,0,1,.406-.922,1.727,1.727,0,0,1,2.109,0,1.249,1.249,0,0,1,0,1.844,1.727,1.727,0,0,1-2.109,0A1.175,1.175,0,0,1,72.2,76.367Zm6.836,2.18.086.992a2.867,2.867,0,0,1,2.414-1.148,2.412,2.412,0,0,1,1.973.789,3.757,3.757,0,0,1,.676,2.375V87H81.539V81.664a1.426,1.426,0,0,0-.258-.941,1.193,1.193,0,0,0-.937-.3,1.256,1.256,0,0,0-1.148.609V87H76.563V78.547ZM90.4,87a2.973,2.973,0,0,1-.25-.758,2.448,2.448,0,0,1-2.031.914,3,3,0,0,1-2.031-.723,2.3,2.3,0,0,1-.836-1.816,2.364,2.364,0,0,1,1.016-2.078,5.174,5.174,0,0,1,2.953-.7h.813v-.448q0-1.17-1.008-1.17a.824.824,0,0,0-.937.926H85.453a2.36,2.36,0,0,1,1.043-1.99,4.383,4.383,0,0,1,2.66-.765,3.843,3.843,0,0,1,2.555.789,2.743,2.743,0,0,1,.961,2.164v3.742a3.832,3.832,0,0,0,.359,1.781V87ZM88.75,85.281a1.469,1.469,0,0,0,.816-.211,1.322,1.322,0,0,0,.465-.477V83.242h-.766q-1.375,0-1.375,1.234a.754.754,0,0,0,.242.582A.876.876,0,0,0,88.75,85.281Zm7.008-.836a1.5,1.5,0,0,1,1.039.371,1.3,1.3,0,0,1,0,1.9,1.639,1.639,0,0,1-2.082,0,1.294,1.294,0,0,1,0-1.891A1.486,1.486,0,0,1,95.758,84.445Z" transform="translate(-9251.623 6157.314)" fill="#12263f"/>
    <g id="Grupo_1101134" data-name="Grupo 1101134" transform="translate(-9579.022 6253.314)">
      <circle id="Elipse_11583" data-name="Elipse 11583" cx="93" cy="93" r="93" transform="translate(0 0)" fill="url(#linear-gradient-3)"/>
      <circle id="Elipse_11584" data-name="Elipse 11584" cx="84.5" cy="84.5" r="84.5" transform="translate(9 9)" fill="#fff"/>
      <text id="Reguladoras:_hormonas._enzimas_y_neurotramisores._" data-name="Reguladoras: hormonas. enzimas y neurotramisores.
" transform="translate(31 46)" fill="#12263f" font-size="16" font-family="Roboto-Black, Roboto" font-weight="800"><tspan x="14.715" y="15">Reguladoras: </tspan><tspan x="23.805" y="39">hormonas. </tspan><tspan x="25.945" y="63">enzimas y </tspan><tspan x="0.324" y="87">neurotramisores.</tspan></text>
    </g>
    <g id="Grupo_1101133" data-name="Grupo 1101133" transform="translate(-9294.304 6345.945) rotate(90)">
      <path id="Trazado_873496" data-name="Trazado 873496" d="M0,0V85.2" transform="translate(10.664 0)" fill="none" stroke="#567d56" stroke-width="2"/>
      <g id="Grupo_1099075" data-name="Grupo 1099075" transform="translate(0 69.418)">
        <g id="Grupo_1099074" data-name="Grupo 1099074" clip-path="url(#clip-path-4)">
          <path id="Trazado_873497" data-name="Trazado 873497" d="M20.668,0A21.249,21.249,0,0,0,10.334,18.241,21.248,21.248,0,0,0,0,0" transform="translate(0.33 0.551)" fill="none" stroke="#567d56" stroke-miterlimit="10" stroke-width="2"/>
        </g>
      </g>
    </g>
    <g id="Grupo_1101138" data-name="Grupo 1101138" transform="translate(-9090.305 6372.479) rotate(-90)">
      <path id="Trazado_873496-2" data-name="Trazado 873496" d="M0,0V85.2" transform="translate(10.664 0)" fill="none" stroke="#567d56" stroke-width="2"/>
      <g id="Grupo_1099075-2" data-name="Grupo 1099075" transform="translate(0 69.418)">
        <g id="Grupo_1099074-2" data-name="Grupo 1099074" transform="translate(0 0)" clip-path="url(#clip-path-4)">
          <path id="Trazado_873497-2" data-name="Trazado 873497" d="M20.668,0A21.249,21.249,0,0,0,10.334,18.241,21.248,21.248,0,0,0,0,0" transform="translate(0.33 0.551)" fill="none" stroke="#567d56" stroke-miterlimit="10" stroke-width="2"/>
        </g>
      </g>
    </g>
    <g id="Grupo_1101135" data-name="Grupo 1101135" transform="translate(-9251.82 6393.896) rotate(21)">
      <path id="Trazado_873496-3" data-name="Trazado 873496" d="M0,0V52.166" transform="translate(10.664 0)" fill="none" stroke="#567d56" stroke-width="2"/>
      <g id="Grupo_1099075-3" data-name="Grupo 1099075" transform="translate(0 36.382)">
        <g id="Grupo_1099074-3" data-name="Grupo 1099074" transform="translate(0 0)" clip-path="url(#clip-path-4)">
          <path id="Trazado_873497-3" data-name="Trazado 873497" d="M20.668,0A21.249,21.249,0,0,0,10.334,18.241,21.248,21.248,0,0,0,0,0" transform="translate(0.33 0.551)" fill="none" stroke="#567d56" stroke-miterlimit="10" stroke-width="2"/>
        </g>
      </g>
    </g>
    <g id="Grupo_1101136" data-name="Grupo 1101136" transform="matrix(0.809, -0.588, 0.588, 0.809, -9130.219, 6408.413)">
      <path id="Trazado_873496-4" data-name="Trazado 873496" d="M0,0V52.166" transform="translate(10.664 0)" fill="none" stroke="#567d56" stroke-width="2"/>
      <g id="Grupo_1099075-4" data-name="Grupo 1099075" transform="translate(0 36.382)">
        <g id="Grupo_1099074-4" data-name="Grupo 1099074" transform="translate(0 0)" clip-path="url(#clip-path-4)">
          <path id="Trazado_873497-4" data-name="Trazado 873497" d="M20.668,0A21.249,21.249,0,0,0,10.334,18.241,21.248,21.248,0,0,0,0,0" transform="translate(0.33 0.551)" fill="none" stroke="#567d56" stroke-miterlimit="10" stroke-width="2"/>
        </g>
      </g>
    </g>
    <g id="Grupo_1101137" data-name="Grupo 1101137" transform="translate(-9178.23 6321.732) rotate(-179)">
      <path id="Trazado_873496-5" data-name="Trazado 873496" d="M0,0V31.225" transform="translate(10.664)" fill="none" stroke="#567d56" stroke-width="2"/>
      <g id="Grupo_1099075-5" data-name="Grupo 1099075" transform="translate(0 15.441)">
        <g id="Grupo_1099074-5" data-name="Grupo 1099074" transform="translate(0 0)" clip-path="url(#clip-path-4)">
          <path id="Trazado_873497-5" data-name="Trazado 873497" d="M20.668,0A21.249,21.249,0,0,0,10.334,18.241,21.248,21.248,0,0,0,0,0" transform="translate(0.33 0.551)" fill="none" stroke="#567d56" stroke-miterlimit="10" stroke-width="2"/>
        </g>
      </g>
    </g>
    <path id="Trazado_882850" data-name="Trazado 882850" d="M20,0H193a20,20,0,0,1,20,20V61a20,20,0,0,1-20,20H20A20,20,0,0,1,0,61V20A20,20,0,0,1,20,0Z" transform="translate(-9291.718 6321.314)" fill="url(#linear-gradient-8)"/>
    <path id="Trazado_882851" data-name="Trazado 882851" d="M14,0H188a14,14,0,0,1,14,14V55a14,14,0,0,1-14,14H14A14,14,0,0,1,0,55V14A14,14,0,0,1,14,0Z" transform="translate(-9285.692 6327.314)" fill="#fff"/>
    <path id="Trazado_882852" data-name="Trazado 882852" d="M22.756,16.2H16.123V23H12.01V5.938H23.424V9.113h-7.3v3.926h6.633Zm9.492,5.426a4.072,4.072,0,0,1-3.387,1.605A3.993,3.993,0,0,1,25.7,22.021a5.1,5.1,0,0,1-1.072-3.486V10.32H28.58v8.238a1.419,1.419,0,0,0,1.582,1.629,2.064,2.064,0,0,0,1.934-.973V10.32h3.973V23h-3.7ZM41.857,10.32l.129,1.488a4.3,4.3,0,0,1,3.621-1.723,3.618,3.618,0,0,1,2.959,1.184,5.635,5.635,0,0,1,1.014,3.563V23H45.619V15a2.14,2.14,0,0,0-.387-1.412,1.789,1.789,0,0,0-1.406-.451,1.883,1.883,0,0,0-1.723.914V23H38.154V10.32Zm15.27,9.867a1.756,1.756,0,0,0,1.289-.451,1.654,1.654,0,0,0,.445-1.26h3.7A4.384,4.384,0,0,1,61.07,21.9a5.558,5.558,0,0,1-3.85,1.336A5.627,5.627,0,0,1,52.861,21.5a6.834,6.834,0,0,1-1.594-4.8v-.164a7.723,7.723,0,0,1,.709-3.393,5.162,5.162,0,0,1,2.045-2.262,6.1,6.1,0,0,1,3.164-.791,5.488,5.488,0,0,1,3.926,1.371,4.863,4.863,0,0,1,1.453,3.715h-3.7a2.168,2.168,0,0,0-.48-1.512,1.658,1.658,0,0,0-1.289-.527q-1.535,0-1.793,1.957a13.809,13.809,0,0,0-.082,1.711,5.424,5.424,0,0,0,.457,2.648A1.582,1.582,0,0,0,57.127,20.188ZM68.4,23H64.439V10.32H68.4Zm-4.2-15.949a1.763,1.763,0,0,1,.609-1.383,2.591,2.591,0,0,1,3.164,0,1.763,1.763,0,0,1,.609,1.383,1.763,1.763,0,0,1-.609,1.383,2.591,2.591,0,0,1-3.164,0A1.763,1.763,0,0,1,64.205,7.051Zm6.129,9.492a7.484,7.484,0,0,1,.738-3.381,5.28,5.28,0,0,1,2.121-2.279,6.388,6.388,0,0,1,3.246-.8,5.83,5.83,0,0,1,4.488,1.764,6.768,6.768,0,0,1,1.641,4.8v.141a6.566,6.566,0,0,1-1.646,4.705,5.846,5.846,0,0,1-4.459,1.74,5.912,5.912,0,0,1-4.348-1.623,6.348,6.348,0,0,1-1.77-4.4Zm3.949.246a4.718,4.718,0,0,0,.551,2.578,1.835,1.835,0,0,0,1.629.82q2.109,0,2.156-3.246v-.4q0-3.41-2.18-3.41-1.98,0-2.145,2.941ZM76.979,5H81.15L77.893,8.68,74.67,8.674Zm10.957,5.32.129,1.488a4.3,4.3,0,0,1,3.621-1.723,3.618,3.618,0,0,1,2.959,1.184,5.635,5.635,0,0,1,1.014,3.563V23H91.7V15a2.14,2.14,0,0,0-.387-1.412,1.789,1.789,0,0,0-1.406-.451,1.883,1.883,0,0,0-1.723.914V23H84.232V10.32Zm15.387,6.246a7.746,7.746,0,0,1,1.3-4.746,4.282,4.282,0,0,1,3.633-1.734,3.641,3.641,0,0,1,2.859,1.336V5h3.961V23h-3.551l-.2-1.359a3.739,3.739,0,0,1-3.094,1.594,4.274,4.274,0,0,1-3.586-1.734A7.991,7.991,0,0,1,103.322,16.566Zm3.949.246q0,3.375,1.969,3.375a1.944,1.944,0,0,0,1.875-1.1V14.258a1.892,1.892,0,0,0-1.852-1.125q-1.828,0-1.98,2.953Zm16.184,6.422a6.518,6.518,0,0,1-4.723-1.74,6.009,6.009,0,0,1-1.8-4.529v-.328a7.787,7.787,0,0,1,.721-3.434,5.274,5.274,0,0,1,2.1-2.3,6.35,6.35,0,0,1,3.281-.814,5.489,5.489,0,0,1,4.219,1.658,6.516,6.516,0,0,1,1.547,4.623V17.9h-7.852a2.846,2.846,0,0,0,.926,1.676,2.755,2.755,0,0,0,1.852.609,3.549,3.549,0,0,0,2.93-1.312l1.8,2.133a5.045,5.045,0,0,1-2.092,1.623A7.069,7.069,0,0,1,123.455,23.234Zm-.445-10.1q-1.734,0-2.062,2.3h3.984v-.3a1.956,1.956,0,0,0-.48-1.471A1.912,1.912,0,0,0,123.01,13.133ZM31.691,40.754a7.646,7.646,0,0,1-1.33,4.717,4.264,4.264,0,0,1-3.592,1.764A3.655,3.655,0,0,1,23.9,45.957v5.918H19.949V34.32h3.691l.117,1.172a3.656,3.656,0,0,1,2.988-1.406,4.3,4.3,0,0,1,3.645,1.729,7.741,7.741,0,0,1,1.3,4.752Zm-3.949-.246q0-3.375-1.969-3.375A1.859,1.859,0,0,0,23.9,38.141v4.992a1.919,1.919,0,0,0,1.9,1.055q1.887,0,1.945-3.258ZM41.1,37.895,39.8,37.8a2.336,2.336,0,0,0-2.391,1.172V47H33.461V34.32h3.7l.129,1.629a3.058,3.058,0,0,1,2.777-1.863,3.851,3.851,0,0,1,1.1.141Zm.5,2.648a7.484,7.484,0,0,1,.738-3.381,5.28,5.28,0,0,1,2.121-2.279,6.388,6.388,0,0,1,3.246-.8A5.83,5.83,0,0,1,52.2,35.85a6.768,6.768,0,0,1,1.641,4.8v.141a6.566,6.566,0,0,1-1.646,4.705,5.846,5.846,0,0,1-4.459,1.74,5.912,5.912,0,0,1-4.348-1.623,6.348,6.348,0,0,1-1.77-4.4Zm3.949.246a4.718,4.718,0,0,0,.551,2.578,1.835,1.835,0,0,0,1.629.82q2.109,0,2.156-3.246v-.4q0-3.41-2.18-3.41-1.98,0-2.145,2.941ZM60.18,31.168V34.32h2.086v2.742H60.18v5.8a1.481,1.481,0,0,0,.258,1,1.383,1.383,0,0,0,1.02.281,5.793,5.793,0,0,0,.984-.07v2.824a7.288,7.288,0,0,1-2.227.34,4.137,4.137,0,0,1-3.012-.961,3.939,3.939,0,0,1-.973-2.918V37.063H54.613V34.32H56.23V31.168Zm9.773,16.066a6.518,6.518,0,0,1-4.723-1.74,6.009,6.009,0,0,1-1.8-4.529v-.328a7.787,7.787,0,0,1,.721-3.434,5.274,5.274,0,0,1,2.1-2.3,6.35,6.35,0,0,1,3.281-.814,5.489,5.489,0,0,1,4.219,1.658A6.516,6.516,0,0,1,75.3,40.367V41.9H67.445a2.846,2.846,0,0,0,.926,1.676,2.755,2.755,0,0,0,1.852.609,3.549,3.549,0,0,0,2.93-1.312l1.8,2.133a5.045,5.045,0,0,1-2.092,1.623A7.069,7.069,0,0,1,69.953,47.234Zm-.445-10.1q-1.734,0-2.062,2.3H71.43v-.3a1.956,1.956,0,0,0-.48-1.471A1.912,1.912,0,0,0,69.508,37.133ZM81.191,47H77.219V34.32h3.973ZM79.715,29.234h4.172l-3.258,3.68-3.223-.006Zm7.641,5.086.129,1.488a4.3,4.3,0,0,1,3.621-1.723,3.618,3.618,0,0,1,2.959,1.184,5.635,5.635,0,0,1,1.014,3.563V47H91.117V39a2.14,2.14,0,0,0-.387-1.412,1.789,1.789,0,0,0-1.406-.451,1.883,1.883,0,0,0-1.723.914V47H83.652V34.32ZM104.406,47a4.459,4.459,0,0,1-.375-1.137,3.672,3.672,0,0,1-3.047,1.371,4.5,4.5,0,0,1-3.047-1.084,3.45,3.45,0,0,1-1.254-2.725,3.546,3.546,0,0,1,1.523-3.117,7.761,7.761,0,0,1,4.43-1.055h1.219v-.671q0-1.755-1.512-1.755a1.236,1.236,0,0,0-1.406,1.39H96.988a3.54,3.54,0,0,1,1.564-2.985,6.575,6.575,0,0,1,3.99-1.147,5.764,5.764,0,0,1,3.832,1.184,4.115,4.115,0,0,1,1.441,3.246v5.613a5.748,5.748,0,0,0,.539,2.672V47Zm-2.473-2.578a2.2,2.2,0,0,0,1.225-.316,1.983,1.983,0,0,0,.7-.715V41.363h-1.148q-2.062,0-2.062,1.852a1.131,1.131,0,0,0,.363.873A1.315,1.315,0,0,0,101.934,44.422Zm14.707-.984a.912.912,0,0,0-.527-.809,8.021,8.021,0,0,0-2-.633,9.138,9.138,0,0,1-2.437-.861,4.083,4.083,0,0,1-1.465-1.295,3.092,3.092,0,0,1-.5-1.746,3.5,3.5,0,0,1,1.441-2.877,5.938,5.938,0,0,1,3.773-1.131,6.579,6.579,0,0,1,4.031,1.137,3.555,3.555,0,0,1,1.523,2.988h-3.961q0-1.523-1.605-1.523a1.591,1.591,0,0,0-1.043.346,1.07,1.07,0,0,0-.422.861.982.982,0,0,0,.516.855,4.872,4.872,0,0,0,1.646.539,14.228,14.228,0,0,1,1.986.5q2.859.984,2.859,3.527a3.321,3.321,0,0,1-1.541,2.824,6.758,6.758,0,0,1-3.99,1.09,6.9,6.9,0,0,1-2.906-.586,4.86,4.86,0,0,1-1.992-1.594,3.609,3.609,0,0,1-.715-2.121H113a1.526,1.526,0,0,0,.586,1.283,2.41,2.41,0,0,0,1.441.4,1.9,1.9,0,0,0,1.213-.328A1.05,1.05,0,0,0,116.641,43.438Z" transform="translate(-9254.617 6335.314)" fill="#12263f"/>
    <path id="Trazado_878222" data-name="Trazado 878222" d="M1782.687,514.763a14.124,14.124,0,0,0-3.673-3.593c-3.881-2.626-8.937-3.1-12.311.606-1.371,1.506-2.408,3.293-3.8,4.781a11.891,11.891,0,0,0-3.439,5.925,9.623,9.623,0,0,0,1.464,6.859c3.355,5,10.977,5.461,16.11,3.317a13.694,13.694,0,0,0,2.107-1.1,12.094,12.094,0,0,0,5.6-8.095,11.766,11.766,0,0,0-2.059-8.705m-6.085,8.183a3.68,3.68,0,0,1-.7,1.642,5.608,5.608,0,0,1-3.041,1.937,4.423,4.423,0,0,1-4.109-.681,3.525,3.525,0,0,1-1.092-2.539c-.039-2.291,2.046-5.137,4.4-5.441a3.545,3.545,0,0,1,2.016.4,4.634,4.634,0,0,1,2.529,4.682" transform="translate(-11402.428 6061.653)" fill="#567d56"/>
    <path id="Trazado_878246" data-name="Trazado 878246" d="M1782.687,514.763a14.124,14.124,0,0,0-3.673-3.593c-3.881-2.626-8.937-3.1-12.311.606-1.371,1.506-2.408,3.293-3.8,4.781a11.891,11.891,0,0,0-3.439,5.925,9.623,9.623,0,0,0,1.464,6.859c3.355,5,10.977,5.461,16.11,3.317a13.694,13.694,0,0,0,2.107-1.1,12.094,12.094,0,0,0,5.6-8.095,11.766,11.766,0,0,0-2.059-8.705m-6.085,8.183a3.68,3.68,0,0,1-.7,1.642,5.608,5.608,0,0,1-3.041,1.937,4.423,4.423,0,0,1-4.109-.681,3.525,3.525,0,0,1-1.092-2.539c-.039-2.291,2.046-5.137,4.4-5.441a3.545,3.545,0,0,1,2.016.4,4.634,4.634,0,0,1,2.529,4.682" transform="matrix(-0.899, 0.438, -0.438, -0.899, -7808.935, 6305.004)" fill="#fcc59a"/>
    <g id="Grupo_1101140" data-name="Grupo 1101140" transform="translate(-8702.225 6125.041)">
      <ellipse id="Elipse_11585" data-name="Elipse 11585" cx="35.911" cy="36.691" rx="35.911" ry="36.691" transform="translate(0.151 1.625)" fill="#fff"/>
      <circle id="Elipse_11586" data-name="Elipse 11586" cx="11.71" cy="11.71" r="11.71" transform="translate(15.764 25.045)" fill="#d8f263"/>
      <g id="Grupo_1101139" data-name="Grupo 1101139" transform="matrix(-0.966, 0.259, -0.259, -0.966, 85.506, 48.7)">
        <path id="Trazado_878224" data-name="Trazado 878224" d="M62.3,22.982c-9.521-3.485-19.667-9.449-30.009-5.814-6.636,2.251-12.009,7.126-16.343,12.51-2.194,2.708-4.276,5.509-6.466,8.24C8.356,39.3,7.034,40.767,5.144,41.053-.291,41.427-.5,30.984.418,27.37a29.518,29.518,0,0,1,3.3-8.594C14.469-.033,38.148-5.218,56.547,5.53a40.972,40.972,0,0,1,11.045,9.462c.21,3.284-.5,9.81-5.289,7.991m.088-.242c4.775,1.724,4.86-5.079,4.837-7.6a43,43,0,0,0-26.9-14.5A37.6,37.6,0,0,0,4.743,17.855C1.235,23.647-.879,31.082,1.574,37.642c.549,1.492,1.761,3.056,3.494,2.806,1.648-.276,2.87-1.686,3.894-2.946C15.34,29.41,22.033,20.328,32.168,16.8c10.445-3.79,20.666,2.353,30.223,5.943" transform="translate(0 0)" fill="#567d56"/>
        <path id="Trazado_878225" data-name="Trazado 878225" d="M51.7,1.976C45.079.443,38.158-.806,31.926,2.71a27.278,27.278,0,0,0-4.2,2.828A86.911,86.911,0,0,0,16.516,15.872,80.474,80.474,0,0,0,8.818,26c-.956,1.411-2.065,3.051-3.894,3.375A4.127,4.127,0,0,1,.707,26.657c-2.05-5.668.6-12.577,4.852-16.542a.129.129,0,0,1,.18.184A18.5,18.5,0,0,0,.633,24.065c-.022,2.334,1.553,5.253,4.215,4.86,1.65-.316,2.64-1.894,3.513-3.225a91.4,91.4,0,0,1,7.815-10.131c4.55-5.051,9.445-10.081,15.582-13.18A21.468,21.468,0,0,1,46.771.581c1.681.312,3.338.717,4.987,1.144a.129.129,0,0,1-.059.251" transform="translate(9.729 20.999)" fill="#567d56"/>
        <path id="Trazado_878226" data-name="Trazado 878226" d="M1.548,21.488C1.4,24.013-.176,26.355.633,28.847c.418,1.555,2.019,2.77,3.584,1.97,1.492-.732,2.353-2.295,3.222-3.668,1.369-2.139,2.751-4.265,4.189-6.361,5.338-7.536,9.983-10.049,18.962-11.6A53.184,53.184,0,0,1,38.2,8.517a15.8,15.8,0,0,1,4.937,1.388,17.444,17.444,0,0,0,2.247,1.1c2.676.959,4.164-2.3,2.991-4.42A10.7,10.7,0,0,0,45.064,3,18.356,18.356,0,0,0,40.889.25c-.16-.052-.052-.3.094-.24a17.115,17.115,0,0,1,4.374,2.614c2,1.42,4.416,3.554,4.007,6.35a3.125,3.125,0,0,1-2.789,2.689c-1.347.05-2.505-.835-3.62-1.364a12.161,12.161,0,0,0-6.01-1.237l-1.259.114c-4.1.448-8.5.683-12.332,2.317a21.8,21.8,0,0,0-4.39,2.372c-2.767,1.92-4.756,4.683-6.83,7.3a94.9,94.9,0,0,0-5.786,8.309C3.4,33.527-.67,30.845.094,26.376c.282-1.7,1.018-3.253,1.2-4.91a.129.129,0,0,1,.256.022" transform="translate(25.604 14.16)" fill="#567d56"/>
        <path id="Trazado_878227" data-name="Trazado 878227" d="M.028,32.549c-.3-5.914,1.823-11.741,5.012-16.643a35.653,35.653,0,0,1,30-15.9A40.066,40.066,0,0,1,52.175,3.807a.146.146,0,0,1-.118.266A45.158,45.158,0,0,0,35.043.684,37.113,37.113,0,0,0,18.228,4.608C8.013,9.805-.143,20.751.319,32.529a.146.146,0,1,1-.29.021" transform="translate(3.391 7.55)" fill="#567d56"/>
        <path id="Trazado_878228" data-name="Trazado 878228" d="M.014,28.536A29.475,29.475,0,0,1,11.546,4.148,25.146,25.146,0,0,1,19.885,0a.146.146,0,0,1,.091.277,34.265,34.265,0,0,0-8.022,4.413A28.426,28.426,0,0,0,.306,28.526a.146.146,0,1,1-.291.01" transform="translate(13.379 20.89)" fill="#567d56"/>
        <path id="Trazado_878229" data-name="Trazado 878229" d="M0,24.091A34.146,34.146,0,0,1,15.265,3.153,26.309,26.309,0,0,1,23.528,0a.146.146,0,0,1,.07.282A33.814,33.814,0,0,0,3.5,16.032a33.526,33.526,0,0,0-3.208,8.13A.146.146,0,1,1,0,24.091" transform="translate(27.936 21.068)" fill="#567d56"/>
        <path id="Trazado_878230" data-name="Trazado 878230" d="M1,2.064A1.032,1.032,0,0,0,1,0,1.032,1.032,0,0,0,1,2.064" transform="translate(58.354 18.655)" fill="#567d56"/>
        <path id="Trazado_878231" data-name="Trazado 878231" d="M1,2.064A1.032,1.032,0,0,0,1,0,1.032,1.032,0,0,0,1,2.064" transform="translate(55.491 16.607)" fill="#567d56"/>
        <path id="Trazado_878232" data-name="Trazado 878232" d="M1,2.064A1.032,1.032,0,0,0,1,0,1.032,1.032,0,0,0,1,2.064" transform="translate(57.357 15.937)" fill="#567d56"/>
        <path id="Trazado_878233" data-name="Trazado 878233" d="M1,2.064A1.032,1.032,0,0,0,1,0,1.032,1.032,0,0,0,1,2.064" transform="translate(5.223 35.094)" fill="#567d56"/>
        <path id="Trazado_878234" data-name="Trazado 878234" d="M1,2.064A1.032,1.032,0,0,0,1,0,1.032,1.032,0,0,0,1,2.064" transform="translate(4.96 31.656)" fill="#567d56"/>
        <path id="Trazado_878235" data-name="Trazado 878235" d="M1,2.064A1.032,1.032,0,0,0,1,0,1.032,1.032,0,0,0,1,2.064" transform="translate(7.544 31.72)" fill="#567d56"/>
        <path id="Trazado_878236" data-name="Trazado 878236" d="M1,2.064A1.032,1.032,0,0,0,1,0,1.032,1.032,0,0,0,1,2.064" transform="translate(23.256 34.173)" fill="#567d56"/>
        <path id="Trazado_878237" data-name="Trazado 878237" d="M1,2.064A1.032,1.032,0,0,0,1,0,1.032,1.032,0,0,0,1,2.064" transform="translate(24.149 30.217)" fill="#567d56"/>
        <path id="Trazado_878238" data-name="Trazado 878238" d="M1,2.064A1.032,1.032,0,0,0,1,0,1.032,1.032,0,0,0,1,2.064" transform="translate(27.059 29.524)" fill="#567d56"/>
        <path id="Trazado_878239" data-name="Trazado 878239" d="M1,2.064A1.032,1.032,0,0,0,1,0,1.032,1.032,0,0,0,1,2.064" transform="translate(31.009 39.197)" fill="#567d56"/>
        <path id="Trazado_878240" data-name="Trazado 878240" d="M1,2.064A1.032,1.032,0,0,0,1,0,1.032,1.032,0,0,0,1,2.064" transform="translate(31.814 36.78)" fill="#567d56"/>
        <path id="Trazado_878241" data-name="Trazado 878241" d="M1.692,3.062A2.081,2.081,0,0,0,.707.852,4.851,4.851,0,0,1,.044.282.162.162,0,0,1,.051.053C.79-.2,1.492.526,1.759,1.15a3.708,3.708,0,0,1,.218,1.971.146.146,0,1,1-.285-.06" transform="translate(71.098 19.502)" fill="#567d56"/>
        <path id="Trazado_878242" data-name="Trazado 878242" d="M.969,1.665C1.074,1.2.646.88.3.683A.8.8,0,0,1,.013.309C-.1-.083.538-.052.7.128A2.064,2.064,0,0,1,1.259,1.69a.147.147,0,1,1-.291-.026" transform="translate(70.827 20.416)" fill="#567d56"/>
        <path id="Trazado_878243" data-name="Trazado 878243" d="M.031,9.749c2.895-3.875,6.25-7.8,10.8-9.738a.148.148,0,0,1,.141.255C8.036,2.4,4.964,4.352,2.524,7.07A26.509,26.509,0,0,0,.269,9.916c-.1.159-.356-.011-.238-.167" transform="translate(7.866 6.973)" fill="#567d56"/>
        <path id="Trazado_878244" data-name="Trazado 878244" d="M.04,4.783C1.755,3.023,3.211.385,5.868,0A.15.15,0,0,1,6.03.138a.153.153,0,0,1-.066.137c-.525.362-1.038.661-1.552.989A16.19,16.19,0,0,0,.261,4.973c-.119.151-.355-.047-.221-.19" transform="translate(11.413 10.04)" fill="#567d56"/>
      </g>
    </g>
    <path id="Trazado_878023" data-name="Trazado 878023" d="M19.517,14.6A10.638,10.638,0,0,0,16.707,2.3a9.993,9.993,0,0,0-6.1-2.3A11.276,11.276,0,0,0,4.224,1.729C.653,3.983-1.416,9.216,1.129,13.223a7.531,7.531,0,0,0,6,3.492,7.659,7.659,0,0,0,6.215-2.657,5.437,5.437,0,0,0,.164-6.776A5.233,5.233,0,0,0,10.1,5.264,3.925,3.925,0,0,0,6.452,6.808a3.636,3.636,0,0,0-.687,1.913,2.029,2.029,0,0,0,1.748,2.07,1.759,1.759,0,0,0,2-1.579.665.665,0,0,1,.01-.13c0-.014,0-.029,0-.043q-.032.146-.065.293c-.024-.07.069-.213.092-.282,0-.014.039-.113.052-.115.054-.012-.256.38-.121.243.025-.026.142-.246.177-.237s-.387.343-.158.163c.033-.026.064-.056.1-.083.066-.053.144-.1.209-.149.14-.114-.228.162-.222.127a.458.458,0,0,1,.118-.053A1.137,1.137,0,0,0,9.833,8.9c.265-.122-.326.043-.165.037A1.4,1.4,0,0,0,9.927,8.9c.189-.049-.3.028-.26-.005a.439.439,0,0,1,.133.011c.061.011.123.022.183.03.184.022-.24-.048-.234-.066s.3.1.323.11c.089.036.174.078.26.118.215.1-.393-.253-.206-.11.036.028.079.05.116.076.076.053.146.113.22.167.232.169-.333-.365-.077-.071.07.08.141.158.206.242.027.035.051.077.081.109.141.152-.179-.26-.14-.228.138.113.211.413.282.566.127.276-.1-.407-.034-.114.021.088.046.175.063.263.021.1.033.208.049.311.058.369.011-.337-.005-.067-.012.195-.036.387-.049.581-.012.164.046-.238.051-.241-.014.007-.03.113-.035.13-.029.1-.062.2-.1.3-.028.069-.205.424-.042.117s-.006,0-.047.068a4.868,4.868,0,0,1-.369.522q-.086.106-.177.207a.594.594,0,0,0-.093.1c-.01.02.316-.307.177-.185-.16.14-.312.282-.482.41-.092.069-.463.235-.488.328,0,.008.367-.2.212-.12l-.12.064c-.094.048-.19.094-.287.138a5.887,5.887,0,0,1-.552.214c-.087.029-.174.054-.262.08-.275.082.182-.054.191-.048-.021-.013-.153.033-.179.039q-.27.054-.545.083c-.106.011-.214.02-.321.025-.046,0-.092,0-.138.006-.25.016.17.01.2,0a3.7,3.7,0,0,1-1.2-.144c-.291-.057.45.142.072.016-.089-.03-.178-.057-.267-.09-.208-.076-.4-.173-.607-.264-.179-.08.258.153.241.137a.8.8,0,0,0-.125-.073q-.146-.087-.285-.183c-.177-.122-.337-.261-.5-.394s.223.205.19.183a1.153,1.153,0,0,1-.143-.144Q4.7,12,4.6,11.882a6.475,6.475,0,0,1-.424-.564c.01-.007.218.368.136.208-.022-.043-.049-.084-.072-.127q-.07-.127-.132-.258T4,10.879c-.024-.059-.045-.118-.069-.177-.1-.249.076.169.059.188.007-.007-.239-1.2-.226-1.192s.017.409.015.238c0-.047,0-.093,0-.14,0-.109,0-.218,0-.326.007-.218.025-.436.054-.651.013-.093.026-.185.042-.277A1.036,1.036,0,0,0,3.9,8.4s-.09.4-.048.232c.054-.211.106-.423.172-.63a9.806,9.806,0,0,1,.454-1.112c.084-.182-.134.259-.12.223a1.2,1.2,0,0,1,.087-.158q.067-.117.139-.232.166-.266.356-.517Q5.1,6,5.278,5.794c.054-.06.325-.345.076-.091s.027-.023.088-.08a7.985,7.985,0,0,1,.915-.738c.162-.113.331-.214.5-.32s-.231.121-.211.118a.5.5,0,0,0,.121-.066c.107-.058.217-.114.327-.167A9.017,9.017,0,0,1,8.2,4c.164-.054.824-.212.213-.077.2-.044.393-.091.593-.126a9.149,9.149,0,0,1,1.257-.137c.043,0,.259.02.282-.007,0-.005-.422-.008-.244,0l.141,0q.33.011.659.047c.2.022.407.052.609.089.093.017.187.036.279.056l.139.031c.256.056-.173-.032-.2-.054a2.482,2.482,0,0,0,.594.185c.212.075.421.158.627.251.089.04.176.081.264.124s.393.208.078.033.036.023.116.072c.1.062.2.126.3.193q.274.185.53.394c.078.063.155.128.23.195l.112.1c.18.158-.322-.321-.159-.147a10.2,10.2,0,0,1,.863,1.014c.057.08.111.161.167.242.184.27-.219-.368-.057-.086.113.2.226.4.326.6s.179.383.258.578c.036.09.071.181.1.272l.049.137c.086.238-.038-.138-.058-.179a4.783,4.783,0,0,1,.3,1.273q.045.287.072.575c0,.048.009.1.013.144.027.3-.01-.182-.011-.183.035.03.009.287.01.336a9.008,9.008,0,0,1-.073,1.238c-.015.11-.03.219-.049.328-.008.047-.018.093-.025.14-.027.172.042-.233.049-.229a5.7,5.7,0,0,1-.164.637,7.936,7.936,0,0,1-.437,1.127,1.827,1.827,0,0,0,.083,1.388,2.087,2.087,0,0,0,1.091,1.019,1.833,1.833,0,0,0,2.387-.994" transform="matrix(0.809, 0.588, -0.588, 0.809, -8686.72, 6180.157)" fill="#ac9afc"/>
    <path id="Trazado_882853" data-name="Trazado 882853" d="M0,0H356.915a20,20,0,0,1,20,20V37H20A20,20,0,0,1,0,17Z" transform="translate(-9351.896 6043.485)" fill="#87de87"/>
    <path id="Trazado_882854" data-name="Trazado 882854" d="M8.842,11.454H3.779v3.428H9.721V17H1.143V4.2H9.7V6.339H3.779v3.05H8.842Zm7.409,2.918a.818.818,0,0,0-.461-.734,5.241,5.241,0,0,0-1.481-.479q-3.393-.712-3.393-2.883a2.613,2.613,0,0,1,1.05-2.114,4.237,4.237,0,0,1,2.747-.848,4.56,4.56,0,0,1,2.9.853,2.687,2.687,0,0,1,1.085,2.215h-2.54a1.229,1.229,0,0,0-.352-.9,1.488,1.488,0,0,0-1.1-.356,1.52,1.52,0,0,0-.993.29.916.916,0,0,0-.352.738.783.783,0,0,0,.4.681,4.114,4.114,0,0,0,1.349.448,11.019,11.019,0,0,1,1.6.426,2.628,2.628,0,0,1,2.013,2.558,2.481,2.481,0,0,1-1.116,2.1,4.815,4.815,0,0,1-2.883.8A5.029,5.029,0,0,1,12.6,16.75a3.561,3.561,0,0,1-1.455-1.169,2.716,2.716,0,0,1-.527-1.6h2.408a1.326,1.326,0,0,0,.5,1.037,1.987,1.987,0,0,0,1.248.36,1.839,1.839,0,0,0,1.1-.277A.861.861,0,0,0,16.251,14.372Zm3.709-2.215a5.684,5.684,0,0,1,1-3.542,3.261,3.261,0,0,1,2.738-1.3A2.92,2.92,0,0,1,26.13,8.483L26.3,7.49h2.232V20.656H25.98V16.183a2.928,2.928,0,0,1-2.3.993,3.237,3.237,0,0,1-2.707-1.318A5.963,5.963,0,0,1,19.96,12.157Zm2.54.18a3.729,3.729,0,0,0,.479,2.077,1.533,1.533,0,0,0,1.349.713,1.708,1.708,0,0,0,1.652-.933V10.26a1.694,1.694,0,0,0-1.635-.9,1.552,1.552,0,0,0-1.362.713A4.118,4.118,0,0,0,22.5,12.338Zm13.72,3.7a3.185,3.185,0,0,1-2.6,1.143,3,3,0,0,1-2.333-.879,3.752,3.752,0,0,1-.822-2.575V7.49H33v6.151q0,1.487,1.354,1.487a1.834,1.834,0,0,0,1.775-.9V7.49h2.549V17H36.29Zm8.754,1.143a4.668,4.668,0,0,1-3.406-1.283,4.561,4.561,0,0,1-1.314-3.419v-.246a5.745,5.745,0,0,1,.554-2.562,4.064,4.064,0,0,1,1.569-1.74,4.4,4.4,0,0,1,2.316-.611,3.947,3.947,0,0,1,3.072,1.23,5,5,0,0,1,1.121,3.489v1.037H42.829a2.36,2.36,0,0,0,.743,1.494,2.245,2.245,0,0,0,1.569.563,2.742,2.742,0,0,0,2.294-1.063l1.248,1.4a3.813,3.813,0,0,1-1.547,1.261A5.075,5.075,0,0,1,44.974,17.176Zm-.29-7.813a1.587,1.587,0,0,0-1.226.512,2.651,2.651,0,0,0-.6,1.466h3.533v-.2a1.891,1.891,0,0,0-.457-1.311A1.638,1.638,0,0,0,44.684,9.362ZM52.708,7.49l.079,1.063a3.342,3.342,0,0,1,2.733-1.239,2.536,2.536,0,0,1,2.522,1.45A3.265,3.265,0,0,1,60.9,7.314a2.836,2.836,0,0,1,2.3.9,4.141,4.141,0,0,1,.756,2.711V17H61.409V10.936a1.811,1.811,0,0,0-.316-1.182,1.4,1.4,0,0,0-1.116-.374,1.585,1.585,0,0,0-1.582,1.09L58.4,17h-2.54V10.944a1.789,1.789,0,0,0-.325-1.2,1.416,1.416,0,0,0-1.107-.369,1.646,1.646,0,0,0-1.564.9V17h-2.54V7.49ZM71.42,17a2.821,2.821,0,0,1-.255-.853,3.073,3.073,0,0,1-2.4,1.028,3.376,3.376,0,0,1-2.316-.809,2.6,2.6,0,0,1-.918-2.039,2.687,2.687,0,0,1,1.121-2.32,5.529,5.529,0,0,1,3.239-.817H71.06v-.545a1.567,1.567,0,0,0-.338-1.055,1.331,1.331,0,0,0-1.068-.4,1.513,1.513,0,0,0-1.006.308,1.045,1.045,0,0,0-.365.844h-2.54a2.551,2.551,0,0,1,.51-1.529,3.37,3.37,0,0,1,1.441-1.1,5.253,5.253,0,0,1,2.092-.4,4.15,4.15,0,0,1,2.791.883,3.09,3.09,0,0,1,1.033,2.483V14.8a4.546,4.546,0,0,0,.378,2.048V17Zm-2.1-1.767a2.188,2.188,0,0,0,1.037-.25,1.645,1.645,0,0,0,.7-.672V12.676H70.11q-1.907,0-2.03,1.318l-.009.149a1.017,1.017,0,0,0,.334.782A1.3,1.3,0,0,0,69.319,15.233Zm10.327-3.059a5.731,5.731,0,0,1,1-3.542,3.237,3.237,0,0,1,2.729-1.318,2.913,2.913,0,0,1,2.294,1.037V3.5h2.549V17H85.922L85.8,15.989a2.989,2.989,0,0,1-2.443,1.187,3.228,3.228,0,0,1-2.694-1.323A5.916,5.916,0,0,1,79.646,12.175Zm2.54.189a3.754,3.754,0,0,0,.466,2.051,1.517,1.517,0,0,0,1.354.713,1.7,1.7,0,0,0,1.661-.995V10.375a1.675,1.675,0,0,0-1.644-.995Q82.187,9.38,82.187,12.364Zm12.375,4.812a4.668,4.668,0,0,1-3.406-1.283,4.561,4.561,0,0,1-1.314-3.419v-.246A5.745,5.745,0,0,1,90.4,9.666a4.064,4.064,0,0,1,1.569-1.74,4.4,4.4,0,0,1,2.316-.611,3.947,3.947,0,0,1,3.072,1.23,5,5,0,0,1,1.121,3.489v1.037H92.417a2.36,2.36,0,0,0,.743,1.494,2.245,2.245,0,0,0,1.569.563,2.742,2.742,0,0,0,2.294-1.063l1.248,1.4a3.813,3.813,0,0,1-1.547,1.261A5.075,5.075,0,0,1,94.562,17.176Zm-.29-7.813a1.587,1.587,0,0,0-1.226.512,2.651,2.651,0,0,0-.6,1.466h3.533v-.2a1.891,1.891,0,0,0-.457-1.311A1.638,1.638,0,0,0,94.271,9.362ZM105.091,17V9.354h-1.415V7.49h1.415V6.682a3.283,3.283,0,0,1,.918-2.483,3.557,3.557,0,0,1,2.571-.883,5.938,5.938,0,0,1,1.292.176l-.026,1.969a3.238,3.238,0,0,0-.773-.079q-1.433,0-1.433,1.345V7.49h1.89V9.354h-1.89V17Zm11.452-.967a3.185,3.185,0,0,1-2.6,1.143,3,3,0,0,1-2.333-.879,3.752,3.752,0,0,1-.822-2.575V7.49h2.54v6.151q0,1.487,1.354,1.487a1.834,1.834,0,0,0,1.775-.9V7.49H119V17h-2.391Zm6.715-8.543.079,1.1a3.32,3.32,0,0,1,2.733-1.274,2.759,2.759,0,0,1,2.25.888,4.142,4.142,0,0,1,.756,2.654V17h-2.54V10.918a1.648,1.648,0,0,0-.352-1.173,1.574,1.574,0,0,0-1.169-.365,1.747,1.747,0,0,0-1.608.914V17h-2.54V7.49Zm11.7,7.638a1.666,1.666,0,0,0,1.143-.387,1.355,1.355,0,0,0,.457-1.028h2.382a3.258,3.258,0,0,1-.527,1.771,3.48,3.48,0,0,1-1.419,1.248,4.442,4.442,0,0,1-1.991.444,4.129,4.129,0,0,1-3.217-1.3,5.13,5.13,0,0,1-1.178-3.582v-.167a5.071,5.071,0,0,1,1.169-3.507,4.08,4.08,0,0,1,3.208-1.31,4,4,0,0,1,2.861,1.015,3.594,3.594,0,0,1,1.094,2.7h-2.382a1.745,1.745,0,0,0-.457-1.206,1.7,1.7,0,0,0-2.5.183,3.749,3.749,0,0,0-.453,2.1v.264a3.8,3.8,0,0,0,.448,2.113A1.549,1.549,0,0,0,134.956,15.128ZM143.068,17H140.52V7.49h2.549Zm-2.7-11.971a1.251,1.251,0,0,1,.382-.94,1.648,1.648,0,0,1,2.079,0,1.244,1.244,0,0,1,.387.94,1.247,1.247,0,0,1-.391.949,1.629,1.629,0,0,1-2.065,0A1.247,1.247,0,0,1,140.37,5.029Zm4.395,7.128a5.64,5.64,0,0,1,.545-2.522,3.989,3.989,0,0,1,1.569-1.714,4.577,4.577,0,0,1,2.377-.606A4.33,4.33,0,0,1,152.4,8.492a4.727,4.727,0,0,1,1.358,3.2l.018.65a4.97,4.97,0,0,1-1.222,3.511,4.735,4.735,0,0,1-6.561,0,5.058,5.058,0,0,1-1.226-3.586Zm2.54.18a3.555,3.555,0,0,0,.51,2.073,1.831,1.831,0,0,0,2.9.009,3.89,3.89,0,0,0,.519-2.267,3.519,3.519,0,0,0-.519-2.06,1.686,1.686,0,0,0-1.459-.731,1.658,1.658,0,0,0-1.441.726A3.955,3.955,0,0,0,147.3,12.338ZM149.757,3.5h2.769l-2.435,2.725h-2.065Zm7.919,3.99.079,1.1a3.32,3.32,0,0,1,2.733-1.274,2.759,2.759,0,0,1,2.25.888,4.142,4.142,0,0,1,.756,2.654V17h-2.54V10.918a1.648,1.648,0,0,0-.352-1.173,1.574,1.574,0,0,0-1.169-.365,1.747,1.747,0,0,0-1.608.914V17h-2.54V7.49Zm11.83,4.685a5.731,5.731,0,0,1,1-3.542,3.237,3.237,0,0,1,2.729-1.318,2.913,2.913,0,0,1,2.294,1.037V3.5h2.549V17h-2.294l-.123-1.011a2.989,2.989,0,0,1-2.443,1.187,3.228,3.228,0,0,1-2.694-1.323A5.916,5.916,0,0,1,169.506,12.175Zm2.54.189a3.754,3.754,0,0,0,.466,2.051,1.517,1.517,0,0,0,1.354.713,1.7,1.7,0,0,0,1.661-.995V10.375a1.675,1.675,0,0,0-1.644-.995Q172.046,9.38,172.046,12.364Zm12.375,4.812a4.668,4.668,0,0,1-3.406-1.283,4.561,4.561,0,0,1-1.314-3.419v-.246a5.745,5.745,0,0,1,.554-2.562,4.064,4.064,0,0,1,1.569-1.74,4.4,4.4,0,0,1,2.316-.611,3.947,3.947,0,0,1,3.072,1.23,5,5,0,0,1,1.121,3.489v1.037h-6.056a2.36,2.36,0,0,0,.743,1.494,2.245,2.245,0,0,0,1.569.563,2.742,2.742,0,0,0,2.294-1.063l1.248,1.4a3.813,3.813,0,0,1-1.547,1.261A5.075,5.075,0,0,1,184.421,17.176Zm-.29-7.813a1.587,1.587,0,0,0-1.226.512,2.651,2.651,0,0,0-.6,1.466h3.533v-.2a1.891,1.891,0,0,0-.457-1.311A1.638,1.638,0,0,0,184.131,9.362ZM196.937,17h-2.549V3.5h2.549Zm7.6,0a2.821,2.821,0,0,1-.255-.853,3.073,3.073,0,0,1-2.4,1.028,3.376,3.376,0,0,1-2.316-.809,2.6,2.6,0,0,1-.918-2.039,2.687,2.687,0,0,1,1.121-2.32,5.529,5.529,0,0,1,3.239-.817h1.169v-.545a1.567,1.567,0,0,0-.338-1.055,1.331,1.331,0,0,0-1.068-.4,1.513,1.513,0,0,0-1.006.308,1.045,1.045,0,0,0-.365.844h-2.54a2.551,2.551,0,0,1,.51-1.529,3.37,3.37,0,0,1,1.441-1.1,5.253,5.253,0,0,1,2.092-.4,4.15,4.15,0,0,1,2.791.883,3.09,3.09,0,0,1,1.033,2.483V14.8a4.546,4.546,0,0,0,.378,2.048V17Zm-2.1-1.767a2.188,2.188,0,0,0,1.037-.25,1.645,1.645,0,0,0,.7-.672V12.676h-.949q-1.907,0-2.03,1.318l-.009.149a1.017,1.017,0,0,0,.334.782A1.3,1.3,0,0,0,202.438,15.233Zm11.391-.861a.818.818,0,0,0-.461-.734,5.241,5.241,0,0,0-1.481-.479q-3.393-.712-3.393-2.883a2.613,2.613,0,0,1,1.05-2.114,4.237,4.237,0,0,1,2.747-.848,4.56,4.56,0,0,1,2.9.853,2.687,2.687,0,0,1,1.085,2.215h-2.54a1.229,1.229,0,0,0-.352-.9,1.488,1.488,0,0,0-1.1-.356,1.52,1.52,0,0,0-.993.29.916.916,0,0,0-.352.738.783.783,0,0,0,.4.681,4.114,4.114,0,0,0,1.349.448,11.019,11.019,0,0,1,1.6.426,2.628,2.628,0,0,1,2.013,2.558,2.481,2.481,0,0,1-1.116,2.1,4.815,4.815,0,0,1-2.883.8,5.029,5.029,0,0,1-2.123-.426,3.561,3.561,0,0,1-1.455-1.169,2.716,2.716,0,0,1-.527-1.6H210.6a1.326,1.326,0,0,0,.5,1.037,1.987,1.987,0,0,0,1.248.36,1.839,1.839,0,0,0,1.1-.277A.861.861,0,0,0,213.829,14.372Zm17.147-2.039a5.7,5.7,0,0,1-1,3.52,3.2,3.2,0,0,1-2.694,1.323,2.963,2.963,0,0,1-2.329-1v4.482h-2.54V7.49h2.355l.088.932a2.985,2.985,0,0,1,2.408-1.107A3.22,3.22,0,0,1,230,8.615a5.858,5.858,0,0,1,.976,3.586Zm-2.54-.185a3.743,3.743,0,0,0-.47-2.048A1.532,1.532,0,0,0,226.6,9.38a1.663,1.663,0,0,0-1.644.914v3.894a1.692,1.692,0,0,0,1.661.94Q228.437,15.128,228.437,12.148Zm9.457-2.276a6.9,6.9,0,0,0-.914-.07,1.86,1.86,0,0,0-1.89.976V17h-2.54V7.49h2.4l.07,1.134a2.354,2.354,0,0,1,2.118-1.31,2.662,2.662,0,0,1,.791.114Zm.51,2.285a5.64,5.64,0,0,1,.545-2.522,3.989,3.989,0,0,1,1.569-1.714,4.577,4.577,0,0,1,2.377-.606,4.33,4.33,0,0,1,3.142,1.178,4.727,4.727,0,0,1,1.358,3.2l.018.65a4.97,4.97,0,0,1-1.222,3.511,4.735,4.735,0,0,1-6.561,0,5.058,5.058,0,0,1-1.226-3.586Zm2.54.18a3.555,3.555,0,0,0,.51,2.073,1.831,1.831,0,0,0,2.9.009,3.89,3.89,0,0,0,.519-2.267,3.519,3.519,0,0,0-.519-2.06,1.686,1.686,0,0,0-1.459-.731,1.658,1.658,0,0,0-1.441.726A3.955,3.955,0,0,0,240.943,12.338Zm11.074-7.185V7.49h1.626V9.354h-1.626V14.1a1.133,1.133,0,0,0,.2.756,1.015,1.015,0,0,0,.773.229,4.051,4.051,0,0,0,.747-.062v1.925a5.229,5.229,0,0,1-1.538.229,2.425,2.425,0,0,1-2.725-2.7V9.354h-1.389V7.49h1.389V5.152Zm7.418,12.023a4.668,4.668,0,0,1-3.406-1.283,4.561,4.561,0,0,1-1.314-3.419v-.246a5.745,5.745,0,0,1,.554-2.562,4.064,4.064,0,0,1,1.569-1.74,4.4,4.4,0,0,1,2.316-.611,3.947,3.947,0,0,1,3.072,1.23,5,5,0,0,1,1.121,3.489v1.037h-6.056a2.36,2.36,0,0,0,.743,1.494,2.245,2.245,0,0,0,1.569.563,2.742,2.742,0,0,0,2.294-1.063l1.248,1.4a3.813,3.813,0,0,1-1.547,1.261A5.075,5.075,0,0,1,259.436,17.176Zm-.29-7.813a1.587,1.587,0,0,0-1.226.512,2.651,2.651,0,0,0-.6,1.466h3.533v-.2a1.891,1.891,0,0,0-.457-1.311A1.638,1.638,0,0,0,259.146,9.362ZM267.53,17h-2.54V7.49h2.54Zm-.747-13.368h2.769l-2.435,2.725h-2.065Zm5.273,3.858.079,1.1a3.32,3.32,0,0,1,2.733-1.274,2.759,2.759,0,0,1,2.25.888,4.142,4.142,0,0,1,.756,2.654V17h-2.54V10.918a1.648,1.648,0,0,0-.352-1.173,1.574,1.574,0,0,0-1.169-.365,1.747,1.747,0,0,0-1.608.914V17h-2.54V7.49ZM285.311,17a2.821,2.821,0,0,1-.255-.853,3.073,3.073,0,0,1-2.4,1.028,3.376,3.376,0,0,1-2.316-.809,2.6,2.6,0,0,1-.918-2.039,2.687,2.687,0,0,1,1.121-2.32,5.529,5.529,0,0,1,3.239-.817h1.169v-.545a1.567,1.567,0,0,0-.338-1.055,1.331,1.331,0,0,0-1.068-.4,1.513,1.513,0,0,0-1.006.308,1.045,1.045,0,0,0-.365.844h-2.54a2.551,2.551,0,0,1,.51-1.529,3.37,3.37,0,0,1,1.441-1.1,5.253,5.253,0,0,1,2.092-.4,4.15,4.15,0,0,1,2.791.883,3.09,3.09,0,0,1,1.033,2.483V14.8a4.546,4.546,0,0,0,.378,2.048V17Zm-2.1-1.767a2.188,2.188,0,0,0,1.037-.25,1.645,1.645,0,0,0,.7-.672V12.676H284q-1.907,0-2.03,1.318l-.009.149a1.017,1.017,0,0,0,.334.782A1.3,1.3,0,0,0,283.21,15.233Zm11.391-.861a.818.818,0,0,0-.461-.734,5.241,5.241,0,0,0-1.481-.479q-3.393-.712-3.393-2.883a2.613,2.613,0,0,1,1.05-2.114,4.237,4.237,0,0,1,2.747-.848,4.56,4.56,0,0,1,2.9.853,2.687,2.687,0,0,1,1.085,2.215H294.5a1.229,1.229,0,0,0-.352-.9,1.488,1.488,0,0,0-1.1-.356,1.52,1.52,0,0,0-.993.29.916.916,0,0,0-.352.738.783.783,0,0,0,.4.681,4.114,4.114,0,0,0,1.349.448,11.019,11.019,0,0,1,1.6.426,2.628,2.628,0,0,1,2.013,2.558,2.481,2.481,0,0,1-1.116,2.1,4.815,4.815,0,0,1-2.883.8,5.029,5.029,0,0,1-2.123-.426,3.561,3.561,0,0,1-1.455-1.169,2.716,2.716,0,0,1-.527-1.6h2.408a1.326,1.326,0,0,0,.5,1.037,1.987,1.987,0,0,0,1.248.36,1.839,1.839,0,0,0,1.1-.277A.861.861,0,0,0,294.6,14.372Zm4.228,1.38a1.279,1.279,0,0,1,.409-.984,1.588,1.588,0,0,1,2.057,0,1.279,1.279,0,0,1,.409.984,1.261,1.261,0,0,1-.4.971,1.614,1.614,0,0,1-2.065,0A1.261,1.261,0,0,1,298.828,15.752Zm0-7.2a1.279,1.279,0,0,1,.409-.984,1.588,1.588,0,0,1,2.057,0,1.279,1.279,0,0,1,.409.984,1.261,1.261,0,0,1-.4.971,1.614,1.614,0,0,1-2.065,0A1.261,1.261,0,0,1,298.828,8.554Z" transform="translate(-9314.896 6052.485)" fill="#12263f"/>
  </g>
</svg>
