<svg xmlns="http://www.w3.org/2000/svg" width="70" height="75.958" viewBox="0 0 70 75.958">
  <g id="img-17" transform="translate(-21 -1)">
    <g id="Grupo_1101465" data-name="Grupo 1101465" transform="translate(21 1)">
      <path id="Trazado_879409" data-name="Trazado 879409" d="M71.638,38.234a19.4,19.4,0,0,0-3.389.3,8.947,8.947,0,0,0-8.526-6.255H47.01a5.929,5.929,0,0,0,.8-2.979,1.892,1.892,0,0,1,2.227-1.911c20.332,5.022,22.679-13.01,14.657-15.874a10.907,10.907,0,0,0-7.948.387V2.489A1.489,1.489,0,0,0,55.255,1H47.809a1.489,1.489,0,0,0-1.489,1.489V12.674a5.041,5.041,0,0,1-3.449,4.785,8.018,8.018,0,0,0-5.484,7.371h-7.45A8.933,8.933,0,0,0,25,41.21,8.936,8.936,0,0,0,29.936,57.6h8.248a5.919,5.919,0,0,0-.8,2.979V75.468a1.489,1.489,0,0,0,1.489,1.489h7.447a1.489,1.489,0,0,0,1.489-1.489V68.021a2.982,2.982,0,0,1,2.979-2.979h2.98A19.361,19.361,0,1,0,71.638,38.234ZM23.979,48.66A5.957,5.957,0,0,1,29.936,42.7h23.83a1.489,1.489,0,0,0,0-2.979H29.936a5.957,5.957,0,1,1,0-11.915h7.688a2.741,2.741,0,0,0,2.737-2.737,5.041,5.041,0,0,1,3.449-4.785A8.019,8.019,0,0,0,49.3,12.674V3.979h4.468V14.4a1.491,1.491,0,0,0,2.384,1.191c.036-.027,3.626-2.675,7.54-1.277C68.2,15.928,67.186,28.555,50.75,24.495a4.867,4.867,0,0,0-5.92,4.8,2.979,2.979,0,0,1-2.979,2.979H37.383a1.489,1.489,0,0,0,0,2.979h22.34a5.964,5.964,0,0,1,5.636,4.024,19.461,19.461,0,0,0-10.03,7.89H40.362a1.489,1.489,0,0,0,0,2.979H53.767a19.192,19.192,0,0,0-1.261,4.468H29.936A5.964,5.964,0,0,1,23.979,48.66Zm26.809,13.4a5.964,5.964,0,0,0-5.957,5.957v5.957H40.362v-13.4A2.982,2.982,0,0,1,43.34,57.6h8.936a19.348,19.348,0,0,0,.521,4.468ZM71.638,73.979A16.4,16.4,0,0,1,55.31,56.259h0a16.383,16.383,0,1,1,16.328,17.72Z" transform="translate(-21 -1)" fill="#567d56"/>
      <path id="Trazado_879410" data-name="Trazado 879410" d="M284.4,291a13.4,13.4,0,1,0,13.4,13.4A13.419,13.419,0,0,0,284.4,291Zm0,23.83A10.426,10.426,0,1,1,294.83,304.4,10.437,10.437,0,0,1,284.4,314.83Z" transform="translate(-233.766 -247.809)" fill="#567d56"/>
      <path id="Trazado_879411" data-name="Trazado 879411" d="M335.468,331a4.468,4.468,0,1,0,4.468,4.468A4.473,4.473,0,0,0,335.468,331Zm0,5.957a1.489,1.489,0,1,1,1.489-1.489A1.491,1.491,0,0,1,335.468,336.957Z" transform="translate(-284.83 -281.851)" fill="#567d56"/>
      <circle id="Elipse_11627" data-name="Elipse 11627" cx="1.489" cy="1.489" r="1.489" transform="translate(47.981 60.915)" fill="#567d56"/>
    </g>
  </g>
</svg>
