<svg xmlns="http://www.w3.org/2000/svg" width="75.051" height="80.431" viewBox="0 0 75.051 80.431">
  <g id="img-15" transform="translate(-531.949 -7764.641)">
    <path id="Trazado_879421" data-name="Trazado 879421" d="M21.652,26.227a1.257,1.257,0,1,0,2.15,1.3,13.069,13.069,0,0,1,1-1.418,1.257,1.257,0,0,0,.091-1.448c-.026-.043-2.6-4.282-1.5-7.969a6.753,6.753,0,0,1,3.946-4.1,1.257,1.257,0,0,0,.707-.914c.009-.047.9-4.715,4.258-6.562,1.894-1.041,4.29-.987,7.121.16a1.257,1.257,0,0,0,1.338-.254,6.956,6.956,0,0,1,10.092.312,1.257,1.257,0,0,0,1.567.3c2.858-1.557,5.556-2.093,7.8-1.552a5.705,5.705,0,0,1,2.536,1.266,1.257,1.257,0,0,0,1.858-.035,7.175,7.175,0,0,1,5.353-2.8c3.491,0,6.41,3.024,6.438,3.053a1.257,1.257,0,0,0,1.551.221c.071-.042,7.135-4.124,10.709-.074a12.041,12.041,0,0,1,1.079,11.865A1.257,1.257,0,0,0,89.924,19a12.05,12.05,0,0,1,2.405,4.041,1.257,1.257,0,0,0,2.376-.82,14.32,14.32,0,0,0-2.373-4.261A14.6,14.6,0,0,0,90.711,4.238a1.3,1.3,0,0,0-.086-.112C87.363.335,82,1,77.535,3.176,73.183-.6,67.851-1.347,63.553,2.794c-1.731-1.125-5.594-2.68-11.466.186a9.485,9.485,0,0,0-12.446-.314c-3.262-1.161-6.133-1.079-8.543.246C27.517,4.88,26.136,9,25.723,10.587c-5.784,3.011-6.307,8.9-3.4,14.623-.245.339-.472.679-.676,1.017Z" transform="translate(511.898 7764.641)" fill="#567d56"/>
    <path id="Trazado_879422" data-name="Trazado 879422" d="M98.114,98.539a1.256,1.256,0,0,0-1.5.95c-.6,2.671-1.337,2.844-1.05,3.738,2.775,8.657-4.385,13.44-4.688,13.637a1.257,1.257,0,0,0-.565,1.228c.494,3.585-.119,6.429-1.824,8.455-2.7,3.214-7.355,3.411-7.4,3.413a1.257,1.257,0,0,0-1.138.811c-1.079,2.852-2.655,4.635-4.682,5.3-3.584,1.176-7.6-1.389-7.642-1.413a1.258,1.258,0,0,0-1.931,1.235c.011.072.977,7.029-3.087,12.008h-1.5c-3.7-8.515-6.942-22.961,2.167-24.3,2.29-.336,4.887.416,7.736,2.234.708.452,1.121.894,1.85.66,1.976-.637-.188-5.324,7.339-7.031a1.257,1.257,0,0,0,.941-1.53c-1.187-4.76-.428-8.146,4.138-10.145a1.257,1.257,0,0,0,.692-1.524,13.221,13.221,0,0,1-.232-7.468c.731-2.707,1.68-2.941,1.424-3.918-.238-.91-.961-.732-2.189-1.78a7.212,7.212,0,0,1-2.333-4.549,12.839,12.839,0,0,1,.035-4.014A1.258,1.258,0,0,0,81.5,83.029c-.9-.038-.879.614-2.624,1.542-3.6,1.916-8.492,1.149-12.229-.3-.815-.315-1.363-.688-2.041-.165a10.3,10.3,0,0,1-6.811,2.268,11.278,11.278,0,0,1-4.984-1.41c-1.142-.715-1.864.853-5.36.676a10.193,10.193,0,0,1-5.784-2.25,1.257,1.257,0,0,0-2.056,1.182,5.8,5.8,0,0,1-.587,4.145,5.157,5.157,0,0,1-2.156,1.943,1.257,1.257,0,0,0-.589,1.831,12.228,12.228,0,0,1,2.141,7.524,8.826,8.826,0,0,1-1.4,4.079,1.257,1.257,0,0,0,.687,2.011c6.7,1.6,7.516,11.042,5.206,13.709-1.124,1.3-.748,3.676-.522,5.513.217,1.761.514,4.173-.224,4.858a1.765,1.765,0,0,1-2.189-.056c-1.159-.79-.642-3.668-.3-5.573.324-1.8.537-2.994-.251-3.74a1.581,1.581,0,0,0-1.481-.369c-7.356,1.749-9.221-7.8-6.836-9.737a1.258,1.258,0,0,0-.125-2.039,11.732,11.732,0,0,1-3.32-3.428,1.257,1.257,0,0,0-2.144,1.311,14.086,14.086,0,0,0,2.991,3.4c-2.653,4.472.654,14.167,8.865,13.148-.395,2.557-1.649,7.173,1.185,9.1a4.151,4.151,0,0,0,5.316-.18c2.147-1.994.965-6.147.8-9.081a18.688,18.688,0,0,0,11.089,4.044c-3.151,8.754,3.108,22.1,3.4,22.706a1.257,1.257,0,0,0,1.135.717h2.889a1.257,1.257,0,0,0,.936-.418c3.626-4.048,4.2-9.233,4.2-12.173,5.821,2.435,11.012.795,13.682-5.423a13.283,13.283,0,0,0,8.391-4.215c2.066-2.443,2.9-5.7,2.5-9.684A14.278,14.278,0,0,0,98.1,102.948a15.346,15.346,0,0,0,.96-2.908A1.257,1.257,0,0,0,98.114,98.539ZM71.775,123.351a20.026,20.026,0,0,0-2.172-1.129,5.544,5.544,0,0,0,.15-3.957,17.907,17.907,0,0,0,5.216-3.881,8.521,8.521,0,0,0,2.051-7.9c-.8-2.62-3.657-5.877-7.81-7.288a.324.324,0,0,1-.026-.6c2.354-1.178,9.186-4.6,8.134-10.753a11.725,11.725,0,0,0,2.673-1.007,11.017,11.017,0,0,0,2.544,7.386,9.056,9.056,0,0,1-4.3,2.8,3.123,3.123,0,0,0-1.206,5.092,9.651,9.651,0,0,1,2.8,6.733c-1.813,2.461-1.951,5.5-1.386,8.486C73.784,118.729,72.44,121.373,71.775,123.351ZM55.794,102.479A8.511,8.511,0,0,0,50.341,104a5.962,5.962,0,0,0-1.9,2.772c-1.588-1.717-3.671-2.016-5.458-.521a9.8,9.8,0,0,0-3.11-2.075,11.14,11.14,0,0,0,.734-2.029c6.038,2.607,10.592.286,10.825-7.5.12-4.015,5.353-5.533,6.278-5.77a12.7,12.7,0,0,0,7.825-2.336,24.878,24.878,0,0,0,4.456,1.318c-2.013,3.24-6.645,4.794-10.411,5.307-4.749.647-5.714,4.95-3.786,9.31ZM83.84,96.56a15.343,15.343,0,0,0-.559,9.41,12.5,12.5,0,0,0-1.133.681,12.513,12.513,0,0,0-3.3-6.267.609.609,0,0,1,.227-1A12.528,12.528,0,0,0,83.84,96.56ZM53.329,87.976c-2.527,1.44-4.321,3.683-4.409,6.6-.091,3.028-.837,4.942-2.218,5.689-1.706.923-4.309,0-5.735-.711a14.493,14.493,0,0,0-1.9-7.265,7.71,7.71,0,0,0,2.817-3.84,10.127,10.127,0,0,1,.919,6.719,1.257,1.257,0,1,0,2.429.645,12.463,12.463,0,0,0-.966-8.215,11.742,11.742,0,0,0,7.794-.176A13.378,13.378,0,0,0,53.329,87.976Zm-7.8,32.421c1.5-2.833,1.507-7.892-.775-11.836.038-.2.087-.4.144-.593.783-.547,1.86.662,2.12,1.067a10.263,10.263,0,0,1,1.242,2.383c1.591,5.093,5.388,7.582,10.92,7.278a1.257,1.257,0,0,0-.138-2.51c-2.75.15-4.859-.487-6.342-1.964-2.83-2.816-2.555-6.939-.859-8.2a6.28,6.28,0,0,1,4.427-.988c2.277.242,3.136.839,10.465,4.543a1.257,1.257,0,1,0,1.134-2.243c-6.894-3.486-7.455-3.822-8.9-4.285-1.553-2.249-1.877-4.689-1.367-5.909a2.624,2.624,0,0,1,2.317-1.477c2.946-.4,7.1-1.442,10.166-4.118A9.55,9.55,0,0,0,72.64,88.21a17.212,17.212,0,0,0,2.189.006c.531,3.005-1.605,5.548-6.771,8.133a2.839,2.839,0,0,0,.342,5.227c3.366,1.143,5.646,3.789,6.216,5.646a6.092,6.092,0,0,1-1.547,5.514,15.6,15.6,0,0,1-4.471,3.3c-1.549-2.135-4.334-4.12-8.332-5.928a1.257,1.257,0,0,0-1.036,2.29c2.956,1.337,7.769,4,8.26,7.212a2.8,2.8,0,0,1-.276,1.78c-4.435-1.131-8.17.489-10.152,3.087A16.43,16.43,0,0,1,45.531,120.4Z" transform="translate(507.905 7694.656)" fill="#567d56"/>
    <path id="Trazado_879423" data-name="Trazado 879423" d="M19.541,192.427a1.256,1.256,0,1,0-1.642,1.64A1.257,1.257,0,0,0,19.541,192.427Z" transform="translate(514.825 7603.096)" fill="#567d56"/>
  </g>
</svg>
