<svg xmlns="http://www.w3.org/2000/svg" width="77.998" height="69.882" viewBox="0 0 77.998 69.882">
  <g id="img-19" transform="translate(-2164.002 -7755.423)">
    <g id="dieta" transform="translate(2164.002 7728.786)">
      <g id="Grupo_1101471" data-name="Grupo 1101471" transform="translate(23.979 51.719)">
        <g id="Grupo_1101470" data-name="Grupo 1101470" transform="translate(0 0)">
          <path id="Trazado_879424" data-name="Trazado 879424" d="M163.581,192.436a3.556,3.556,0,0,0-6.179,2.339,1.143,1.143,0,0,0,1.123,1.162h.02a1.143,1.143,0,0,0,1.142-1.123,1.269,1.269,0,0,1,1.292-1.248,1.254,1.254,0,0,1,.915.412,1.143,1.143,0,1,0,1.687-1.541Z" transform="translate(-157.402 -191.28)" fill="#567d56"/>
        </g>
      </g>
      <g id="Grupo_1101473" data-name="Grupo 1101473" transform="translate(30.101 54.614)">
        <g id="Grupo_1101472" data-name="Grupo 1101472">
          <path id="Trazado_879425" data-name="Trazado 879425" d="M203.729,212.267a3.264,3.264,0,0,0-6.064.145,1.143,1.143,0,1,0,2.142.795.983.983,0,0,1,1.259-.578.965.965,0,0,1,.559.533,1.143,1.143,0,0,0,2.1-.894Z" transform="translate(-197.594 -210.283)" fill="#567d56"/>
        </g>
      </g>
      <g id="Grupo_1101475" data-name="Grupo 1101475" transform="translate(40.574 46.145)">
        <g id="Grupo_1101474" data-name="Grupo 1101474">
          <path id="Trazado_879426" data-name="Trazado 879426" d="M269.365,155.027a1.142,1.142,0,0,0-1.616,0l-1.077,1.079a1.142,1.142,0,0,0,1.617,1.614l1.077-1.079A1.142,1.142,0,0,0,269.365,155.027Z" transform="translate(-266.339 -154.693)" fill="#567d56"/>
        </g>
      </g>
      <g id="Grupo_1101477" data-name="Grupo 1101477" transform="translate(33.827 61.229)">
        <g id="Grupo_1101476" data-name="Grupo 1101476">
          <path id="Trazado_879427" data-name="Trazado 879427" d="M224.714,253.709h-1.523a1.143,1.143,0,0,0,0,2.285h1.523a1.143,1.143,0,1,0,0-2.285Z" transform="translate(-222.049 -253.709)" fill="#567d56"/>
        </g>
      </g>
      <g id="Grupo_1101479" data-name="Grupo 1101479" transform="translate(45.503 61.229)">
        <g id="Grupo_1101478" data-name="Grupo 1101478">
          <path id="Trazado_879428" data-name="Trazado 879428" d="M301.357,253.709h-1.523a1.143,1.143,0,0,0,0,2.285h1.523a1.143,1.143,0,0,0,0-2.285Z" transform="translate(-298.692 -253.709)" fill="#567d56"/>
        </g>
      </g>
      <g id="Grupo_1101481" data-name="Grupo 1101481" transform="translate(0 26.637)">
        <g id="Grupo_1101480" data-name="Grupo 1101480">
          <path id="Trazado_879429" data-name="Trazado 879429" d="M77.961,81.83l-.3-1.606a2.168,2.168,0,0,0-2.524-1.735L69.083,79.6l2.743-1.834a2.159,2.159,0,0,0,.682-2.86l-.83-1.47a2.161,2.161,0,0,0-2.17-1.082,28.9,28.9,0,0,0,.463-5.16,1.911,1.911,0,0,0-1.136-1.744,8.761,8.761,0,0,0,.07-6.63,1.387,1.387,0,0,0-.775-.777,8.692,8.692,0,0,0-3.23-.62q-.213,0-.424.01a6.023,6.023,0,0,0-7.257-5.605,9.414,9.414,0,0,0-.533-5.029,1.4,1.4,0,0,0-.79-.8,9.391,9.391,0,0,0-8.488.778,11.3,11.3,0,0,0-2.69-4.3,1.939,1.939,0,0,0-2.746,0l-5.532,5.545a5.743,5.743,0,0,0-3.833-1.459A5.778,5.778,0,0,0,28.483,48.3a5.742,5.742,0,0,0-4.26-.3V43.72a5.394,5.394,0,0,0-5.29-5.391V35.906a1.906,1.906,0,0,0,1.579-1.874v-5.49a1.906,1.906,0,0,0-1.9-1.9H9.316a1.906,1.906,0,0,0-1.9,1.9v5.49a1.906,1.906,0,0,0,1.579,1.874v2.423A5.394,5.394,0,0,0,3.7,43.719V77.066A10.914,10.914,0,0,0,0,85.179c0,6.253,5.488,11.34,12.234,11.34l45.73-.013a5.23,5.23,0,0,0,5.175-6.047L72.273,92.1a2.183,2.183,0,0,0,.384.034A2.166,2.166,0,0,0,74.8,90.289l.247-1.66A2.16,2.16,0,0,0,73.39,86.2l-3.219-.739,6.051-1.112a2.164,2.164,0,0,0,1.739-2.521ZM64.9,59.71a6.407,6.407,0,0,1,2.014.324,6.471,6.471,0,0,1-.546,5.254H63.29l.982-.984a1.143,1.143,0,0,0-1.618-1.614l-.52.521A5.3,5.3,0,0,0,60.907,61.1,6.389,6.389,0,0,1,64.9,59.71Zm-6.443-5.724A3.752,3.752,0,0,1,62.2,57.739c0,.038,0,.076,0,.114a8.681,8.681,0,0,0-3.261,1.935c-.151-.057-.3-.11-.46-.154a5.3,5.3,0,0,0-3.158-3.929A3.736,3.736,0,0,1,58.457,53.985Zm-6.04-6.364a7.078,7.078,0,0,1,2.274.374,7.158,7.158,0,0,1-.283,5.277A6.068,6.068,0,0,0,52.944,55.3a5.391,5.391,0,0,0-.61.069,5.335,5.335,0,0,0-2.429,1.108,6.047,6.047,0,0,0-.864-1.2l2.62-2.626a1.143,1.143,0,0,0-1.618-1.614l-2.864,2.87a5.972,5.972,0,0,0-1.753-.521,7.131,7.131,0,0,1,6.989-5.767ZM43.662,65.287h-.99a1.141,1.141,0,0,0-2.126,0H39.381a1.142,1.142,0,0,0-1.782-1.4l-1.077,1.079a1.137,1.137,0,0,0-.226.325H33.971a9.037,9.037,0,0,1-1.465-4.611H50.632a9.037,9.037,0,0,1-1.465,4.611h-2.42a1.138,1.138,0,0,0-.226-.325l-1.077-1.079a1.142,1.142,0,0,0-1.782,1.4ZM41,58.391a3.739,3.739,0,0,1,7.224,0Zm2.336-14.049A9.035,9.035,0,0,1,45.5,48.377a9.41,9.41,0,0,0-1.45,2.08,1.135,1.135,0,0,0-.6-.169H41.931a1.143,1.143,0,0,0,0,2.285h1.336a9.461,9.461,0,0,0-.176.957,5.975,5.975,0,0,0-1.292.5,5.768,5.768,0,0,0-3.517-2.687l0-.01a5.784,5.784,0,0,0-.459-1.464ZM22.687,54.652a3.448,3.448,0,0,1-.151-.572,3.487,3.487,0,0,1,2.838-4.024,3.525,3.525,0,0,1,.6-.052,3.453,3.453,0,0,1,2.08.694,1.143,1.143,0,0,0,1.636-.284A3.46,3.46,0,0,1,32,48.9a3.525,3.525,0,0,1,.6-.052,3.465,3.465,0,0,1,3.421,2.88,3.5,3.5,0,0,1,.051.592,1.143,1.143,0,0,0,1.043,1.136,3.477,3.477,0,0,1,2.869,2.049,6.024,6.024,0,0,0-1.32,2.885H32.154a1.942,1.942,0,0,0-1.8,1.208,8.719,8.719,0,0,0-8.124-.882,1.385,1.385,0,0,0-.774.776,8.753,8.753,0,0,0-.533,2.031,3.476,3.476,0,0,1,1.162-5.45A1.143,1.143,0,0,0,22.687,54.652Zm3.406,10.323.312.312H23.661a6.474,6.474,0,0,1-.209-4.582,6.428,6.428,0,0,1,7.029,2.08,11.287,11.287,0,0,0,.874,2.5H29.633l-1.922-1.926a1.143,1.143,0,0,0-1.618,1.614Zm-4.866.312H17.155a3.758,3.758,0,0,1,1.771-2.607,5.744,5.744,0,0,0,2.084,1.727A8.837,8.837,0,0,0,21.228,65.287ZM9.7,28.922h8.53v4.728H9.7Zm6.95,7.014v2.391H11.276V35.936ZM5.986,48.353h7.419a1.143,1.143,0,0,0,0-2.285H5.986V43.719a3.107,3.107,0,0,1,3.1-3.108h9.754a3.107,3.107,0,0,1,3.1,3.108v2.348H19.8a1.143,1.143,0,0,0,0,2.285h2.133v1.014a5.759,5.759,0,0,0-1.653,5.1l0,.012a5.774,5.774,0,0,0-2.421,5.738c.023.131.051.26.082.387a6.058,6.058,0,0,0-1.523,1.2H5.986Zm0,15.734H15.1a5.994,5.994,0,0,0-.249,1.2h-.193A1.91,1.91,0,0,0,12.75,67.2a28.913,28.913,0,0,0,.5,5.338c-.328-.026-.665-.041-1.007-.041a10.411,10.411,0,0,0-3.707.617c-1.542.609-1.969,1.474-2.062,2.072-.163.081-.324.167-.483.255V64.087ZM20.454,78.123a4.326,4.326,0,0,1,.809.811H21.22a7.1,7.1,0,0,1-3.13-.992,8.234,8.234,0,0,1-1.311-.89,1.143,1.143,0,0,0-1.477,0,8.187,8.187,0,0,1-1.31.89,7.1,7.1,0,0,1-3.13.992H10.82a4.32,4.32,0,0,1,.809-.811,1.143,1.143,0,0,0-.581-2.027,5.458,5.458,0,0,1-2.15-.621,6.508,6.508,0,0,1,3.341-.7,7.122,7.122,0,0,1,3.244.634,1.143,1.143,0,0,0,1.119,0,7.125,7.125,0,0,1,3.244-.634,6.507,6.507,0,0,1,3.341.7,5.455,5.455,0,0,1-2.15.621,1.143,1.143,0,0,0-.581,2.027ZM18.169,92.03l.039.212a5.2,5.2,0,0,0,.823,1.993h-6.8c-5.486,0-9.949-4.062-9.949-9.055a8.975,8.975,0,0,1,5.156-7.932,4.909,4.909,0,0,0,1.314.673,2.707,2.707,0,0,0-.385,1.129,1.861,1.861,0,0,0,.454,1.409,2.593,2.593,0,0,0,2.038.76A9.436,9.436,0,0,0,15.1,79.941q.5-.276.942-.582.442.3.942.582A9.44,9.44,0,0,0,21.22,81.22h0a2.593,2.593,0,0,0,2.038-.76,1.86,1.86,0,0,0,.454-1.409,2.707,2.707,0,0,0-.385-1.129,4.919,4.919,0,0,0,1.314-.673,9.244,9.244,0,0,1,4.9,5.878L21.458,86.2A5.224,5.224,0,0,0,18.169,92.03Zm42.069,1.129a2.956,2.956,0,0,1-2.275,1.062h-1.2l-.749-4.045a1.143,1.143,0,0,0-2.247.416l.672,3.63-3.931,0L50,91.488a1.143,1.143,0,0,0-2.247.416l.43,2.32-9.144,0-.688-3.715a1.143,1.143,0,0,0-2.247.416l.611,3.3-13.352.005h0a2.954,2.954,0,0,1-2.91-2.409l-.039-.212a2.94,2.94,0,0,1,1.854-3.281l4.491-1.706.335,1.806a1.143,1.143,0,0,0,1.122.935,1.158,1.158,0,0,0,.21-.019,1.143,1.143,0,0,0,.915-1.332l-.41-2.214L35.6,83.269a1.143,1.143,0,0,0-.811-2.136l-3.1,1.178a11.578,11.578,0,0,0-6.07-7.129c-.093-.6-.519-1.463-2.062-2.072a10.411,10.411,0,0,0-3.707-.617,11.591,11.591,0,0,0-2.661.3V72.1a1.142,1.142,0,0,0-1.848-.9,26.691,26.691,0,0,1-.3-3.63H52.252a1.143,1.143,0,1,0,0-2.285h-.468a11.31,11.31,0,0,0,1.139-4.954A1.944,1.944,0,0,0,51.169,58.4a3.011,3.011,0,0,1,1.557-.779,3.083,3.083,0,0,1,.526-.046,3.019,3.019,0,0,1,2.98,2.509,3.056,3.056,0,0,1,.044.516,1.143,1.143,0,0,0,1.043,1.137,3.029,3.029,0,0,1,2.717,2.5,2.986,2.986,0,0,1-.008,1.053H58.8a1.143,1.143,0,1,0,0,2.285h8.88a26.336,26.336,0,0,1-.8,6.13L60.69,77.357a5.245,5.245,0,0,0-6.906-3.441L41.031,78.76a1.143,1.143,0,0,0,.811,2.136l1.68-.638.522,2.816a1.143,1.143,0,0,0,1.122.935,1.157,1.157,0,0,0,.209-.019,1.143,1.143,0,0,0,.915-1.331l-.6-3.225,8.9-3.381a2.965,2.965,0,0,1,2.507.184,2.936,2.936,0,0,1,1.459,2.031l2.311,12.479A2.922,2.922,0,0,1,60.238,93.159Zm4.077-8.943a1.142,1.142,0,0,0-.049,2.237L72.772,88.4,72.56,89.83,62.7,88.058l-1.542-8.323,8.59-5.07.716,1.267-7.245,4.843a1.143,1.143,0,0,0,.842,2.074l11.381-2.091.253,1.368Z" transform="translate(0 -26.637)" fill="#567d56"/>
        </g>
      </g>
    </g>
  </g>
</svg>
