<svg xmlns="http://www.w3.org/2000/svg" width="76" height="61.129" viewBox="0 0 76 61.129">
  <g id="img-18" transform="translate(-1844.699 -7759.109)">
    <path id="respirar" d="M51.734,19.325a1.325,1.325,0,1,0-2.651,0v14.5A6.627,6.627,0,0,0,51.333,38.8l6.485,5.707a1.325,1.325,0,1,0,1.751-1.99l-6.485-5.707a5.65,5.65,0,0,1-1.349-3.688c0-1.143,2.428-2.64,5.4-2.869a9.091,9.091,0,0,1,3.507.652,21.555,21.555,0,0,1,4.721,2.439,23.528,23.528,0,0,1,8.353,9.712A91.215,91.215,0,0,1,79.1,59.823a53.8,53.8,0,0,1,1.215,8.62,17.278,17.278,0,0,1-.667,6.43,2.085,2.085,0,0,1-1.044,1.215,4.578,4.578,0,0,1-2.189.388A21.04,21.04,0,0,1,69.2,74.523c-5.48-2.354-11.191-6.239-13.515-8.718-1.657-1.768-2.549-5.115-2.877-8.917a47.842,47.842,0,0,1,.027-7.915l3.023,2.519a1.325,1.325,0,1,0,1.7-2.036l-8.535-7.113a6.627,6.627,0,0,0-8.485,0L32,49.456a1.325,1.325,0,1,0,1.7,2.036l3.44-2.867a48.01,48.01,0,0,1,.058,8.262c-.329,3.8-1.22,7.149-2.877,8.917-2.324,2.479-8.035,6.364-13.515,8.718a21.038,21.038,0,0,1-7.218,1.954,4.578,4.578,0,0,1-2.189-.388,2.086,2.086,0,0,1-1.044-1.215,17.284,17.284,0,0,1-.667-6.43,53.8,53.8,0,0,1,1.214-8.62A91.225,91.225,0,0,1,16.281,43.06a23.53,23.53,0,0,1,8.353-9.712,21.555,21.555,0,0,1,4.721-2.439,9.091,9.091,0,0,1,3.507-.652c2.975.229,5.618,2.323,5.618,3.064a5.147,5.147,0,0,1-1.35,3.493L30.645,42.52A1.325,1.325,0,1,0,32.4,44.51L38.882,38.8a6.627,6.627,0,0,0,2.249-4.975v-14.5a1.325,1.325,0,1,0-2.651,0v10.3a10.4,10.4,0,0,0-5.414-2.007,11.625,11.625,0,0,0-4.6.8,24.2,24.2,0,0,0-5.313,2.739,26.177,26.177,0,0,0-9.293,10.833A93.85,93.85,0,0,0,8.306,59.267a56.4,56.4,0,0,0-1.271,9.056,19.805,19.805,0,0,0,.824,7.456,4.732,4.732,0,0,0,2.32,2.666,7.168,7.168,0,0,0,3.466.682,23.53,23.53,0,0,0,8.2-2.168c5.7-2.451,11.757-6.519,14.4-9.341,2.319-2.474,3.25-6.637,3.584-10.5a50.474,50.474,0,0,0-.256-10.466c0-.018-.005-.036-.008-.054l2.66-2.216a3.976,3.976,0,0,1,5.091,0l3.062,2.552a50.636,50.636,0,0,0-.219,10.184c.334,3.864,1.265,8.028,3.584,10.5,2.646,2.822,8.7,6.891,14.4,9.341a23.527,23.527,0,0,0,8.2,2.168,7.167,7.167,0,0,0,3.466-.682,4.729,4.729,0,0,0,2.32-2.666,19.809,19.809,0,0,0,.824-7.456,56.407,56.407,0,0,0-1.271-9.056,93.81,93.81,0,0,0-5.552-17.284A26.176,26.176,0,0,0,66.849,31.15a24.194,24.194,0,0,0-5.313-2.739,11.624,11.624,0,0,0-4.6-.8,10.412,10.412,0,0,0-5.2,1.853Z" transform="translate(1837.699 7741.109)" fill="#567d56"/>
  </g>
</svg>
