<svg xmlns="http://www.w3.org/2000/svg" width="66.916" height="80.283" viewBox="0 0 66.916 80.283">
  <g id="img-16" transform="translate(-7 -2)">
    <path id="Trazado_879412" data-name="Trazado 879412" d="M44.395,46.789a17.395,17.395,0,1,1,0-34.789,17.121,17.121,0,0,1,6.3,1.191,1.343,1.343,0,1,1-.977,2.5,14.477,14.477,0,0,0-5.325-1A14.716,14.716,0,1,0,54.055,18.3a1.337,1.337,0,0,1,1.753-2.02A17.393,17.393,0,0,1,44.381,46.789Z" transform="translate(6.761 3.38)" fill="#567d56"/>
    <path id="Trazado_879413" data-name="Trazado 879413" d="M40.352,32.538a1.347,1.347,0,0,1-.95-.388l-4.683-4.683a1.334,1.334,0,0,1,1.887-1.887l3.653,3.653,6.864-8.242A1.34,1.34,0,0,1,49.183,22.7l-7.8,9.366a1.3,1.3,0,0,1-.963.482h-.054Z" transform="translate(9.238 6.258)" fill="#567d56"/>
    <g id="Grupo_1101466" data-name="Grupo 1101466" transform="translate(7 2)">
      <path id="Trazado_879414" data-name="Trazado 879414" d="M40.286,12.7h-.12a1.337,1.337,0,0,1-1.2-1.458,12.153,12.153,0,0,0,.067-1.218V3.338a1.338,1.338,0,1,1,2.676,0v6.69c0,.5-.027.977-.067,1.458A1.339,1.339,0,0,1,40.3,12.7Z" transform="translate(3.803 -2)" fill="#567d56"/>
      <path id="Trazado_879415" data-name="Trazado 879415" d="M32.7,14.042H23.338a1.338,1.338,0,0,1,0-2.676H32.7a1.342,1.342,0,0,0,1.338-1.338V3.338a1.338,1.338,0,0,1,2.676,0v6.69A4.026,4.026,0,0,1,32.7,14.042Z" transform="translate(-1.929 -2)" fill="#567d56"/>
      <path id="Trazado_879416" data-name="Trazado 879416" d="M30.817,38.437h-9.1A14.718,14.718,0,1,1,21.718,9h1.338a1.338,1.338,0,1,1,0,2.676H21.718a12.042,12.042,0,1,0,0,24.085h9.1a1.338,1.338,0,0,1,0,2.676Z" transform="translate(-7 0.366)" fill="#567d56"/>
      <path id="Trazado_879417" data-name="Trazado 879417" d="M28.409,62.437h-6.69a14.718,14.718,0,1,1,0-29.437H33.44a1.338,1.338,0,1,1,0,2.676H21.718a12.042,12.042,0,1,0,0,24.085h6.69a1.338,1.338,0,0,1,0,2.676Z" transform="translate(-7 8.479)" fill="#567d56"/>
      <path id="Trazado_879418" data-name="Trazado 879418" d="M34.028,65.042A1.342,1.342,0,0,1,32.69,63.7v-6.69a1.342,1.342,0,0,0-1.338-1.338H27.338a1.338,1.338,0,0,1,0-2.676h4.014a4.026,4.026,0,0,1,4.014,4.014V63.7A1.342,1.342,0,0,1,34.028,65.042Z" transform="translate(-0.577 15.24)" fill="#567d56"/>
      <path id="Trazado_879419" data-name="Trazado 879419" d="M48.451,73.52a1.342,1.342,0,0,1-1.338-1.338v-6.69A12.061,12.061,0,0,0,35.071,53.449H19.014a4.014,4.014,0,1,1,0-8.028H56.479A12.061,12.061,0,0,0,68.522,33.379a12.463,12.463,0,0,0-.575-3.706,1.341,1.341,0,0,1,2.556-.816,14.793,14.793,0,0,1,.709,4.523A14.71,14.71,0,0,1,56.493,48.1H19.028a1.338,1.338,0,0,0,0,2.676H35.084A14.727,14.727,0,0,1,49.8,65.492v6.69a1.342,1.342,0,0,1-1.338,1.338Z" transform="translate(-4.296 6.763)" fill="#567d56"/>
      <path id="Trazado_879420" data-name="Trazado 879420" d="M27.417,25.028h-8.4a3.975,3.975,0,0,1-2.85-1.191A3.9,3.9,0,0,1,15,21.014,4.026,4.026,0,0,1,19.014,17H29.2a1.338,1.338,0,0,1,0,2.676H19.014a1.342,1.342,0,0,0-1.338,1.338,1.242,1.242,0,0,0,.388.923,1.343,1.343,0,0,0,.95.415h8.4a1.338,1.338,0,1,1,0,2.676Z" transform="translate(-4.296 3.071)" fill="#567d56"/>
    </g>
  </g>
</svg>
